<svg width="101" height="100" viewBox="0 0 101 100" fill="none" xmlns="http://www.w3.org/2000/svg">
<path d="M86.2113 35.2263L75.0158 46.4218C69.6216 51.8104 60.8792 51.8104 55.4916 46.4218C52.9029 43.8325 51.4486 40.3211 51.4486 36.6597C51.4486 32.9983 52.9029 29.4869 55.4916 26.8976L68.5977 13.7906C73.6867 8.70247 70.0844 1.13442e-07 62.8872 1.13442e-07H15.1707C13.1783 -0.000243534 11.2055 0.391991 9.36481 1.1543C7.52411 1.91661 5.85161 3.03406 4.44284 4.44284C3.03406 5.85161 1.91661 7.52411 1.1543 9.36481C0.391991 11.2055 -0.000243534 13.1783 1.13442e-07 15.1707V84.8238C0.000737811 88.8485 1.59989 92.7082 4.44583 95.5542C7.29176 98.4001 11.1515 99.9993 15.1762 100H84.8293C86.8221 100.001 88.7954 99.6089 90.6366 98.8468C92.4778 98.0847 94.1509 96.9674 95.5602 95.5586C96.9695 94.1498 98.0875 92.4771 98.8502 90.6362C99.613 88.7952 100.006 86.8221 100.006 84.8293V40.9432C100.002 33.7451 91.2994 30.1373 86.2113 35.2263ZM39.5288 72.5162C37.1344 72.5162 34.7937 71.8062 32.8029 70.4759C30.812 69.1456 29.2603 67.2548 28.344 65.0426C27.4277 62.8304 27.188 60.3962 27.6552 58.0478C28.1224 55.6994 29.2755 53.5422 30.9687 51.8492C32.6619 50.1561 34.8191 49.0032 37.1676 48.5362C39.516 48.0691 41.9502 48.309 44.1624 49.2255C46.3745 50.1419 48.2652 51.6937 49.5953 53.6847C50.9254 55.6757 51.6353 58.0164 51.6351 60.4109C51.6357 62.0008 51.323 63.5753 50.7148 65.0443C50.1066 66.5134 49.2149 67.8481 48.0906 68.9723C46.9663 70.0966 45.6314 70.9882 44.1624 71.5963C42.6933 72.2044 41.1188 72.517 39.5288 72.5162Z" fill="white"/>
</svg>
