<svg width="232" height="217" viewBox="0 0 232 217" fill="none" xmlns="http://www.w3.org/2000/svg">
<path d="M33.8304 60.95L34.8024 62.912L36.9744 63.23L35.4024 64.76L35.7744 66.9199L33.8304 65.9L31.8924 66.9199L32.2644 64.76L30.6924 63.23L32.8644 62.912L33.8304 60.95Z" fill="#EBEBEB"/>
<path d="M228.02 153.488L228.992 155.456L231.164 155.774L229.592 157.298L229.964 159.464L228.02 158.444L226.082 159.464L226.454 157.298L224.882 155.774L227.054 155.456L228.02 153.488Z" fill="#F5F5F5"/>
<path d="M189.56 210.542L190.532 212.504L192.698 212.822L191.126 214.352L191.498 216.512L189.56 215.492L187.622 216.512L187.988 214.352L186.422 212.822L188.588 212.504L189.56 210.542Z" fill="#F5F5F5"/>
<path d="M101.564 26.09L101.924 26.822L102.734 26.942C102.779 26.9479 102.822 26.9666 102.857 26.9958C102.892 27.025 102.918 27.0636 102.932 27.107C102.945 27.1505 102.947 27.197 102.935 27.241C102.923 27.2851 102.9 27.325 102.866 27.356L102.266 27.926L102.404 28.73C102.411 28.7747 102.406 28.8206 102.388 28.8624C102.371 28.9043 102.343 28.9406 102.306 28.9673C102.269 28.9939 102.226 29.01 102.181 29.0137C102.136 29.0173 102.091 29.0084 102.05 28.988L101.33 28.604L100.61 28.988C100.57 29.0084 100.524 29.0173 100.479 29.0137C100.434 29.01 100.391 28.9939 100.354 28.9673C100.318 28.9406 100.289 28.9043 100.272 28.8624C100.254 28.8206 100.249 28.7747 100.256 28.73L100.388 27.926L99.7881 27.356C99.7545 27.3246 99.7306 27.2842 99.7193 27.2397C99.708 27.1952 99.7097 27.1483 99.7242 27.1047C99.7388 27.0611 99.7655 27.0226 99.8013 26.9937C99.8371 26.9649 99.8804 26.9469 99.9261 26.942L100.73 26.822L101.09 26.09C101.104 26.0382 101.135 25.9926 101.178 25.96C101.221 25.9275 101.273 25.9099 101.327 25.9099C101.381 25.9099 101.433 25.9275 101.476 25.96C101.519 25.9926 101.55 26.0382 101.564 26.09Z" fill="#EBEBEB"/>
<path d="M2.46828 201.2L2.82828 201.926L3.63228 202.046C3.67793 202.052 3.72089 202.071 3.75627 202.101C3.79166 202.13 3.81804 202.169 3.83243 202.213C3.84681 202.257 3.84861 202.304 3.83762 202.348C3.82663 202.393 3.8033 202.434 3.77028 202.466L3.17028 203.03L3.30828 203.834C3.31537 203.879 3.30996 203.925 3.29265 203.966C3.27535 204.008 3.24681 204.045 3.2102 204.071C3.17359 204.098 3.13032 204.114 3.08516 204.118C3.04 204.121 2.99471 204.112 2.95428 204.092L2.23428 203.714L1.51428 204.092C1.47385 204.112 1.42856 204.121 1.38341 204.118C1.33825 204.114 1.29498 204.098 1.25836 204.071C1.22175 204.045 1.19322 204.008 1.17591 203.966C1.1586 203.925 1.15319 203.879 1.16028 203.834L1.29828 203.03L0.698283 202.466C0.665371 202.434 0.641954 202.394 0.630664 202.35C0.619374 202.305 0.620656 202.259 0.634365 202.215C0.648074 202.172 0.673667 202.133 0.708273 202.103C0.74288 202.073 0.78513 202.053 0.830281 202.046L1.63428 201.926L2.00028 201.2C2.01632 201.151 2.0476 201.107 2.08963 201.077C2.13167 201.046 2.18231 201.03 2.23428 201.03C2.28625 201.03 2.33689 201.046 2.37893 201.077C2.42097 201.107 2.45225 201.151 2.46828 201.2Z" fill="#F5F5F5"/>
<path d="M18.6502 18.3799L19.0102 19.1119L19.8202 19.2259C19.8654 19.2331 19.9076 19.2528 19.9422 19.2827C19.9769 19.3126 20.0024 19.3515 20.0162 19.3951C20.0299 19.4387 20.0311 19.4853 20.0199 19.5296C20.0086 19.5739 19.9852 19.6142 19.9522 19.6459L19.3522 20.2459L19.4902 21.0439C19.4998 21.0892 19.4961 21.1363 19.4795 21.1796C19.463 21.2228 19.4342 21.2603 19.3968 21.2876C19.3594 21.3149 19.3149 21.3307 19.2686 21.3333C19.2224 21.3358 19.1764 21.3249 19.1362 21.3019L18.4162 20.9239L17.6962 21.3019C17.6561 21.3249 17.6101 21.3358 17.5638 21.3333C17.5176 21.3307 17.4731 21.3149 17.4357 21.2876C17.3983 21.2603 17.3695 21.2228 17.353 21.1796C17.3364 21.1363 17.3327 21.0892 17.3422 21.0439L17.4742 20.2459L16.8742 19.6459C16.8412 19.6138 16.8179 19.5731 16.8069 19.5283C16.7959 19.4836 16.7977 19.4366 16.8121 19.3929C16.8265 19.3491 16.8529 19.3102 16.8883 19.2807C16.9236 19.2512 16.9666 19.2322 17.0122 19.2259L17.8162 19.1119L18.2002 18.3799C18.2195 18.3363 18.251 18.2993 18.291 18.2733C18.3309 18.2472 18.3776 18.2334 18.4252 18.2334C18.4729 18.2334 18.5196 18.2472 18.5595 18.2733C18.5994 18.2993 18.631 18.3363 18.6502 18.3799Z" fill="#EBEBEB"/>
<path d="M17.678 162.992C17.6792 163.15 17.6334 163.305 17.5464 163.437C17.4595 163.569 17.3353 163.672 17.1896 163.733C17.0439 163.795 16.8832 163.811 16.728 163.781C16.5728 163.751 16.4301 163.676 16.3179 163.564C16.2057 163.453 16.1291 163.311 16.0978 163.156C16.0665 163.001 16.082 162.84 16.1422 162.694C16.2024 162.548 16.3047 162.423 16.436 162.335C16.5674 162.247 16.7219 162.2 16.88 162.2C17.0906 162.2 17.2927 162.283 17.4422 162.432C17.5916 162.58 17.6764 162.781 17.678 162.992Z" fill="#EBEBEB"/>
<path d="M131.402 63.1341C131.403 63.2921 131.357 63.447 131.27 63.579C131.183 63.711 131.059 63.8143 130.913 63.8756C130.767 63.9369 130.607 63.9536 130.452 63.9235C130.296 63.8933 130.154 63.8178 130.042 63.7065C129.929 63.5951 129.853 63.4529 129.821 63.298C129.79 63.143 129.806 62.9822 129.866 62.8361C129.926 62.6899 130.028 62.5649 130.16 62.477C130.291 62.389 130.446 62.3421 130.604 62.3421C130.708 62.3413 130.812 62.3612 130.909 62.4006C131.005 62.4401 131.093 62.4983 131.168 62.5719C131.242 62.6455 131.301 62.7331 131.341 62.8296C131.381 62.9261 131.402 63.0295 131.402 63.1341Z" fill="#EBEBEB"/>
<path d="M90.0257 19.0399C90.0257 19.1978 89.9789 19.3521 89.8912 19.4833C89.8035 19.6145 89.6789 19.7168 89.5331 19.7772C89.3872 19.8376 89.2268 19.8534 89.072 19.8226C88.9172 19.7918 88.775 19.7158 88.6634 19.6042C88.5518 19.4926 88.4758 19.3504 88.445 19.1956C88.4142 19.0408 88.43 18.8804 88.4904 18.7346C88.5508 18.5887 88.6531 18.4641 88.7843 18.3764C88.9156 18.2887 89.0699 18.2419 89.2277 18.2419C89.4388 18.2435 89.6409 18.3281 89.7902 18.4774C89.9395 18.6267 90.0241 18.8288 90.0257 19.0399Z" fill="#F5F5F5"/>
<path d="M91.2898 213.526C93.6602 212.967 95.1283 210.592 94.5689 208.221C94.0094 205.851 91.6342 204.383 89.2638 204.942C86.8933 205.502 85.4252 207.877 85.9847 210.247C86.5442 212.618 88.9194 214.086 91.2898 213.526Z" fill="#F0F0F0"/>
<path d="M88.7598 206.654C87.8564 206.652 86.9759 206.938 86.2458 207.47C85.8729 208.325 85.7814 209.277 85.9844 210.188C86.1874 211.099 86.6744 211.922 87.3753 212.538C88.0761 213.154 88.9545 213.531 89.8838 213.616C90.8131 213.7 91.7453 213.488 92.5458 213.008C92.9002 212.353 93.0782 211.616 93.0625 210.871C93.0468 210.126 92.8379 209.398 92.4563 208.758C92.0746 208.119 91.5333 207.589 90.8853 207.221C90.2373 206.853 89.5049 206.66 88.7598 206.66V206.654Z" fill="#E6E6E6"/>
<path d="M54.6077 132.584H18.0977V116.102L54.6077 72.698H72.0797V117.038H81.1337V132.584H72.0797V146.072H54.6077V132.584ZM54.6077 117.038V94.334L35.3117 117.038H54.6077Z" fill="#D3E2ED"/>
<path d="M87.3792 109.706C87.3792 95.99 89.8472 86.39 94.7832 80.906C99.7192 75.422 107.241 72.682 117.349 72.686C122.201 72.686 126.187 73.286 129.307 74.486C132.141 75.5073 134.737 77.098 136.933 79.16C138.785 80.9276 140.353 82.9695 141.583 85.214C142.801 87.5575 143.718 90.0451 144.313 92.618C145.67 98.1145 146.347 103.757 146.329 109.418C146.329 122.506 144.115 132.084 139.687 138.152C135.259 144.22 127.633 147.256 116.809 147.26C110.737 147.26 105.831 146.292 102.091 144.356C98.3211 142.389 95.1455 139.449 92.8932 135.842C91.1532 133.186 89.7992 129.552 88.8312 124.94C87.8262 119.925 87.3397 114.82 87.3792 109.706ZM107.263 109.754C107.263 118.954 108.073 125.228 109.693 128.576C111.313 131.924 113.667 133.606 116.755 133.622C117.735 133.633 118.708 133.449 119.616 133.082C120.524 132.714 121.351 132.17 122.047 131.48C123.543 130.052 124.643 127.796 125.347 124.712C126.051 121.628 126.403 116.828 126.403 110.312C126.403 100.736 125.591 94.298 123.967 90.998C122.343 87.698 119.907 86.05 116.659 86.054C113.347 86.054 110.947 87.736 109.459 91.1C107.971 94.464 107.239 100.682 107.263 109.754Z" fill="#D3E2ED"/>
<path d="M189.043 132.584H152.533V116.102L189.043 72.698H206.515V117.038H215.599V132.584H206.515V146.072H189.043V132.584ZM189.043 117.038V94.334L169.753 117.038H189.043Z" fill="#D3E2ED"/>
<g opacity="0.3">
<path d="M86.6004 47.372C86.6004 47.5942 86.5345 47.8113 86.4109 47.996C86.2874 48.1806 86.1118 48.3244 85.9064 48.4092C85.7011 48.4939 85.4751 48.5158 85.2573 48.472C85.0395 48.4282 84.8396 48.3208 84.6829 48.1632C84.5263 48.0057 84.4199 47.8052 84.3773 47.5872C84.3347 47.3692 84.3577 47.1434 84.4436 46.9385C84.5294 46.7336 84.6742 46.5587 84.8595 46.4362C85.0448 46.3136 85.2623 46.2488 85.4844 46.25C85.6315 46.25 85.7771 46.2791 85.9129 46.3355C86.0487 46.392 86.172 46.4747 86.2757 46.579C86.3794 46.6833 86.4615 46.807 86.5172 46.9431C86.573 47.0792 86.6012 47.225 86.6004 47.372Z" fill="#21295C"/>
<path d="M9.78223 90.47C10.2196 90.47 10.5742 90.1154 10.5742 89.678C10.5742 89.2406 10.2196 88.886 9.78223 88.886C9.34482 88.886 8.99023 89.2406 8.99023 89.678C8.99023 90.1154 9.34482 90.47 9.78223 90.47Z" fill="#21295C"/>
<path d="M140.63 206.132C141.256 206.132 141.764 205.624 141.764 204.998C141.764 204.372 141.256 203.864 140.63 203.864C140.004 203.864 139.496 204.372 139.496 204.998C139.496 205.624 140.004 206.132 140.63 206.132Z" fill="#21295C"/>
<path d="M167.9 159.992C168.338 159.992 168.692 159.637 168.692 159.2C168.692 158.763 168.338 158.408 167.9 158.408C167.463 158.408 167.108 158.763 167.108 159.2C167.108 159.637 167.463 159.992 167.9 159.992Z" fill="#21295C"/>
<path d="M220.502 17.3721C220.502 17.5287 220.456 17.6818 220.368 17.8121C220.281 17.9423 220.158 18.0438 220.013 18.1038C219.868 18.1637 219.709 18.1794 219.555 18.1489C219.402 18.1183 219.261 18.0429 219.15 17.9321C219.039 17.8213 218.964 17.6802 218.933 17.5266C218.903 17.373 218.918 17.2137 218.978 17.069C219.038 16.9243 219.14 16.8006 219.27 16.7136C219.4 16.6265 219.553 16.5801 219.71 16.5801C219.92 16.5801 220.121 16.6635 220.27 16.812C220.419 16.9606 220.502 17.162 220.502 17.3721Z" fill="#21295C"/>
<path d="M69.6504 1.40003C69.6504 1.55667 69.604 1.7098 69.5169 1.84004C69.4299 1.97029 69.3062 2.0718 69.1615 2.13174C69.0168 2.19169 68.8575 2.20738 68.7039 2.17682C68.5503 2.14626 68.4091 2.07082 68.2984 1.96006C68.1876 1.8493 68.1122 1.70818 68.0816 1.55455C68.0511 1.40091 68.0668 1.24167 68.1267 1.09695C68.1866 0.952228 68.2881 0.828533 68.4184 0.741507C68.5486 0.654481 68.7018 0.608032 68.8584 0.608032C69.068 0.609602 69.2685 0.693549 69.4167 0.841739C69.5649 0.989929 69.6488 1.19047 69.6504 1.40003Z" fill="#21295C"/>
<path d="M132.62 42.9561C133.058 42.9561 133.412 42.6015 133.412 42.1641C133.412 41.7267 133.058 41.3721 132.62 41.3721C132.183 41.3721 131.828 41.7267 131.828 42.1641C131.828 42.6015 132.183 42.9561 132.62 42.9561Z" fill="#21295C"/>
</g>
<path d="M50.7378 42.962C57.9981 42.962 63.8838 37.0764 63.8838 29.816C63.8838 22.5557 57.9981 16.67 50.7378 16.67C43.4775 16.67 37.5918 22.5557 37.5918 29.816C37.5918 37.0764 43.4775 42.962 50.7378 42.962Z" fill="#21295C"/>
<path opacity="0.7" d="M50.7378 42.962C57.9981 42.962 63.8838 37.0764 63.8838 29.816C63.8838 22.5557 57.9981 16.67 50.7378 16.67C43.4775 16.67 37.5918 22.5557 37.5918 29.816C37.5918 37.0764 43.4775 42.962 50.7378 42.962Z" fill="white"/>
<path opacity="0.2" d="M46.2082 19.898C44.4179 19.8925 42.6454 20.254 41.0002 20.96C38.9782 23.1823 37.778 26.03 37.5994 29.0292C37.4208 32.0285 38.2745 34.9985 40.0185 37.4451C41.7625 39.8917 44.2916 41.6674 47.185 42.4768C50.0785 43.2862 53.1619 43.0806 55.9222 41.894C57.6336 40.008 58.7606 37.6656 59.1663 35.1514C59.5721 32.6372 59.2392 30.0593 58.2079 27.7306C57.1767 25.402 55.4916 23.4228 53.3572 22.0335C51.2228 20.6441 48.7309 19.9044 46.1842 19.904L46.2082 19.898Z" fill="#21295C"/>
<path opacity="0.2" d="M44.9 23.372C44.9 23.6093 44.8296 23.8413 44.6978 24.0387C44.5659 24.236 44.3785 24.3898 44.1592 24.4807C43.9399 24.5715 43.6987 24.5952 43.4659 24.5489C43.2331 24.5026 43.0193 24.3883 42.8515 24.2205C42.6836 24.0527 42.5694 23.8389 42.5231 23.6061C42.4768 23.3733 42.5005 23.132 42.5913 22.9128C42.6822 22.6935 42.836 22.5061 43.0333 22.3742C43.2307 22.2424 43.4627 22.172 43.7 22.172C44.0183 22.172 44.3235 22.2984 44.5485 22.5235C44.7736 22.7485 44.9 23.0537 44.9 23.372Z" fill="#21295C"/>
<path opacity="0.2" d="M59.0367 22.172C59.0367 22.4094 58.9663 22.6414 58.8345 22.8387C58.7026 23.0361 58.5152 23.1899 58.2959 23.2807C58.0767 23.3715 57.8354 23.3953 57.6026 23.349C57.3698 23.3027 57.156 23.1884 56.9882 23.0206C56.8204 22.8527 56.7061 22.6389 56.6598 22.4062C56.6135 22.1734 56.6372 21.9321 56.7281 21.7128C56.8189 21.4936 56.9727 21.3061 57.17 21.1743C57.3674 21.0424 57.5994 20.972 57.8367 20.972C58.155 20.972 58.4602 21.0985 58.6852 21.3235C58.9103 21.5486 59.0367 21.8538 59.0367 22.172Z" fill="#21295C"/>
<path opacity="0.2" d="M56.6362 30.74C56.6362 31.1292 56.5208 31.5097 56.3045 31.8333C56.0883 32.157 55.7809 32.4092 55.4213 32.5582C55.0617 32.7071 54.666 32.7461 54.2843 32.6702C53.9025 32.5942 53.5518 32.4068 53.2766 32.1316C53.0014 31.8563 52.8139 31.5057 52.738 31.1239C52.6621 30.7422 52.7011 30.3465 52.85 29.9869C52.999 29.6272 53.2512 29.3199 53.5748 29.1036C53.8985 28.8874 54.279 28.772 54.6682 28.772C55.1901 28.772 55.6907 28.9793 56.0598 29.3484C56.4289 29.7175 56.6362 30.218 56.6362 30.74Z" fill="#21295C"/>
<path opacity="0.2" d="M50.3839 36.35C50.3839 36.8698 50.2298 37.3779 49.941 37.8101C49.6523 38.2423 49.2418 38.5791 48.7616 38.778C48.2814 38.9769 47.753 39.0289 47.2432 38.9275C46.7335 38.8261 46.2652 38.5758 45.8977 38.2083C45.5301 37.8408 45.2798 37.3725 45.1784 36.8627C45.077 36.353 45.1291 35.8246 45.328 35.3444C45.5269 34.8641 45.8637 34.4537 46.2959 34.1649C46.7281 33.8762 47.2362 33.722 47.7559 33.722C48.4529 33.722 49.1214 33.9989 49.6142 34.4918C50.1071 34.9846 50.3839 35.6531 50.3839 36.35Z" fill="#21295C"/>
<path d="M206.54 188.388C208.004 182.186 204.163 175.972 197.961 174.508C191.759 173.044 185.545 176.885 184.081 183.087C182.617 189.289 186.458 195.503 192.66 196.967C198.862 198.431 205.076 194.59 206.54 188.388Z" fill="#21295C"/>
<path opacity="0.3" d="M206.54 188.388C208.004 182.186 204.163 175.972 197.961 174.508C191.759 173.044 185.545 176.885 184.081 183.087C182.617 189.289 186.458 195.503 192.66 196.967C198.862 198.431 205.076 194.59 206.54 188.388Z" fill="white"/>
<path opacity="0.4" d="M202.599 176.804C200.041 176.032 197.294 176.172 194.828 177.2C192.362 178.228 190.33 180.081 189.078 182.441C187.827 184.802 187.433 187.523 187.966 190.142C188.498 192.76 189.923 195.112 191.997 196.796C193.072 197.123 194.19 197.289 195.315 197.288C197.697 197.288 200.02 196.55 201.966 195.176C203.912 193.802 205.385 191.86 206.183 189.616C206.981 187.371 207.065 184.935 206.423 182.641C205.781 180.347 204.445 178.308 202.599 176.804Z" fill="#21295C"/>
<path d="M184.298 189.2C171.98 194.996 181.166 199.466 198.524 193.226C214.598 187.448 220.724 180.164 206.324 182.426C207.098 185.456 186.968 193.298 184.298 189.2Z" fill="#21295C"/>
<path opacity="0.2" d="M202.459 72.698C186.325 83.6 165.439 98 159.673 132.584H158.443C164.053 98.384 184.177 83.642 200.317 72.698H202.459Z" fill="black"/>
<path d="M119 180.962C108.8 180.962 98.7137 176.36 93.7997 168.848C90.7697 164.204 87.2477 154.478 97.7357 141.5L98.6657 142.256C91.2497 151.436 89.8817 160.646 94.8077 168.194C100.808 177.374 114.962 181.994 127.046 178.706C139.424 175.34 146.936 164.576 147.662 149.174C150.14 96.4881 178.13 80.2581 198.566 68.4081C211.268 61.0461 220.442 55.7301 218.426 44.5041C218.144 42.9501 217.526 41.8761 216.524 41.2161C213.914 39.4941 208.814 40.6881 202.91 42.0621C191.324 44.7621 175.46 48.4581 166.01 32.3841L167.048 31.7841C176.048 47.1021 190.79 43.6641 202.64 40.9041C208.814 39.4701 214.142 38.2281 217.184 40.2261C218.474 41.0721 219.266 42.4101 219.584 44.3061C221.75 56.3541 211.784 62.1381 199.154 69.4581C178.952 81.1701 151.292 97.2081 148.844 149.258C148.088 165.218 140.252 176.384 127.34 179.894C124.619 180.618 121.815 180.978 119 180.962Z" fill="#21295C"/>
<path opacity="0.2" d="M119 180.962C108.8 180.962 98.7137 176.36 93.7997 168.848C90.7697 164.204 87.2477 154.478 97.7357 141.5L98.6657 142.256C91.2497 151.436 89.8817 160.646 94.8077 168.194C100.808 177.374 114.962 181.994 127.046 178.706C139.424 175.34 146.936 164.576 147.662 149.174C150.14 96.4881 178.13 80.2581 198.566 68.4081C211.268 61.0461 220.442 55.7301 218.426 44.5041C218.144 42.9501 217.526 41.8761 216.524 41.2161C213.914 39.4941 208.814 40.6881 202.91 42.0621C191.324 44.7621 175.46 48.4581 166.01 32.3841L167.048 31.7841C176.048 47.1021 190.79 43.6641 202.64 40.9041C208.814 39.4701 214.142 38.2281 217.184 40.2261C218.474 41.0721 219.266 42.4101 219.584 44.3061C221.75 56.3541 211.784 62.1381 199.154 69.4581C178.952 81.1701 151.292 97.2081 148.844 149.258C148.088 165.218 140.252 176.384 127.34 179.894C124.619 180.618 121.815 180.978 119 180.962Z" fill="white"/>
<path d="M153.655 18.2001C156.42 18.216 159.167 18.6468 161.803 19.4781C161.803 19.4781 168.403 30.7401 169.183 33.3201C168.907 35.8641 164.617 40.0341 164.617 40.0341L153.655 18.2001Z" fill="#21295C"/>
<path opacity="0.3" d="M153.655 18.2001C156.42 18.216 159.167 18.6468 161.803 19.4781C161.803 19.4781 168.403 30.7401 169.183 33.3201C168.907 35.8641 164.617 40.0341 164.617 40.0341L153.655 18.2001Z" fill="white"/>
<path d="M173.204 72.878C170.662 69.7703 168.345 66.486 166.268 63.05C165.764 62.182 165.286 61.298 164.834 60.398C164.576 59.888 164.33 59.378 164.09 58.862C163.775 58.3599 163.531 57.8168 163.364 57.248C162.644 49.646 165.248 44.048 162.764 37.946L152.876 41.81C152.876 41.81 153.716 52.682 155.636 59.21C156.836 63.248 159.524 66.74 162.122 69.974C162.932 70.982 163.712 72.02 164.522 73.034C165.332 74.048 166.148 74.87 166.922 75.824C168.092 77.27 168.476 78.656 167.594 80.36L167.444 80.63C167.192 81.074 168.368 81.578 169.112 80.63C170.312 79.082 170.144 79.178 171.188 77.858C171.824 77.06 172.55 76.19 173.18 75.458C173.484 75.0981 173.653 74.6434 173.657 74.1724C173.661 73.7013 173.501 73.2435 173.204 72.878Z" fill="#21295C"/>
<path opacity="0.7" d="M173.204 72.878C170.662 69.7703 168.345 66.486 166.268 63.05C165.764 62.182 165.286 61.298 164.834 60.398C164.576 59.888 164.33 59.378 164.09 58.862C163.775 58.3599 163.531 57.8168 163.364 57.248C162.644 49.646 165.248 44.048 162.764 37.946L152.876 41.81C152.876 41.81 153.716 52.682 155.636 59.21C156.836 63.248 159.524 66.74 162.122 69.974C162.932 70.982 163.712 72.02 164.522 73.034C165.332 74.048 166.148 74.87 166.922 75.824C168.092 77.27 168.476 78.656 167.594 80.36L167.444 80.63C167.192 81.074 168.368 81.578 169.112 80.63C170.312 79.082 170.144 79.178 171.188 77.858C171.824 77.06 172.55 76.19 173.18 75.458C173.484 75.0981 173.653 74.6434 173.657 74.1724C173.661 73.7013 173.501 73.2435 173.204 72.878Z" fill="white"/>
<path opacity="0.3" d="M170.786 69.7521C169.217 71.434 167.475 72.9464 165.59 74.2641C165.848 74.5521 166.1 74.8641 166.358 75.1401C168.245 73.8648 169.96 72.3502 171.458 70.6341L170.786 69.7521Z" fill="#21295C"/>
<path opacity="0.3" d="M173.204 72.8781L173.132 72.7941C172.67 73.3237 172.402 73.9942 172.37 74.6961C172.331 75.1776 172.41 75.6613 172.598 76.1061L173.168 75.4281C173.466 75.0718 173.632 74.6238 173.639 74.1595C173.645 73.6951 173.492 73.2426 173.204 72.8781Z" fill="#21295C"/>
<path d="M151.303 25.4001C150.231 27.0051 148.946 28.4565 147.481 29.7141C146.669 30.4139 145.78 31.0178 144.829 31.5141C144.33 31.7698 143.813 31.9884 143.281 32.1681L142.873 32.3001L142.741 32.3361L142.459 32.4141C142.286 32.4553 142.109 32.4833 141.931 32.4981C141.425 32.5368 140.916 32.4901 140.425 32.3601C139.807 32.1844 139.213 31.9282 138.661 31.5981C138.217 31.3384 137.787 31.056 137.371 30.7521C136.621 30.1941 135.904 29.5931 135.223 28.9521C133.911 27.7085 132.707 26.3556 131.623 24.9081C131.415 24.626 131.311 24.2801 131.33 23.9298C131.35 23.5796 131.491 23.2471 131.729 22.9896C131.967 22.7322 132.288 22.566 132.635 22.5197C132.983 22.4734 133.336 22.5499 133.633 22.7361H133.681C135.097 23.6361 136.525 24.5841 137.917 25.4301C138.625 25.8441 139.309 26.2641 139.987 26.5881C140.297 26.7501 140.615 26.8943 140.941 27.0201C141.144 27.1097 141.362 27.1625 141.583 27.1761C141.619 27.1761 141.583 27.1341 141.361 27.1401C141.291 27.1359 141.221 27.1359 141.151 27.1401L141.019 27.1701L141.217 27.0681C141.484 26.9246 141.742 26.7664 141.991 26.5941C142.528 26.2155 143.03 25.7898 143.491 25.3221C144.54 24.2236 145.521 23.0635 146.431 21.8481C146.93 21.2902 147.619 20.9388 148.363 20.8628C149.108 20.7868 149.853 20.9917 150.455 21.4372C151.056 21.8828 151.469 22.5368 151.612 23.2711C151.756 24.0053 151.62 24.7668 151.231 25.4061L151.303 25.4001Z" fill="#21295C"/>
<path opacity="0.7" d="M151.303 25.4001C150.231 27.0051 148.946 28.4565 147.481 29.7141C146.669 30.4139 145.78 31.0178 144.829 31.5141C144.33 31.7698 143.813 31.9884 143.281 32.1681L142.873 32.3001L142.741 32.3361L142.459 32.4141C142.286 32.4553 142.109 32.4833 141.931 32.4981C141.425 32.5368 140.916 32.4901 140.425 32.3601C139.807 32.1844 139.213 31.9282 138.661 31.5981C138.217 31.3384 137.787 31.056 137.371 30.7521C136.621 30.1941 135.904 29.5931 135.223 28.9521C133.911 27.7085 132.707 26.3556 131.623 24.9081C131.415 24.626 131.311 24.2801 131.33 23.9298C131.35 23.5796 131.491 23.2471 131.729 22.9896C131.967 22.7322 132.288 22.566 132.635 22.5197C132.983 22.4734 133.336 22.5499 133.633 22.7361H133.681C135.097 23.6361 136.525 24.5841 137.917 25.4301C138.625 25.8441 139.309 26.2641 139.987 26.5881C140.297 26.7501 140.615 26.8943 140.941 27.0201C141.144 27.1097 141.362 27.1625 141.583 27.1761C141.619 27.1761 141.583 27.1341 141.361 27.1401C141.291 27.1359 141.221 27.1359 141.151 27.1401L141.019 27.1701L141.217 27.0681C141.484 26.9246 141.742 26.7664 141.991 26.5941C142.528 26.2155 143.03 25.7898 143.491 25.3221C144.54 24.2236 145.521 23.0635 146.431 21.8481C146.93 21.2902 147.619 20.9388 148.363 20.8628C149.108 20.7868 149.853 20.9917 150.455 21.4372C151.056 21.8828 151.469 22.5368 151.612 23.2711C151.756 24.0053 151.62 24.7668 151.231 25.4061L151.303 25.4001Z" fill="white"/>
<path d="M129.374 21.452L130.076 22.652C130.076 22.652 130.61 24.224 131.684 24.512L134.6 23.57L134.45 23.324C134.078 22.76 134.12 21.662 134.246 20.75C134.372 19.838 133.904 19.808 133.556 20.036C133.309 20.3197 133.136 20.6597 133.052 21.026C132.909 20.8279 132.75 20.6413 132.578 20.468L131.69 19.58C131.503 19.3979 131.255 19.293 130.995 19.2864C130.734 19.2797 130.481 19.3717 130.286 19.544L129.566 20.186C129.395 20.344 129.283 20.5554 129.248 20.7854C129.213 21.0154 129.257 21.2505 129.374 21.452Z" fill="#21295C"/>
<path opacity="0.7" d="M129.374 21.452L130.076 22.652C130.076 22.652 130.61 24.224 131.684 24.512L134.6 23.57L134.45 23.324C134.078 22.76 134.12 21.662 134.246 20.75C134.372 19.838 133.904 19.808 133.556 20.036C133.309 20.3197 133.136 20.6597 133.052 21.026C132.909 20.8279 132.75 20.6413 132.578 20.468L131.69 19.58C131.503 19.3979 131.255 19.293 130.995 19.2864C130.734 19.2797 130.481 19.3717 130.286 19.544L129.566 20.186C129.395 20.344 129.283 20.5554 129.248 20.7854C129.213 21.0154 129.257 21.2505 129.374 21.452Z" fill="white"/>
<path d="M156.602 17.1321C153.367 17.9894 150.269 19.2961 147.398 21.0141C146.95 21.2944 146.598 21.705 146.39 22.1908C146.182 22.6766 146.127 23.2144 146.234 23.7321C147.392 29.3961 150.026 36.9801 152.87 41.8101L166.136 36.3201C166.226 33.9801 163.004 26.4081 159.722 19.0881C159.134 17.7741 158 16.7961 156.602 17.1321Z" fill="#21295C"/>
<path opacity="0.8" d="M156.602 17.1321C153.367 17.9894 150.269 19.2961 147.398 21.0141C146.95 21.2944 146.598 21.705 146.39 22.1908C146.182 22.6766 146.127 23.2144 146.234 23.7321C147.392 29.3961 150.026 36.9801 152.87 41.8101L166.136 36.3201C166.226 33.9801 163.004 26.4081 159.722 19.0881C159.134 17.7741 158 16.7961 156.602 17.1321Z" fill="white"/>
<path opacity="0.3" d="M161.779 23.726L159.146 22.844C159.746 24.386 161.864 26.336 163.346 27.482C162.866 26.282 162.331 25.022 161.779 23.726Z" fill="#21295C"/>
<path d="M155.731 11.192C154.633 9.10403 152.263 8.05403 149.419 8.28803C147.019 8.49203 144.895 10.94 145.147 12.26C145.399 13.58 147.415 14.144 147.799 14.6L146.137 15.8C145.94 15.9421 145.774 16.1226 145.649 16.3306C145.524 16.5386 145.442 16.7698 145.408 17.0102C145.375 17.2507 145.39 17.4955 145.453 17.7299C145.517 17.9642 145.627 18.1834 145.777 18.374C146.479 19.262 147.403 20.174 147.937 20.846C152.533 20.726 155.935 18.974 157.165 17.288C156.703 15.152 156.799 13.268 155.731 11.192Z" fill="#21295C"/>
<path opacity="0.8" d="M155.731 11.192C154.633 9.10403 152.263 8.05403 149.419 8.28803C147.019 8.49203 144.895 10.94 145.147 12.26C145.399 13.58 147.415 14.144 147.799 14.6L146.137 15.8C145.94 15.9421 145.774 16.1226 145.649 16.3306C145.524 16.5386 145.442 16.7698 145.408 17.0102C145.375 17.2507 145.39 17.4955 145.453 17.7299C145.517 17.9642 145.627 18.1834 145.777 18.374C146.479 19.262 147.403 20.174 147.937 20.846C152.533 20.726 155.935 18.974 157.165 17.288C156.703 15.152 156.799 13.268 155.731 11.192Z" fill="white"/>
<path d="M153.476 12.488C153.802 13.3248 153.873 14.2395 153.68 15.1165C153.486 15.9935 153.037 16.7935 152.389 17.4154C151.741 18.0372 150.923 18.4529 150.039 18.61C149.154 18.7671 148.243 18.6585 147.421 18.2979C146.598 17.9374 145.901 17.341 145.417 16.5843C144.933 15.8276 144.685 14.9444 144.703 14.0465C144.721 13.1485 145.005 12.2761 145.519 11.5395C146.033 10.8029 146.753 10.2351 147.59 9.90799C148.713 9.47061 149.963 9.49664 151.067 9.98036C152.17 10.4641 153.037 11.366 153.476 12.488Z" fill="#263238"/>
<path d="M192.433 66.5601C192.367 64.5861 192.277 64.7601 192.223 63.0981C192.187 62.0781 192.181 60.9441 192.175 59.9661C192.173 59.5016 192.011 59.0521 191.716 58.6935C191.421 58.335 191.011 58.0893 190.555 57.9981C189.763 57.8361 188.965 57.6861 188.155 57.5181C187.117 57.2961 186.091 57.0561 185.077 56.7621C184.285 56.5341 183.505 56.2821 182.731 56.0001C181.957 55.7181 181.087 55.4001 180.283 55.0281C179.335 54.6261 178.399 54.1941 177.475 53.7441C176.437 53.2521 175.411 52.7361 174.385 52.2141C170.437 45.6801 170.353 41.3721 166.117 36.3201L157.021 40.4361C157.021 40.4361 163.705 52.2921 168.253 57.3201C170.875 60.2121 174.985 61.5201 178.651 62.4681C181.297 63.1461 183.979 63.6681 186.661 64.1661C187.705 64.3581 188.839 64.4301 189.739 65.0541C190.405 65.5646 190.862 66.3007 191.023 67.1241C191.063 67.2921 191.099 67.4601 191.131 67.6281C191.245 68.1321 192.475 67.7481 192.433 66.5601Z" fill="#21295C"/>
<path opacity="0.8" d="M192.433 66.5601C192.367 64.5861 192.277 64.7601 192.223 63.0981C192.187 62.0781 192.181 60.9441 192.175 59.9661C192.173 59.5016 192.011 59.0521 191.716 58.6935C191.421 58.335 191.011 58.0893 190.555 57.9981C189.763 57.8361 188.965 57.6861 188.155 57.5181C187.117 57.2961 186.091 57.0561 185.077 56.7621C184.285 56.5341 183.505 56.2821 182.731 56.0001C181.957 55.7181 181.087 55.4001 180.283 55.0281C179.335 54.6261 178.399 54.1941 177.475 53.7441C176.437 53.2521 175.411 52.7361 174.385 52.2141C170.437 45.6801 170.353 41.3721 166.117 36.3201L157.021 40.4361C157.021 40.4361 163.705 52.2921 168.253 57.3201C170.875 60.2121 174.985 61.5201 178.651 62.4681C181.297 63.1461 183.979 63.6681 186.661 64.1661C187.705 64.3581 188.839 64.4301 189.739 65.0541C190.405 65.5646 190.862 66.3007 191.023 67.1241C191.063 67.2921 191.099 67.4601 191.131 67.6281C191.245 68.1321 192.475 67.7481 192.433 66.5601Z" fill="white"/>
<path opacity="0.3" d="M187.82 57.4401C187.46 57.3621 187.1 57.2841 186.734 57.1941C186.764 59.2701 185.791 62.8461 185.438 63.9321L186.577 64.1481C187.325 61.9868 187.743 59.7256 187.82 57.4401Z" fill="#21295C"/>
<path opacity="0.3" d="M192.199 59.966C192.198 59.5024 192.036 59.0536 191.742 58.6951C191.448 58.3367 191.04 58.0905 190.585 57.998L189.985 57.884C190.082 58.5661 190.431 59.1871 190.963 59.624C191.306 59.9407 191.716 60.1747 192.163 60.308C192.199 60.2 192.199 60.08 192.199 59.966Z" fill="#21295C"/>
<path d="M152.63 12.524C152.87 13.436 151.85 14.39 151.04 13.604C150.284 12.7934 149.457 12.0524 148.568 11.39C147.734 10.868 148.844 9.956 150.158 10.31C150.719 10.4509 151.237 10.726 151.667 11.1117C152.098 11.4974 152.428 11.9821 152.63 12.524Z" fill="white"/>
<path d="M152.696 41.5161C152.276 41.6721 153.044 42.3921 153.044 42.3921C153.044 42.3921 161.444 39.5181 166.544 36.5601C166.556 36.381 166.526 36.2015 166.455 36.0367C166.384 35.8718 166.274 35.7262 166.136 35.6121C161.771 37.8324 157.284 39.8036 152.696 41.5161Z" fill="#21295C"/>
<path opacity="0.5" d="M152.696 41.5161C152.276 41.6721 153.044 42.3921 153.044 42.3921C153.044 42.3921 161.444 39.5181 166.544 36.5601C166.556 36.381 166.526 36.2015 166.455 36.0367C166.384 35.8718 166.274 35.7262 166.136 35.6121C161.771 37.8324 157.284 39.8036 152.696 41.5161Z" fill="white"/>
<path d="M158.876 16.736C160.532 17.576 162.086 18.458 163.676 19.436C164.45 19.928 165.218 20.426 165.98 20.966C166.742 21.506 167.498 22.058 168.26 22.682L168.542 22.916L168.896 23.24C169.107 23.4287 169.307 23.629 169.496 23.84C169.688 24.05 169.85 24.254 170.006 24.44C170.162 24.626 170.33 24.848 170.468 25.04C171.027 25.8113 171.543 26.6125 172.016 27.44C172.945 29.0446 173.748 30.7197 174.416 32.45C174.539 32.7769 174.545 33.1364 174.434 33.4675C174.322 33.7986 174.099 34.0808 173.803 34.266C173.506 34.4513 173.155 34.5282 172.808 34.4837C172.462 34.4392 172.141 34.2761 171.902 34.022L171.872 33.986C170.672 32.708 169.514 31.364 168.35 30.11C167.186 28.856 166.004 27.584 165.026 27.026C163.664 26.18 162.146 25.334 160.64 24.506L156.104 21.986C155.4 21.6136 154.874 20.9771 154.64 20.2164C154.405 19.4558 154.483 18.6333 154.856 17.93C155.228 17.2266 155.864 16.7 156.625 16.466C157.386 16.2319 158.208 16.3096 158.912 16.682L158.876 16.736Z" fill="#21295C"/>
<path opacity="0.8" d="M158.876 16.736C160.532 17.576 162.086 18.458 163.676 19.436C164.45 19.928 165.218 20.426 165.98 20.966C166.742 21.506 167.498 22.058 168.26 22.682L168.542 22.916L168.896 23.24C169.107 23.4287 169.307 23.629 169.496 23.84C169.688 24.05 169.85 24.254 170.006 24.44C170.162 24.626 170.33 24.848 170.468 25.04C171.027 25.8113 171.543 26.6125 172.016 27.44C172.945 29.0446 173.748 30.7197 174.416 32.45C174.539 32.7769 174.545 33.1364 174.434 33.4675C174.322 33.7986 174.099 34.0808 173.803 34.266C173.506 34.4513 173.155 34.5282 172.808 34.4837C172.462 34.4392 172.141 34.2761 171.902 34.022L171.872 33.986C170.672 32.708 169.514 31.364 168.35 30.11C167.186 28.856 166.004 27.584 165.026 27.026C163.664 26.18 162.146 25.334 160.64 24.506L156.104 21.986C155.4 21.6136 154.874 20.9771 154.64 20.2164C154.405 19.4558 154.483 18.6333 154.856 17.93C155.228 17.2266 155.864 16.7 156.625 16.466C157.386 16.2319 158.208 16.3096 158.912 16.682L158.876 16.736Z" fill="white"/>
<path d="M175.838 35.444L175.328 34.166C175.328 34.166 175.046 32.534 174.032 32.078L171.032 32.552L171.134 32.816C171.41 33.416 171.2 34.514 170.93 35.39C170.66 36.266 171.116 36.38 171.5 36.206C171.716 36.11 171.926 35.72 172.154 35.306C172.266 35.5146 172.392 35.7151 172.532 35.906L173.27 36.92C173.424 37.1301 173.652 37.2741 173.908 37.3231C174.164 37.3721 174.429 37.3224 174.65 37.184L175.466 36.662C175.657 36.5313 175.798 36.3395 175.866 36.1182C175.933 35.8969 175.923 35.6591 175.838 35.444Z" fill="#21295C"/>
<path opacity="0.8" d="M175.838 35.444L175.328 34.166C175.328 34.166 175.046 32.534 174.032 32.078L171.032 32.552L171.134 32.816C171.41 33.416 171.2 34.514 170.93 35.39C170.66 36.266 171.116 36.38 171.5 36.206C171.716 36.11 171.926 35.72 172.154 35.306C172.266 35.5146 172.392 35.7151 172.532 35.906L173.27 36.92C173.424 37.1301 173.652 37.2741 173.908 37.3231C174.164 37.3721 174.429 37.3224 174.65 37.184L175.466 36.662C175.657 36.5313 175.798 36.3395 175.866 36.1182C175.933 35.8969 175.923 35.6591 175.838 35.444Z" fill="white"/>
<path opacity="0.3" d="M156.344 23.636L155.612 23.696L151.118 34.544C151.364 34.5617 151.611 34.5414 151.85 34.484C151.85 34.484 157.706 32.3 159.476 31.484C158.288 29.03 156.344 23.636 156.344 23.636Z" fill="#21295C"/>
<path d="M148.142 26.48C148.688 29.3158 149.701 32.0409 151.142 34.544C153.338 33.788 156.998 32.36 158.774 31.544C157.58 28.985 156.52 26.3654 155.6 23.696C153.722 23.822 149.6 25.4 148.142 26.48Z" fill="white"/>
<path opacity="0.3" d="M152.6 28.826C152.512 29.1194 152.339 29.3802 152.103 29.5754C151.867 29.7706 151.579 29.8914 151.274 29.9226C150.969 29.9537 150.662 29.8938 150.392 29.7504C150.121 29.607 149.899 29.3866 149.754 29.117C149.608 28.8474 149.546 28.5408 149.575 28.2359C149.604 27.9311 149.723 27.6417 149.917 27.4043C150.11 27.167 150.37 26.9924 150.663 26.9026C150.955 26.8128 151.268 26.8119 151.562 26.9C151.954 27.0179 152.284 27.2871 152.479 27.6482C152.674 28.0093 152.717 28.4329 152.6 28.826Z" fill="#21295C"/>
<path opacity="0.6" d="M153.746 26.7621C153.723 26.8622 153.669 26.953 153.594 27.0224C153.518 27.0918 153.423 27.1367 153.321 27.1511C153.219 27.1655 153.115 27.1488 153.023 27.1031C152.931 27.0575 152.855 26.985 152.804 26.8953C152.754 26.8056 152.732 26.7027 152.741 26.6003C152.751 26.4979 152.791 26.4006 152.856 26.3213C152.922 26.242 153.009 26.1844 153.108 26.156C153.207 26.1275 153.312 26.1297 153.41 26.1621C153.531 26.2009 153.634 26.2845 153.696 26.3959C153.758 26.5072 153.776 26.6381 153.746 26.7621Z" fill="#21295C"/>
<path opacity="0.6" d="M155.09 26.24C155.076 26.3096 155.047 26.3755 155.006 26.4334C154.965 26.4914 154.913 26.5402 154.852 26.5766C154.791 26.613 154.723 26.6363 154.652 26.645C154.582 26.6537 154.51 26.6476 154.442 26.627C154.374 26.6064 154.312 26.5719 154.258 26.5256C154.204 26.4793 154.16 26.4223 154.13 26.3582C154.099 26.2941 154.082 26.2243 154.08 26.1533C154.078 26.0823 154.091 26.0117 154.118 25.946C154.137 25.8825 154.169 25.8234 154.211 25.7721C154.253 25.7209 154.305 25.6784 154.363 25.6472C154.422 25.616 154.486 25.5966 154.552 25.5902C154.618 25.5838 154.685 25.5906 154.748 25.61C154.876 25.6489 154.984 25.7368 155.048 25.8548C155.112 25.9727 155.127 26.1111 155.09 26.24Z" fill="#21295C"/>
<path opacity="0.5" d="M156.974 30.914L151.424 33.104L151.094 32.012L156.638 29.822L156.974 30.914Z" fill="#21295C"/>
<path opacity="0.2" d="M126.355 114.302C126.343 117.796 126.005 121.281 125.347 124.712C124.639 127.796 123.539 130.052 122.047 131.48C121.352 132.17 120.527 132.715 119.62 133.082C118.712 133.45 117.74 133.634 116.761 133.622C113.677 133.622 111.323 131.94 109.699 128.576C109.414 127.972 109.171 127.348 108.973 126.71C105.544 129.656 102.35 132.866 99.4214 136.31L96.2354 140.066C97.9499 141.804 99.9283 143.26 102.097 144.38C105.833 146.312 110.737 147.28 116.809 147.284C117.877 147.284 118.909 147.254 119.911 147.194C123.585 141.758 126.625 135.92 128.971 129.794L137.881 106.562L126.355 114.302Z" fill="black"/>
<path d="M46.0342 146L56.5342 156.5L85.9342 128.798C75.8002 124.928 56.0962 135.914 46.0342 146Z" fill="#263238"/>
<path d="M82.6514 182.6C79.2974 179.24 72.1514 172.1 72.1514 172.1L99.8534 142.7C103.699 152.81 92.7134 172.532 82.6514 182.6Z" fill="#263238"/>
<path d="M122.84 116.42L134.294 94.334L112.208 105.8C105.114 109.479 98.5634 114.123 92.7437 119.6L55.0938 155.042L73.5917 173.54L109.034 135.89C114.513 130.069 119.159 123.517 122.84 116.42Z" fill="#21295C"/>
<path opacity="0.6" d="M122.84 116.42L134.294 94.334L112.208 105.8C105.114 109.479 98.5634 114.123 92.7437 119.6L55.0938 155.042L73.5917 173.54L109.034 135.89C114.513 130.069 119.159 123.517 122.84 116.42Z" fill="white"/>
<path d="M99.3201 137.048C103.595 137.048 107.06 133.583 107.06 129.308C107.06 125.033 103.595 121.568 99.3201 121.568C95.0454 121.568 91.5801 125.033 91.5801 129.308C91.5801 133.583 95.0454 137.048 99.3201 137.048Z" fill="white"/>
<path d="M99.3197 134.282C102.067 134.282 104.294 132.055 104.294 129.308C104.294 126.561 102.067 124.334 99.3197 124.334C96.5726 124.334 94.3457 126.561 94.3457 129.308C94.3457 132.055 96.5726 134.282 99.3197 134.282Z" fill="#21295C"/>
<path opacity="0.3" d="M79.8494 166.892L61.7354 148.778L76.5674 134.822L93.8054 152.066L79.8494 166.892Z" fill="#21295C"/>
<path d="M50.1318 162.572C36.5718 163.67 32.0778 172.352 30.5418 183.89C29.7618 189.776 29.4138 195.734 24.4758 199.178C24.1788 199.38 23.9551 199.673 23.8383 200.012C23.7216 200.352 23.718 200.72 23.8281 201.062C23.9382 201.404 24.1562 201.701 24.4492 201.909C24.7423 202.116 25.0948 202.223 25.4538 202.214C43.6578 201.644 52.1478 192.734 53.2158 189.014C52.9355 190.959 52.4342 192.865 51.7218 194.696C51.5909 195.019 51.5652 195.375 51.6485 195.714C51.7319 196.052 51.9199 196.356 52.1859 196.581C52.4518 196.807 52.7822 196.943 53.1298 196.969C53.4774 196.996 53.8246 196.912 54.1218 196.73C59.2278 193.532 65.6358 187.64 66.0618 178.082C62.3058 172.76 50.1318 162.572 50.1318 162.572Z" fill="#21295C"/>
<path opacity="0.2" d="M50.1318 162.572C36.5718 163.67 32.0778 172.352 30.5418 183.89C29.7618 189.776 29.4138 195.734 24.4758 199.178C24.1788 199.38 23.9551 199.673 23.8383 200.012C23.7216 200.352 23.718 200.72 23.8281 201.062C23.9382 201.404 24.1562 201.701 24.4492 201.909C24.7423 202.116 25.0948 202.223 25.4538 202.214C43.6578 201.644 52.1478 192.734 53.2158 189.014C52.9355 190.959 52.4342 192.865 51.7218 194.696C51.5909 195.019 51.5652 195.375 51.6485 195.714C51.7319 196.052 51.9199 196.356 52.1859 196.581C52.4518 196.807 52.7822 196.943 53.1298 196.969C53.4774 196.996 53.8246 196.912 54.1218 196.73C59.2278 193.532 65.6358 187.64 66.0618 178.082C62.3058 172.76 50.1318 162.572 50.1318 162.572Z" fill="white"/>
<path d="M68.1682 182.18L46.4482 160.46L58.0162 157.958L70.6702 170.612L68.1682 182.18Z" fill="#21295C"/>
</svg>
