<svg width="254" height="235" viewBox="0 0 254 235" fill="none" xmlns="http://www.w3.org/2000/svg">
<path d="M120.04 234.03H4.17991C3.27127 234.03 2.39986 233.669 1.75736 233.027C1.11486 232.384 0.753906 231.513 0.753906 230.604V3.396C0.761817 2.49258 1.12626 1.62885 1.7679 0.992823C2.40955 0.356797 3.27645 -3.46356e-05 4.17991 2.52153e-09H120.04C120.49 2.52153e-09 120.935 0.0886153 121.351 0.260788C121.767 0.432961 122.144 0.685319 122.462 1.00345C122.781 1.32159 123.033 1.69927 123.205 2.11493C123.377 2.53059 123.466 2.97609 123.466 3.426V230.604C123.466 231.054 123.377 231.499 123.205 231.915C123.033 232.331 122.781 232.708 122.462 233.027C122.144 233.345 121.767 233.597 121.351 233.769C120.935 233.941 120.49 234.03 120.04 234.03ZM4.17991 0.12C3.31154 0.121587 2.4792 0.467244 1.86518 1.08127C1.25115 1.6953 0.905492 2.52764 0.903906 3.396V230.604C0.905492 231.472 1.25115 232.305 1.86518 232.919C2.4792 233.533 3.31154 233.878 4.17991 233.88H120.04C120.908 233.878 121.741 233.533 122.355 232.919C122.969 232.305 123.314 231.472 123.316 230.604V3.396C123.314 2.52764 122.969 1.6953 122.355 1.08127C121.741 0.467244 120.908 0.121587 120.04 0.12H4.17991Z" fill="#EBEBEB"/>
<path d="M249.82 234.03H133.96C133.052 234.03 132.18 233.669 131.538 233.027C130.895 232.384 130.534 231.513 130.534 230.604V3.396C130.542 2.49258 130.907 1.62885 131.548 0.992823C132.19 0.356797 133.057 -3.46356e-05 133.96 2.52153e-09H249.82C250.729 2.52154e-09 251.6 0.360953 252.243 1.00345C252.885 1.64595 253.246 2.51737 253.246 3.426V230.604C253.246 231.054 253.158 231.499 252.985 231.915C252.813 232.331 252.561 232.708 252.243 233.027C251.925 233.345 251.547 233.597 251.131 233.769C250.716 233.941 250.27 234.03 249.82 234.03ZM133.96 0.12C133.092 0.121587 132.259 0.467244 131.645 1.08127C131.031 1.6953 130.686 2.52764 130.684 3.396V230.604C130.686 231.472 131.031 232.305 131.645 232.919C132.259 233.533 133.092 233.878 133.96 233.88H249.82C250.689 233.878 251.521 233.533 252.135 232.919C252.749 232.305 253.095 231.472 253.096 230.604V3.396C253.095 2.52764 252.749 1.6953 252.135 1.08127C251.521 0.467244 250.689 0.121587 249.82 0.12H133.96Z" fill="#EBEBEB"/>
<path d="M44.8304 67.95L45.8024 69.912L47.9744 70.23L46.4024 71.76L46.7744 73.92L44.8304 72.9L42.8924 73.92L43.2644 71.76L41.6924 70.23L43.8644 69.912L44.8304 67.95Z" fill="#EBEBEB"/>
<path d="M239.02 160.488L239.992 162.456L242.164 162.774L240.592 164.298L240.964 166.464L239.02 165.444L237.082 166.464L237.454 164.298L235.882 162.774L238.054 162.456L239.02 160.488Z" fill="#F5F5F5"/>
<path d="M200.56 217.542L201.532 219.504L203.698 219.822L202.126 221.352L202.498 223.512L200.56 222.492L198.622 223.512L198.988 221.352L197.422 219.822L199.588 219.504L200.56 217.542Z" fill="#F5F5F5"/>
<path d="M112.564 33.09L112.924 33.822L113.734 33.942C113.779 33.9479 113.822 33.9666 113.857 33.9958C113.892 34.025 113.918 34.0636 113.932 34.107C113.945 34.1505 113.947 34.197 113.935 34.241C113.923 34.2851 113.9 34.325 113.866 34.356L113.266 34.926L113.404 35.73C113.411 35.7747 113.406 35.8206 113.388 35.8624C113.371 35.9043 113.343 35.9406 113.306 35.9673C113.269 35.9939 113.226 36.01 113.181 36.0137C113.136 36.0173 113.091 36.0084 113.05 35.988L112.33 35.604L111.61 35.988C111.57 36.0084 111.524 36.0173 111.479 36.0137C111.434 36.01 111.391 35.9939 111.354 35.9673C111.318 35.9406 111.289 35.9043 111.272 35.8624C111.254 35.8206 111.249 35.7747 111.256 35.73L111.388 34.926L110.788 34.356C110.755 34.3246 110.731 34.2842 110.719 34.2397C110.708 34.1952 110.71 34.1483 110.724 34.1047C110.739 34.0611 110.766 34.0226 110.801 33.9937C110.837 33.9649 110.88 33.9469 110.926 33.942L111.73 33.822L112.09 33.09C112.104 33.0382 112.135 32.9926 112.178 32.96C112.221 32.9275 112.273 32.9099 112.327 32.9099C112.381 32.9099 112.433 32.9275 112.476 32.96C112.519 32.9926 112.55 33.0382 112.564 33.09Z" fill="#EBEBEB"/>
<path d="M13.4683 208.2L13.8283 208.926L14.6323 209.046C14.6779 209.052 14.7209 209.071 14.7563 209.101C14.7917 209.13 14.818 209.169 14.8324 209.213C14.8468 209.257 14.8486 209.304 14.8376 209.348C14.8266 209.393 14.8033 209.434 14.7703 209.466L14.1703 210.03L14.3083 210.834C14.3154 210.879 14.31 210.925 14.2927 210.966C14.2753 211.008 14.2468 211.045 14.2102 211.071C14.1736 211.098 14.1303 211.114 14.0852 211.118C14.04 211.121 13.9947 211.112 13.9543 211.092L13.2343 210.714L12.5143 211.092C12.4739 211.112 12.4286 211.121 12.3834 211.118C12.3382 211.114 12.295 211.098 12.2584 211.071C12.2218 211.045 12.1932 211.008 12.1759 210.966C12.1586 210.925 12.1532 210.879 12.1603 210.834L12.2983 210.03L11.6983 209.466C11.6654 209.434 11.642 209.394 11.6307 209.35C11.6194 209.305 11.6207 209.259 11.6344 209.215C11.6481 209.172 11.6737 209.133 11.7083 209.103C11.7429 209.073 11.7851 209.053 11.8303 209.046L12.6343 208.926L13.0003 208.2C13.0163 208.151 13.0476 208.107 13.0896 208.077C13.1317 208.046 13.1823 208.03 13.2343 208.03C13.2863 208.03 13.3369 208.046 13.3789 208.077C13.421 208.107 13.4522 208.151 13.4683 208.2Z" fill="#F5F5F5"/>
<path d="M29.6502 25.38L30.0102 26.112L30.8202 26.226C30.8654 26.2332 30.9076 26.2529 30.9422 26.2827C30.9769 26.3126 31.0024 26.3516 31.0162 26.3952C31.0299 26.4388 31.0311 26.4854 31.0199 26.5297C31.0086 26.574 30.9852 26.6143 30.9522 26.646L30.3522 27.246L30.4902 28.044C30.4998 28.0893 30.4961 28.1364 30.4795 28.1796C30.463 28.2229 30.4342 28.2604 30.3968 28.2877C30.3594 28.3149 30.3149 28.3308 30.2686 28.3333C30.2224 28.3359 30.1764 28.325 30.1362 28.302L29.4162 27.924L28.6962 28.302C28.6561 28.325 28.6101 28.3359 28.5638 28.3333C28.5176 28.3308 28.4731 28.3149 28.4357 28.2877C28.3983 28.2604 28.3695 28.2229 28.353 28.1796C28.3364 28.1364 28.3327 28.0893 28.3422 28.044L28.4742 27.246L27.8742 26.646C27.8412 26.6139 27.8179 26.5731 27.8069 26.5284C27.7959 26.4836 27.7977 26.4367 27.8121 26.3929C27.8265 26.3491 27.8529 26.3103 27.8883 26.2808C27.9236 26.2513 27.9666 26.2323 28.0122 26.226L28.8162 26.112L29.2002 25.38C29.2195 25.3364 29.251 25.2993 29.291 25.2733C29.3309 25.2473 29.3776 25.2335 29.4252 25.2335C29.4729 25.2335 29.5196 25.2473 29.5595 25.2733C29.5994 25.2993 29.631 25.3364 29.6502 25.38Z" fill="#EBEBEB"/>
<path d="M28.678 169.992C28.6792 170.15 28.6334 170.305 28.5464 170.437C28.4595 170.569 28.3353 170.672 28.1896 170.734C28.0439 170.795 27.8832 170.812 27.728 170.781C27.5728 170.751 27.4301 170.676 27.3179 170.564C27.2057 170.453 27.1291 170.311 27.0978 170.156C27.0665 170.001 27.082 169.84 27.1422 169.694C27.2024 169.548 27.3047 169.423 27.436 169.335C27.5674 169.247 27.7219 169.2 27.88 169.2C28.0906 169.2 28.2927 169.283 28.4422 169.432C28.5916 169.58 28.6764 169.781 28.678 169.992Z" fill="#EBEBEB"/>
<path d="M142.402 70.134C142.403 70.2921 142.357 70.4469 142.27 70.579C142.183 70.711 142.059 70.8142 141.913 70.8755C141.767 70.9368 141.607 70.9535 141.452 70.9234C141.296 70.8933 141.154 70.8178 141.042 70.7064C140.929 70.595 140.853 70.4529 140.821 70.2979C140.79 70.1429 140.806 69.9822 140.866 69.836C140.926 69.6899 141.028 69.5649 141.16 69.4769C141.291 69.389 141.446 69.342 141.604 69.342C141.708 69.3412 141.812 69.3611 141.909 69.4006C142.005 69.44 142.093 69.4982 142.168 69.5718C142.242 69.6455 142.301 69.733 142.341 69.8295C142.381 69.926 142.402 70.0295 142.402 70.134Z" fill="#EBEBEB"/>
<path d="M101.026 26.04C101.026 26.1978 100.979 26.3521 100.891 26.4833C100.804 26.6146 100.679 26.7169 100.533 26.7773C100.387 26.8377 100.227 26.8535 100.072 26.8227C99.9172 26.7919 99.775 26.7159 99.6634 26.6043C99.5518 26.4927 99.4758 26.3505 99.445 26.1957C99.4142 26.0409 99.43 25.8804 99.4904 25.7346C99.5508 25.5888 99.6531 25.4642 99.7843 25.3765C99.9156 25.2888 100.07 25.242 100.228 25.242C100.439 25.2436 100.641 25.3282 100.79 25.4775C100.94 25.6268 101.024 25.8288 101.026 26.04Z" fill="#F5F5F5"/>
<path d="M102.29 220.526C104.66 219.967 106.128 217.592 105.569 215.221C105.009 212.851 102.634 211.383 100.264 211.942C97.8933 212.502 96.4252 214.877 96.9847 217.247C97.5442 219.618 99.9194 221.086 102.29 220.526Z" fill="#F0F0F0"/>
<path d="M99.7598 213.654C98.8564 213.652 97.9759 213.938 97.2458 214.47C96.8729 215.325 96.7814 216.277 96.9844 217.188C97.1874 218.099 97.6744 218.921 98.3753 219.538C99.0761 220.154 99.9545 220.531 100.884 220.616C101.813 220.7 102.745 220.487 103.546 220.008C103.9 219.353 104.078 218.616 104.063 217.871C104.047 217.126 103.838 216.398 103.456 215.758C103.075 215.118 102.533 214.589 101.885 214.221C101.237 213.853 100.505 213.66 99.7598 213.66V213.654Z" fill="#E6E6E6"/>
<path d="M65.6077 139.584H29.0977V123.102L65.6077 79.698H83.0797V124.038H92.1337V139.584H83.0797V153.072H65.6077V139.584ZM65.6077 124.038V101.334L46.3117 124.038H65.6077Z" fill="#21295C"/>
<path d="M98.3792 116.706C98.3792 102.99 100.847 93.39 105.783 87.906C110.719 82.422 118.241 79.682 128.349 79.686C133.201 79.686 137.187 80.286 140.307 81.486C143.141 82.5073 145.737 84.0979 147.933 86.16C149.785 87.9276 151.353 89.9695 152.583 92.214C153.801 94.5575 154.718 97.0451 155.313 99.618C156.67 105.114 157.347 110.757 157.329 116.418C157.329 129.506 155.115 139.084 150.687 145.152C146.259 151.22 138.633 154.256 127.809 154.26C121.737 154.26 116.831 153.292 113.091 151.356C109.321 149.389 106.146 146.449 103.893 142.842C102.153 140.186 100.799 136.552 99.8312 131.94C98.8262 126.925 98.3397 121.82 98.3792 116.706ZM118.263 116.754C118.263 125.954 119.073 132.228 120.693 135.576C122.313 138.924 124.667 140.606 127.755 140.622C128.735 140.633 129.708 140.449 130.616 140.082C131.524 139.714 132.351 139.17 133.047 138.48C134.543 137.052 135.643 134.796 136.347 131.712C137.051 128.628 137.403 123.828 137.403 117.312C137.403 107.736 136.591 101.298 134.967 97.998C133.343 94.698 130.907 93.05 127.659 93.054C124.347 93.054 121.947 94.736 120.459 98.1C118.971 101.464 118.239 107.682 118.263 116.754Z" fill="#21295C"/>
<path d="M200.043 139.584H163.533V123.102L200.043 79.698H217.515V124.038H226.599V139.584H217.515V153.072H200.043V139.584ZM200.043 124.038V101.334L180.753 124.038H200.043Z" fill="#21295C"/>
<g opacity="0.3">
<path d="M97.6004 54.372C97.6004 54.5942 97.5345 54.8113 97.4109 54.996C97.2874 55.1806 97.1118 55.3244 96.9064 55.4092C96.7011 55.4939 96.4751 55.5158 96.2573 55.472C96.0395 55.4282 95.8396 55.3208 95.6829 55.1632C95.5263 55.0057 95.4199 54.8052 95.3773 54.5872C95.3347 54.3692 95.3577 54.1434 95.4436 53.9385C95.5294 53.7336 95.6742 53.5587 95.8595 53.4362C96.0448 53.3136 96.2623 53.2488 96.4844 53.25C96.6315 53.25 96.7771 53.2791 96.9129 53.3355C97.0487 53.392 97.172 53.4747 97.2757 53.579C97.3794 53.6833 97.4615 53.807 97.5172 53.9431C97.573 54.0792 97.6012 54.225 97.6004 54.372Z" fill="#21295C"/>
<path d="M20.7822 97.47C21.2196 97.47 21.5742 97.1155 21.5742 96.6781C21.5742 96.2406 21.2196 95.886 20.7822 95.886C20.3448 95.886 19.9902 96.2406 19.9902 96.6781C19.9902 97.1155 20.3448 97.47 20.7822 97.47Z" fill="#21295C"/>
<path d="M151.63 213.132C152.256 213.132 152.764 212.624 152.764 211.998C152.764 211.372 152.256 210.864 151.63 210.864C151.004 210.864 150.496 211.372 150.496 211.998C150.496 212.624 151.004 213.132 151.63 213.132Z" fill="#21295C"/>
<path d="M178.9 166.992C179.338 166.992 179.692 166.637 179.692 166.2C179.692 165.763 179.338 165.408 178.9 165.408C178.463 165.408 178.108 165.763 178.108 166.2C178.108 166.637 178.463 166.992 178.9 166.992Z" fill="#21295C"/>
<path d="M231.502 24.372C231.502 24.5287 231.456 24.6818 231.368 24.812C231.281 24.9423 231.158 25.0438 231.013 25.1037C230.868 25.1637 230.709 25.1794 230.555 25.1488C230.402 25.1182 230.261 25.0428 230.15 24.932C230.039 24.8213 229.964 24.6802 229.933 24.5265C229.903 24.3729 229.918 24.2137 229.978 24.0689C230.038 23.9242 230.14 23.8005 230.27 23.7135C230.4 23.6265 230.553 23.58 230.71 23.58C230.92 23.58 231.121 23.6635 231.27 23.812C231.419 23.9605 231.502 24.162 231.502 24.372Z" fill="#21295C"/>
<path d="M80.6504 8.40003C80.6504 8.55667 80.604 8.7098 80.5169 8.84004C80.4299 8.97029 80.3062 9.0718 80.1615 9.13174C80.0168 9.19169 79.8575 9.20738 79.7039 9.17682C79.5503 9.14626 79.4091 9.07082 79.2984 8.96006C79.1876 8.8493 79.1122 8.70818 79.0816 8.55455C79.0511 8.40091 79.0668 8.24167 79.1267 8.09695C79.1866 7.95223 79.2881 7.82853 79.4184 7.74151C79.5486 7.65448 79.7018 7.60803 79.8584 7.60803C80.068 7.6096 80.2685 7.69355 80.4167 7.84174C80.5649 7.98993 80.6488 8.19047 80.6504 8.40003Z" fill="#21295C"/>
<path d="M143.62 49.956C144.058 49.956 144.412 49.6015 144.412 49.164C144.412 48.7266 144.058 48.372 143.62 48.372C143.183 48.372 142.828 48.7266 142.828 49.164C142.828 49.6015 143.183 49.956 143.62 49.956Z" fill="#21295C"/>
</g>
<path d="M61.7378 49.962C68.9981 49.962 74.8838 44.0764 74.8838 36.816C74.8838 29.5557 68.9981 23.67 61.7378 23.67C54.4775 23.67 48.5918 29.5557 48.5918 36.816C48.5918 44.0764 54.4775 49.962 61.7378 49.962Z" fill="#21295C"/>
<path opacity="0.7" d="M61.7378 49.962C68.9981 49.962 74.8838 44.0764 74.8838 36.816C74.8838 29.5557 68.9981 23.67 61.7378 23.67C54.4775 23.67 48.5918 29.5557 48.5918 36.816C48.5918 44.0764 54.4775 49.962 61.7378 49.962Z" fill="white"/>
<path opacity="0.2" d="M57.2082 26.898C55.4179 26.8925 53.6454 27.254 52.0002 27.96C49.9782 30.1823 48.778 33.03 48.5994 36.0292C48.4208 39.0285 49.2745 41.9985 51.0185 44.4451C52.7625 46.8917 55.2916 48.6674 58.185 49.4768C61.0785 50.2862 64.1619 50.0806 66.9222 48.894C68.6336 47.008 69.7606 44.6656 70.1663 42.1514C70.5721 39.6372 70.2392 37.0593 69.2079 34.7306C68.1767 32.402 66.4916 30.4228 64.3572 29.0335C62.2228 27.6441 59.7309 26.9044 57.1842 26.904L57.2082 26.898Z" fill="#21295C"/>
<path opacity="0.2" d="M55.9 30.3721C55.9 30.6094 55.8296 30.8414 55.6978 31.0387C55.5659 31.2361 55.3785 31.3899 55.1592 31.4807C54.9399 31.5715 54.6987 31.5953 54.4659 31.549C54.2331 31.5027 54.0193 31.3884 53.8515 31.2206C53.6836 31.0528 53.5694 30.8389 53.5231 30.6062C53.4768 30.3734 53.5005 30.1321 53.5913 29.9128C53.6822 29.6936 53.836 29.5062 54.0333 29.3743C54.2307 29.2424 54.4627 29.1721 54.7 29.1721C55.0183 29.1721 55.3235 29.2985 55.5485 29.5235C55.7736 29.7486 55.9 30.0538 55.9 30.3721Z" fill="#21295C"/>
<path opacity="0.2" d="M70.0367 29.172C70.0367 29.4094 69.9663 29.6414 69.8345 29.8387C69.7026 30.0361 69.5152 30.1899 69.2959 30.2807C69.0767 30.3715 68.8354 30.3953 68.6026 30.349C68.3698 30.3027 68.156 30.1884 67.9882 30.0206C67.8204 29.8527 67.7061 29.6389 67.6598 29.4062C67.6135 29.1734 67.6372 28.9321 67.7281 28.7128C67.8189 28.4936 67.9727 28.3061 68.17 28.1743C68.3674 28.0424 68.5994 27.972 68.8367 27.972C69.155 27.972 69.4602 28.0985 69.6852 28.3235C69.9103 28.5486 70.0367 28.8538 70.0367 29.172Z" fill="#21295C"/>
<path opacity="0.2" d="M67.6362 37.74C67.6362 38.1293 67.5208 38.5098 67.3045 38.8334C67.0883 39.157 66.7809 39.4093 66.4213 39.5582C66.0617 39.7072 65.666 39.7462 65.2843 39.6702C64.9025 39.5943 64.5518 39.4068 64.2766 39.1316C64.0014 38.8564 63.8139 38.5057 63.738 38.124C63.6621 37.7422 63.7011 37.3465 63.85 36.9869C63.999 36.6273 64.2512 36.3199 64.5748 36.1037C64.8985 35.8875 65.279 35.772 65.6682 35.772C66.1901 35.772 66.6907 35.9794 67.0598 36.3484C67.4289 36.7175 67.6362 37.2181 67.6362 37.74Z" fill="#21295C"/>
<path opacity="0.2" d="M61.3839 43.35C61.3839 43.8698 61.2298 44.3779 60.941 44.8101C60.6523 45.2423 60.2418 45.5791 59.7616 45.778C59.2814 45.9769 58.753 46.0289 58.2432 45.9275C57.7335 45.8261 57.2652 45.5758 56.8977 45.2083C56.5301 44.8408 56.2798 44.3725 56.1784 43.8627C56.077 43.353 56.1291 42.8246 56.328 42.3444C56.5269 41.8641 56.8637 41.4537 57.2959 41.1649C57.7281 40.8762 58.2362 40.722 58.7559 40.722C59.4529 40.722 60.1214 40.9989 60.6142 41.4918C61.1071 41.9846 61.3839 42.6531 61.3839 43.35Z" fill="#21295C"/>
<path d="M217.54 195.388C219.004 189.186 215.163 182.972 208.961 181.508C202.759 180.044 196.545 183.885 195.081 190.087C193.617 196.289 197.458 202.503 203.66 203.967C209.862 205.431 216.076 201.59 217.54 195.388Z" fill="#21295C"/>
<path opacity="0.3" d="M217.54 195.388C219.004 189.186 215.163 182.972 208.961 181.508C202.759 180.044 196.545 183.885 195.081 190.087C193.617 196.289 197.458 202.503 203.66 203.967C209.862 205.431 216.076 201.59 217.54 195.388Z" fill="white"/>
<path opacity="0.4" d="M213.599 183.804C211.041 183.032 208.294 183.172 205.828 184.2C203.362 185.228 201.33 187.081 200.078 189.441C198.827 191.802 198.433 194.523 198.966 197.142C199.498 199.76 200.923 202.112 202.997 203.796C204.072 204.123 205.19 204.289 206.315 204.288C208.697 204.288 211.02 203.55 212.966 202.176C214.912 200.802 216.385 198.86 217.183 196.616C217.981 194.371 218.065 191.935 217.423 189.641C216.781 187.347 215.445 185.308 213.599 183.804Z" fill="#21295C"/>
<path d="M195.298 196.2C182.98 201.996 192.166 206.466 209.524 200.226C225.598 194.448 231.724 187.164 217.324 189.426C218.098 192.456 197.968 200.298 195.298 196.2Z" fill="#21295C"/>
<path opacity="0.2" d="M213.459 79.698C197.325 90.6 176.439 105 170.673 139.584H169.443C175.053 105.384 195.177 90.642 211.317 79.698H213.459Z" fill="black"/>
<path d="M130 187.962C119.8 187.962 109.714 183.36 104.8 175.848C101.77 171.204 98.2477 161.478 108.736 148.5L109.666 149.256C102.25 158.436 100.882 167.646 105.808 175.194C111.808 184.374 125.962 188.994 138.046 185.706C150.424 182.34 157.936 171.576 158.662 156.174C161.14 103.488 189.13 87.2581 209.566 75.4081C222.268 68.0461 231.442 62.7301 229.426 51.5041C229.144 49.9501 228.526 48.8761 227.524 48.2161C224.914 46.4941 219.814 47.6881 213.91 49.0621C202.324 51.7621 186.46 55.4581 177.01 39.3841L178.048 38.7841C187.048 54.1021 201.79 50.6641 213.64 47.9041C219.814 46.4701 225.142 45.2281 228.184 47.2261C229.474 48.0721 230.266 49.4101 230.584 51.3061C232.75 63.3541 222.784 69.1381 210.154 76.4581C189.952 88.1701 162.292 104.208 159.844 156.258C159.088 172.218 151.252 183.384 138.34 186.894C135.619 187.618 132.815 187.978 130 187.962Z" fill="#21295C"/>
<path opacity="0.2" d="M130 187.962C119.8 187.962 109.714 183.36 104.8 175.848C101.77 171.204 98.2477 161.478 108.736 148.5L109.666 149.256C102.25 158.436 100.882 167.646 105.808 175.194C111.808 184.374 125.962 188.994 138.046 185.706C150.424 182.34 157.936 171.576 158.662 156.174C161.14 103.488 189.13 87.2581 209.566 75.4081C222.268 68.0461 231.442 62.7301 229.426 51.5041C229.144 49.9501 228.526 48.8761 227.524 48.2161C224.914 46.4941 219.814 47.6881 213.91 49.0621C202.324 51.7621 186.46 55.4581 177.01 39.3841L178.048 38.7841C187.048 54.1021 201.79 50.6641 213.64 47.9041C219.814 46.4701 225.142 45.2281 228.184 47.2261C229.474 48.0721 230.266 49.4101 230.584 51.3061C232.75 63.3541 222.784 69.1381 210.154 76.4581C189.952 88.1701 162.292 104.208 159.844 156.258C159.088 172.218 151.252 183.384 138.34 186.894C135.619 187.618 132.815 187.978 130 187.962Z" fill="white"/>
<path d="M164.655 25.2C167.42 25.216 170.167 25.6468 172.803 26.478C172.803 26.478 179.403 37.74 180.183 40.32C179.907 42.864 175.617 47.034 175.617 47.034L164.655 25.2Z" fill="#21295C"/>
<path opacity="0.3" d="M164.655 25.2C167.42 25.216 170.167 25.6468 172.803 26.478C172.803 26.478 179.403 37.74 180.183 40.32C179.907 42.864 175.617 47.034 175.617 47.034L164.655 25.2Z" fill="white"/>
<path d="M184.204 79.878C181.662 76.7703 179.345 73.486 177.268 70.05C176.764 69.182 176.286 68.298 175.834 67.398C175.576 66.888 175.33 66.378 175.09 65.862C174.775 65.3599 174.531 64.8168 174.364 64.248C173.644 56.646 176.248 51.048 173.764 44.946L163.876 48.81C163.876 48.81 164.716 59.682 166.636 66.21C167.836 70.248 170.524 73.74 173.122 76.974C173.932 77.982 174.712 79.02 175.522 80.034C176.332 81.048 177.148 81.87 177.922 82.824C179.092 84.27 179.476 85.656 178.594 87.36L178.444 87.63C178.192 88.074 179.368 88.578 180.112 87.63C181.312 86.082 181.144 86.178 182.188 84.858C182.824 84.06 183.55 83.19 184.18 82.458C184.484 82.0981 184.653 81.6434 184.657 81.1724C184.661 80.7013 184.501 80.2435 184.204 79.878Z" fill="#21295C"/>
<path opacity="0.7" d="M184.204 79.878C181.662 76.7703 179.345 73.486 177.268 70.05C176.764 69.182 176.286 68.298 175.834 67.398C175.576 66.888 175.33 66.378 175.09 65.862C174.775 65.3599 174.531 64.8168 174.364 64.248C173.644 56.646 176.248 51.048 173.764 44.946L163.876 48.81C163.876 48.81 164.716 59.682 166.636 66.21C167.836 70.248 170.524 73.74 173.122 76.974C173.932 77.982 174.712 79.02 175.522 80.034C176.332 81.048 177.148 81.87 177.922 82.824C179.092 84.27 179.476 85.656 178.594 87.36L178.444 87.63C178.192 88.074 179.368 88.578 180.112 87.63C181.312 86.082 181.144 86.178 182.188 84.858C182.824 84.06 183.55 83.19 184.18 82.458C184.484 82.0981 184.653 81.6434 184.657 81.1724C184.661 80.7013 184.501 80.2435 184.204 79.878Z" fill="white"/>
<path opacity="0.3" d="M181.786 76.752C180.217 78.434 178.475 79.9463 176.59 81.264C176.848 81.552 177.1 81.864 177.358 82.14C179.245 80.8648 180.96 79.3501 182.458 77.634L181.786 76.752Z" fill="#21295C"/>
<path opacity="0.3" d="M184.204 79.878L184.132 79.794C183.67 80.3237 183.402 80.9941 183.37 81.696C183.331 82.1775 183.41 82.6612 183.598 83.106L184.168 82.428C184.466 82.0718 184.632 81.6238 184.639 81.1594C184.645 80.695 184.492 80.2426 184.204 79.878Z" fill="#21295C"/>
<path d="M162.303 32.4001C161.231 34.0051 159.946 35.4565 158.481 36.7141C157.669 37.4139 156.78 38.0178 155.829 38.5141C155.33 38.7698 154.813 38.9884 154.281 39.1681L153.873 39.3001L153.741 39.3361L153.459 39.4141C153.286 39.4553 153.109 39.4833 152.931 39.4981C152.425 39.5368 151.916 39.4901 151.425 39.3601C150.807 39.1844 150.213 38.9282 149.661 38.5981C149.217 38.3384 148.787 38.056 148.371 37.7521C147.621 37.1941 146.904 36.5931 146.223 35.9521C144.911 34.7085 143.707 33.3556 142.623 31.9081C142.415 31.626 142.311 31.2801 142.33 30.9298C142.35 30.5796 142.491 30.2471 142.729 29.9896C142.967 29.7322 143.288 29.566 143.635 29.5197C143.983 29.4734 144.336 29.5499 144.633 29.7361H144.681C146.097 30.6361 147.525 31.5841 148.917 32.4301C149.625 32.8441 150.309 33.2641 150.987 33.5881C151.297 33.7501 151.615 33.8943 151.941 34.0201C152.144 34.1097 152.362 34.1625 152.583 34.1761C152.619 34.1761 152.583 34.1341 152.361 34.1401C152.291 34.1359 152.221 34.1359 152.151 34.1401L152.019 34.1701L152.217 34.0681C152.484 33.9246 152.742 33.7664 152.991 33.5941C153.528 33.2155 154.03 32.7898 154.491 32.3221C155.54 31.2236 156.521 30.0635 157.431 28.8481C157.93 28.2902 158.619 27.9388 159.363 27.8628C160.108 27.7868 160.853 27.9917 161.455 28.4372C162.056 28.8828 162.469 29.5368 162.612 30.2711C162.756 31.0053 162.62 31.7668 162.231 32.4061L162.303 32.4001Z" fill="#21295C"/>
<path opacity="0.7" d="M162.303 32.4001C161.231 34.0051 159.946 35.4565 158.481 36.7141C157.669 37.4139 156.78 38.0178 155.829 38.5141C155.33 38.7698 154.813 38.9884 154.281 39.1681L153.873 39.3001L153.741 39.3361L153.459 39.4141C153.286 39.4553 153.109 39.4833 152.931 39.4981C152.425 39.5368 151.916 39.4901 151.425 39.3601C150.807 39.1844 150.213 38.9282 149.661 38.5981C149.217 38.3384 148.787 38.056 148.371 37.7521C147.621 37.1941 146.904 36.5931 146.223 35.9521C144.911 34.7085 143.707 33.3556 142.623 31.9081C142.415 31.626 142.311 31.2801 142.33 30.9298C142.35 30.5796 142.491 30.2471 142.729 29.9896C142.967 29.7322 143.288 29.566 143.635 29.5197C143.983 29.4734 144.336 29.5499 144.633 29.7361H144.681C146.097 30.6361 147.525 31.5841 148.917 32.4301C149.625 32.8441 150.309 33.2641 150.987 33.5881C151.297 33.7501 151.615 33.8943 151.941 34.0201C152.144 34.1097 152.362 34.1625 152.583 34.1761C152.619 34.1761 152.583 34.1341 152.361 34.1401C152.291 34.1359 152.221 34.1359 152.151 34.1401L152.019 34.1701L152.217 34.0681C152.484 33.9246 152.742 33.7664 152.991 33.5941C153.528 33.2155 154.03 32.7898 154.491 32.3221C155.54 31.2236 156.521 30.0635 157.431 28.8481C157.93 28.2902 158.619 27.9388 159.363 27.8628C160.108 27.7868 160.853 27.9917 161.455 28.4372C162.056 28.8828 162.469 29.5368 162.612 30.2711C162.756 31.0053 162.62 31.7668 162.231 32.4061L162.303 32.4001Z" fill="white"/>
<path d="M140.374 28.452L141.076 29.652C141.076 29.652 141.61 31.224 142.684 31.512L145.6 30.57L145.45 30.324C145.078 29.76 145.12 28.662 145.246 27.75C145.372 26.838 144.904 26.808 144.556 27.036C144.309 27.3197 144.136 27.6597 144.052 28.026C143.909 27.8279 143.75 27.6413 143.578 27.468L142.69 26.58C142.503 26.3979 142.255 26.293 141.995 26.2864C141.734 26.2797 141.481 26.3717 141.286 26.544L140.566 27.186C140.395 27.344 140.283 27.5554 140.248 27.7854C140.213 28.0154 140.257 28.2505 140.374 28.452Z" fill="#21295C"/>
<path opacity="0.7" d="M140.374 28.452L141.076 29.652C141.076 29.652 141.61 31.224 142.684 31.512L145.6 30.57L145.45 30.324C145.078 29.76 145.12 28.662 145.246 27.75C145.372 26.838 144.904 26.808 144.556 27.036C144.309 27.3197 144.136 27.6597 144.052 28.026C143.909 27.8279 143.75 27.6413 143.578 27.468L142.69 26.58C142.503 26.3979 142.255 26.293 141.995 26.2864C141.734 26.2797 141.481 26.3717 141.286 26.544L140.566 27.186C140.395 27.344 140.283 27.5554 140.248 27.7854C140.213 28.0154 140.257 28.2505 140.374 28.452Z" fill="white"/>
<path d="M167.602 24.132C164.367 24.9893 161.269 26.2961 158.398 28.014C157.95 28.2944 157.598 28.705 157.39 29.1908C157.182 29.6765 157.127 30.2143 157.234 30.732C158.392 36.396 161.026 43.98 163.87 48.81L177.136 43.32C177.226 40.98 174.004 33.408 170.722 26.088C170.134 24.774 169 23.796 167.602 24.132Z" fill="#21295C"/>
<path opacity="0.8" d="M167.602 24.132C164.367 24.9893 161.269 26.2961 158.398 28.014C157.95 28.2944 157.598 28.705 157.39 29.1908C157.182 29.6765 157.127 30.2143 157.234 30.732C158.392 36.396 161.026 43.98 163.87 48.81L177.136 43.32C177.226 40.98 174.004 33.408 170.722 26.088C170.134 24.774 169 23.796 167.602 24.132Z" fill="white"/>
<path opacity="0.3" d="M172.779 30.7261L170.146 29.8441C170.746 31.3861 172.864 33.3361 174.346 34.4821C173.866 33.2821 173.331 32.0221 172.779 30.7261Z" fill="#21295C"/>
<path d="M166.731 18.192C165.633 16.104 163.263 15.054 160.419 15.288C158.019 15.492 155.895 17.94 156.147 19.26C156.399 20.58 158.415 21.144 158.799 21.6L157.137 22.8C156.94 22.9421 156.774 23.1226 156.649 23.3306C156.524 23.5386 156.442 23.7698 156.408 24.0102C156.375 24.2507 156.39 24.4955 156.453 24.7299C156.517 24.9642 156.627 25.1834 156.777 25.374C157.479 26.262 158.403 27.174 158.937 27.846C163.533 27.726 166.935 25.974 168.165 24.288C167.703 22.152 167.799 20.268 166.731 18.192Z" fill="#21295C"/>
<path opacity="0.8" d="M166.731 18.192C165.633 16.104 163.263 15.054 160.419 15.288C158.019 15.492 155.895 17.94 156.147 19.26C156.399 20.58 158.415 21.144 158.799 21.6L157.137 22.8C156.94 22.9421 156.774 23.1226 156.649 23.3306C156.524 23.5386 156.442 23.7698 156.408 24.0102C156.375 24.2507 156.39 24.4955 156.453 24.7299C156.517 24.9642 156.627 25.1834 156.777 25.374C157.479 26.262 158.403 27.174 158.937 27.846C163.533 27.726 166.935 25.974 168.165 24.288C167.703 22.152 167.799 20.268 166.731 18.192Z" fill="white"/>
<path d="M164.476 19.4881C164.802 20.3248 164.873 21.2395 164.68 22.1166C164.486 22.9936 164.037 23.7936 163.389 24.4154C162.741 25.0372 161.923 25.453 161.039 25.6101C160.154 25.7671 159.243 25.6585 158.421 25.298C157.598 24.9374 156.901 24.3411 156.417 23.5844C155.933 22.8276 155.685 21.9445 155.703 21.0465C155.721 20.1486 156.005 19.2762 156.519 18.5396C157.033 17.8029 157.753 17.2352 158.59 16.9081C159.713 16.4707 160.963 16.4967 162.067 16.9804C163.17 17.4641 164.037 18.366 164.476 19.4881Z" fill="#263238"/>
<path d="M203.433 73.56C203.367 71.586 203.277 71.76 203.223 70.098C203.187 69.078 203.181 67.944 203.175 66.966C203.173 66.5016 203.011 66.0521 202.716 65.6935C202.421 65.3349 202.011 65.0893 201.555 64.998C200.763 64.836 199.965 64.686 199.155 64.518C198.117 64.296 197.091 64.056 196.077 63.762C195.285 63.534 194.505 63.282 193.731 63C192.957 62.718 192.087 62.4 191.283 62.028C190.335 61.626 189.399 61.194 188.475 60.744C187.437 60.252 186.411 59.736 185.385 59.214C181.437 52.68 181.353 48.372 177.117 43.32L168.021 47.436C168.021 47.436 174.705 59.292 179.253 64.32C181.875 67.212 185.985 68.52 189.651 69.468C192.297 70.146 194.979 70.668 197.661 71.166C198.705 71.358 199.839 71.43 200.739 72.054C201.405 72.5646 201.862 73.3007 202.023 74.124C202.063 74.292 202.099 74.46 202.131 74.628C202.245 75.132 203.475 74.748 203.433 73.56Z" fill="#21295C"/>
<path opacity="0.8" d="M203.433 73.56C203.367 71.586 203.277 71.76 203.223 70.098C203.187 69.078 203.181 67.944 203.175 66.966C203.173 66.5016 203.011 66.0521 202.716 65.6935C202.421 65.3349 202.011 65.0893 201.555 64.998C200.763 64.836 199.965 64.686 199.155 64.518C198.117 64.296 197.091 64.056 196.077 63.762C195.285 63.534 194.505 63.282 193.731 63C192.957 62.718 192.087 62.4 191.283 62.028C190.335 61.626 189.399 61.194 188.475 60.744C187.437 60.252 186.411 59.736 185.385 59.214C181.437 52.68 181.353 48.372 177.117 43.32L168.021 47.436C168.021 47.436 174.705 59.292 179.253 64.32C181.875 67.212 185.985 68.52 189.651 69.468C192.297 70.146 194.979 70.668 197.661 71.166C198.705 71.358 199.839 71.43 200.739 72.054C201.405 72.5646 201.862 73.3007 202.023 74.124C202.063 74.292 202.099 74.46 202.131 74.628C202.245 75.132 203.475 74.748 203.433 73.56Z" fill="white"/>
<path opacity="0.3" d="M198.82 64.44C198.46 64.362 198.1 64.284 197.734 64.194C197.764 66.27 196.791 69.846 196.438 70.932L197.577 71.148C198.325 68.9867 198.743 66.7255 198.82 64.44Z" fill="#21295C"/>
<path opacity="0.3" d="M203.199 66.966C203.198 66.5024 203.036 66.0536 202.742 65.6951C202.448 65.3367 202.04 65.0905 201.585 64.998L200.985 64.884C201.082 65.5661 201.431 66.1871 201.963 66.624C202.306 66.9407 202.716 67.1747 203.163 67.308C203.199 67.2 203.199 67.08 203.199 66.966Z" fill="#21295C"/>
<path d="M163.63 19.524C163.87 20.436 162.85 21.39 162.04 20.604C161.284 19.7934 160.457 19.0524 159.568 18.39C158.734 17.868 159.844 16.956 161.158 17.31C161.719 17.4509 162.237 17.726 162.667 18.1117C163.098 18.4974 163.428 18.9821 163.63 19.524Z" fill="white"/>
<path d="M163.696 48.516C163.276 48.672 164.044 49.392 164.044 49.392C164.044 49.392 172.444 46.518 177.544 43.56C177.556 43.381 177.526 43.2015 177.455 43.0366C177.384 42.8718 177.274 42.7262 177.136 42.612C172.771 44.8324 168.284 46.8035 163.696 48.516Z" fill="#21295C"/>
<path opacity="0.5" d="M163.696 48.516C163.276 48.672 164.044 49.392 164.044 49.392C164.044 49.392 172.444 46.518 177.544 43.56C177.556 43.381 177.526 43.2015 177.455 43.0366C177.384 42.8718 177.274 42.7262 177.136 42.612C172.771 44.8324 168.284 46.8035 163.696 48.516Z" fill="white"/>
<path d="M169.876 23.736C171.532 24.576 173.086 25.458 174.676 26.436C175.45 26.928 176.218 27.426 176.98 27.966C177.742 28.506 178.498 29.058 179.26 29.682L179.542 29.916L179.896 30.24C180.107 30.4288 180.307 30.6291 180.496 30.84C180.688 31.05 180.85 31.254 181.006 31.44C181.162 31.626 181.33 31.848 181.468 32.04C182.027 32.8114 182.543 33.6126 183.016 34.44C183.945 36.0447 184.748 37.7198 185.416 39.45C185.539 39.7769 185.545 40.1365 185.434 40.4676C185.322 40.7987 185.099 41.0808 184.803 41.2661C184.506 41.4513 184.155 41.5283 183.808 41.4838C183.462 41.4393 183.141 41.2761 182.902 41.022L182.872 40.986C181.672 39.708 180.514 38.364 179.35 37.11C178.186 35.856 177.004 34.584 176.026 34.026C174.664 33.18 173.146 32.334 171.64 31.506L167.104 28.986C166.4 28.6137 165.874 27.9772 165.64 27.2165C165.405 26.4559 165.483 25.6334 165.856 24.93C166.228 24.2267 166.864 23.7001 167.625 23.466C168.386 23.232 169.208 23.3097 169.912 23.682L169.876 23.736Z" fill="#21295C"/>
<path opacity="0.8" d="M169.876 23.736C171.532 24.576 173.086 25.458 174.676 26.436C175.45 26.928 176.218 27.426 176.98 27.966C177.742 28.506 178.498 29.058 179.26 29.682L179.542 29.916L179.896 30.24C180.107 30.4288 180.307 30.6291 180.496 30.84C180.688 31.05 180.85 31.254 181.006 31.44C181.162 31.626 181.33 31.848 181.468 32.04C182.027 32.8114 182.543 33.6126 183.016 34.44C183.945 36.0447 184.748 37.7198 185.416 39.45C185.539 39.7769 185.545 40.1365 185.434 40.4676C185.322 40.7987 185.099 41.0808 184.803 41.2661C184.506 41.4513 184.155 41.5283 183.808 41.4838C183.462 41.4393 183.141 41.2761 182.902 41.022L182.872 40.986C181.672 39.708 180.514 38.364 179.35 37.11C178.186 35.856 177.004 34.584 176.026 34.026C174.664 33.18 173.146 32.334 171.64 31.506L167.104 28.986C166.4 28.6137 165.874 27.9772 165.64 27.2165C165.405 26.4559 165.483 25.6334 165.856 24.93C166.228 24.2267 166.864 23.7001 167.625 23.466C168.386 23.232 169.208 23.3097 169.912 23.682L169.876 23.736Z" fill="white"/>
<path d="M186.838 42.444L186.328 41.166C186.328 41.166 186.046 39.534 185.032 39.078L182.032 39.552L182.134 39.816C182.41 40.416 182.2 41.514 181.93 42.39C181.66 43.266 182.116 43.38 182.5 43.206C182.716 43.11 182.926 42.72 183.154 42.306C183.266 42.5146 183.392 42.7151 183.532 42.906L184.27 43.92C184.424 44.1301 184.652 44.2741 184.908 44.3231C185.164 44.3721 185.429 44.3224 185.65 44.184L186.466 43.662C186.657 43.5313 186.798 43.3395 186.866 43.1182C186.933 42.8969 186.923 42.6591 186.838 42.444Z" fill="#21295C"/>
<path opacity="0.8" d="M186.838 42.444L186.328 41.166C186.328 41.166 186.046 39.534 185.032 39.078L182.032 39.552L182.134 39.816C182.41 40.416 182.2 41.514 181.93 42.39C181.66 43.266 182.116 43.38 182.5 43.206C182.716 43.11 182.926 42.72 183.154 42.306C183.266 42.5146 183.392 42.7151 183.532 42.906L184.27 43.92C184.424 44.1301 184.652 44.2741 184.908 44.3231C185.164 44.3721 185.429 44.3224 185.65 44.184L186.466 43.662C186.657 43.5313 186.798 43.3395 186.866 43.1182C186.933 42.8969 186.923 42.6591 186.838 42.444Z" fill="white"/>
<path opacity="0.3" d="M167.344 30.636L166.612 30.6961L162.118 41.544C162.364 41.5617 162.611 41.5415 162.85 41.484C162.85 41.484 168.706 39.3 170.476 38.484C169.288 36.03 167.344 30.636 167.344 30.636Z" fill="#21295C"/>
<path d="M159.142 33.48C159.688 36.3158 160.701 39.0409 162.142 41.544C164.338 40.788 167.998 39.36 169.774 38.544C168.58 35.985 167.52 33.3654 166.6 30.696C164.722 30.822 160.6 32.4 159.142 33.48Z" fill="white"/>
<path opacity="0.3" d="M163.6 35.826C163.512 36.1195 163.339 36.3803 163.103 36.5755C162.867 36.7707 162.579 36.8915 162.274 36.9226C161.969 36.9538 161.662 36.8939 161.392 36.7505C161.121 36.6071 160.899 36.3867 160.754 36.1171C160.608 35.8475 160.546 35.5409 160.575 35.236C160.604 34.9311 160.723 34.6417 160.917 34.4044C161.11 34.167 161.37 33.9924 161.663 33.9027C161.955 33.8129 162.268 33.812 162.562 33.9C162.954 34.018 163.284 34.2871 163.479 34.6482C163.674 35.0094 163.717 35.433 163.6 35.826Z" fill="#21295C"/>
<path opacity="0.6" d="M164.746 33.762C164.723 33.8622 164.669 33.9529 164.594 34.0223C164.518 34.0918 164.423 34.1366 164.321 34.151C164.219 34.1654 164.115 34.1487 164.023 34.1031C163.931 34.0574 163.855 33.985 163.804 33.8952C163.754 33.8055 163.732 33.7027 163.741 33.6002C163.751 33.4978 163.791 33.4006 163.856 33.3213C163.922 33.242 164.009 33.1843 164.108 33.1559C164.207 33.1275 164.312 33.1296 164.41 33.162C164.531 33.2009 164.634 33.2844 164.696 33.3958C164.758 33.5072 164.776 33.638 164.746 33.762Z" fill="#21295C"/>
<path opacity="0.6" d="M166.09 33.24C166.076 33.3096 166.047 33.3755 166.006 33.4335C165.965 33.4915 165.913 33.5402 165.852 33.5767C165.791 33.6131 165.723 33.6364 165.652 33.6451C165.582 33.6538 165.51 33.6476 165.442 33.6271C165.374 33.6065 165.312 33.572 165.258 33.5257C165.204 33.4794 165.16 33.4224 165.13 33.3583C165.099 33.2942 165.082 33.2244 165.08 33.1534C165.078 33.0824 165.091 33.0118 165.118 32.946C165.137 32.8826 165.169 32.8235 165.211 32.7722C165.253 32.7209 165.305 32.6785 165.363 32.6472C165.422 32.616 165.486 32.5967 165.552 32.5903C165.618 32.5839 165.685 32.5906 165.748 32.61C165.876 32.6489 165.984 32.7369 166.048 32.8548C166.112 32.9728 166.127 33.1112 166.09 33.24Z" fill="#21295C"/>
<path opacity="0.5" d="M167.974 37.914L162.424 40.104L162.094 39.012L167.638 36.822L167.974 37.914Z" fill="#21295C"/>
<path opacity="0.2" d="M137.355 121.302C137.343 124.796 137.005 128.281 136.347 131.712C135.639 134.796 134.539 137.052 133.047 138.48C132.352 139.17 131.527 139.715 130.62 140.082C129.712 140.45 128.74 140.633 127.761 140.622C124.677 140.622 122.323 138.94 120.699 135.576C120.414 134.972 120.171 134.348 119.973 133.71C116.544 136.656 113.35 139.866 110.421 143.31L107.235 147.066C108.95 148.804 110.928 150.26 113.097 151.38C116.833 153.312 121.737 154.28 127.809 154.284C128.877 154.284 129.909 154.254 130.911 154.194C134.585 148.758 137.625 142.92 139.971 136.794L148.881 113.562L137.355 121.302Z" fill="black"/>
<path d="M57.0342 153L67.5342 163.5L96.9342 135.798C86.8002 131.928 67.0962 142.914 57.0342 153Z" fill="#263238"/>
<path d="M93.6514 189.6C90.2974 186.24 83.1514 179.1 83.1514 179.1L110.853 149.7C114.699 159.81 103.713 179.532 93.6514 189.6Z" fill="#263238"/>
<path d="M133.84 123.42L145.294 101.334L123.208 112.8C116.114 116.479 109.563 121.123 103.744 126.6L66.0938 162.042L84.5917 180.54L120.034 142.89C125.513 137.069 130.159 130.517 133.84 123.42Z" fill="#21295C"/>
<path opacity="0.6" d="M133.84 123.42L145.294 101.334L123.208 112.8C116.114 116.479 109.563 121.123 103.744 126.6L66.0938 162.042L84.5917 180.54L120.034 142.89C125.513 137.069 130.159 130.517 133.84 123.42Z" fill="white"/>
<path d="M110.32 144.048C114.595 144.048 118.06 140.583 118.06 136.308C118.06 132.033 114.595 128.568 110.32 128.568C106.045 128.568 102.58 132.033 102.58 136.308C102.58 140.583 106.045 144.048 110.32 144.048Z" fill="white"/>
<path d="M110.32 141.282C113.067 141.282 115.294 139.055 115.294 136.308C115.294 133.561 113.067 131.334 110.32 131.334C107.573 131.334 105.346 133.561 105.346 136.308C105.346 139.055 107.573 141.282 110.32 141.282Z" fill="#21295C"/>
<path opacity="0.3" d="M90.8494 173.892L72.7354 155.778L87.5674 141.822L104.805 159.066L90.8494 173.892Z" fill="#21295C"/>
<path d="M61.1318 169.572C47.5718 170.67 43.0778 179.352 41.5418 190.89C40.7618 196.776 40.4138 202.734 35.4758 206.178C35.1788 206.38 34.9551 206.673 34.8383 207.012C34.7216 207.352 34.718 207.72 34.8281 208.062C34.9382 208.404 35.1562 208.701 35.4492 208.909C35.7423 209.116 36.0948 209.223 36.4538 209.214C54.6578 208.644 63.1478 199.734 64.2158 196.014C63.9355 197.959 63.4342 199.865 62.7218 201.696C62.5909 202.019 62.5652 202.375 62.6485 202.714C62.7319 203.052 62.9199 203.356 63.1859 203.581C63.4518 203.807 63.7822 203.942 64.1298 203.969C64.4774 203.996 64.8246 203.912 65.1218 203.73C70.2278 200.532 76.6358 194.64 77.0618 185.082C73.3058 179.76 61.1318 169.572 61.1318 169.572Z" fill="#21295C"/>
<path opacity="0.2" d="M61.1318 169.572C47.5718 170.67 43.0778 179.352 41.5418 190.89C40.7618 196.776 40.4138 202.734 35.4758 206.178C35.1788 206.38 34.9551 206.673 34.8383 207.012C34.7216 207.352 34.718 207.72 34.8281 208.062C34.9382 208.404 35.1562 208.701 35.4492 208.909C35.7423 209.116 36.0948 209.223 36.4538 209.214C54.6578 208.644 63.1478 199.734 64.2158 196.014C63.9355 197.959 63.4342 199.865 62.7218 201.696C62.5909 202.019 62.5652 202.375 62.6485 202.714C62.7319 203.052 62.9199 203.356 63.1859 203.581C63.4518 203.807 63.7822 203.942 64.1298 203.969C64.4774 203.996 64.8246 203.912 65.1218 203.73C70.2278 200.532 76.6358 194.64 77.0618 185.082C73.3058 179.76 61.1318 169.572 61.1318 169.572Z" fill="white"/>
<path d="M79.1682 189.18L57.4482 167.46L69.0162 164.958L81.6702 177.612L79.1682 189.18Z" fill="#21295C"/>
</svg>
