<svg width="152" height="403" viewBox="0 0 152 403" fill="none" xmlns="http://www.w3.org/2000/svg">
<path opacity="0.05" fill-rule="evenodd" clip-rule="evenodd" d="M191.66 54.6591C151.328 58.5769 102.311 25.3092 73.0757 53.3686C44.0494 81.2274 76.1998 131.274 70.3597 171.08C64.5664 210.568 20.6412 248.385 39.2873 283.672C57.9684 319.025 113.223 305.906 149.953 321.706C183.401 336.094 207.766 374.998 244.031 371.746C280.592 368.468 304.928 333.612 328.737 305.674C350.894 279.673 368.768 250.832 375.598 217.36C382.715 182.481 382.098 146.13 367.957 113.462C353.117 79.1762 330.711 43.6059 295.271 31.7851C260.878 20.3135 227.746 51.1538 191.66 54.6591Z" fill="#34B4D9"/>
<circle r="1.79643" transform="matrix(-1 0 0 1 153.296 80.8395)" fill="#033083" fill-opacity="0.33"/>
<circle r="1.79643" transform="matrix(-1 0 0 1 142.518 80.8395)" fill="#033083" fill-opacity="0.33"/>
<circle r="1.79643" transform="matrix(-1 0 0 1 131.739 80.8395)" fill="#033083" fill-opacity="0.33"/>
<circle r="1.79643" transform="matrix(-1 0 0 1 120.96 80.8395)" fill="#033083" fill-opacity="0.33"/>
<circle r="1.79643" transform="matrix(-1 0 0 1 110.182 80.8395)" fill="#033083" fill-opacity="0.33"/>
<circle r="1.79643" transform="matrix(-1 0 0 1 99.4032 80.8395)" fill="#033083" fill-opacity="0.33"/>
<circle r="1.79643" transform="matrix(-1 0 0 1 88.6246 80.8395)" fill="#033083" fill-opacity="0.33"/>
<circle r="1.79643" transform="matrix(-1 0 0 1 153.296 91.6182)" fill="#033083" fill-opacity="0.33"/>
<circle r="1.79643" transform="matrix(-1 0 0 1 142.518 91.6182)" fill="#033083" fill-opacity="0.33"/>
<circle r="1.79643" transform="matrix(-1 0 0 1 131.739 91.6182)" fill="#033083" fill-opacity="0.33"/>
<circle r="1.79643" transform="matrix(-1 0 0 1 120.96 91.6182)" fill="#033083" fill-opacity="0.33"/>
<circle r="1.79643" transform="matrix(-1 0 0 1 110.182 91.6182)" fill="#033083" fill-opacity="0.33"/>
<circle r="1.79643" transform="matrix(-1 0 0 1 99.4032 91.6182)" fill="#033083" fill-opacity="0.33"/>
<circle r="1.79643" transform="matrix(-1 0 0 1 88.6246 91.6182)" fill="#033083" fill-opacity="0.33"/>
<circle r="1.79643" transform="matrix(-1 0 0 1 153.296 102.397)" fill="#033083" fill-opacity="0.33"/>
<circle r="1.79643" transform="matrix(-1 0 0 1 142.518 102.397)" fill="#033083" fill-opacity="0.33"/>
<circle r="1.79643" transform="matrix(-1 0 0 1 131.739 102.397)" fill="#033083" fill-opacity="0.33"/>
<circle r="1.79643" transform="matrix(-1 0 0 1 120.96 102.397)" fill="#033083" fill-opacity="0.33"/>
<circle r="1.79643" transform="matrix(-1 0 0 1 110.182 102.397)" fill="#033083" fill-opacity="0.33"/>
<circle r="1.79643" transform="matrix(-1 0 0 1 99.4032 102.397)" fill="#033083" fill-opacity="0.33"/>
<circle r="1.79643" transform="matrix(-1 0 0 1 88.6246 102.397)" fill="#033083" fill-opacity="0.33"/>
<circle r="1.79643" transform="matrix(-1 0 0 1 153.296 113.175)" fill="#033083" fill-opacity="0.33"/>
<circle r="1.79643" transform="matrix(-1 0 0 1 142.518 113.175)" fill="#033083" fill-opacity="0.33"/>
<circle r="1.79643" transform="matrix(-1 0 0 1 131.739 113.175)" fill="#033083" fill-opacity="0.33"/>
<circle r="1.79643" transform="matrix(-1 0 0 1 120.96 113.175)" fill="#033083" fill-opacity="0.33"/>
<circle r="1.79643" transform="matrix(-1 0 0 1 110.182 113.175)" fill="#033083" fill-opacity="0.33"/>
<circle r="1.79643" transform="matrix(-1 0 0 1 99.4032 113.175)" fill="#033083" fill-opacity="0.33"/>
<circle r="1.79643" transform="matrix(-1 0 0 1 88.6246 113.175)" fill="#033083" fill-opacity="0.33"/>
<circle r="1.79643" transform="matrix(-1 0 0 1 153.296 123.954)" fill="#033083" fill-opacity="0.33"/>
<circle r="1.79643" transform="matrix(-1 0 0 1 142.518 123.954)" fill="#033083" fill-opacity="0.33"/>
<circle r="1.79643" transform="matrix(-1 0 0 1 131.739 123.954)" fill="#033083" fill-opacity="0.33"/>
<circle r="1.79643" transform="matrix(-1 0 0 1 120.96 123.954)" fill="#033083" fill-opacity="0.33"/>
<circle r="1.79643" transform="matrix(-1 0 0 1 110.182 123.954)" fill="#033083" fill-opacity="0.33"/>
<circle r="1.79643" transform="matrix(-1 0 0 1 99.4032 123.954)" fill="#033083" fill-opacity="0.33"/>
<circle r="1.79643" transform="matrix(-1 0 0 1 88.6246 123.954)" fill="#033083" fill-opacity="0.33"/>
<circle r="1.79643" transform="matrix(-1 0 0 1 153.296 134.733)" fill="#033083" fill-opacity="0.33"/>
<circle r="1.79643" transform="matrix(-1 0 0 1 142.518 134.733)" fill="#033083" fill-opacity="0.33"/>
<circle r="1.79643" transform="matrix(-1 0 0 1 131.739 134.733)" fill="#033083" fill-opacity="0.33"/>
<circle r="1.79643" transform="matrix(-1 0 0 1 120.96 134.733)" fill="#033083" fill-opacity="0.33"/>
<circle r="1.79643" transform="matrix(-1 0 0 1 110.182 134.733)" fill="#033083" fill-opacity="0.33"/>
<circle r="1.79643" transform="matrix(-1 0 0 1 99.4032 134.733)" fill="#033083" fill-opacity="0.33"/>
<circle r="1.79643" transform="matrix(-1 0 0 1 88.6246 134.733)" fill="#033083" fill-opacity="0.33"/>
<circle r="1.79643" transform="matrix(-1 0 0 1 153.296 145.511)" fill="#033083" fill-opacity="0.33"/>
<circle r="1.79643" transform="matrix(-1 0 0 1 142.518 145.511)" fill="#033083" fill-opacity="0.33"/>
<circle r="1.79643" transform="matrix(-1 0 0 1 131.739 145.511)" fill="#033083" fill-opacity="0.33"/>
<circle r="1.79643" transform="matrix(-1 0 0 1 120.96 145.511)" fill="#033083" fill-opacity="0.33"/>
<circle r="1.79643" transform="matrix(-1 0 0 1 110.182 145.511)" fill="#033083" fill-opacity="0.33"/>
<circle r="1.79643" transform="matrix(-1 0 0 1 99.4032 145.511)" fill="#033083" fill-opacity="0.33"/>
<circle r="1.79643" transform="matrix(-1 0 0 1 88.6246 145.511)" fill="#033083" fill-opacity="0.33"/>
<circle r="1.79643" transform="matrix(-1 0 0 1 153.296 156.29)" fill="#033083" fill-opacity="0.33"/>
<circle r="1.79643" transform="matrix(-1 0 0 1 142.518 156.29)" fill="#033083" fill-opacity="0.33"/>
<circle r="1.79643" transform="matrix(-1 0 0 1 131.739 156.29)" fill="#033083" fill-opacity="0.33"/>
<circle r="1.79643" transform="matrix(-1 0 0 1 120.96 156.29)" fill="#033083" fill-opacity="0.33"/>
<circle r="1.79643" transform="matrix(-1 0 0 1 110.182 156.29)" fill="#033083" fill-opacity="0.33"/>
<circle r="1.79643" transform="matrix(-1 0 0 1 99.4032 156.29)" fill="#033083" fill-opacity="0.33"/>
<circle r="1.79643" transform="matrix(-1 0 0 1 88.6246 156.29)" fill="#033083" fill-opacity="0.33"/>
<circle r="1.79643" transform="matrix(-1 0 0 1 153.296 167.068)" fill="#033083" fill-opacity="0.33"/>
<circle r="1.79643" transform="matrix(-1 0 0 1 142.518 167.068)" fill="#033083" fill-opacity="0.33"/>
<circle r="1.79643" transform="matrix(-1 0 0 1 131.739 167.068)" fill="#033083" fill-opacity="0.33"/>
<circle r="1.79643" transform="matrix(-1 0 0 1 120.96 167.068)" fill="#033083" fill-opacity="0.33"/>
<circle r="1.79643" transform="matrix(-1 0 0 1 110.182 167.068)" fill="#033083" fill-opacity="0.33"/>
<circle r="1.79643" transform="matrix(-1 0 0 1 99.4032 167.068)" fill="#033083" fill-opacity="0.33"/>
<circle r="1.79643" transform="matrix(-1 0 0 1 88.6246 167.068)" fill="#033083" fill-opacity="0.33"/>
<circle r="1.79643" transform="matrix(-1 0 0 1 153.296 177.847)" fill="#033083" fill-opacity="0.33"/>
<circle r="1.79643" transform="matrix(-1 0 0 1 142.518 177.847)" fill="#033083" fill-opacity="0.33"/>
<circle r="1.79643" transform="matrix(-1 0 0 1 131.739 177.847)" fill="#033083" fill-opacity="0.33"/>
<circle r="1.79643" transform="matrix(-1 0 0 1 120.96 177.847)" fill="#033083" fill-opacity="0.33"/>
<circle r="1.79643" transform="matrix(-1 0 0 1 110.182 177.847)" fill="#033083" fill-opacity="0.33"/>
<circle r="1.79643" transform="matrix(-1 0 0 1 99.4032 177.847)" fill="#033083" fill-opacity="0.33"/>
<circle r="1.79643" transform="matrix(-1 0 0 1 88.6246 177.847)" fill="#033083" fill-opacity="0.33"/>
<circle r="1.79643" transform="matrix(-1 0 0 1 153.296 188.626)" fill="#033083" fill-opacity="0.33"/>
<circle r="1.79643" transform="matrix(-1 0 0 1 142.518 188.626)" fill="#033083" fill-opacity="0.33"/>
<circle r="1.79643" transform="matrix(-1 0 0 1 131.739 188.626)" fill="#033083" fill-opacity="0.33"/>
<circle r="1.79643" transform="matrix(-1 0 0 1 120.96 188.626)" fill="#033083" fill-opacity="0.33"/>
<circle r="1.79643" transform="matrix(-1 0 0 1 110.182 188.626)" fill="#033083" fill-opacity="0.33"/>
<circle r="1.79643" transform="matrix(-1 0 0 1 99.4032 188.626)" fill="#033083" fill-opacity="0.33"/>
<circle r="1.79643" transform="matrix(-1 0 0 1 88.6246 188.626)" fill="#033083" fill-opacity="0.33"/>
</svg>
