<svg width="84" height="151" viewBox="0 0 84 151" fill="none" xmlns="http://www.w3.org/2000/svg">
<g opacity="0.3" filter="url(#filter0_d_6_592)">
<circle cx="24.5526" cy="20.5526" r="2.55259" fill="white"/>
<circle cx="41.5351" cy="20.5526" r="2.55259" fill="white"/>
<circle cx="58.5176" cy="20.5526" r="2.55259" fill="white"/>
<circle cx="75.5" cy="20.5526" r="2.55259" fill="white"/>
<circle cx="24.5526" cy="37.535" r="2.55259" fill="white"/>
<circle cx="24.5526" cy="54.5177" r="2.55259" fill="white"/>
<circle cx="24.5526" cy="71.5" r="2.55259" fill="white"/>
<circle cx="24.5526" cy="88.4825" r="2.55259" fill="white"/>
<circle cx="24.5526" cy="105.465" r="2.55259" fill="white"/>
<circle cx="24.5526" cy="122.447" r="2.55259" fill="white"/>
<circle cx="41.5351" cy="122.447" r="2.55259" fill="white"/>
<circle cx="58.5176" cy="122.447" r="2.55259" fill="white"/>
<circle cx="75.5" cy="122.447" r="2.55259" fill="white"/>
<circle cx="41.5351" cy="105.465" r="2.55259" fill="white"/>
<circle cx="58.5176" cy="105.465" r="2.55259" fill="white"/>
<circle cx="75.5" cy="105.465" r="2.55259" fill="white"/>
<circle cx="41.5351" cy="88.4825" r="2.55259" fill="white"/>
<circle cx="58.5176" cy="88.4825" r="2.55259" fill="white"/>
<circle cx="75.5" cy="88.4825" r="2.55259" fill="white"/>
<circle cx="41.5351" cy="71.5" r="2.55259" fill="white"/>
<circle cx="58.5176" cy="71.5" r="2.55259" fill="white"/>
<circle cx="75.5" cy="71.5" r="2.55259" fill="white"/>
<circle cx="41.5351" cy="54.5177" r="2.55259" fill="white"/>
<circle cx="58.5176" cy="54.5177" r="2.55259" fill="white"/>
<circle cx="75.5" cy="54.5177" r="2.55259" fill="white"/>
<circle cx="41.5351" cy="37.535" r="2.55259" fill="white"/>
<circle cx="58.5176" cy="37.535" r="2.55259" fill="white"/>
<circle cx="75.5" cy="37.535" r="2.55259" fill="white"/>
</g>
<defs>
<filter id="filter0_d_6_592" x="0" y="0" width="151" height="151" filterUnits="userSpaceOnUse" color-interpolation-filters="sRGB">
<feFlood flood-opacity="0" result="BackgroundImageFix"/>
<feColorMatrix in="SourceAlpha" type="matrix" values="0 0 0 0 0 0 0 0 0 0 0 0 0 0 0 0 0 0 127 0" result="hardAlpha"/>
<feOffset dy="4"/>
<feGaussianBlur stdDeviation="11"/>
<feColorMatrix type="matrix" values="0 0 0 0 0 0 0 0 0 0 0 0 0 0 0 0 0 0 0.05 0"/>
<feBlend mode="normal" in2="BackgroundImageFix" result="effect1_dropShadow_6_592"/>
<feBlend mode="normal" in="SourceGraphic" in2="effect1_dropShadow_6_592" result="shape"/>
</filter>
</defs>
</svg>
