<svg width="310" height="159" viewBox="0 0 310 159" fill="none" xmlns="http://www.w3.org/2000/svg">
<g clip-path="url(#clip0_132_99)">
<path d="M296.24 87.603L295.269 95.3357L292.859 114.542H244.441C244.82 110.237 245.336 104.041 245.889 97.3523C245.943 96.6843 246 96.0121 246.055 95.3357C247.439 78.5218 248.954 59.495 248.954 59.495L255.32 60.6808L267.669 62.9772L272.702 63.9125L286.178 66.4218C292.897 67.6702 297.519 77.3987 296.24 87.603V87.603Z" fill="#F2F2F2"/>
<path d="M259.617 28.3809L265.571 38.8002L254.127 46.9103L249.245 34.1031L259.617 28.3809Z" fill="#FFB6B6"/>
<path d="M252.037 38.238C260.183 38.238 266.787 31.6341 266.787 23.4877C266.787 15.3414 260.183 8.73749 252.037 8.73749C243.89 8.73749 237.286 15.3414 237.286 23.4877C237.286 31.6341 243.89 38.238 252.037 38.238Z" fill="#FFB6B6"/>
<path d="M250.978 26.7852C249.806 25.0027 250.266 24.0704 249.286 23.4153C249.286 23.4153 248.891 23.1517 246.067 23.0014C245.435 18.451 244.646 17.8991 244.646 17.8991C243.736 17.2631 242.386 17.4698 241.546 17.8587C239.77 18.6814 239.976 20.4585 238.78 20.7986C237.128 21.2684 234.122 18.6201 233.826 15.5883C233.585 13.1152 235.178 10.7132 235.81 10.8403C236.436 10.9663 237.937 9.05106 238.747 9.0806C239.3 9.10077 241.56 8.11838 242.168 8.19519C242.832 8.27908 245.021 9.4216 245.113 9.16057C245.747 7.34665 245.56 6.84336 246.098 6.32444C247.051 5.40491 248.611 6.04524 251.057 6.38901C256.091 7.09633 256.969 5.43665 259.549 6.56159C260.852 7.12985 261.942 8.6624 264.07 11.7043C267.045 15.9583 268.532 18.0853 268.542 20.5662C268.552 23.0963 267.327 22.9356 266.788 26.6812C266.189 30.8505 267.462 32.757 266.072 34.1116C264.997 35.1585 262.813 35.407 261.665 34.4882C259.7 32.9151 262.271 29.1193 260.097 26.346C258.762 24.6437 256.078 23.8863 254.848 24.7277C253.458 25.6792 254.224 28.4719 253.246 28.7367C252.409 28.9635 251.182 27.0959 250.978 26.7853L250.978 26.7852Z" fill="#2F2E41"/>
<path d="M285.338 84.8798C284.926 91.9144 283.292 94.1353 282.72 102.443C282.595 104.267 282.52 106.384 282.52 108.909C282.52 109.553 282.523 110.175 282.523 110.783C282.523 112.078 282.498 113.301 282.348 114.542C282.233 115.533 282.037 116.53 281.711 117.582H249.943C249.939 117.575 249.939 117.567 249.935 117.56C249.75 116.752 249.632 115.98 249.542 115.239C249.514 115.003 249.488 114.771 249.467 114.542C249.438 114.274 249.413 114.009 249.389 113.748C249.292 112.707 249.195 111.724 248.966 110.783C248.659 109.485 248.101 108.262 246.956 107.082C246.488 106.599 246.02 106.223 245.562 105.894C245.472 105.833 245.386 105.773 245.297 105.712C244.031 104.843 242.833 104.217 241.796 102.443C241.778 102.418 241.764 102.389 241.749 102.365C241.571 102.053 241.106 101.238 240.769 100.151C240.415 99.0206 240.201 97.6007 240.587 96.1489C241.506 92.7084 244.911 92.3651 247.693 88.8888C247.994 88.5134 248.29 88.0985 248.573 87.6371C249.832 85.5914 250.172 83.7891 250.572 81.6468C250.636 81.2998 250.694 80.9565 250.74 80.624C250.776 80.3736 250.808 80.1268 250.833 79.8836C251.055 77.8415 250.948 76.082 250.687 74.5084C249.836 69.3549 247.325 66.1648 249.099 61.5406C249.657 60.0887 250.447 58.9978 251.244 58.0645C252.932 56.0867 254.667 54.8028 254.367 52.2494C254.063 49.6744 252.11 49.3203 251.892 47.0707C251.781 45.9336 252.153 44.7355 252.85 43.5588V43.5553C255.082 39.7679 260.654 36.281 264.194 36.3919C264.849 36.4098 265.428 36.5564 265.911 36.8389C267.66 37.8688 266.93 40.1184 269.609 43.2728C271.601 45.6152 273.854 46.5523 274.709 46.9956C278.096 48.7625 280.849 53.9732 282.72 60.6358C282.734 60.6859 282.748 60.7359 282.763 60.7897C283.918 64.9632 284.733 69.7019 285.138 74.5084C285.309 76.5433 285.409 78.5891 285.431 80.6132C285.449 82.2297 285.413 83.6317 285.338 84.8798Z" fill="#21295C"/>
<path d="M261.548 108.981L260.901 110.783L260.493 111.913L259.549 114.542L258.454 117.582H251.42L252.6 114.542L253.147 113.126L254.056 110.783L255.579 106.849L261.548 108.981Z" fill="#FFB6B6"/>
<path d="M282.831 60.0206C282.813 60.2532 282.788 60.5106 282.763 60.7896C282.484 63.6292 281.826 68.7112 280.864 74.5084C280.356 77.5661 279.762 80.8243 279.093 84.0608C277.656 91.0453 275.868 97.9227 273.847 102.443C273.486 103.259 273.114 103.995 272.735 104.646C272.445 105.143 272.141 105.633 271.823 106.116C270.793 107.7 269.637 109.202 268.439 110.604C268.393 110.665 268.339 110.722 268.286 110.783C268.093 111.012 267.892 111.237 267.692 111.463C266.712 112.568 265.711 113.598 264.742 114.542C263.561 115.693 262.424 116.713 261.405 117.582H249.982L249.935 117.56L248.29 116.831C248.29 116.831 248.759 116.28 249.542 115.239C249.703 115.028 249.875 114.796 250.061 114.542C250.29 114.231 250.536 113.887 250.801 113.515C251.352 112.736 251.978 111.82 252.65 110.783C253.952 108.777 255.436 106.309 256.934 103.452C257.106 103.119 257.281 102.783 257.457 102.443C257.46 102.432 257.467 102.422 257.471 102.411C257.768 101.832 258.061 101.234 258.354 100.626C260.84 95.4549 261.552 91.1633 261.755 89.7722C262.042 87.8053 262.438 85.0549 262.331 82.0293C262.259 80.0339 261.97 77.9237 261.28 75.828V75.8245C261.137 75.3847 260.976 74.9448 260.793 74.5084C260.468 73.7252 260.082 72.9527 259.624 72.1909C257.603 68.8364 255.962 68.6969 254.656 65.0418C254.27 63.9582 253.394 61.5121 253.662 58.9299V58.9264C253.694 58.608 253.748 58.2862 253.819 57.9642V57.9607C253.837 57.8713 253.862 57.7784 253.888 57.689C254.091 56.8986 254.428 56.1153 254.939 55.3714C255.937 53.9267 257.299 53.0682 258.519 52.5569L258.522 52.5533C259.931 51.9669 261.147 51.8416 261.384 51.8202C266.608 51.3553 270.66 55.747 272.874 58.1467C273.729 59.0729 274.512 59.8491 275.228 60.4819C280.796 65.4532 282.323 62.2773 282.72 60.6358C282.78 60.3819 282.813 60.1638 282.831 60.0206V60.0206Z" fill="#21295C"/>
<path d="M282.849 59.8348C282.849 59.8526 282.845 59.9134 282.831 60.0136C282.838 59.9598 282.842 59.9062 282.845 59.8561C282.845 59.8454 282.845 59.8383 282.849 59.8348Z" fill="#21295C"/>
<path d="M254.445 135.299H62.7361C60.9549 135.299 59.5031 136.747 59.5031 138.528C59.5031 140.313 60.9549 141.761 62.7361 141.761H254.445C256.226 141.761 257.675 140.313 257.675 138.528C257.675 136.747 256.226 135.299 254.445 135.299Z" fill="#3F3D56"/>
<path d="M211.901 151.993H105.277C103.496 151.993 102.047 153.442 102.047 155.223C102.047 157.004 103.496 158.456 105.277 158.456H211.901C213.682 158.456 215.134 157.004 215.134 155.223C215.134 153.442 213.682 151.993 211.901 151.993Z" fill="#3F3D56"/>
<path d="M84.0686 29.0665L96.1508 23.9818L101.333 34.6055L88.6365 39.7877L84.0686 29.0665Z" fill="#FFB6B6"/>
<path opacity="0.1" d="M84.0686 29.0665L96.1508 23.9818L101.333 34.6055L88.6365 39.7877L84.0686 29.0665Z" fill="black"/>
<path d="M85.7862 25.0183L97.7055 38.7513C97.7055 38.7513 89.4138 64.9217 81.1222 67.2538C72.8306 69.5858 57.5429 80.9868 57.5429 80.9868L38.3685 68.5493L47.6966 54.8163C47.6966 54.8163 70.2394 23.9818 76.199 23.9818C82.1587 23.9818 85.7862 25.0183 85.7862 25.0183V25.0183Z" fill="#21295C"/>
<path d="M69.6823 114.542H41.9365L40.1823 112.197L33.0204 102.623L31.3724 100.42C31.3724 100.42 25.1537 89.0193 26.4492 78.6548C27.7448 68.2902 41.2187 65.9582 41.2187 65.9582H41.7732L58.2684 80.453L57.2838 93.9425L62.5075 102.623L69.6823 114.542Z" fill="#2F2E41"/>
<path d="M47.6188 114.542H40.1823V103.53L47.6188 114.542Z" fill="#2F2E41"/>
<path d="M208.015 97.824L207.09 102.623L204.794 114.542H158.675C159.035 111.871 159.527 108.025 160.053 103.874C160.105 103.46 160.16 103.043 160.211 102.623C161.53 92.1883 162.974 80.3804 162.974 80.3804L169.037 81.1163L180.801 82.5415L185.594 83.1219L198.431 84.6792C204.831 85.4539 209.233 91.4913 208.015 97.824H208.015Z" fill="#F2F2F2"/>
<path d="M273.283 114.542H248.269C248.649 114.094 248.864 113.835 248.864 113.835L256.363 112.596L271.814 110.046C271.814 110.046 272.519 111.868 273.283 114.542V114.542Z" fill="#2F2E41"/>
<path d="M167.177 34.2492L178.056 49.6339L159.08 50.2005L157.043 35.7426L167.177 34.2492Z" fill="#A0616A"/>
<path opacity="0.1" d="M167.177 34.2492L178.056 49.6339L159.08 50.2005L157.043 35.7426L167.177 34.2492Z" fill="black"/>
<path d="M113.529 66.1251C112.133 62.0985 108.924 59.5547 106.362 60.4435C103.799 61.3322 102.854 65.3164 104.251 69.3443C104.787 70.9609 105.702 72.4257 106.921 73.6161L113.05 90.6024L120.96 87.556L114.078 71.1339C114.297 69.4445 114.109 67.7269 113.529 66.1251Z" fill="#A0616A"/>
<path d="M187.166 58.2858L187.151 73.9648L185.693 79.756L182.692 91.6674L180.508 102.623L178.881 110.785L178.3 113.7C177.862 113.993 177.427 114.272 176.992 114.542H139.091C136.938 113.249 135.733 112.244 135.733 112.244C135.733 112.244 136.329 111.684 137.01 110.785C138.161 109.266 139.552 106.779 138.7 104.403C138.521 103.905 138.474 103.299 138.529 102.623C138.876 98.1608 143.556 90.6154 143.556 90.6154L142.587 79.4165L142.162 74.5089L145.158 50.5797L154.924 44.9025L156.61 44.7394L173.253 43.8403L180.131 44.2367L180.445 44.3222L187.166 58.2859V58.2858Z" fill="#04DE00"/>
<path d="M187.905 114.542H179.614L179.248 110.785L179.241 110.71L181.588 110.549L187.696 110.132L187.802 112.381L187.885 114.107L187.905 114.542Z" fill="#FFB6B6"/>
<path d="M189.947 62.0767L193.43 82.513L190.587 102.623L190.144 105.753L189.362 111.28L189.121 112.98L189.129 113.163L189.188 114.542H179.342L178.979 110.785L178.948 110.448L178.207 102.752L178.194 102.623L176.621 86.3038L179.705 74.5089L179.933 73.6409V73.6383L181.274 53.443L180.235 44.2652L180.225 44.1797C180.245 44.1927 180.264 44.2056 180.284 44.2186C180.339 44.2522 180.393 44.2859 180.445 44.3222C186.498 48.1623 190.105 54.8992 189.947 62.0767Z" fill="#04DE00"/>
<path d="M148.685 54.4957L144.899 50.5794C144.899 50.5794 136.793 54.2335 136.389 56.2608C135.985 58.2881 121.674 88.0636 121.674 88.0636L115.448 71.4341L107.343 76.8452C107.343 76.8452 113.846 102.663 119.928 103.875C126.01 105.087 146.393 73.3171 146.393 73.3171L148.685 54.4957H148.685Z" fill="#04DE00"/>
<path d="M302.429 102.443H7.56757C3.39402 102.443 0 105.841 0 110.014C0 114.188 3.39402 117.582 7.56757 117.582H302.429C306.602 117.582 310 114.188 310 110.014C310 105.84 306.602 102.443 302.429 102.443Z" fill="#3F3D56"/>
<path d="M185.441 79.373L184.867 106.125C184.812 108.714 182.697 110.785 180.106 110.785H130.895C128.366 110.785 126.278 108.808 126.14 106.283L124.678 79.5309C124.529 76.8029 126.701 74.509 129.433 74.509H180.68C183.35 74.509 185.498 76.7037 185.441 79.373Z" fill="#3F3D56"/>
<path d="M105.997 35.5242C112.5 35.5242 117.771 30.2528 117.771 23.7502C117.771 17.2477 112.5 11.9763 105.997 11.9763C99.4945 11.9763 94.2231 17.2477 94.2231 23.7502C94.2231 30.2528 99.4945 35.5242 105.997 35.5242Z" fill="#FFB6B6"/>
<path d="M86.3044 54.5572L87.6 68.5494L96.4098 104.048L88.7987 106.716L75.9399 68.0311L74.1638 52.4843L86.3044 54.5572Z" fill="#FFB6B6"/>
<path d="M82.8 79.373L82.2267 106.125C82.1712 108.714 80.056 110.785 77.4658 110.785H28.2546C25.7256 110.785 23.6377 108.808 23.4996 106.283L22.0372 79.5309C21.888 76.8029 24.0599 74.509 26.7921 74.509H78.039C80.709 74.509 82.8572 76.7037 82.8 79.373Z" fill="#3F3D56"/>
<path d="M97.8127 110.966C102.948 110.966 107.111 109.124 107.111 106.853C107.111 104.581 102.948 102.74 97.8127 102.74C92.6773 102.74 88.5142 104.581 88.5142 106.853C88.5142 109.124 92.6773 110.966 97.8127 110.966Z" fill="#FFB6B6"/>
<path d="M68.0369 56.6964L73.3488 28.3867C73.3488 28.3867 88.1182 26.3138 88.6365 31.237C89.1547 36.1602 88.2661 60.2203 88.2661 60.2203L68.0369 56.6964V56.6964Z" fill="#21295C"/>
<path d="M101.244 25.6015C101.244 25.6015 108.528 23.0021 111.6 21.6035C114.672 20.2049 120.776 29.9601 120.911 24.808C121.047 19.656 118.938 17.4954 118.938 17.4954C118.938 17.4954 118.412 6.22462 107.056 7.63374C107.056 7.63374 109.554 1.99482 101.355 1.12286C93.1569 0.250903 80.402 20.0492 81.5443 23.0079C82.6866 25.9666 84.0559 28.4127 80.8151 31.5763C77.5743 34.7399 71.5058 52.5941 76.123 57.3986C80.7401 62.203 81.0431 64.2878 77.8796 67.2768C74.7161 70.2658 67.2385 76.7649 75.3235 77.8932C83.4086 79.0215 74.5839 78.1788 80.6114 72.8769C86.6389 67.5751 95.4343 67.7916 92.1502 59.2852C88.8662 50.7789 94.5718 38.5893 93.8579 36.7401C93.144 34.8909 95.4574 23.1482 95.4574 23.1482C95.4574 23.1482 100.842 22.3572 101.244 25.6015V25.6015Z" fill="#2F2E41"/>
<path d="M161.361 39.8176C168.439 39.8176 174.178 34.0794 174.178 27.0009C174.178 19.9223 168.439 14.1841 161.361 14.1841C154.282 14.1841 148.544 19.9223 148.544 27.0009C148.544 34.0794 154.282 39.8176 161.361 39.8176Z" fill="#A0616A"/>
<path d="M162.384 9.76962C162.013 9.9861 161.516 9.65856 161.397 9.24593C161.278 8.83329 161.417 8.39518 161.554 7.98832L162.246 5.94009C162.736 4.48745 163.257 2.98405 164.319 1.87839C165.922 0.209592 168.47 -0.214943 170.764 0.0926175C173.709 0.487588 176.615 2.08251 177.985 4.71991C179.354 7.35732 178.771 11.0374 176.296 12.6829C179.823 16.7254 181.053 21.2306 180.859 26.5918C180.665 31.9531 174.822 36.8872 171.012 40.664C170.161 40.1482 169.388 37.7311 169.856 36.853C170.323 35.9749 169.653 34.9576 170.233 34.1487C170.812 33.3399 171.297 34.6278 170.711 33.8236C170.341 33.3161 171.784 32.1486 171.235 31.8448C168.577 30.3757 167.693 27.0629 166.024 24.526C164.01 21.4661 160.564 19.3938 156.917 19.0501C154.909 18.8607 152.787 19.2037 151.14 20.3699C149.493 21.5362 148.427 23.6203 148.809 25.6016C147.82 24.5976 147.328 23.1261 147.514 21.7291C147.699 20.3321 148.559 19.0403 149.776 18.3293C149.036 15.8826 149.67 13.0682 151.387 11.1748C153.104 9.28147 160.071 9.60394 162.578 10.1022L162.384 9.76962Z" fill="#2F2E41"/>
<path d="M162.773 19.1243C166.094 19.4828 168.491 22.3591 170.516 25.0155C171.683 26.5465 172.905 28.2373 172.876 30.1621C172.846 32.1081 171.545 33.7772 170.923 35.6215C169.907 38.6359 170.897 42.2225 173.317 44.288C170.926 44.7416 168.342 42.9491 167.929 40.551C167.448 37.7593 169.565 35.0649 169.314 32.2432C169.093 29.7573 167.134 27.8442 165.469 25.9855C163.803 24.1268 162.239 21.6603 163.005 19.2852L162.773 19.1243Z" fill="#2F2E41"/>
<path d="M212.415 104.063C209.126 105.934 207.425 109.147 208.616 111.24C209.807 113.333 213.438 113.513 216.728 111.641C218.053 110.911 219.183 109.875 220.025 108.619L233.861 100.517L229.92 94.1049L216.699 102.773C215.189 102.855 213.72 103.297 212.415 104.063Z" fill="#FFB6B6"/>
<path d="M259.261 44.6472C258.847 44.4833 255.219 43.1095 251.907 44.9234C248.103 47.0071 247.515 51.7636 247.309 53.4319C246.833 57.2858 248.235 58.1496 248.532 62.0511C249.086 69.3505 250.546 61.0233 248.213 64.3552C247.406 65.5085 239.159 83.3806 234.611 86.8812C225.766 93.6896 220.149 98.4843 220.149 98.4843L226.561 105.45C226.561 105.45 236.694 102.75 245.65 96.9348C254.837 90.9695 259.431 87.9869 262.984 82.152C263.291 81.6496 270.613 69.2143 266.681 55.4639C265.784 52.3274 264.14 46.5808 259.261 44.6472Z" fill="#21295C"/>
<path d="M292.373 79.373L291.8 106.125C291.744 108.714 289.629 110.785 287.039 110.785H237.828C235.299 110.785 233.211 108.808 233.073 106.283L231.61 79.5309C231.461 76.8029 233.633 74.509 236.365 74.509H287.612C290.282 74.509 292.43 76.7037 292.373 79.373Z" fill="#3F3D56"/>
</g>
<defs>
<clipPath id="clip0_132_99">
<rect width="310" height="158.456" fill="white"/>
</clipPath>
</defs>
</svg>
