<svg width="50" height="51" viewBox="0 0 50 51" fill="none" xmlns="http://www.w3.org/2000/svg">
<path fill-rule="evenodd" clip-rule="evenodd" d="M24.5645 2.55222C24.5645 1.15186 23.4131 0.0104933 22.0225 0.176038C9.61897 1.65268 0 12.2392 0 25.0794C0 38.9304 11.1929 50.1589 25 50.1589C38.8071 50.1589 50 38.9304 50 25.0794C50 24.0455 49.9376 23.0261 49.8165 22.025C49.6774 20.8759 48.6674 20.0614 47.51 20.0614V20.0614C45.9236 20.0614 44.7658 21.5611 44.9114 23.1407C44.9678 23.7529 44.9967 24.3731 44.9967 25C44.9967 36.0457 36.0431 45 24.9983 45C13.9536 45 5 36.0457 5 25C5 14.9316 12.4392 6.60094 22.1205 5.20557C23.4694 5.01116 24.5645 3.91502 24.5645 2.55222V2.55222Z" fill="#21295C"/>
</svg>
