<svg width="94" height="20" viewBox="0 0 94 20" fill="none" xmlns="http://www.w3.org/2000/svg">
<path d="M29.7325 3.30177H32.8013V16.4019H29.7325V3.30177Z" fill="white"/>
<path d="M41.1376 9.69294C40.8451 9.34995 40.4431 9.17846 39.9317 9.17846C39.3329 9.17846 38.8525 9.39989 38.4903 9.84276C38.1281 10.2856 37.9473 10.925 37.9478 11.7608V16.4019H35.0288V6.85791H37.0497L37.5552 7.96179C37.9319 7.51075 38.4096 7.15485 38.9496 6.92294C39.5194 6.67691 40.1343 6.55269 40.7549 6.55827C41.9402 6.55827 42.8606 6.91059 43.5158 7.61524C44.1711 8.31988 44.4984 9.3398 44.4979 10.675V16.4019H41.5789V11.2364C41.5789 10.5504 41.4318 10.0359 41.1376 9.69294Z" fill="white"/>
<path d="M47.3609 12.416V9.40236H45.4898V6.85791H47.4547L47.8877 4.4995H50.2832V6.85791H53.1841V9.40236H50.2807V12.3411C50.2807 12.8279 50.4023 13.1895 50.6454 13.4261C50.8923 13.664 51.2603 13.7817 51.7592 13.7817H53.2005V16.4019H51.2916C48.6717 16.4019 47.3614 15.0733 47.3609 12.416Z" fill="white"/>
<path d="M56.7559 16.0463C55.9785 15.6302 55.3334 15.0045 54.8938 14.2402C54.451 13.4719 54.2295 12.6018 54.2295 11.6299C54.2167 10.7193 54.4459 9.82159 54.8938 9.02864C55.3298 8.26371 55.9714 7.63631 56.746 7.21764C57.539 6.77861 58.4406 6.5591 59.4509 6.5591C60.4733 6.5591 61.3841 6.77422 62.1831 7.20447C62.959 7.61387 63.6042 8.23313 64.0451 8.9916C64.4912 9.76492 64.7207 10.6442 64.7094 11.5369C64.7182 11.8569 64.6931 12.177 64.6345 12.4918H57.1897C57.3137 13.1026 57.5788 13.5641 57.9849 13.8764C58.391 14.1886 58.9123 14.3445 59.5489 14.3439C60.4467 14.3439 61.1017 14.0446 61.5138 13.4458H64.5086C64.1653 14.4108 63.5183 15.2383 62.6647 15.8042C61.7866 16.4024 60.7294 16.7018 59.4929 16.7023C58.4667 16.7018 57.5543 16.4831 56.7559 16.0463ZM61.7172 10.582C61.4049 9.47124 60.6627 8.91586 59.4905 8.91586C58.9895 8.90454 58.4989 9.0594 58.0952 9.35626C57.6921 9.66368 57.4 10.0939 57.2629 10.582H61.7172Z" fill="white"/>
<path d="M66.2446 6.85792H68.2655L68.7899 7.98074C69.1095 7.60946 69.5138 7.32061 69.9687 7.13863C70.4571 6.94623 70.9783 6.85089 71.5031 6.85792H72.5329V9.66497H71.0907C70.4321 9.66497 69.9457 9.83646 69.6312 10.1795C69.3167 10.5224 69.1609 11.0496 69.1636 11.7608V16.4019H66.2446V6.85792Z" fill="white"/>
<path d="M79.8773 9.69296C79.5832 9.34996 79.1806 9.17847 78.6697 9.17847C78.071 9.17847 77.5908 9.39991 77.2291 9.84278C76.8675 10.2856 76.6867 10.925 76.6867 11.7608V16.4019H73.7668V6.85792H75.7878L76.2932 7.96181C76.6697 7.51087 77.1471 7.15497 77.6868 6.92295C78.2584 6.67615 78.8753 6.55192 79.4978 6.55829C80.6827 6.55829 81.6027 6.91061 82.258 7.61525C82.9132 8.31989 83.2408 9.33981 83.2408 10.675V16.4019H80.321V11.2364C80.321 10.5504 80.1731 10.0359 79.8773 9.69296Z" fill="white"/>
<path d="M85.7351 11.5657C86.3898 11.0356 87.3348 10.7705 88.5701 10.7705H90.9845V10.3778C90.9845 9.90368 90.8597 9.54176 90.61 9.29206C90.3603 9.04236 89.9984 8.91751 89.5242 8.91751C89.1005 8.91751 88.7543 9.01739 88.4854 9.21715C88.222 9.4108 88.0447 9.69971 87.9914 10.0222H85.0519C85.2264 8.93617 85.7066 8.08774 86.4924 7.47694C87.2783 6.86614 88.3015 6.56047 89.5621 6.55992C90.9593 6.55992 92.0322 6.90923 92.7807 7.60783C93.5293 8.30644 93.9035 9.29782 93.9035 10.582V16.4019H91.8826L91.4332 15.4141C90.6467 16.2751 89.5988 16.7056 88.2894 16.7056C87.1787 16.7056 86.3116 16.4466 85.6882 15.9285C85.0648 15.4105 84.7528 14.6971 84.7522 13.7883C84.7522 12.8367 85.0799 12.0958 85.7351 11.5657ZM88.0458 14.111C88.245 14.2674 88.557 14.3453 88.9817 14.3447C89.6304 14.3447 90.1262 14.2045 90.4692 13.9241C90.6359 13.7914 90.7693 13.6216 90.8588 13.4282C90.9482 13.2349 90.9913 13.0233 90.9845 12.8103V12.6605H88.9266C88.1407 12.6605 87.7475 12.9349 87.747 13.4837C87.7432 13.6043 87.7683 13.724 87.8203 13.8328C87.8723 13.9417 87.9496 14.0365 88.0458 14.1093V14.111Z" fill="white"/>
<path d="M17.2399 7.04725L15.0016 9.2863C14.7463 9.54719 14.4417 9.75485 14.1056 9.89725C13.7694 10.0397 13.4084 10.114 13.0433 10.116C12.6783 10.1179 12.3165 10.0475 11.9788 9.90865C11.6412 9.76985 11.3344 9.56547 11.0763 9.30733C10.8181 9.04919 10.6138 8.74242 10.475 8.40478C10.3362 8.06713 10.2657 7.70531 10.2676 7.34026C10.2696 6.9752 10.3439 6.61415 10.4863 6.27801C10.6288 5.94187 10.8364 5.63731 11.0973 5.38196L13.7183 2.75766C14.7358 1.7402 14.0155 0 12.5757 0H3.03342C2.63479 -2.34848e-07 2.24007 0.0785711 1.87182 0.231221C1.50358 0.38387 1.16903 0.607604 0.887305 0.889632C0.605583 1.17166 0.382211 1.50645 0.229961 1.87486C0.0777115 2.24327 -0.00043092 2.63808 1.78726e-06 3.03671V16.9649C1.78726e-06 17.7699 0.319767 18.5419 0.888952 19.111C1.45814 19.6802 2.23012 20 3.03507 20H16.9633C17.3617 20.0001 17.7563 19.9217 18.1245 19.7693C18.4927 19.617 18.8272 19.3935 19.1091 19.1119C19.3909 18.8302 19.6145 18.4958 19.7671 18.1277C19.9197 17.7596 19.9982 17.365 19.9984 16.9666V8.19065C19.9984 6.75173 18.2582 6.0298 17.2399 7.04725ZM7.90254 14.5044C7.42371 14.5044 6.95564 14.3625 6.55752 14.0964C6.15939 13.8304 5.84909 13.4523 5.66585 13.0099C5.48261 12.5676 5.43467 12.0808 5.52808 11.6112C5.62149 11.1415 5.85207 10.7102 6.19065 10.3716C6.52923 10.033 6.96061 9.80243 7.43023 9.70901C7.89985 9.6156 8.38663 9.66354 8.829 9.84678C9.27138 10.03 9.64948 10.3403 9.9155 10.7384C10.1815 11.1366 10.3235 11.6046 10.3235 12.0835C10.3236 12.4014 10.2611 12.7163 10.1394 13.0101C10.0178 13.3038 9.8395 13.5708 9.61467 13.7956C9.38984 14.0204 9.12291 14.1988 8.82913 14.3204C8.53536 14.442 8.22049 14.5046 7.90254 14.5044Z" fill="white"/>
<path d="M8.83126 14.3202C10.0665 13.8086 10.6532 12.3924 10.1415 11.1571C9.62981 9.92178 8.21362 9.33518 6.97833 9.84685C5.74304 10.3585 5.15643 11.7747 5.6681 13.01C6.17978 14.2453 7.59597 14.8319 8.83126 14.3202Z" fill="#21295C"/>
</svg>
