<svg width="256" height="60" viewBox="0 0 256 60" fill="none" xmlns="http://www.w3.org/2000/svg">
<g clip-path="url(#clip0_646_453)">
<path d="M254.962 43.4862H59.6831V45.5379H254.962V43.4862Z" fill="#75B947"/>
<path d="M59.5162 52.7273C59.52 52.6799 59.5406 52.6354 59.5742 52.6018C59.6078 52.5681 59.6523 52.5476 59.6997 52.5438H60.5838C60.6325 52.5438 60.6791 52.5631 60.7135 52.5975C60.7479 52.6319 60.7673 52.6786 60.7673 52.7273V55.2627H63.4862V52.7273C63.4836 52.7025 63.4865 52.6775 63.4948 52.6541C63.5031 52.6306 63.5165 52.6093 63.5341 52.5917C63.5517 52.5741 63.573 52.5607 63.5965 52.5524C63.6199 52.5441 63.645 52.5412 63.6697 52.5438H64.5371C64.5857 52.5438 64.6324 52.5631 64.6668 52.5975C64.7012 52.6319 64.7206 52.6786 64.7206 52.7273V59.0659C64.7206 59.1145 64.7012 59.1612 64.6668 59.1956C64.6324 59.23 64.5857 59.2494 64.5371 59.2494H63.6697C63.645 59.252 63.6199 59.2491 63.5965 59.2408C63.573 59.2325 63.5517 59.219 63.5341 59.2014C63.5165 59.1838 63.5031 59.1625 63.4948 59.1391C63.4865 59.1156 63.4836 59.0906 63.4862 59.0659V56.4304H60.7673V59.0659C60.7673 59.1145 60.7479 59.1612 60.7135 59.1956C60.6791 59.23 60.6325 59.2494 60.5838 59.2494H59.6997C59.6523 59.2456 59.6078 59.225 59.5742 59.1914C59.5406 59.1578 59.52 59.1133 59.5162 59.0659V52.7273Z" fill="#1D1D1B"/>
<path d="M70.0584 52.4771C70.5064 52.4771 70.9499 52.5653 71.3638 52.7367C71.7777 52.9082 72.1537 53.1594 72.4705 53.4762C72.7872 53.793 73.0385 54.169 73.2099 54.5829C73.3813 54.9967 73.4696 55.4403 73.4696 55.8883C73.4696 56.3362 73.3813 56.7798 73.2099 57.1937C73.0385 57.6075 72.7872 57.9836 72.4705 58.3003C72.1537 58.6171 71.7777 58.8683 71.3638 59.0398C70.9499 59.2112 70.5064 59.2994 70.0584 59.2994C69.1537 59.2994 68.286 58.94 67.6463 58.3003C67.0066 57.6606 66.6472 56.793 66.6472 55.8883C66.6472 54.9836 67.0066 54.1159 67.6463 53.4762C68.286 52.8365 69.1537 52.4771 70.0584 52.4771ZM70.0584 58.0818C70.4913 58.0851 70.9154 57.9597 71.2769 57.7216C71.6384 57.4835 71.9211 57.1434 72.0891 56.7444C72.257 56.3455 72.3027 55.9056 72.2203 55.4806C72.1378 55.0556 71.931 54.6647 71.6261 54.3575C71.3212 54.0502 70.9319 53.8404 70.5075 53.7547C70.0832 53.6691 69.643 53.7113 69.2427 53.8762C68.8425 54.0411 68.5002 54.3212 68.2594 54.6809C68.0185 55.0406 67.8899 55.4637 67.8899 55.8966C67.8942 56.4719 68.1235 57.0227 68.5288 57.4311C68.9341 57.8395 69.4831 58.0731 70.0584 58.0818Z" fill="#1D1D1B"/>
<path d="M75.3628 52.7106C75.3627 52.6872 75.3675 52.6641 75.3769 52.6426C75.3863 52.6212 75.4001 52.6021 75.4174 52.5863C75.4347 52.5706 75.4551 52.5587 75.4773 52.5513C75.4995 52.544 75.523 52.5414 75.5463 52.5438H75.7798L79.5329 56.7139V52.7273C79.5303 52.7025 79.5332 52.6775 79.5415 52.6541C79.5498 52.6306 79.5633 52.6093 79.5809 52.5917C79.5984 52.5741 79.6198 52.5607 79.6432 52.5524C79.6667 52.5441 79.6917 52.5412 79.7164 52.5438H80.5838C80.6325 52.5438 80.6791 52.5631 80.7136 52.5975C80.748 52.6319 80.7673 52.6786 80.7673 52.7273V59.0826C80.7674 59.1059 80.7626 59.1291 80.7532 59.1505C80.7438 59.1719 80.73 59.1911 80.7127 59.2068C80.6954 59.2226 80.675 59.2345 80.6528 59.2418C80.6306 59.2491 80.6071 59.2517 80.5838 59.2494H80.3503L76.5972 55.0459V58.9992C76.5998 59.0239 76.5968 59.0489 76.5886 59.0724C76.5803 59.0958 76.5668 59.1171 76.5492 59.1347C76.5316 59.1523 76.5103 59.1657 76.4869 59.174C76.4634 59.1823 76.4384 59.1853 76.4137 59.1826H75.563C75.5143 59.1826 75.4676 59.1633 75.4332 59.1289C75.3988 59.0945 75.3795 59.0478 75.3795 58.9992L75.3628 52.7106Z" fill="#1D1D1B"/>
<path d="M91.4429 52.7273C91.4405 52.704 91.4431 52.6805 91.4504 52.6583C91.4578 52.6361 91.4697 52.6157 91.4854 52.5984C91.5011 52.5811 91.5203 52.5673 91.5417 52.5579C91.5631 52.5485 91.5863 52.5437 91.6097 52.5438H94.779C95.3231 52.5438 95.845 52.76 96.2297 53.1447C96.6145 53.5295 96.8307 54.0514 96.8307 54.5955C96.8223 55.0242 96.686 55.4406 96.4393 55.7913C96.1926 56.142 95.8468 56.411 95.4462 56.5638L96.7473 58.9825C96.767 59.0084 96.7787 59.0395 96.7809 59.072C96.7832 59.1045 96.7759 59.1369 96.7599 59.1653C96.7439 59.1936 96.72 59.2167 96.6911 59.2317C96.6622 59.2466 96.6295 59.2528 96.5971 59.2494H95.613C95.5824 59.2525 95.5517 59.2462 95.5248 59.2313C95.498 59.2164 95.4764 59.1936 95.4629 59.166L94.1785 56.7139H92.6605V59.1326C92.6605 59.1813 92.6412 59.228 92.6068 59.2624C92.5724 59.2968 92.5257 59.3161 92.477 59.3161H91.6097C91.5863 59.3162 91.5631 59.3114 91.5417 59.302C91.5203 59.2926 91.5011 59.2788 91.4854 59.2615C91.4697 59.2442 91.4578 59.2238 91.4504 59.2016C91.4431 59.1794 91.4405 59.1559 91.4429 59.1326V52.7273ZM94.6789 55.5797C94.9073 55.5492 95.1168 55.4369 95.2686 55.2635C95.4204 55.0902 95.504 54.8676 95.504 54.6372C95.504 54.4068 95.4204 54.1842 95.2686 54.0109C95.1168 53.8375 94.9073 53.7252 94.6789 53.6948H92.6605V55.5797H94.6789Z" fill="#1D1D1B"/>
<path d="M100.851 52.9108C100.851 52.8621 100.87 52.8154 100.904 52.781C100.939 52.7466 100.986 52.7273 101.034 52.7273H101.952C102 52.7273 102.047 52.7466 102.081 52.781C102.116 52.8154 102.135 52.8621 102.135 52.9108V58.8824C102.131 58.9298 102.111 58.9743 102.077 59.0079C102.044 59.0415 101.999 59.0621 101.952 59.0659H101.034C100.987 59.0621 100.942 59.0415 100.909 59.0079C100.875 58.9743 100.855 58.9298 100.851 58.8824V52.9108Z" fill="#1D1D1B"/>
<path d="M103.903 58.2152C103.94 58.215 103.976 58.2285 104.004 58.2531C104.032 58.2777 104.049 58.3118 104.053 58.3486V59.0993C104.053 59.1391 104.037 59.1773 104.009 59.2054C103.981 59.2336 103.943 59.2494 103.903 59.2494H99.0658C99.029 59.2453 98.9949 59.2276 98.9703 59.1999C98.9457 59.1722 98.9321 59.1363 98.9324 59.0993V58.382C98.936 58.3478 98.9512 58.316 98.9755 58.2917C98.9998 58.2674 99.0317 58.2522 99.0658 58.2485L103.903 58.2152Z" fill="#1D1D1B"/>
<path d="M103.536 52.5438C103.573 52.5479 103.607 52.5655 103.632 52.5932C103.656 52.621 103.67 52.6568 103.67 52.6939V53.3778C103.67 53.4149 103.656 53.4508 103.632 53.4785C103.607 53.5062 103.573 53.5238 103.536 53.5279H99.4495C99.4126 53.5238 99.3786 53.5062 99.354 53.4785C99.3293 53.4508 99.3158 53.4149 99.316 53.3778V52.6439C99.3158 52.6068 99.3293 52.5709 99.354 52.5432C99.3786 52.5155 99.4126 52.4979 99.4495 52.4937L103.536 52.5438Z" fill="#1D1D1B"/>
<path d="M122.619 52.8107V52.6272H124.937V52.8107H124.687C124.568 52.8067 124.45 52.8338 124.345 52.8894C124.24 52.9449 124.151 53.0271 124.087 53.1276C123.999 53.35 123.964 53.59 123.987 53.8282V56.4804C124.002 56.9927 123.94 57.5043 123.803 57.9983C123.654 58.3837 123.385 58.711 123.036 58.9325C122.567 59.2082 122.028 59.3415 121.485 59.3161C120.905 59.3514 120.328 59.2243 119.817 58.9491C119.459 58.7037 119.185 58.3543 119.033 57.9483C118.9 57.4029 118.849 56.8406 118.882 56.2802V53.7948C118.917 53.5169 118.858 53.2353 118.716 52.9942C118.645 52.9274 118.561 52.8764 118.469 52.8448C118.376 52.8132 118.279 52.8015 118.182 52.8107H117.932V52.6272H120.751V52.8107H120.5C120.392 52.8003 120.284 52.8179 120.184 52.8617C120.085 52.9055 119.999 52.9741 119.933 53.0609C119.831 53.2913 119.791 53.5442 119.817 53.7948V56.7139C119.794 57.0026 119.794 57.2926 119.817 57.5813C119.846 57.8516 119.931 58.1129 120.067 58.3486C120.198 58.5402 120.376 58.6952 120.584 58.799C120.849 58.9257 121.141 58.9885 121.435 58.9825C121.836 58.9878 122.232 58.8902 122.586 58.6989C122.892 58.5499 123.135 58.2952 123.269 57.9817C123.425 57.5089 123.488 57.0103 123.453 56.5138V53.7948C123.453 53.3778 123.453 53.1276 123.319 53.0275C123.251 52.9505 123.166 52.8906 123.07 52.8529C122.975 52.8152 122.871 52.8007 122.769 52.8107H122.619Z" fill="#1D1D1B"/>
<path d="M126.639 52.6272H128.44L132.427 57.5313V53.7615C132.427 53.3611 132.427 53.1109 132.294 53.0109C132.219 52.9384 132.13 52.883 132.032 52.8485C131.934 52.8139 131.83 52.801 131.726 52.8107H131.51V52.6272H133.778V52.8107H133.445C133.334 52.8006 133.223 52.8182 133.121 52.8619C133.019 52.9055 132.93 52.974 132.861 53.0609C132.773 53.2833 132.738 53.5233 132.761 53.7615V59.2661H132.577L128.274 54.0117V58.0317C128.245 58.2895 128.291 58.5501 128.407 58.7823C128.482 58.8539 128.571 58.9087 128.669 58.9432C128.767 58.9777 128.871 58.9911 128.974 58.9825H129.208V59.166H126.989V58.9825H127.223C127.333 58.9958 127.446 58.9797 127.548 58.9358C127.651 58.8919 127.74 58.8217 127.807 58.7323C127.911 58.5147 127.952 58.2716 127.923 58.0317V53.4946C127.791 53.3331 127.646 53.1824 127.49 53.0442C127.357 52.9581 127.21 52.896 127.056 52.8607C126.918 52.838 126.777 52.838 126.639 52.8607V52.6272Z" fill="#1D1D1B"/>
<path d="M138.649 58.9825V59.166H135.863V58.9825H136.097C136.205 58.9918 136.315 58.9755 136.416 58.9349C136.518 58.8944 136.608 58.8307 136.681 58.749C136.777 58.5111 136.817 58.2542 136.797 57.9983V53.7948C136.835 53.574 136.835 53.3485 136.797 53.1276C136.759 53.0378 136.687 52.9662 136.597 52.9274C136.467 52.8479 136.316 52.8074 136.163 52.8107H135.93V52.6272H138.716V52.8107H138.449C138.34 52.8039 138.231 52.8214 138.13 52.8618C138.03 52.9021 137.939 52.9645 137.865 53.0442C137.769 53.2821 137.729 53.539 137.748 53.7948V57.9983C137.711 58.2192 137.711 58.4447 137.748 58.6656C137.792 58.7514 137.862 58.8213 137.948 58.8657C138.079 58.9452 138.229 58.9857 138.382 58.9825H138.649Z" fill="#1D1D1B"/>
<path d="M146.339 52.6272V54.1618H146.155C146.141 53.9597 146.09 53.7619 146.005 53.578C145.916 53.4064 145.776 53.2665 145.605 53.1777C145.404 53.0754 145.179 53.0293 144.954 53.0442H144.037V58.0484C144.008 58.3062 144.055 58.5668 144.17 58.799C144.245 58.8705 144.335 58.9254 144.432 58.9599C144.53 58.9944 144.634 59.0078 144.737 58.9992H144.954V59.1827H142.252V58.9992H142.485C142.596 59.0109 142.708 58.994 142.81 58.9502C142.912 58.9064 143.001 58.8371 143.069 58.749C143.174 58.5313 143.215 58.2883 143.186 58.0484V53.0442H142.402C142.187 53.0078 141.967 53.0078 141.752 53.0442C141.569 53.1039 141.415 53.2286 141.318 53.3945C141.189 53.6068 141.115 53.8474 141.101 54.0951H140.917V52.5605L146.339 52.6272Z" fill="#1D1D1B"/>
<path d="M150.442 52.9942V55.563H151.877C152.133 55.5953 152.393 55.5363 152.611 55.3962C152.708 55.2912 152.783 55.1677 152.832 55.033C152.881 54.8983 152.902 54.7552 152.894 54.6122H153.078V56.8974H152.894C152.876 56.6869 152.831 56.4795 152.761 56.2802C152.702 56.1597 152.601 56.0648 152.477 56.0134C152.287 55.9364 152.082 55.9022 151.877 55.9133H150.442V58.0651C150.416 58.242 150.416 58.4219 150.442 58.5988C150.468 58.6627 150.515 58.7157 150.576 58.749C150.697 58.7742 150.821 58.7742 150.942 58.749H152.043C152.315 58.7839 152.589 58.7839 152.861 58.749C153.043 58.6895 153.205 58.5796 153.328 58.432C153.587 58.1723 153.796 57.8669 153.945 57.5313H154.145L153.578 59.1993H148.574V59.0159H148.807C148.96 59.0191 149.111 58.9786 149.241 58.8991C149.294 58.8813 149.341 58.8507 149.379 58.8099C149.417 58.7691 149.444 58.7195 149.458 58.6656C149.485 58.4607 149.485 58.2532 149.458 58.0484V53.7615C149.49 53.4998 149.45 53.2344 149.341 52.9942C149.178 52.8597 148.968 52.7939 148.757 52.8107H148.524V52.6272H153.528V54.0617H153.461C153.421 53.8142 153.348 53.573 153.244 53.3445C153.149 53.2195 153.022 53.1218 152.877 53.0609C152.651 53.0261 152.42 53.0261 152.194 53.0609L150.442 52.9942Z" fill="#1D1D1B"/>
<path d="M156.297 59.166V58.9825H156.547C156.659 58.994 156.773 58.9753 156.875 58.9284C156.978 58.8815 157.066 58.808 157.131 58.7156C157.216 58.4867 157.251 58.2419 157.231 57.9984V53.7948C157.231 53.3778 157.231 53.1276 157.098 53.0275C157.029 52.9515 156.943 52.8924 156.848 52.8548C156.752 52.8172 156.649 52.8021 156.547 52.8107H156.297V52.6272H158.949C159.709 52.5943 160.467 52.7076 161.184 52.9608C161.7 53.1921 162.127 53.5842 162.402 54.0784C162.722 54.6176 162.884 55.2362 162.869 55.8632C162.899 56.6965 162.606 57.5091 162.052 58.1318C161.679 58.4954 161.234 58.7756 160.745 58.9539C160.256 59.1322 159.735 59.2045 159.216 59.166H156.297ZM158.165 58.6823C158.498 58.7676 158.839 58.8124 159.183 58.8157C159.53 58.8288 159.876 58.7654 160.196 58.6299C160.516 58.4944 160.802 58.2902 161.034 58.0317C161.297 57.7476 161.5 57.4138 161.632 57.05C161.764 56.6862 161.821 56.2997 161.801 55.9133C161.826 55.5266 161.774 55.1388 161.648 54.7723C161.522 54.4059 161.325 54.068 161.068 53.7782C160.827 53.5215 160.534 53.3189 160.209 53.1837C159.884 53.0486 159.534 52.984 159.183 52.9942C158.849 52.9999 158.518 53.0504 158.198 53.1443L158.165 58.6823Z" fill="#1D1D1B"/>
<path d="M174.629 52.8107V52.6272H176.947V52.8107H176.697C176.578 52.8067 176.46 52.8338 176.355 52.8894C176.25 52.9449 176.161 53.0271 176.097 53.1276C176.009 53.35 175.974 53.59 175.997 53.8282V56.4804C176.02 56.9931 175.958 57.506 175.813 57.9983C175.664 58.3837 175.395 58.711 175.046 58.9325C174.577 59.2082 174.038 59.3415 173.495 59.3161C172.915 59.3569 172.336 59.2295 171.827 58.9491C171.46 58.7096 171.179 58.3589 171.026 57.9483C170.893 57.4029 170.842 56.8406 170.876 56.2802V53.7948C170.91 53.5169 170.851 53.2353 170.709 52.9942C170.638 52.9274 170.554 52.8764 170.462 52.8448C170.37 52.8132 170.272 52.8015 170.175 52.8107H169.925V52.6272H172.761V52.8107H172.494C172.386 52.8003 172.277 52.8179 172.177 52.8617C172.078 52.9055 171.992 52.9741 171.927 53.0609C171.825 53.2913 171.784 53.5442 171.81 53.7948V56.7139C171.787 57.0026 171.787 57.2926 171.81 57.5813C171.839 57.8516 171.925 58.1129 172.06 58.3486C172.194 58.5446 172.378 58.7003 172.594 58.799C172.853 58.9274 173.139 58.9904 173.428 58.9825C173.829 58.9878 174.226 58.8902 174.579 58.6989C174.886 58.5499 175.128 58.2952 175.263 57.9817C175.419 57.5089 175.481 57.0103 175.446 56.5138V53.7948C175.446 53.3778 175.446 53.1276 175.313 53.0275C175.245 52.9505 175.159 52.8906 175.064 52.8529C174.968 52.8152 174.865 52.8007 174.762 52.8107H174.629Z" fill="#1D1D1B"/>
<path d="M178.649 52.6272H180.417L184.404 57.5313V53.7615C184.404 53.3611 184.404 53.1109 184.27 53.0109C184.196 52.9384 184.107 52.883 184.009 52.8485C183.911 52.8139 183.807 52.801 183.703 52.8107H183.486V52.6272H185.755V52.8107H185.521C185.411 52.8006 185.3 52.8182 185.198 52.8619C185.096 52.9055 185.006 52.974 184.938 53.0609C184.849 53.2833 184.815 53.5233 184.837 53.7615V59.2661H184.654L180.35 54.0117V58.0317C180.322 58.2895 180.368 58.5501 180.484 58.7823C180.559 58.8539 180.648 58.9087 180.746 58.9432C180.844 58.9777 180.948 58.9911 181.051 58.9825H181.284V59.166H179.016V58.9825H179.233C179.346 58.9939 179.46 58.977 179.565 58.9334C179.669 58.8897 179.762 58.8206 179.833 58.7323C179.921 58.5099 179.956 58.2699 179.933 58.0317V53.4946C179.806 53.329 179.66 53.178 179.5 53.0442C179.367 52.9581 179.22 52.896 179.066 52.8607C178.928 52.838 178.787 52.838 178.649 52.8607V52.6272Z" fill="#1D1D1B"/>
<path d="M190.659 58.9825V59.166H187.873V58.9825H188.107C188.215 58.9918 188.325 58.9755 188.426 58.9349C188.528 58.8944 188.618 58.8307 188.691 58.749C188.798 58.5143 188.838 58.2545 188.807 57.9983V53.7948C188.845 53.574 188.845 53.3485 188.807 53.1276C188.769 53.0378 188.697 52.9662 188.607 52.9274C188.477 52.8479 188.326 52.8074 188.173 52.8107H187.94V52.6272H190.726V52.8107H190.492C190.383 52.8039 190.275 52.8214 190.174 52.8618C190.073 52.9021 189.982 52.9645 189.908 53.0442C189.812 53.2821 189.772 53.539 189.791 53.7948V57.9983C189.754 58.2192 189.754 58.4447 189.791 58.6656C189.836 58.7514 189.906 58.8213 189.992 58.8657C190.122 58.9452 190.273 58.9857 190.425 58.9825H190.659Z" fill="#1D1D1B"/>
<path d="M199.633 52.6272V52.8107C199.443 52.8313 199.264 52.9066 199.116 53.0275C198.921 53.2355 198.768 53.479 198.666 53.7448L196.38 59.3161H196.197L193.761 53.6781C193.684 53.4948 193.594 53.3166 193.495 53.1443C193.41 53.0486 193.308 52.9694 193.194 52.9108C193.045 52.8527 192.887 52.8189 192.727 52.8107V52.6272H195.396V52.8107C195.188 52.8189 194.983 52.8701 194.796 52.9608C194.755 52.996 194.722 53.0395 194.699 53.0883C194.676 53.1372 194.663 53.1904 194.662 53.2444C194.693 53.5069 194.772 53.7614 194.896 53.995L196.564 57.8315L198.115 54.045C198.228 53.8027 198.302 53.5436 198.332 53.2777C198.329 53.2266 198.315 53.1766 198.292 53.1308C198.269 53.085 198.237 53.0442 198.199 53.0109C198.057 52.9062 197.89 52.8426 197.715 52.8274V52.6439L199.633 52.6272Z" fill="#1D1D1B"/>
<path d="M203.503 52.9942V55.563H204.937C205.194 55.5953 205.454 55.5363 205.671 55.3962C205.769 55.2912 205.844 55.1677 205.893 55.033C205.942 54.8983 205.963 54.7552 205.955 54.6122H206.138V56.8974H205.955C205.937 56.6869 205.892 56.4795 205.822 56.2802C205.763 56.1597 205.662 56.0648 205.538 56.0134C205.348 55.9364 205.143 55.9022 204.937 55.9133H203.503V58.0651C203.476 58.242 203.476 58.4219 203.503 58.5988C203.513 58.6322 203.53 58.663 203.553 58.689C203.576 58.715 203.604 58.7354 203.636 58.749C203.757 58.7742 203.882 58.7742 204.003 58.749H205.171C205.437 58.7832 205.706 58.7832 205.972 58.749C206.159 58.6898 206.326 58.5802 206.455 58.432C206.709 58.1677 206.918 57.8634 207.073 57.5313H207.256L206.706 59.1993H201.701V59.0159H201.935C202.088 59.0191 202.238 58.9786 202.369 58.8991C202.419 58.878 202.465 58.8462 202.502 58.8059C202.54 58.7656 202.568 58.7178 202.585 58.6656C202.613 58.4607 202.613 58.2532 202.585 58.0484V53.7615C202.618 53.4998 202.577 53.2344 202.469 52.9942C202.305 52.8597 202.096 52.7939 201.885 52.8107H201.651V52.6272H206.656V54.0617H206.472C206.436 53.8111 206.357 53.5685 206.239 53.3445C206.149 53.2202 206.028 53.1222 205.888 53.0609C205.662 53.0261 205.431 53.0261 205.204 53.0609L203.503 52.9942Z" fill="#1D1D1B"/>
<path d="M215.897 59.166H214.229L212.01 56.1134H211.326V57.9983C211.296 58.2616 211.343 58.5279 211.46 58.7656C211.53 58.8398 211.616 58.8976 211.711 58.935C211.806 58.9725 211.908 58.9887 212.01 58.9825H212.26V59.166H209.475V58.9825H209.725C209.837 58.994 209.95 58.9753 210.053 58.9284C210.156 58.8815 210.244 58.808 210.309 58.7156C210.398 58.4878 210.432 58.242 210.409 57.9983V53.7948C210.439 53.5316 210.392 53.2653 210.275 53.0275C210.206 52.9515 210.121 52.8924 210.025 52.8548C209.93 52.8171 209.827 52.8021 209.725 52.8107H209.475V52.6272H211.843C212.359 52.6065 212.876 52.657 213.378 52.7773C213.709 52.8819 214.004 53.0786 214.229 53.3445C214.451 53.6172 214.569 53.9601 214.562 54.3119C214.559 54.6959 214.424 55.0671 214.179 55.3628C213.846 55.6887 213.42 55.9042 212.961 55.98L214.312 57.8482C214.522 58.1796 214.787 58.4729 215.096 58.7156C215.362 58.8682 215.658 58.9594 215.963 58.9825L215.897 59.166ZM211.259 55.8299H211.526C212.031 55.8674 212.533 55.7257 212.944 55.4295C213.094 55.3028 213.214 55.1442 213.295 54.9653C213.376 54.7863 213.415 54.5916 213.411 54.3953C213.422 54.2108 213.393 54.0261 213.327 53.8536C213.261 53.681 213.159 53.5245 213.028 53.3945C212.896 53.2657 212.739 53.1652 212.567 53.0992C212.395 53.0332 212.211 53.0031 212.027 53.0108C211.768 53.0185 211.511 53.052 211.259 53.1109V55.8299Z" fill="#1D1D1B"/>
<path d="M221.852 52.4771V54.7456H221.685C221.644 54.3842 221.537 54.0334 221.368 53.7114C221.216 53.4524 220.997 53.2392 220.734 53.0943C220.469 52.9458 220.171 52.8655 219.867 52.8607C219.563 52.8562 219.27 52.9699 219.049 53.1777C218.949 53.2619 218.867 53.3663 218.81 53.4841C218.752 53.6019 218.72 53.7305 218.716 53.8616C218.716 54.0627 218.787 54.2573 218.916 54.412C219.341 54.807 219.825 55.1335 220.35 55.3795C220.784 55.5911 221.197 55.8424 221.585 56.1301C221.805 56.2905 221.982 56.5024 222.102 56.7473C222.229 56.9766 222.292 57.2358 222.285 57.4979C222.287 57.7376 222.238 57.9749 222.14 58.1936C222.042 58.4124 221.898 58.6075 221.718 58.7657C221.519 58.9504 221.285 59.0941 221.031 59.1886C220.776 59.283 220.505 59.3264 220.234 59.3161C220.056 59.3333 219.877 59.3333 219.7 59.3161C219.489 59.2727 219.283 59.2114 219.083 59.1326C218.888 59.0611 218.687 59.0107 218.482 58.9825C218.447 58.9818 218.413 58.989 218.381 59.0034C218.349 59.0178 218.321 59.0392 218.299 59.0659C218.235 59.1531 218.2 59.2581 218.199 59.3662H218.015V57.0642H218.199C218.244 57.4322 218.357 57.7886 218.532 58.1151C218.686 58.3699 218.913 58.5732 219.183 58.6989C219.475 58.8543 219.802 58.9345 220.133 58.9325C220.48 58.9544 220.821 58.8407 221.084 58.6155C221.193 58.5227 221.28 58.4076 221.341 58.2782C221.401 58.1487 221.433 58.0078 221.435 57.8649C221.43 57.6953 221.384 57.5293 221.301 57.3812C221.196 57.1985 221.054 57.0395 220.884 56.9141C220.767 56.9141 220.417 56.6139 219.867 56.3136C219.449 56.0917 219.048 55.8409 218.666 55.563C218.448 55.3954 218.266 55.1855 218.132 54.9458C217.974 54.6258 217.922 54.2636 217.985 53.9123C218.049 53.561 218.223 53.2392 218.482 52.9942C218.667 52.82 218.884 52.6844 219.122 52.5956C219.36 52.5068 219.613 52.4665 219.867 52.4771C220.249 52.4836 220.625 52.5747 220.967 52.744C221.089 52.8001 221.219 52.8393 221.351 52.8607C221.426 52.8606 221.498 52.8306 221.551 52.7773C221.621 52.6907 221.667 52.5872 221.685 52.4771H221.852Z" fill="#1D1D1B"/>
<path d="M227.606 58.9825V59.166H224.804V58.9825H225.037C225.146 58.9918 225.256 58.9755 225.357 58.9349C225.458 58.8944 225.549 58.8307 225.621 58.749C225.729 58.5143 225.769 58.2545 225.738 57.9983V53.7948C225.775 53.574 225.775 53.3485 225.738 53.1276C225.725 53.0822 225.702 53.0404 225.67 53.0056C225.638 52.9708 225.599 52.9441 225.555 52.9274C225.417 52.8498 225.262 52.8095 225.104 52.8107H224.871V52.6272H227.673V52.8107H227.439C227.331 52.8014 227.221 52.8177 227.12 52.8583C227.019 52.8988 226.928 52.9625 226.856 53.0442C226.748 53.2789 226.708 53.5387 226.739 53.7948V57.9983C226.713 58.22 226.713 58.4439 226.739 58.6656C226.786 58.7556 226.862 58.8264 226.956 58.8657C227.086 58.9452 227.237 58.9857 227.389 58.9825H227.606Z" fill="#1D1D1B"/>
<path d="M235.279 52.6272V54.1618H235.196C235.177 53.9623 235.132 53.7661 235.062 53.578C234.974 53.4064 234.834 53.2665 234.662 53.1777C234.461 53.0754 234.237 53.0293 234.012 53.0442H233.094V58.0484C233.063 58.3046 233.104 58.5643 233.211 58.799C233.287 58.8697 233.376 58.9239 233.474 58.9584C233.571 58.9928 233.675 59.0067 233.778 58.9992H234.012V59.1827H231.243V58.9992H231.476C231.587 59.0093 231.698 58.9917 231.8 58.948C231.902 58.9043 231.991 58.8359 232.06 58.749C232.148 58.5266 232.182 58.2865 232.16 58.0484V53.0442H231.376C231.161 53.0099 230.941 53.0099 230.726 53.0442C230.546 53.109 230.393 53.2323 230.292 53.3945C230.161 53.6049 230.092 53.8475 230.092 54.0951H229.908V52.5605L235.279 52.6272Z" fill="#1D1D1B"/>
<path d="M240.367 58.9825V59.166H237.565V58.9825H237.798C237.907 58.9918 238.016 58.9755 238.118 58.9349C238.219 58.8944 238.31 58.8307 238.382 58.749C238.489 58.5143 238.53 58.2545 238.499 57.9983V53.7948C238.525 53.5732 238.525 53.3493 238.499 53.1276C238.46 53.0378 238.388 52.9662 238.299 52.9274C238.161 52.8498 238.006 52.8095 237.848 52.8107H237.615V52.6272H240.417V52.8107H240.2C240.091 52.8014 239.982 52.8177 239.881 52.8583C239.779 52.8988 239.689 52.9625 239.616 53.0442C239.509 53.2789 239.469 53.5387 239.5 53.7948V57.9983C239.462 58.2192 239.462 58.4447 239.5 58.6656C239.516 58.7116 239.543 58.7533 239.577 58.7879C239.612 58.8225 239.654 58.8491 239.7 58.8657C239.83 58.9452 239.981 58.9857 240.133 58.9825H240.367Z" fill="#1D1D1B"/>
<path d="M244.404 52.9942V55.563H245.838C246.095 55.5953 246.355 55.5363 246.572 55.3962C246.67 55.2912 246.745 55.1677 246.794 55.033C246.842 54.8983 246.863 54.7552 246.856 54.6122H247.039V56.8974H246.872C246.854 56.6869 246.809 56.4795 246.739 56.2802C246.68 56.1597 246.579 56.0648 246.455 56.0134C246.265 55.9364 246.06 55.9022 245.855 55.9133H244.42V58.0651C244.394 58.242 244.394 58.4219 244.42 58.5988C244.43 58.6322 244.447 58.663 244.47 58.689C244.493 58.715 244.522 58.7354 244.554 58.749C244.675 58.7742 244.8 58.7742 244.921 58.749H246.022C246.293 58.7825 246.568 58.7825 246.839 58.749C247.02 58.6857 247.181 58.5765 247.306 58.432C247.565 58.1723 247.775 57.8669 247.923 57.5313H248.123L247.556 59.1993H242.552V59.0159H242.786C242.938 59.0191 243.089 58.9786 243.219 58.8991C243.27 58.878 243.316 58.8462 243.353 58.8059C243.391 58.7656 243.419 58.7178 243.436 58.6656C243.463 58.4607 243.463 58.2532 243.436 58.0484V53.7615C243.469 53.4998 243.428 53.2344 243.319 52.9942C243.156 52.8597 242.947 52.7939 242.736 52.8107H242.502V52.6272H247.506V54.0617H247.323C247.286 53.8111 247.207 53.5685 247.089 53.3445C247.004 53.2163 246.882 53.1173 246.739 53.0609C246.512 53.0261 246.282 53.0261 246.055 53.0609L244.404 52.9942Z" fill="#1D1D1B"/>
<path d="M254.612 52.4771V54.7456H254.429C254.396 54.3826 254.288 54.0304 254.112 53.7114C253.967 53.4467 253.746 53.2317 253.478 53.0943C253.22 52.9415 252.927 52.8608 252.627 52.8607C252.319 52.8554 252.02 52.9688 251.793 53.1777C251.694 53.262 251.614 53.3668 251.56 53.4849C251.505 53.6029 251.476 53.7315 251.476 53.8616C251.477 54.0627 251.548 54.2573 251.676 54.412C252.094 54.808 252.573 55.1346 253.094 55.3795C253.535 55.588 253.954 55.8394 254.345 56.1301C254.561 56.295 254.738 56.5058 254.862 56.7473C254.981 56.9797 255.044 57.2368 255.046 57.4979C255.046 57.7389 254.994 57.977 254.893 58.1958C254.792 58.4146 254.645 58.609 254.462 58.7657C254.264 58.952 254.03 59.0966 253.775 59.1912C253.52 59.2857 253.249 59.3282 252.977 59.3161C252.8 59.3333 252.621 59.3333 252.444 59.3161C252.233 59.2728 252.027 59.2114 251.827 59.1326C251.638 59.06 251.442 59.0096 251.243 58.9825C251.168 58.9827 251.096 59.0127 251.043 59.0659C250.986 59.1568 250.952 59.2596 250.942 59.3662H250.759V57.0642H250.942C250.995 57.4306 251.107 57.7858 251.276 58.1151C251.437 58.3641 251.662 58.5656 251.927 58.6989C252.221 58.8505 252.546 58.9306 252.877 58.9325C253.223 58.9544 253.564 58.8407 253.828 58.6155C253.937 58.5227 254.024 58.4076 254.085 58.2782C254.145 58.1487 254.177 58.0078 254.178 57.8649C254.182 57.6942 254.135 57.5261 254.045 57.3812C253.946 57.199 253.81 57.0398 253.645 56.9141C253.511 56.9141 253.178 56.6139 252.61 56.3136C252.2 56.0885 251.805 55.8378 251.426 55.563C251.208 55.3954 251.027 55.1855 250.892 54.9458C250.764 54.7171 250.7 54.4575 250.709 54.1952C250.705 53.9681 250.75 53.7429 250.842 53.5354C250.935 53.3278 251.071 53.1431 251.243 52.9942C251.425 52.8212 251.64 52.6864 251.874 52.5976C252.109 52.5088 252.36 52.4678 252.61 52.4771C252.993 52.4819 253.369 52.5731 253.711 52.744C253.834 52.7982 253.963 52.8374 254.095 52.8607C254.17 52.8606 254.242 52.8306 254.295 52.7773C254.372 52.6951 254.419 52.5893 254.429 52.4771H254.612Z" fill="#1D1D1B"/>
<path d="M106.172 58.1818L106.539 57.5813C106.585 57.5403 106.644 57.5176 106.706 57.5176C106.767 57.5176 106.827 57.5403 106.872 57.5813C107.364 57.9426 107.937 58.1775 108.54 58.2652C108.648 58.2768 108.757 58.2669 108.86 58.2361C108.964 58.2054 109.06 58.1544 109.144 58.0862C109.228 58.0179 109.297 57.9337 109.348 57.8385C109.399 57.7432 109.431 57.6388 109.441 57.5313C109.441 56.9808 108.991 56.7306 108.157 56.4137C107.323 56.0968 106.322 55.4796 106.322 54.362C106.322 53.5113 106.939 52.5438 108.524 52.5438C109.229 52.549 109.916 52.7703 110.492 53.1777C110.532 53.2208 110.554 53.2774 110.554 53.3361C110.554 53.3949 110.532 53.4514 110.492 53.4946L110.175 53.9616C110.143 54.0225 110.089 54.0686 110.023 54.0904C109.958 54.1121 109.887 54.1078 109.825 54.0784C109.373 53.826 108.873 53.6725 108.357 53.628C107.79 53.628 107.49 53.9283 107.49 54.2786C107.49 54.6289 107.89 55.0292 108.691 55.3461C109.491 55.6631 110.759 56.2636 110.759 57.4979C110.736 57.7709 110.659 58.0365 110.532 58.2791C110.405 58.5217 110.23 58.7364 110.019 58.9105C109.807 59.0846 109.563 59.2146 109.301 59.2929C109.038 59.3711 108.763 59.396 108.49 59.3661C107.625 59.3616 106.785 59.0681 106.105 58.5321C106.105 58.5321 106.088 58.382 106.172 58.1818Z" fill="#1D1D1B"/>
<path d="M86.105 52.4771C86.7649 52.4771 87.4099 52.6727 87.9585 53.0393C88.5071 53.4059 88.9347 53.9269 89.1872 54.5365C89.4397 55.1461 89.5058 55.8169 89.377 56.464C89.2483 57.1112 88.9306 57.7056 88.464 58.1722C87.9975 58.6387 87.403 58.9565 86.7559 59.0852C86.1087 59.2139 85.438 59.1479 84.8284 58.8954C84.2188 58.6429 83.6977 58.2153 83.3312 57.6666C82.9646 57.118 82.7689 56.473 82.7689 55.8132C82.7689 54.9284 83.1204 54.0799 83.746 53.4542C84.3717 52.8286 85.2202 52.4771 86.105 52.4771ZM86.105 58.0818C86.5372 58.0818 86.9597 57.9536 87.319 57.7135C87.6784 57.4734 87.9585 57.1321 88.1239 56.7328C88.2892 56.3335 88.3325 55.8942 88.2482 55.4703C88.1639 55.0464 87.9558 54.6571 87.6502 54.3515C87.3446 54.0459 86.9552 53.8377 86.5313 53.7534C86.1075 53.6691 85.6681 53.7124 85.2688 53.8778C84.8695 54.0432 84.5283 54.3232 84.2881 54.6826C84.048 55.0419 83.9199 55.4644 83.9199 55.8966C83.9199 56.4761 84.1501 57.0319 84.5599 57.4417C84.9697 57.8515 85.5255 58.0818 86.105 58.0818Z" fill="#1D1D1B"/>
<path d="M60.9341 0.433716H65.0542L72.9775 14.5622V0.433716H76.5304V19.6164H72.5438L64.487 5.58801V19.6164H60.9341V0.433716Z" fill="#274193"/>
<path d="M80.0667 0.433716H83.6196V19.6164H80.0667V0.433716Z" fill="#274193"/>
<path d="M87.3228 0.433716H90.8757V16.1802H96.7473V19.6164H87.3228V0.433716Z" fill="#274193"/>
<path d="M98.6989 0.433716H109.024V3.88659H102.252V8.3403H108.724V11.7598H102.252V16.1802H108.924V19.6164H98.6989V0.433716Z" fill="#274193"/>
<path d="M119.4 13.3445V0.433716H122.952V13.3445C122.932 14.1648 123.197 14.9668 123.703 15.613C123.951 15.9379 124.272 16.1995 124.64 16.3764C125.008 16.5533 125.413 16.6404 125.822 16.6305C126.347 16.6761 126.874 16.5679 127.339 16.3192C127.804 16.0704 128.187 15.6917 128.44 15.2294C128.723 14.7193 128.867 14.1442 128.857 13.5613V0.433716H132.427V13.3445C132.463 15.0332 131.868 16.6746 130.759 17.9483C130.154 18.6406 129.4 19.1865 128.553 19.5448C127.707 19.9031 126.79 20.0644 125.872 20.0167C124.733 20.0221 123.614 19.7165 122.636 19.1326C121.646 18.525 120.829 17.6739 120.263 16.6605C119.696 15.6472 119.399 14.5055 119.4 13.3445Z" fill="#274193"/>
<path d="M135.997 0.433716H140.117L148.023 14.5622V0.433716H151.576V19.6164H147.623L139.55 5.58801V19.6164H135.997V0.433716Z" fill="#274193"/>
<path d="M155.129 0.433716H158.682V19.6164H155.129V0.433716Z" fill="#274193"/>
<path d="M168.274 19.6164L160.884 0.500427H164.57L169.741 15.0125L174.896 0.500427H178.632L171.259 19.6164H168.274Z" fill="#274193"/>
<path d="M180.5 0.433716H190.826V3.88659H184.053V8.3403H190.525V11.7598H184.053V16.1802H190.726V19.6164H180.45L180.5 0.433716Z" fill="#274193"/>
<path d="M199.75 0.417028C200.979 0.361168 202.205 0.583544 203.336 1.06757C204.105 1.39113 204.79 1.88741 205.337 2.51799C205.883 3.14858 206.278 3.89653 206.489 4.70393C206.666 5.34457 206.751 6.00751 206.739 6.67224C206.748 7.52739 206.568 8.37403 206.214 9.15228C205.859 9.93052 205.338 10.6214 204.687 11.176C203.858 11.9039 202.851 12.3989 201.768 12.6105L206.972 19.6831H202.569L197.565 12.2435V19.6831H193.945V0.433708L199.75 0.417028ZM197.515 3.88659V9.52462H199.8C200.688 9.57288 201.566 9.31369 202.285 8.79067C202.602 8.50553 202.848 8.15068 203.005 7.75411C203.161 7.35754 203.223 6.93008 203.186 6.50543C203.222 6.10406 203.141 5.70079 202.951 5.34519C202.761 4.98958 202.472 4.69713 202.118 4.50377C201.294 4.0643 200.367 3.85134 199.433 3.88659H197.515Z" fill="#274193"/>
<path d="M208.307 5.55464C208.287 4.56306 208.547 3.58596 209.058 2.73562C209.566 1.89873 210.3 1.22228 211.176 0.783993C212.036 0.318744 213 0.0777993 213.978 0.0834087C215.12 0.0841235 216.238 0.414246 217.198 1.0342C217.935 1.53575 218.539 2.20953 218.958 2.9972C219.377 3.78487 219.597 4.66268 219.6 5.55464H215.947C215.91 5.15928 215.772 4.78003 215.546 4.45372C215.366 4.17729 215.118 3.95119 214.826 3.79657C214.534 3.64196 214.208 3.56388 213.878 3.56965C213.603 3.55685 213.328 3.60561 213.074 3.71238C212.821 3.81915 212.594 3.98124 212.41 4.18683C212.037 4.62189 211.84 5.18159 211.86 5.7548C211.86 6.45539 212.46 7.00584 213.411 7.42286L216.314 8.69058C217.264 9.07651 218.131 9.64297 218.866 10.3586C219.27 10.7943 219.583 11.3066 219.787 11.8652C219.99 12.4239 220.08 13.0176 220.05 13.6113C220.088 14.8355 219.776 16.0452 219.149 17.0976C218.617 18.0473 217.816 18.819 216.847 19.3161C215.806 19.8653 214.634 20.1197 213.458 20.0521C212.282 19.9845 211.147 19.5974 210.175 18.9325C209.082 18.1774 208.282 17.0706 207.907 15.7965C207.748 15.2949 207.669 14.7714 207.673 14.2452H211.393C211.379 14.8695 211.611 15.4742 212.038 15.9295C212.465 16.3849 213.054 16.6545 213.678 16.6806C214.273 16.6602 214.85 16.4755 215.346 16.1468C215.832 15.8894 216.206 15.4618 216.397 14.9458C216.516 14.6191 216.584 14.2758 216.597 13.9283C216.579 13.5276 216.445 13.1408 216.211 12.8151C215.977 12.4893 215.653 12.2386 215.279 12.0934L212.944 11.1593C211.697 10.7013 210.56 9.98513 209.608 9.05755C209.17 8.58912 208.829 8.03818 208.606 7.4368C208.382 6.83542 208.281 6.19562 208.307 5.55464Z" fill="#274193"/>
<path d="M222.485 0.433716H226.038V19.6164H222.485V0.433716Z" fill="#274193"/>
<path d="M228.123 3.88659V0.433716H238.799V3.88659H235.196V19.6164H231.693V3.88659H228.123Z" fill="#274193"/>
<path d="M238.849 0.433716H242.786L246.872 9.20769L251.159 0.433716H255.046L248.724 12.5438V19.6164H245.204V12.5438L238.849 0.433716Z" fill="#274193"/>
<path d="M59.6831 32.327C59.6386 31.4148 59.7982 30.5043 60.1503 29.6617C60.5023 28.8191 61.0379 28.0656 61.7181 27.4562C62.3162 26.9125 63.0126 26.4879 63.7698 26.2052C64.5021 25.9366 65.2751 25.7955 66.055 25.7882C67.1701 25.783 68.2636 26.0954 69.2077 26.6889C70.1642 27.2641 70.9524 28.0811 71.4929 29.0576C72.083 30.0076 72.3844 31.1087 72.3603 32.2269V32.5605C72.3481 32.9517 72.2807 33.3391 72.1601 33.7114C72.0228 34.1793 71.8384 34.632 71.6097 35.0626C71.0894 36.1134 70.279 36.9933 69.2744 37.598C68.355 38.1255 67.3232 38.4263 66.2645 38.4756C65.2057 38.525 64.1504 38.3213 63.186 37.8816C62.4479 37.5399 61.7884 37.0494 61.2488 36.4409C60.7091 35.8324 60.301 35.1189 60.05 34.3453C59.8132 33.6985 59.689 33.0158 59.6831 32.327ZM61.9016 32.2269C61.9002 33.0056 62.1455 33.7647 62.6022 34.3954C62.984 34.9441 63.4788 35.4047 64.0534 35.7465C64.6269 36.0961 65.2834 36.2861 65.955 36.2969C66.6653 36.3005 67.3631 36.1102 67.9733 35.7465C68.5941 35.3678 69.1102 34.8397 69.4744 34.2103C69.8386 33.581 70.0394 32.8704 70.0584 32.1435C70.0678 31.3573 69.86 30.5839 69.4579 29.9083C69.0659 29.243 68.4854 28.709 67.7898 28.3737C67.2724 28.1127 66.7013 27.9756 66.1218 27.9733C65.4129 27.9726 64.7144 28.1444 64.0867 28.4738C63.4662 28.8116 62.9345 29.2918 62.5354 29.8749C62.087 30.5749 61.8656 31.3963 61.9016 32.2269Z" fill="#274193"/>
<path d="M74.0951 26.0217H80.3003V28.2069H76.347V30.9925H80.0667V33.211H76.347V38.2152H74.0951V26.0217Z" fill="#274193"/>
<path d="M86.5889 26.0217H89.1744L94.1785 34.9792V26.0217H96.4304V38.1818H93.9617L88.8407 29.2911V38.1818H86.5889V26.0217Z" fill="#274193"/>
<path d="M98.7489 26.0217H101.017V38.1818H98.7489V26.0217Z" fill="#274193"/>
<path d="M108.857 25.7882C110.391 25.7507 111.896 26.2133 113.144 27.1059C114.001 27.763 114.674 28.6307 115.096 29.6247H112.394C112.062 29.1077 111.595 28.6921 111.042 28.4237C110.49 28.1398 109.879 27.9912 109.258 27.99H108.891C108.216 28.0229 107.561 28.2298 106.989 28.5905C106.387 28.9453 105.883 29.4439 105.521 30.0417C105.161 30.6342 104.976 31.3167 104.987 32.01C104.977 32.7709 105.173 33.5203 105.555 34.1785C105.949 34.8419 106.529 35.3754 107.223 35.7131C107.84 36.0751 108.542 36.2705 109.258 36.2803C110.009 36.2807 110.746 36.0791 111.393 35.6964C112.046 35.2843 112.58 34.7095 112.944 34.0284H107.773V31.9934H115.696C115.709 33.1194 115.428 34.2292 114.879 35.2127C114.334 36.227 113.522 37.0735 112.532 37.6613C111.541 38.249 110.409 38.5559 109.258 38.5488C108.092 38.5671 106.942 38.2795 105.922 37.7148C104.921 37.1735 104.086 36.3725 103.503 35.3962C102.909 34.4522 102.597 33.3586 102.602 32.2436V32.0601C102.621 31.2392 102.814 30.4318 103.169 29.6914C103.825 28.2011 105.015 27.0107 106.505 26.3553C107.239 25.9973 108.041 25.8037 108.857 25.7882Z" fill="#274193"/>
<path d="M117.148 26.0217H123.703V28.2069H119.399V31.0259H123.52V33.211H119.399V36.0134H123.67V38.1818H117.148V26.0217Z" fill="#274193"/>
<path d="M129.374 26.005C130.153 25.9655 130.93 26.1083 131.643 26.422C132.13 26.6279 132.563 26.9422 132.91 27.3412C133.257 27.7402 133.508 28.2131 133.645 28.7239C133.763 29.1188 133.819 29.5296 133.811 29.9416C133.816 30.4833 133.702 31.0195 133.478 31.5123C133.253 32.0051 132.923 32.4427 132.51 32.794C131.986 33.2559 131.346 33.5672 130.659 33.6948L133.995 38.1818H131.159L127.99 33.4612V38.1818H125.705V26.0217L129.374 26.005ZM127.957 28.2068V31.7932H129.408C129.971 31.8168 130.524 31.646 130.976 31.3094C131.182 31.1353 131.343 30.9139 131.444 30.664C131.546 30.4142 131.586 30.1434 131.56 29.8749C131.582 29.6176 131.53 29.3593 131.408 29.1313C131.287 28.9033 131.102 28.7154 130.876 28.5905C130.359 28.3286 129.787 28.1969 129.208 28.2068H127.957Z" fill="#274193"/>
<path d="M135.246 26.0217H137.498V38.1818H135.246V26.0217Z" fill="#274193"/>
<path d="M143.903 26.0217H145.571L150.709 38.1818H148.307L146.989 35.0292H142.652L141.301 38.1651H138.832L143.903 26.0217ZM144.771 29.191L143.453 32.8607H146.055L144.771 29.191Z" fill="#274193"/>
<path d="M47.7898 -0.000913273H3.01918C2.62349 -0.00311162 2.23126 0.0729278 1.86505 0.222833C1.49884 0.372738 1.16588 0.593553 0.885302 0.87258C0.604724 1.15161 0.382069 1.48334 0.230137 1.84872C0.0782052 2.21409 -6.1062e-06 2.60589 3.57561e-10 3.00159L3.57562e-10 51.3752C1.15096 51.3752 15.8966 51.3752 20.0167 51.8923C24.1368 52.4094 28.6906 53.4103 26.9892 55.9791C25.5046 58.1809 29.2577 59.482 33.0609 59.6655C36.397 59.849 50.8257 59.9157 50.8257 59.9157V3.00159C50.8257 2.60447 50.747 2.21129 50.594 1.84482C50.441 1.47835 50.2169 1.14587 49.9345 0.866617C49.6522 0.587368 49.3172 0.366905 48.9491 0.217992C48.5809 0.0690787 48.1869 -0.00532569 47.7898 -0.000913273Z" fill="#274193"/>
<path d="M20.5671 53.1943C17.5813 52.0267 1.21768 51.8766 0 51.8599V60.0501C0.517098 59.4662 10.0083 57.2978 13.8449 56.7139C18.5321 55.98 25.7715 55.2294 20.5671 53.1943Z" fill="#75B947"/>
<path d="M34.8457 31.4095H41.8182V33.7782H37.2644V36.0801H41.8182V38.3653H37.2644V41.7014H41.8182V44.0867H34.8457V31.4095ZM33.7615 41.8516V44.1535H27.8065V31.4095H30.2252V41.8516H33.7615ZM11.4262 35.7965V44.1368H8.99084V31.4095H11.3261L16.7807 39.7498V31.4095H19.216V44.1535H16.8808L11.4262 35.7965Z" fill="#274193"/>
<path d="M30.2252 31.4095H27.8065V44.1535H33.7615V41.8516H30.2252V31.4095Z" fill="white"/>
<path d="M41.8182 41.7681H37.2644V38.4154H41.8182V36.0801H37.2644V33.7782H41.8182V31.4095H34.8457V44.1535H41.8182V41.7681Z" fill="white"/>
<path d="M19.216 31.4095H16.7807V39.7998L11.3261 31.4095H8.99084V44.1535H11.4262V35.7965L16.8808 44.1535H19.216V31.4095Z" fill="white"/>
<path d="M24.8874 31.4095H22.4688V44.1701H24.8874V31.4095Z" fill="white"/>
<path d="M31.543 28.8908L31.7431 28.7406H31.6764L31.543 28.8908Z" fill="white"/>
<path d="M20.0333 28.8908L19.9166 28.7406H19.8499L20.0333 28.8908Z" fill="white"/>
<path d="M38.3653 28.7406L46.2552 25.0209L35.0459 28.7406H38.3653Z" fill="white"/>
<path d="M34.1618 28.7406L46.2553 20.0167L31.7432 28.7406H34.1618Z" fill="white"/>
<path d="M16.5471 28.7406L4.67053 23.136L13.1943 28.7406H16.5471Z" fill="white"/>
<path d="M31.693 28.7406L46.2552 13.3445L30.4587 27.9066L44.8207 5.65471C44.5037 5.52127 29.2243 27.3394 29.2243 27.3394L37.9983 5.43787L27.8899 26.789L32.0267 5.43787L26.5054 26.5388V5.43787L25.0208 26.5388L19.4829 5.43787L23.6864 26.7723L13.4946 5.43787L22.3519 27.256C22.3519 27.256 6.7556 5.45455 6.55544 5.50459L21.1342 27.9733L4.67053 12.8107L19.9166 28.7406H31.693Z" fill="white"/>
<path d="M19.8498 28.7406L4.67053 17.7982L17.4145 28.7406H19.8498Z" fill="white"/>
</g>
<defs>
<clipPath id="clip0_646_453">
<rect width="255.046" height="60" fill="white"/>
</clipPath>
</defs>
</svg>
