<svg width="125" height="170" viewBox="0 0 125 170" fill="none" xmlns="http://www.w3.org/2000/svg">
<path d="M146.559 59.8847L127.527 78.9171C118.357 88.0777 103.495 88.0777 94.3356 78.9171C89.9349 74.5153 87.4626 68.5458 87.4626 62.3215C87.4626 56.0972 89.9349 50.1277 94.3356 45.7259L116.616 23.444C125.267 14.7942 119.143 1.92851e-07 106.908 1.92851e-07H25.7901C22.4032 -0.000414008 19.0494 0.666384 15.9202 1.96231C12.791 3.25824 9.94774 5.15791 7.55283 7.55283C5.15791 9.94774 3.25824 12.791 1.96231 15.9202C0.666384 19.0494 -0.000414008 22.4032 1.92851e-07 25.7901V144.2C0.00125428 151.043 2.71982 157.604 7.5579 162.442C12.396 167.28 18.9575 169.999 25.7996 170H144.21C147.597 170.001 150.952 169.335 154.082 168.04C157.212 166.744 160.057 164.845 162.452 162.45C164.848 160.055 166.749 157.211 168.045 154.082C169.342 150.952 170.009 147.598 170.009 144.21V69.6035C170.003 57.3667 155.209 51.2334 146.559 59.8847ZM67.199 123.278C63.1285 123.278 59.1494 122.071 55.7649 119.809C52.3803 117.548 49.7425 114.333 48.1848 110.572C46.6272 106.812 46.2197 102.674 47.0139 98.6812C47.8082 94.6889 49.7684 91.0218 52.6468 88.1436C55.5253 85.2654 59.1925 83.3054 63.1849 82.5115C67.1773 81.7175 71.3154 82.1253 75.076 83.6833C78.8366 85.2412 82.0508 87.8794 84.312 91.264C86.5733 94.6487 87.78 98.6279 87.7797 102.698C87.7808 105.401 87.2491 108.078 86.2152 110.575C85.1813 113.073 83.6653 115.342 81.754 117.253C79.8427 119.164 77.5734 120.68 75.076 121.714C72.5786 122.747 69.9019 123.279 67.199 123.278Z" fill="black" fill-opacity="0.05"/>
</svg>
