<svg width="288" height="269" viewBox="0 0 288 269" fill="none" xmlns="http://www.w3.org/2000/svg">
<path d="M109.238 123.014C111.259 124.482 113.682 125.389 116.229 125.63C118.775 125.872 121.344 125.438 123.639 124.38C125.935 123.321 127.864 121.68 129.208 119.645C130.551 117.609 131.253 115.261 131.233 112.87C131.214 110.479 130.474 108.142 129.098 106.125C127.723 104.109 125.766 102.495 123.454 101.469C121.142 100.443 118.567 100.046 116.024 100.323C113.482 100.601 111.074 101.541 109.077 103.038L106.093 100.886L101.653 102.182L102.159 98.0343L98.4154 95.3174L93.9802 96.6086L94.4871 92.4607L91.2673 90.1257L88.5601 90.9112L88.8711 88.3826L86.9761 87.0053L82.7252 87.3927L82.1492 93.4936L104.417 109.661C103.725 112.082 103.814 114.641 104.671 117.016C105.529 119.392 107.118 121.478 109.238 123.014ZM125.464 118.672C124.991 119.241 124.347 119.667 123.614 119.895C122.881 120.122 122.093 120.142 121.348 119.951C120.603 119.76 119.936 119.368 119.43 118.823C118.924 118.278 118.603 117.605 118.506 116.89C118.41 116.174 118.543 115.448 118.888 114.803C119.233 114.158 119.775 113.623 120.446 113.265C121.116 112.908 121.886 112.744 122.656 112.795C123.426 112.846 124.163 113.108 124.773 113.55C125.59 114.145 126.121 115.018 126.251 115.978C126.38 116.938 126.098 117.906 125.464 118.672Z" fill="#EBEBEB"/>
<path d="M127.187 74.3892C128.055 73.3982 128.607 72.1989 128.779 70.9285C128.951 69.6582 128.736 68.3682 128.16 67.2065C127.584 66.0447 126.668 65.058 125.519 64.3596C124.37 63.6611 123.034 63.279 121.663 63.2571C120.293 63.2352 118.943 63.5744 117.769 64.2357C116.595 64.8971 115.644 65.854 115.026 66.9967C114.407 68.1394 114.146 69.4217 114.271 70.6968C114.397 71.9719 114.904 73.1882 115.736 74.2063L114.451 75.6697L115.137 77.9078L112.764 77.6011L111.168 79.4411L111.853 81.6791L109.486 81.3671L108.104 82.9488L108.518 84.31L107.073 84.1217L106.272 85.0416L106.439 87.1936L109.93 87.5595L119.48 76.6327C120.858 77.0077 122.324 76.9949 123.695 76.5958C125.066 76.1968 126.28 75.4293 127.187 74.3892ZM124.883 66.2224C125.202 66.4671 125.437 66.7949 125.558 67.1644C125.678 67.5338 125.679 67.9283 125.559 68.298C125.44 68.6677 125.205 68.996 124.886 69.2414C124.567 69.4867 124.177 69.6381 123.765 69.6765C123.354 69.7149 122.94 69.6384 122.575 69.4568C122.21 69.2753 121.911 68.9967 121.715 68.6564C121.52 68.316 121.437 67.9292 121.477 67.5448C121.516 67.1604 121.677 66.7957 121.939 66.4968C122.113 66.2944 122.328 66.1265 122.572 66.0029C122.816 65.8793 123.084 65.8024 123.361 65.7769C123.637 65.7513 123.916 65.7775 124.181 65.8541C124.447 65.9306 124.693 66.0558 124.906 66.2224H124.883Z" fill="#EBEBEB"/>
<path d="M96.3764 28.175V67.6535H35.6602L33.4772 28.4494L96.3764 28.175Z" fill="#E0E0E0"/>
<path d="M33.4772 28.4494V67.5728H94.1933V28.4494H33.4772Z" fill="white"/>
<path d="M94.464 67.8422H33.1891V28.1809H94.464V67.8422ZM33.7536 67.3042H93.888V28.7189H33.7651L33.7536 67.3042Z" fill="#E0E0E0"/>
<path d="M87.6096 33.3076H40.0493V62.7093H87.6096V33.3076Z" fill="white"/>
<path d="M87.6154 33.3076H87.3792H86.6995L84.096 33.356H74.304L40.0666 33.4205L40.2048 33.2914C40.2048 42.276 40.2048 52.229 40.2048 62.6931L40.055 62.5532L87.6211 62.5855L87.5002 62.6931C87.5002 53.7462 87.5462 46.4132 87.5635 41.3022C87.5635 38.7467 87.5635 36.7561 87.5923 35.3842C87.5923 34.7064 87.5923 34.1899 87.5923 33.8294C87.5923 33.469 87.5923 33.2914 87.5923 33.2914C87.5923 33.2914 87.5923 33.4636 87.5923 33.8294C87.5923 34.1953 87.5923 34.6956 87.5923 35.3627C87.5923 36.7239 87.5923 38.7145 87.5923 41.2807C87.5923 46.4079 87.6326 53.7677 87.6557 62.7415V62.8545H87.5405H39.9744H39.8246V62.7093C39.8246 52.2452 39.8246 42.2922 39.8246 33.3076V33.1784H39.9629L74.2925 33.243L84.0845 33.2807H86.6707H87.3331L87.6154 33.3076Z" fill="#E0E0E0"/>
<path d="M33.4714 28.3365C33.8464 28.5086 34.1983 28.7217 34.5197 28.9713C35.1418 29.3909 35.9827 29.9827 36.8986 30.666C37.8144 31.3493 38.6266 31.9949 39.2026 32.4791C39.528 32.7206 39.8202 32.9989 40.0723 33.3076C40.0147 33.3668 38.5575 32.2316 36.7315 30.8866C35.589 30.1008 34.5002 29.2491 33.4714 28.3365Z" fill="#E0E0E0"/>
<path d="M94.1875 28.4494C93.1924 29.3641 92.1299 30.2126 91.008 30.9888C89.9402 31.8343 88.8104 32.6092 87.6269 33.3076C88.6258 32.3925 89.6921 31.544 90.8179 30.7682C91.8814 29.9223 93.0074 29.1474 94.1875 28.4494Z" fill="#E0E0E0"/>
<path d="M94.1415 67.5782L87.3735 62.451L94.1415 67.5782Z" fill="white"/>
<path d="M87.3735 62.451C88.5831 63.1954 89.7378 64.015 90.8295 64.9043C91.9885 65.7318 93.0872 66.6304 94.1184 67.5943C92.9076 66.8514 91.7529 66.0317 90.6624 65.141C89.4987 64.3189 88.3996 63.4199 87.3735 62.451Z" fill="#E0E0E0"/>
<path d="M33.4714 67.5728C34.4604 66.6664 35.5172 65.8268 36.6336 65.0603C37.6904 64.2226 38.8087 63.455 39.9802 62.7631C38.9966 63.6745 37.9415 64.5162 36.8237 65.2809C35.7659 66.1182 34.6456 66.8841 33.4714 67.5728Z" fill="#E0E0E0"/>
<path d="M49.7088 42.4697V52.3151H79.6378V42.4697H49.7088Z" fill="#E0E0E0"/>
<path d="M247.104 252.43C247.104 252.505 197.637 252.569 136.627 252.569C75.6173 252.569 26.1331 252.505 26.1331 252.43C26.1331 252.354 75.5942 252.29 136.627 252.29C197.66 252.29 247.104 252.354 247.104 252.43Z" fill="#263238"/>
<path d="M200.903 232.954L215.159 252.317L220.257 252.43L210.914 232.518L200.903 232.954Z" fill="#263238"/>
<path d="M50.4692 233.939L42.9581 252.231H46.7136L59.8292 234.019L50.4692 233.939Z" fill="#263238"/>
<path d="M47.2321 167.479L47.8081 191.151C47.8447 192.762 48.5457 194.297 49.7648 195.437C50.9839 196.577 52.627 197.233 54.3514 197.268L196.157 200.217C197.049 200.235 197.936 200.087 198.766 199.781C199.597 199.475 200.353 199.017 200.991 198.434C201.629 197.851 202.136 197.155 202.482 196.387C202.828 195.619 203.006 194.793 203.005 193.96V165.446C203.004 161.381 201.429 157.454 198.57 154.389C195.712 151.324 191.764 149.327 187.454 148.768C161.493 145.432 107.965 140.305 64.6791 147.59C59.7106 148.419 55.2227 150.879 52.0239 154.526C48.8251 158.172 47.1258 162.766 47.2321 167.479Z" fill="#21295C"/>
<path d="M46.61 175.748C46.61 175.748 34.9287 170.697 32.5383 175.748C30.1479 180.8 32.832 186.998 35.4586 190.452C38.0852 193.906 38.0736 236.58 38.0736 236.58L215.24 234.81L217.336 193.777C217.336 193.777 225.832 184.001 225.302 179.789C224.773 175.576 217.601 169.443 209.37 175.732C201.139 182.022 199.002 195.165 199.002 195.165L57.7498 196.16C57.7498 196.16 58.2336 177.701 46.61 175.748Z" fill="#21295C"/>
<path d="M197.211 203.364C197.211 203.439 165.825 203.504 127.117 203.504C88.4103 203.504 57.024 203.455 57.024 203.364C57.024 203.273 88.3988 203.224 127.117 203.224C165.836 203.224 197.211 203.299 197.211 203.364Z" fill="#263238"/>
<path d="M57.024 221.441C57.0166 221.398 57.0166 221.354 57.024 221.312C57.024 221.209 57.024 221.08 57.024 220.93C57.024 220.593 57.0125 220.103 56.9895 219.461C56.9895 218.164 56.9895 216.33 56.9895 214.081C56.9895 209.529 57.024 203.24 56.7994 196.327C56.7555 193.072 56.4861 189.823 55.993 186.6C55.8893 186.245 55.7856 185.89 55.6877 185.524C55.5898 185.158 55.3997 184.851 55.2499 184.523C54.9447 183.872 54.6336 183.248 54.2938 182.662C53.6802 181.57 52.959 180.535 52.1395 179.568C51.4553 178.777 50.683 178.055 49.8355 177.416C49.1919 176.938 48.4992 176.52 47.7677 176.168C47.1304 175.894 46.4787 175.65 45.8151 175.436H45.9475L46.345 175.539C46.8533 175.675 47.347 175.855 47.8195 176.077C48.5719 176.41 49.2827 176.819 49.9392 177.298C50.8045 177.933 51.5926 178.654 52.2893 179.45C53.1314 180.418 53.8721 181.459 54.5011 182.56C54.8525 183.151 55.1693 183.775 55.4803 184.432C55.6359 184.76 55.7799 185.099 55.9239 185.438L56.2522 186.514C56.7661 189.751 57.0451 193.017 57.0874 196.289C57.312 203.23 57.2371 209.519 57.1911 214.07C57.1565 216.324 57.1277 218.159 57.1104 219.45C57.1104 220.069 57.1104 220.558 57.1104 220.919V221.296C57.024 221.392 57.024 221.441 57.024 221.441Z" fill="#263238"/>
<path d="M45.2333 185.271C45.3708 185.184 45.5334 185.137 45.6998 185.137C46.1629 185.104 46.6236 185.224 47.0016 185.476C47.2673 185.649 47.4846 185.88 47.6352 186.148C47.8074 186.463 47.866 186.822 47.8022 187.17C47.7395 187.572 47.548 187.946 47.2528 188.244C46.9577 188.542 46.5729 188.749 46.1491 188.838C45.7222 188.895 45.2866 188.833 44.8972 188.66C44.5078 188.487 44.1818 188.21 43.9603 187.864C43.7663 187.563 43.6684 187.215 43.6781 186.864C43.6988 186.493 43.8258 186.135 44.0457 185.827C44.2656 185.518 44.5704 185.27 44.928 185.11C45.0749 185.036 45.2392 184.997 45.4061 184.997C45.4061 185.024 45.239 185.061 44.9798 185.207C44.6176 185.416 44.3276 185.719 44.1446 186.078C44.0078 186.33 43.9423 186.611 43.9544 186.893C43.9665 187.176 44.0558 187.451 44.2138 187.692C44.4111 187.987 44.6954 188.223 45.0325 188.371C45.3697 188.519 45.7454 188.573 46.1146 188.526C46.4756 188.447 46.804 188.271 47.0589 188.019C47.3138 187.768 47.4842 187.452 47.5488 187.111C47.5996 186.83 47.565 186.542 47.4489 186.278C47.3328 186.015 47.1399 185.787 46.8922 185.621C46.5639 185.377 46.1596 185.239 45.7402 185.228C45.4061 185.244 45.239 185.298 45.2333 185.271Z" fill="#263238"/>
<path d="M46.034 195.891C45.6981 195.658 45.4242 195.356 45.2333 195.009C44.7075 194.2 44.4237 193.274 44.4115 192.328C44.3994 191.381 44.6593 190.449 45.1642 189.629C45.3479 189.277 45.6136 188.968 45.9418 188.725C45.9821 188.757 45.6826 189.096 45.3658 189.72C44.9336 190.529 44.7125 191.421 44.7207 192.324C44.7365 193.228 44.9792 194.117 45.4292 194.917C45.7633 195.531 46.0801 195.864 46.034 195.891Z" fill="#263238"/>
<path d="M44.1792 179.918C44.1479 180.191 44.0901 180.461 44.0064 180.725C43.7537 182.012 44.056 183.341 44.8474 184.421C45.034 184.632 45.2053 184.855 45.36 185.088C45.36 185.088 45.0375 184.938 44.6746 184.55C44.2072 184.017 43.8821 183.388 43.7258 182.714C43.5696 182.041 43.5868 181.343 43.776 180.677C43.8405 180.396 43.9791 180.135 44.1792 179.918Z" fill="#263238"/>
<path d="M40.729 185.868C40.7981 185.814 41.3338 186.32 42.1517 186.713C42.9696 187.106 43.7127 187.251 43.7012 187.315C43.1114 187.386 42.5139 187.26 42.0135 186.96C41.4628 186.746 41.0088 186.36 40.729 185.868Z" fill="#263238"/>
<path d="M215.919 221.441C215.919 221.516 175.962 221.581 126.674 221.581C77.3856 221.581 37.44 221.516 37.44 221.441C37.44 221.365 77.3914 221.301 126.72 221.301C176.049 221.301 215.919 221.36 215.919 221.441Z" fill="#263238"/>
<path d="M196.595 195.321C196.681 195.321 196.744 201.164 196.744 208.367C196.744 215.571 196.681 221.425 196.595 221.425C196.508 221.425 196.445 215.582 196.445 208.367C196.445 201.153 196.514 195.321 196.595 195.321Z" fill="#263238"/>
<path d="M137.434 150.177H137.157L136.351 150.204L133.258 150.285L121.864 150.532L84.2861 151.237C80.617 151.318 77.0285 151.307 73.584 151.522C70.2672 151.656 66.9858 152.215 63.8324 153.185C60.9877 154.076 58.4421 155.647 56.448 157.742C55.5435 158.688 54.7695 159.736 54.144 160.862C53.5736 161.897 53.1014 162.978 52.7328 164.09C52.1408 166.022 51.7549 168.005 51.5808 170.008C51.4023 171.783 51.385 173.317 51.3735 174.576C51.362 175.835 51.3735 176.803 51.4138 177.465C51.4138 177.787 51.4138 178.035 51.4138 178.218C51.4138 178.401 51.4138 178.476 51.4138 178.476C51.4138 178.476 51.4138 178.39 51.4138 178.218C51.4138 178.046 51.4138 177.787 51.3677 177.465C51.3332 176.808 51.2871 175.851 51.2756 174.576C51.264 173.301 51.2756 171.778 51.4311 169.992C51.6006 167.969 51.9866 165.966 52.5831 164.015C52.9478 162.883 53.4181 161.783 53.9885 160.727C54.6085 159.579 55.3828 158.508 56.2925 157.543C58.3137 155.417 60.8951 153.821 63.7805 152.916C66.9445 151.929 70.2401 151.359 73.5725 151.221C77.0285 151.006 80.6228 151.011 84.2919 150.931L121.876 150.306L133.263 150.15L136.362 150.118H137.169L137.434 150.177Z" fill="#263238"/>
<path d="M92.0794 168.609C92.0794 168.609 91.8893 168.695 91.5955 168.905C91.1803 169.203 90.8694 169.609 90.7027 170.073C90.5684 170.403 90.527 170.76 90.5825 171.109C90.6379 171.459 90.7884 171.789 91.0195 172.069C91.2799 172.437 91.6552 172.721 92.0944 172.883C92.5337 173.046 93.0157 173.078 93.4752 172.976C93.9347 172.873 94.3495 172.642 94.6634 172.312C94.9773 171.982 95.1751 171.571 95.2301 171.132C95.3004 170.785 95.2748 170.426 95.156 170.09C95.0371 169.754 94.8287 169.452 94.5504 169.212C94.177 168.871 93.7041 168.641 93.191 168.55C92.8281 168.491 92.615 168.512 92.615 168.491C92.7991 168.428 92.9978 168.411 93.191 168.442C93.6607 168.493 94.1078 168.658 94.4871 168.922C94.8664 169.185 95.1644 169.538 95.351 169.943C95.5207 170.336 95.5667 170.765 95.4835 171.181C95.4091 171.662 95.1815 172.112 94.8301 172.471C94.4788 172.83 94.02 173.082 93.5132 173.195C93.0065 173.307 92.4753 173.275 91.9885 173.102C91.5017 172.929 91.0818 172.623 90.7834 172.225C90.51 171.889 90.3442 171.488 90.3053 171.068C90.2793 170.701 90.3403 170.334 90.4838 169.992C90.6804 169.503 91.0398 169.086 91.5091 168.803C91.6772 168.692 91.8742 168.625 92.0794 168.609Z" fill="#263238"/>
<path d="M89.6544 182.549C89.4351 182.031 89.288 181.488 89.2166 180.935C88.9356 179.621 88.9671 178.266 89.3088 176.964C89.678 175.646 90.5641 174.505 91.7914 173.769C92.1623 173.554 92.5693 173.4 92.9952 173.311C93.1477 173.267 93.3086 173.252 93.4675 173.268C92.9191 173.433 92.3933 173.657 91.9008 173.935C90.7659 174.685 89.9501 175.784 89.5968 177.04C89.2719 178.305 89.2133 179.617 89.424 180.903C89.5622 181.925 89.7005 182.538 89.6544 182.549Z" fill="#263238"/>
<path d="M91.7511 160.324C91.4452 160.703 91.1625 161.099 90.9044 161.508C90.3193 162.514 90.1469 163.686 90.4194 164.803C90.6918 165.92 91.3905 166.906 92.3847 167.576C92.8081 167.843 93.2486 168.086 93.7037 168.303C93.5611 168.302 93.42 168.275 93.289 168.222C92.9264 168.102 92.5817 167.94 92.2637 167.738C91.1768 167.074 90.4079 166.043 90.1189 164.861C89.8299 163.679 90.0433 162.438 90.7143 161.4C90.9076 161.089 91.1439 160.803 91.417 160.55C91.6128 160.362 91.7395 160.286 91.7511 160.324Z" fill="#263238"/>
<path d="M91.2212 171.084C90.1684 171.249 89.1261 171.468 88.0993 171.74C87.1048 172.104 86.1319 172.517 85.1847 172.978C86.8492 171.625 89.02 170.944 91.2212 171.084Z" fill="#263238"/>
<g opacity="0.3">
<path d="M72.6106 203.87C78.2027 207.872 85.1657 209.833 92.1946 209.384C90.7354 215.708 89.28 222.033 87.8285 228.36C87.4426 230.043 87.0797 231.921 88.0244 233.406C89.3492 235.488 92.4308 235.692 95.0228 235.66C97.9028 235.623 100.909 235.558 103.467 234.31C107.09 232.545 109.037 228.801 110.442 225.218C111.848 221.635 113.063 217.793 115.955 215.098C119.274 218.63 123.767 221.019 128.713 221.882C130.153 222.129 131.789 222.205 132.941 221.344C134.093 220.483 134.421 218.966 134.127 217.632C133.744 216.317 133.106 215.079 132.244 213.979L123.811 201.766C122.659 200.115 121.427 198.371 119.497 197.586C117.982 196.967 116.266 197.048 114.618 197.118C100.851 197.867 87.1866 199.796 73.7972 202.88" fill="black"/>
</g>
<g opacity="0.3">
<path d="M117.665 143.323C114.255 151.738 101.537 153.669 97.0503 161.615C92.6323 169.492 98.1101 179.907 93.5597 187.74C91.872 190.635 88.9517 192.792 87.3274 195.708C86.2215 197.667 85.6512 200.012 83.8714 201.459C81.7863 203.154 78.5549 203.122 76.0493 202.024C73.5437 200.927 71.6199 198.958 69.8343 196.983C66.4935 193.282 63.3543 189.279 61.7703 184.658C59.0861 176.711 61.5514 167.721 66.9543 161.083C72.3571 154.444 80.3578 149.962 88.8077 147.277C97.2576 144.593 106.197 143.581 115.085 142.801" fill="black"/>
</g>
<path d="M76.7117 121.195C78.0026 119.316 79.7873 117.777 81.8957 116.724C84.0191 115.669 86.5014 115.435 88.8077 116.074C89.9409 116.409 90.9613 117.014 91.7691 117.829C92.5768 118.644 93.1442 119.641 93.4157 120.722C93.7785 122.449 93.2832 124.375 94.2394 125.892C95.3338 127.635 97.9776 128.184 98.9107 130.013C99.1558 130.58 99.2579 131.191 99.2089 131.8C99.16 132.41 98.9614 133 98.6285 133.526C97.9569 134.573 97.1022 135.508 96.0998 136.292C96.7035 136.645 97.2374 137.092 97.6781 137.615C97.8968 137.878 98.0418 138.188 98.1001 138.517C98.1585 138.846 98.1282 139.183 98.0122 139.498C97.6365 140.121 97.0172 140.584 96.2842 140.789C93.0662 142.056 89.5089 142.368 86.0947 141.682C85.1846 141.499 84.1421 141.268 83.3933 141.785" fill="#263238"/>
<path d="M99.769 127.581L97.92 132.848L110.511 139.525L97.8394 139.907L98.784 149.499L123.178 143.904C123.178 143.904 124.641 134.613 99.769 127.581L98.041 127.194C97.7294 127.126 97.4403 126.988 97.1985 126.792C96.9566 126.596 96.7694 126.348 96.6528 126.07C96.4552 125.616 96.0862 125.247 95.616 125.031L93.5367 124.02V125.558L94.6887 126.812L94.5044 129.787C94.456 130.424 94.652 131.057 95.0573 131.571C95.4625 132.086 96.0506 132.449 96.7162 132.595L97.8682 132.848" fill="#B78876"/>
<path d="M72.1844 146.627C71.6832 146.627 67.0349 147.703 64.3738 150.844C61.7127 153.986 57.865 165.876 57.865 165.876L67.657 167.458L71.8848 177.373C71.8848 177.373 96.912 174.312 95.5815 173.069C94.2953 171.964 92.9496 170.921 91.5495 169.943L97.3095 152.023L104.221 148.536L101.889 139.584L87.9668 141.343L72.1844 146.627Z" fill="#FAFAFA"/>
<path d="M96.1114 156.165C96.1114 156.241 88.3066 156.305 78.6874 156.305C69.0682 156.305 61.2576 156.241 61.2576 156.165C61.2576 156.09 69.0624 156.025 78.6874 156.025C88.3123 156.025 96.1114 156.09 96.1114 156.165Z" fill="#21295C"/>
<path d="M94.5504 161.432C94.5504 161.508 86.7456 161.572 77.1264 161.572C67.5072 161.572 59.6967 161.508 59.6967 161.432C59.6967 161.357 67.4957 161.292 77.1264 161.292C86.7571 161.292 94.5504 161.357 94.5504 161.432Z" fill="#21295C"/>
<path d="M94.5504 167.119C94.5504 167.2 88.6407 167.264 81.3485 167.264C74.0563 167.264 68.1523 167.2 68.1523 167.119C68.1523 167.038 74.0621 166.979 81.3485 166.979C88.6349 166.979 94.5504 167.044 94.5504 167.119Z" fill="#21295C"/>
<path d="M96.5722 172.601C96.5722 172.677 90.6624 172.741 83.376 172.741C76.0896 172.741 70.1799 172.677 70.1799 172.601C70.1799 172.526 76.0839 172.461 83.376 172.461C90.6682 172.461 96.5722 172.52 96.5722 172.601Z" fill="#21295C"/>
<path d="M102.822 149.08C102.822 149.161 98.9165 149.22 94.1069 149.22C89.2973 149.22 85.3863 149.161 85.3863 149.08C85.3863 148.999 89.2858 148.94 94.1069 148.94C98.9281 148.94 102.822 149.026 102.822 149.08Z" fill="#21295C"/>
<path d="M103.455 143.495C103.455 143.576 99.5674 143.721 94.7751 143.824C89.9828 143.926 86.0833 143.953 86.0833 143.877C86.0833 143.802 89.9655 143.651 94.7636 143.544C99.5617 143.436 103.455 143.42 103.455 143.495Z" fill="#21295C"/>
<path d="M69.696 158.898C69.4819 160.382 69.1683 161.852 68.7572 163.299C68.4438 164.768 68.034 166.218 67.5303 167.641C67.7446 166.157 68.0563 164.688 68.4634 163.24C68.7738 161.769 69.1855 160.319 69.696 158.898Z" fill="#263238"/>
<path d="M96.9408 226.073L89.6487 247.555L98.4384 248.384L106.698 229.715L96.9408 226.073Z" fill="#B78876"/>
<path d="M103.375 240.023L99.1872 249.707C99.1872 249.707 108.334 256.943 107.747 258.805L87.3217 251.913L93.1796 236.548L103.375 240.023Z" fill="#455A64"/>
<path d="M93.191 246.759C92.9729 246.748 92.7582 246.813 92.5882 246.941C92.4181 247.07 92.3046 247.252 92.2695 247.453C92.2495 247.656 92.3136 247.859 92.4486 248.019C92.5836 248.179 92.7793 248.284 92.9952 248.314C93.2262 248.325 93.4532 248.255 93.6328 248.119C93.8125 247.983 93.932 247.79 93.9687 247.577C93.9687 247.168 93.5367 246.7 93.1047 246.759" fill="#E0E0E0"/>
<path d="M87.3217 251.913L87.9783 250.385L107.32 257.584C107.32 257.584 108.086 258.256 107.747 258.821L87.3217 251.913Z" fill="#E0E0E0"/>
<path d="M99.5559 249.74C99.5155 249.831 98.9799 249.707 98.4039 249.836C97.8279 249.966 97.3843 250.278 97.3095 250.208C97.2346 250.138 97.5859 249.67 98.3232 249.503C99.0605 249.336 99.6077 249.659 99.5559 249.74Z" fill="#263238"/>
<path d="M101.376 251.289C101.376 251.391 100.869 251.402 100.38 251.682C99.8899 251.962 99.648 252.322 99.5328 252.322C99.4176 252.322 99.5731 251.736 100.189 251.402C100.806 251.068 101.411 251.203 101.376 251.289Z" fill="#263238"/>
<path d="M101.664 254.097C101.566 254.097 101.606 253.559 102.061 253.151C102.517 252.742 103.064 252.682 103.075 252.774C103.087 252.865 102.689 253.043 102.326 253.393C101.964 253.742 101.768 254.124 101.664 254.097Z" fill="#263238"/>
<path d="M100.224 247.432C100.149 247.502 99.7402 247.216 99.1642 247.06C98.5882 246.904 98.0813 246.926 98.0582 246.829C98.0352 246.732 98.5939 246.539 99.2678 246.732C99.9418 246.926 100.322 247.372 100.224 247.432Z" fill="#263238"/>
<path d="M101.053 245.457C100.686 245.427 100.334 245.307 100.034 245.107C99.6875 244.922 99.3681 244.696 99.0836 244.435C98.9097 244.285 98.7498 244.121 98.6055 243.945C98.5145 243.847 98.4406 243.737 98.3866 243.617C98.3463 243.529 98.3386 243.431 98.3647 243.339C98.3908 243.246 98.4492 243.164 98.5306 243.106C98.6054 243.058 98.6914 243.027 98.7815 243.016C98.8716 243.004 98.9633 243.013 99.049 243.042C99.1793 243.086 99.3031 243.146 99.4176 243.219C99.623 243.342 99.8158 243.483 99.9936 243.639C100.282 243.901 100.525 244.204 100.714 244.537C100.92 244.827 101.024 245.169 101.013 245.516C100.956 245.516 100.84 245.161 100.489 244.661C100.285 244.37 100.041 244.106 99.7632 243.875C99.6019 243.736 99.4263 243.612 99.2391 243.504C99.0432 243.38 98.8589 243.316 98.7725 243.386C98.6861 243.456 98.7322 243.429 98.7725 243.499C98.8176 243.585 98.8737 243.667 98.9396 243.741C99.0728 243.906 99.215 244.064 99.3658 244.214C99.6282 244.466 99.9134 244.697 100.218 244.903C100.51 245.069 100.789 245.254 101.053 245.457Z" fill="#263238"/>
<path d="M100.869 245.549C100.781 245.209 100.814 244.852 100.961 244.532C101.151 243.956 101.508 243.44 101.992 243.041C102.096 242.935 102.227 242.854 102.373 242.808C102.519 242.762 102.676 242.752 102.828 242.778C102.918 242.812 102.997 242.868 103.055 242.941C103.113 243.015 103.148 243.101 103.156 243.192C103.166 243.322 103.154 243.453 103.121 243.579C103.075 243.804 102.991 244.02 102.874 244.22C102.68 244.559 102.399 244.848 102.056 245.059C101.48 245.419 101.002 245.393 101.007 245.355C101.315 245.209 101.614 245.045 101.9 244.865C102.184 244.651 102.414 244.381 102.574 244.074C102.664 243.904 102.73 243.723 102.77 243.536C102.816 243.327 102.799 243.133 102.707 243.128C102.614 243.122 102.372 243.187 102.228 243.321C102.063 243.451 101.91 243.595 101.773 243.752C101.54 244.022 101.346 244.321 101.197 244.639C100.961 245.167 100.932 245.554 100.869 245.549Z" fill="#263238"/>
<path d="M124.618 205.85L135.504 223.523L144.409 218.186L133.476 200.244L124.618 205.85Z" fill="#B78876"/>
<path d="M141.333 213.134L146.961 222.194C146.961 222.194 158.688 219.891 159.903 221.468L141.517 232.282L132.134 218.514L141.333 213.134Z" fill="#455A64"/>
<path d="M140.769 224.782C140.623 224.933 140.542 225.13 140.542 225.333C140.542 225.537 140.623 225.733 140.769 225.885C140.926 226.019 141.131 226.094 141.345 226.094C141.558 226.094 141.763 226.019 141.921 225.885C142.072 225.72 142.152 225.51 142.147 225.293C142.142 225.077 142.051 224.869 141.892 224.712C141.709 224.584 141.48 224.526 141.253 224.551C141.025 224.576 140.817 224.682 140.671 224.846" fill="#E0E0E0"/>
<path d="M141.517 232.271L140.63 230.85L158.59 221.016C158.59 221.016 159.633 220.865 159.903 221.457L141.517 232.271Z" fill="#E0E0E0"/>
<path d="M147.197 221.92C147.249 222.006 146.828 222.307 146.569 222.834C146.31 223.361 146.31 223.856 146.206 223.873C146.102 223.889 145.907 223.335 146.206 222.689C146.506 222.043 147.162 221.828 147.197 221.92Z" fill="#263238"/>
<path d="M149.628 221.527C149.702 221.597 149.409 221.968 149.345 222.506C149.282 223.044 149.443 223.464 149.345 223.512C149.247 223.561 148.879 223.125 148.971 222.436C149.063 221.747 149.57 221.452 149.628 221.527Z" fill="#263238"/>
<path d="M152.179 223.039C152.104 223.109 151.701 222.764 151.603 222.167C151.505 221.57 151.822 221.145 151.909 221.188C151.995 221.231 151.909 221.634 151.972 222.124C152.035 222.614 152.26 222.979 152.179 223.039Z" fill="#263238"/>
<path d="M145.67 219.988C145.67 220.09 145.192 220.214 144.708 220.526C144.225 220.838 143.931 221.236 143.833 221.193C143.735 221.15 143.919 220.623 144.495 220.241C145.071 219.859 145.67 219.897 145.67 219.988Z" fill="#263238"/>
<path d="M144.501 218.186C144.501 218.218 144.207 218.482 143.58 218.724C143.208 218.861 142.822 218.958 142.428 219.014C142.192 219.042 141.956 219.058 141.719 219.063C141.579 219.068 141.44 219.053 141.304 219.02C141.206 218.995 141.119 218.94 141.058 218.864C140.996 218.788 140.963 218.695 140.965 218.6C140.969 218.515 140.996 218.432 141.042 218.358C141.088 218.284 141.152 218.221 141.229 218.175C141.347 218.108 141.472 218.056 141.604 218.019C142.213 217.824 142.865 217.778 143.499 217.885C144.179 218.003 144.536 218.234 144.513 218.267C144.49 218.299 144.109 218.175 143.47 218.127C143.097 218.101 142.721 218.119 142.353 218.181C142.139 218.216 141.929 218.268 141.725 218.337C141.494 218.406 141.327 218.503 141.333 218.611C141.339 218.719 141.333 218.665 141.42 218.697C141.52 218.719 141.622 218.728 141.725 218.724C142.322 218.731 142.916 218.653 143.487 218.493C143.817 218.367 144.156 218.265 144.501 218.186Z" fill="#263238"/>
<path d="M144.467 218.374C144.467 218.406 144.063 218.207 143.66 217.686C143.429 217.377 143.257 217.033 143.153 216.669C143.091 216.454 143.051 216.234 143.032 216.012C143.006 215.869 143.02 215.722 143.073 215.586C143.125 215.449 143.214 215.327 143.332 215.232C143.413 215.184 143.507 215.159 143.603 215.159C143.698 215.159 143.792 215.184 143.873 215.232C143.989 215.304 144.094 215.391 144.184 215.491C144.343 215.666 144.475 215.862 144.576 216.072C144.74 216.424 144.809 216.808 144.778 217.191C144.72 217.847 144.415 218.17 144.386 218.143C144.45 217.826 144.494 217.507 144.518 217.185C144.511 216.846 144.425 216.511 144.265 216.206C144.174 216.028 144.055 215.863 143.914 215.716C143.764 215.555 143.591 215.447 143.528 215.512C143.47 215.576 143.429 215.651 143.406 215.732C143.383 215.813 143.379 215.898 143.395 215.98C143.405 216.183 143.434 216.385 143.482 216.583C143.566 216.92 143.702 217.244 143.885 217.546C144.196 218.073 144.507 218.331 144.467 218.374Z" fill="#263238"/>
<path d="M92.2119 203.364L113.593 189.785L127.077 214.302L139.334 208.098C139.334 208.098 125.217 175.926 120.148 174.904C117.308 174.323 84.7412 180.128 84.7412 180.128L81.1008 178.422L71.8848 177.373L71.3088 178.767C69.7001 182.572 68.9603 186.649 69.1368 190.736C69.3134 194.824 70.4024 198.832 72.3341 202.503L72.7834 203.359L92.2119 203.364Z" fill="#263238"/>
<path d="M84.7066 186.374C84.8679 187.046 102.563 202.514 102.563 202.514L92.3674 234.52L107.585 237.236L122.867 198.683L94.9363 173.091L82.1549 178.078L84.7066 186.374Z" fill="#263238"/>
<path d="M113.593 189.78C113.639 189.844 108.887 192.932 102.989 196.682C97.0906 200.432 92.2637 203.418 92.2118 203.364C92.16 203.31 96.912 200.206 102.816 196.456C108.72 192.706 113.541 189.715 113.593 189.78Z" fill="#455A64"/>
<path d="M124.566 209.729C124.369 209.499 124.195 209.252 124.047 208.991C123.731 208.507 123.293 207.792 122.757 206.909C121.692 205.139 120.275 202.665 118.777 199.915C117.279 197.166 115.955 194.632 115.027 192.798C114.561 191.878 114.192 191.13 113.944 190.613C113.799 190.352 113.681 190.078 113.593 189.796C113.767 190.041 113.921 190.298 114.054 190.565L115.206 192.717C116.208 194.573 117.55 197.053 119.03 199.802C120.511 202.552 121.91 205.048 122.93 206.839C123.42 207.706 123.829 208.421 124.14 208.965C124.303 209.209 124.445 209.464 124.566 209.729Z" fill="#455A64"/>
<path d="M105.736 196.79C105.282 197.97 104.735 199.117 104.101 200.222C103.552 201.365 102.915 202.469 102.194 203.525C103.194 201.201 104.378 198.95 105.736 196.79Z" fill="#455A64"/>
<path d="M57.865 165.876L54.409 177.798C53.9629 179.34 54.1692 180.984 54.985 182.387C55.6811 183.594 56.7826 184.554 58.1201 185.119C59.4575 185.684 60.9566 185.822 62.3866 185.513L89.7754 179.213L86.8954 173.898L65.3184 175.646L67.6224 167.458L57.865 165.876Z" fill="#B78876"/>
<path d="M70.0128 183.969L70.3699 182.237L85.2135 179.746L89.5277 158.371L117.095 155.304L112.464 178.121L70.0128 183.969Z" fill="#455A64"/>
<path d="M101.906 169.884C101.589 169.871 101.284 169.768 101.032 169.589C100.779 169.409 100.592 169.162 100.494 168.88C100.397 168.598 100.394 168.295 100.486 168.011C100.578 167.728 100.761 167.477 101.009 167.294C101.258 167.11 101.561 167.002 101.878 166.983C102.195 166.965 102.51 167.038 102.781 167.191C103.052 167.345 103.266 167.572 103.395 167.843C103.524 168.114 103.561 168.415 103.501 168.706C103.455 169.059 103.262 169.381 102.963 169.602C102.664 169.822 102.284 169.924 101.906 169.884Z" fill="#EBEBEB"/>
<path d="M74.0448 122.664L74.0966 124.208L74.7187 147.342C74.7936 150.032 77.3222 152.109 80.3981 152.012C83.5085 151.92 86.0083 149.645 85.9853 146.928C85.9565 144.082 85.9853 141.08 85.9853 141.08C85.9853 141.08 89.9078 140.429 90.6624 135.63C91.0368 133.246 90.8582 129.341 90.6048 126.15C90.5507 125.47 90.3498 124.807 90.0141 124.201C89.6784 123.595 89.2149 123.058 88.6514 122.624C88.088 122.19 87.4363 121.866 86.7356 121.674C86.0349 121.481 85.2996 121.422 84.5741 121.502L74.0448 122.664Z" fill="#B78876"/>
<path d="M88.6176 128.835C88.6209 128.995 88.5572 129.151 88.44 129.268C88.3229 129.386 88.1614 129.456 87.9898 129.464C87.9073 129.471 87.8242 129.462 87.7453 129.439C87.6664 129.415 87.5933 129.377 87.5301 129.327C87.4669 129.277 87.415 129.216 87.3772 129.147C87.3395 129.079 87.3167 129.003 87.3101 128.926C87.3068 128.767 87.3697 128.612 87.4857 128.495C87.6016 128.377 87.7616 128.307 87.9322 128.297C88.0994 128.283 88.2656 128.333 88.3941 128.433C88.5226 128.534 88.603 128.679 88.6176 128.835Z" fill="#263238"/>
<path d="M89.7236 128.211C89.6429 128.291 89.1476 127.953 88.4333 127.958C87.7191 127.963 87.2122 128.308 87.1316 128.227C87.0509 128.146 87.1777 128.044 87.4023 127.888C87.7055 127.687 88.0674 127.578 88.4391 127.576C88.8073 127.573 89.1675 127.676 89.4701 127.872C89.689 128.044 89.7639 128.173 89.7236 128.211Z" fill="#263238"/>
<path d="M81.6365 129.072C81.6412 129.232 81.578 129.389 81.4606 129.506C81.3431 129.624 81.1808 129.694 81.0087 129.701C80.8414 129.714 80.6753 129.665 80.5468 129.564C80.4183 129.464 80.3379 129.319 80.3232 129.163C80.3201 129.003 80.3839 128.848 80.5012 128.732C80.6185 128.615 80.7799 128.546 80.9511 128.539C81.0336 128.532 81.1169 128.54 81.1961 128.562C81.2753 128.585 81.3489 128.622 81.4126 128.672C81.4763 128.721 81.5289 128.782 81.5674 128.851C81.6058 128.919 81.6293 128.994 81.6365 129.072Z" fill="#263238"/>
<path d="M82.7712 128.41C82.6906 128.491 82.1952 128.152 81.481 128.157C80.7667 128.162 80.2599 128.507 80.1792 128.426C80.0986 128.345 80.2195 128.243 80.4442 128.087C80.7495 127.886 81.1133 127.777 81.4867 127.775C81.8531 127.772 82.2115 127.875 82.512 128.071C82.7309 128.227 82.8115 128.372 82.7712 128.41Z" fill="#263238"/>
<path d="M85.3978 133.279C85.7712 133.166 86.1582 133.098 86.5498 133.074C86.7341 133.074 86.9011 133.021 86.9299 132.902C86.9435 132.729 86.8993 132.556 86.8032 132.407L86.256 131.127C85.7458 130.044 85.3297 128.925 85.0118 127.78C85.6168 128.814 86.1274 129.894 86.5382 131.008L87.0682 132.294C87.1825 132.497 87.2191 132.731 87.1718 132.956C87.146 133.016 87.1062 133.07 87.0554 133.113C87.0046 133.157 86.944 133.19 86.8781 133.209C86.7766 133.235 86.6722 133.249 86.567 133.252C86.1802 133.308 85.7871 133.317 85.3978 133.279Z" fill="#263238"/>
<path d="M85.9853 141.096C83.5655 141.168 81.172 140.609 79.0733 139.482C79.0733 139.482 80.8013 142.753 85.9047 142.247L85.9853 141.096Z" fill="#AA6550"/>
<path d="M83.0535 127.318C82.9786 127.495 82.2759 127.382 81.4407 127.436C80.6055 127.49 79.9258 127.678 79.8221 127.511C79.7761 127.431 79.9028 127.269 80.1793 127.108C80.5492 126.905 80.9662 126.789 81.3946 126.769C81.8213 126.739 82.2496 126.803 82.6445 126.957C82.9441 127.086 83.0881 127.237 83.0535 127.318Z" fill="#263238"/>
<path d="M89.4298 125.892C89.303 126.043 88.8134 125.892 88.2317 125.892C87.6499 125.892 87.1488 126.005 87.0336 125.849C86.9184 125.693 87.0336 125.623 87.2698 125.478C87.5595 125.303 87.8987 125.213 88.2436 125.22C88.5885 125.226 88.9234 125.329 89.2051 125.515C89.4125 125.688 89.4816 125.844 89.4298 125.892Z" fill="#263238"/>
<path d="M85.3229 135.673C85.1154 135.704 84.9029 135.684 84.7066 135.614L84.1306 135.463C83.9693 135.415 83.7907 135.345 83.5891 135.275C83.387 135.223 83.2037 135.121 83.0592 134.979C82.9382 134.834 82.9613 134.575 83.2378 134.344C83.4297 134.213 83.6523 134.127 83.8869 134.093C84.1216 134.059 84.3616 134.078 84.5869 134.148C84.8123 134.218 85.0164 134.337 85.1825 134.496C85.3486 134.654 85.4718 134.848 85.5418 135.06C85.6627 135.398 85.513 135.624 85.3229 135.673Z" fill="#AA6550"/>
<path d="M85.4208 135.614C85.3517 135.662 85.0061 135 84.1766 134.801C83.6695 134.733 83.1521 134.787 82.6733 134.957C82.6733 134.957 82.7654 134.785 83.0477 134.651C83.4206 134.477 83.8481 134.435 84.2515 134.532C84.6563 134.628 85.0103 134.857 85.248 135.178C85.4266 135.42 85.4554 135.603 85.4208 135.614Z" fill="#263238"/>
<path d="M79.9777 119.554C80.7688 120.72 81.1083 122.103 80.9396 123.473C80.7708 124.844 80.104 126.119 79.0503 127.086C77.8234 128.162 75.9975 128.986 75.8765 130.546C75.7383 132.273 77.881 133.564 77.881 135.296C77.881 137.029 75.6865 138.212 75.2545 139.95C74.9089 141.349 75.8305 142.748 76.8442 143.807C77.858 144.867 79.1482 145.803 79.7242 147.116C80.03 147.856 80.1723 148.646 80.1426 149.438C80.1129 150.23 79.9118 151.009 79.5514 151.727C78.8224 153.154 77.8497 154.46 76.6714 155.595C75.1396 155.083 73.5451 154.752 71.9252 154.61C72.0231 154.04 72.1268 153.465 72.2305 152.894C72.2152 153.228 72.0871 153.548 71.8646 153.809C71.642 154.07 71.3365 154.258 70.9921 154.347C70.2976 154.512 69.5713 154.521 68.8724 154.374C66.7135 154.055 64.5919 153.545 62.5364 152.851C63.4556 152.077 64.2338 151.169 64.8404 150.161C65.1393 149.652 65.3013 149.082 65.3123 148.501C65.3233 147.92 65.1831 147.345 64.9037 146.826C64.3969 146.019 63.4637 145.502 62.9972 144.674C62.3002 143.436 62.8762 141.865 63.8669 140.816C64.8577 139.767 66.2055 139.084 67.3863 138.223C68.5671 137.362 69.65 136.2 69.7421 134.801C69.8689 132.994 68.2964 131.342 68.4922 129.54C68.7111 127.484 71.0381 126.226 71.9482 124.343C72.6106 122.981 72.5242 121.303 73.538 120.146C73.9357 119.733 74.43 119.412 74.9824 119.206C75.5349 119.001 76.1306 118.918 76.7233 118.963C77.9076 119.059 79.0478 119.428 80.041 120.039" fill="#263238"/>
<path d="M86.4 141.612C85.4784 142.086 85.5303 143.404 86.0948 144.238C86.6592 145.072 87.5636 145.669 88.1223 146.508C88.5945 147.274 88.7594 148.173 88.5874 149.042C88.4153 149.911 87.9177 150.695 87.1834 151.253L89.3952 152.033L89.8791 151.781L91.2384 151.06L90.5991 152.528H92.016C92.7688 152.543 93.5108 152.36 94.1581 152.001C94.8054 151.642 95.3321 151.121 95.6786 150.496C96.0251 149.872 96.1775 149.17 96.1186 148.469C96.0597 147.768 95.7918 147.096 95.3453 146.53C94.7693 145.776 93.8592 145.179 93.6576 144.27C93.4215 143.167 94.3143 142.172 94.7463 141.128C95.0901 140.247 95.1258 139.286 94.8485 138.384C94.5711 137.482 93.9949 136.686 93.2026 136.109" fill="#263238"/>
<path d="M42.768 98.072C42.8978 98.1322 43.007 98.225 43.0833 98.34C43.1597 98.455 43.2001 98.5877 43.2 98.723V102.306C43.1998 102.417 43.1721 102.526 43.1191 102.625C43.0661 102.724 42.9893 102.81 42.8947 102.876C42.8006 102.945 42.6903 102.991 42.5731 103.012C42.4559 103.032 42.3351 103.027 42.2208 102.995C41.9045 102.919 41.5752 102.904 41.2525 102.95C40.9299 102.997 40.6205 103.103 40.343 103.264C40.0873 103.4 39.8643 103.584 39.688 103.804C39.5116 104.025 39.3856 104.277 39.3178 104.544C39.2664 104.816 39.2746 105.095 39.3419 105.364C39.4092 105.634 39.5343 105.887 39.7094 106.11C39.8915 106.362 40.1251 106.579 40.3969 106.747C40.6688 106.915 40.9734 107.031 41.2934 107.089C41.9434 107.15 42.5962 107.002 43.1446 106.671C43.6931 106.339 44.1046 105.844 44.3117 105.265C44.3423 105.175 44.3916 105.092 44.4566 105.02C44.5217 104.948 44.6013 104.889 44.6909 104.846C44.7805 104.803 44.8783 104.776 44.9788 104.768C45.0793 104.76 45.1804 104.771 45.2765 104.8C45.3725 104.828 45.4616 104.874 45.5387 104.935C45.6157 104.996 45.6791 105.07 45.7254 105.154C45.7717 105.238 45.7998 105.329 45.8083 105.423C45.8168 105.517 45.8054 105.611 45.7747 105.701C45.4541 106.605 44.809 107.379 43.9484 107.89C43.0879 108.402 42.0646 108.621 41.0515 108.509C40.5244 108.425 40.0213 108.241 39.5727 107.969C39.1241 107.697 38.7395 107.343 38.4422 106.928C38.1478 106.542 37.9398 106.105 37.8309 105.643C37.722 105.181 37.7145 104.703 37.8086 104.238C37.9194 103.777 38.1299 103.343 38.4271 102.962C38.7242 102.581 39.1019 102.261 39.5366 102.021C40.1746 101.663 40.9063 101.477 41.6506 101.483V98.723C41.6506 98.5318 41.7319 98.3484 41.8766 98.2132C42.0214 98.078 42.2177 98.0021 42.4224 98.0021C42.5417 98.0014 42.6597 98.0253 42.768 98.072Z" fill="#21295C"/>
<path d="M41.7082 96.5656C41.7059 96.4499 41.7404 96.3362 41.8073 96.2387C41.8741 96.1413 41.9704 96.0645 42.0839 96.018C42.1974 95.9716 42.323 95.9575 42.4451 95.9776C42.5671 95.9977 42.68 96.0511 42.7696 96.1311C42.8592 96.211 42.9215 96.314 42.9486 96.4269C42.9757 96.5399 42.9664 96.6578 42.9218 96.7658C42.8773 96.8738 42.7996 96.9671 42.6984 97.0339C42.5972 97.1007 42.4772 97.1381 42.3533 97.1413C42.2704 97.1434 42.1878 97.1302 42.1104 97.1024C42.0329 97.0745 41.9622 97.0327 41.9022 96.9791C41.8422 96.9256 41.7942 96.8615 41.7609 96.7905C41.7276 96.7196 41.7097 96.6431 41.7082 96.5656Z" fill="#21295C"/>
<path d="M60.48 115.751C60.48 115.751 60.29 115.751 59.9732 115.901C59.5393 116.076 59.1733 116.371 58.9248 116.746C58.7485 117.003 58.6363 117.293 58.5965 117.596C58.5522 117.943 58.6183 118.295 58.7866 118.607C58.959 118.978 59.2491 119.291 59.6179 119.503C59.9867 119.715 60.4162 119.816 60.8485 119.793C61.2808 119.769 61.6949 119.622 62.0349 119.372C62.3749 119.121 62.6243 118.779 62.7495 118.392C62.8784 118.063 62.9005 117.706 62.8128 117.365C62.7323 117.068 62.585 116.791 62.3808 116.552C62.0843 116.206 61.6829 115.951 61.2288 115.821C60.9005 115.735 60.7047 115.745 60.7047 115.729H60.8429C60.9004 115.725 60.9582 115.725 61.0157 115.729C61.0915 115.733 61.1668 115.744 61.2404 115.761C61.728 115.869 62.1648 116.122 62.4845 116.482C62.7119 116.728 62.8755 117.018 62.9626 117.332C63.0572 117.688 63.0392 118.062 62.9108 118.408C62.77 118.801 62.5146 119.15 62.1735 119.414C61.8099 119.706 61.3557 119.882 60.8775 119.915C60.3993 119.933 59.9274 119.808 59.5296 119.56C59.1561 119.336 58.8569 119.019 58.6656 118.645C58.4945 118.311 58.4286 117.937 58.4756 117.569C58.5243 117.248 58.6503 116.94 58.8442 116.671C59.1199 116.277 59.5238 115.978 59.9962 115.815C60.0696 115.791 60.1446 115.771 60.2208 115.756C60.2751 115.741 60.3312 115.732 60.3879 115.729C60.4195 115.732 60.4505 115.74 60.48 115.751Z" fill="#263238"/>
<path d="M66.1018 120.953C66.1018 120.953 65.9808 120.98 65.7907 121.061C65.5168 121.173 65.2858 121.361 65.1283 121.599C65.0093 121.768 64.9392 121.963 64.9251 122.164C64.911 122.366 64.9532 122.568 65.0477 122.75C65.155 122.979 65.3346 123.171 65.5624 123.301C65.7902 123.431 66.0552 123.493 66.3218 123.479C66.5884 123.464 66.8438 123.373 67.0537 123.219C67.2635 123.065 67.4178 122.854 67.4957 122.616C67.5674 122.425 67.5844 122.219 67.545 122.02C67.5056 121.821 67.4111 121.635 67.271 121.48C67.0851 121.261 66.8319 121.099 66.5453 121.018C66.3437 120.959 66.2227 120.964 66.2227 120.948C66.3341 120.921 66.4511 120.921 66.5626 120.948C66.8254 121.006 67.0667 121.129 67.2612 121.304C67.4557 121.479 67.5964 121.7 67.6685 121.943C67.74 122.173 67.74 122.418 67.6685 122.648C67.5836 122.915 67.4127 123.151 67.1791 123.324C66.9455 123.497 66.6605 123.599 66.3628 123.615C66.0651 123.632 65.7692 123.562 65.5154 123.416C65.2615 123.27 65.062 123.054 64.944 122.799C64.8289 122.582 64.7867 122.338 64.823 122.099C64.854 121.895 64.9348 121.7 65.0592 121.529C65.2362 121.28 65.4949 121.091 65.7965 120.991C65.8941 120.958 65.9983 120.945 66.1018 120.953Z" fill="#263238"/>
<path d="M59.5699 105.088C59.5699 105.088 59.5699 104.996 59.5699 104.819C59.5699 104.641 59.5699 104.372 59.5699 104.028C59.5699 103.85 59.5699 103.656 59.5699 103.441C59.5699 103.226 59.5354 102.995 59.5181 102.742C59.5008 102.489 59.4778 102.204 59.449 101.924C59.4417 101.774 59.4205 101.624 59.3856 101.478L59.2992 101.004C59.0151 99.4225 58.4772 97.8899 57.7037 96.458C56.6971 94.5634 55.3108 92.8668 53.6199 91.46L52.8999 90.8736C52.6464 90.6907 52.3757 90.5185 52.1107 90.3356L51.7018 90.0666C51.5732 89.9677 51.4342 89.8812 51.2871 89.8084L50.4 89.308C50.2503 89.2273 50.1063 89.1412 49.9507 89.0659L49.4727 88.8615L48.5107 88.4526C48.1767 88.3235 47.8311 88.2266 47.4912 88.1137L46.9728 87.9469L46.7079 87.8662L46.4371 87.807C45.71 87.6277 44.9712 87.4929 44.2253 87.4035C43.8451 87.3658 43.4592 87.3013 43.0733 87.2798L41.9213 87.2475C41.7255 87.2475 41.5296 87.2475 41.3453 87.2475L40.7693 87.2905C40.3661 87.3228 39.9629 87.3336 39.5655 87.382C38.7507 87.4901 37.9445 87.6483 37.152 87.8554L36.5472 88.0168C36.4493 88.0168 36.3456 88.0652 36.2477 88.0975L35.9539 88.2051L34.7674 88.6355C34.3815 88.7969 34.0013 88.9906 33.6154 89.1735C33.4253 89.2704 33.2295 89.3457 33.0394 89.4533L32.4634 89.7815C31.7169 90.2183 31.003 90.7018 30.3264 91.2287L29.353 92.0841L29.1053 92.2993L28.8807 92.536L28.4371 93.0148L27.9879 93.4883L27.5847 94.0263L27.1872 94.5643L26.9856 94.8279C26.9223 94.9194 26.8647 95.0108 26.8071 95.1023L26.1101 96.2267C25.92 96.6194 25.7242 97.0122 25.5341 97.4103C24.0349 100.7 23.7295 104.358 24.6643 107.826L25.0445 109.085L25.5456 110.29L25.6723 110.591L25.8279 110.876L26.1389 111.452L26.4442 112.017L26.8128 112.555L27.1757 113.093L27.3543 113.357L27.5616 113.604L28.3853 114.594C28.9669 115.212 29.5924 115.792 30.2573 116.332L30.7469 116.735C30.9082 116.87 31.0925 116.977 31.2653 117.096C31.6167 117.327 31.9565 117.575 32.3136 117.79L33.408 118.36L33.6787 118.511L33.9667 118.634L34.5427 118.876C35.291 119.195 36.0607 119.468 36.8467 119.694C37.2384 119.802 37.6359 119.872 37.9987 119.963L38.5747 120.092C38.7706 120.13 38.9664 120.141 39.1507 120.168L40.3027 120.308C40.6887 120.345 41.0746 120.308 41.4547 120.351C42.2083 120.374 42.9628 120.349 43.7127 120.275H43.9891L44.2599 120.232L44.8013 120.146C45.1584 120.082 45.5155 120.039 45.8611 119.958L46.8864 119.694L47.3933 119.565L47.8771 119.388L48.8275 119.043C48.9848 118.991 49.137 118.926 49.2826 118.85L49.7319 118.64C50.0256 118.5 50.3079 118.371 50.6016 118.226L51.408 117.747C53.325 116.602 54.9858 115.12 56.2983 113.384C56.4423 113.195 56.592 113.012 56.7303 112.846L57.0874 112.275L57.433 111.737C57.4906 111.646 57.5482 111.56 57.6 111.468C57.6519 111.377 57.6864 111.28 57.7325 111.188L58.2509 110.145C58.4007 109.811 58.5043 109.472 58.6253 109.166L58.7981 108.708C58.8547 108.568 58.899 108.424 58.9306 108.278L59.1379 107.476C59.1955 107.229 59.2647 107.003 59.305 106.793C59.3453 106.583 59.3626 106.39 59.3914 106.217C59.4375 105.873 59.4778 105.615 59.5066 105.432C59.5354 105.249 59.5527 105.168 59.5527 105.168C59.5527 105.168 59.5527 105.26 59.5527 105.437L59.449 106.223C59.449 106.395 59.4029 106.589 59.3741 106.798C59.3453 107.008 59.2704 107.24 59.2128 107.487C59.1552 107.735 59.0861 108.025 59.017 108.289C58.9862 108.437 58.9419 108.583 58.8845 108.724C58.8269 108.875 58.7751 109.026 58.7175 109.182C58.5965 109.494 58.4986 109.833 58.3431 110.172C58.1875 110.511 58.009 110.855 57.8362 111.248L57.6979 111.527C57.6519 111.619 57.5885 111.71 57.5367 111.802C57.4215 111.979 57.3063 112.168 57.1911 112.34C57.0759 112.512 56.9549 112.722 56.8339 112.921C56.713 113.12 56.5459 113.292 56.4019 113.486C55.0784 115.213 53.4101 116.686 51.4887 117.822L50.6765 118.306C50.3943 118.451 50.1005 118.586 49.801 118.726L49.3575 118.941C49.2094 119.016 49.0553 119.081 48.8967 119.135L47.9347 119.484L47.4509 119.662L46.944 119.796L45.913 120.065C45.5616 120.146 45.1987 120.189 44.8416 120.254L44.2944 120.345L44.0237 120.388H43.7415C42.988 120.466 42.2297 120.495 41.472 120.474C41.0861 120.474 40.6944 120.474 40.32 120.431L39.168 120.291C38.9664 120.291 38.7706 120.254 38.592 120.211L38.016 120.087C37.6243 119.996 37.2211 119.926 36.8295 119.818C36.042 119.594 35.2721 119.319 34.5255 118.995L33.9495 118.753L33.6615 118.629L33.385 118.478L32.2733 117.876C31.9162 117.661 31.5706 117.408 31.2192 117.176C31.0407 117.053 30.8563 116.945 30.6951 116.811L30.1997 116.407C29.4975 115.863 28.8373 115.273 28.224 114.642L27.3888 113.647L27.1815 113.394L26.9971 113.125L26.6343 112.587L26.2656 112.049L25.9546 111.479L25.6378 110.898L25.4823 110.607L25.344 110.29C25.1712 109.887 25.0042 109.478 24.8371 109.074C24.6701 108.671 24.5837 108.229 24.4512 107.804C23.5182 104.306 23.8317 100.619 25.344 97.3027L25.92 96.103C26.1562 95.7264 26.3923 95.3498 26.6227 94.9732C26.6861 94.8817 26.7379 94.7849 26.8013 94.6934L27.0029 94.4298L27.4119 93.8918L27.8151 93.3538L28.2701 92.8696L28.7194 92.3908L28.944 92.154L29.1917 91.9335L30.1767 91.0673C30.86 90.5372 31.5817 90.0519 32.3367 89.6147L32.9127 89.2865C33.097 89.1735 33.2986 89.0982 33.4887 89.0014C33.8746 88.8238 34.2547 88.6248 34.6407 88.4634L35.8387 88.0276L36.1383 87.92L36.4378 87.8393L37.0483 87.6833C37.8461 87.4741 38.6582 87.3159 39.4791 87.2098C39.888 87.1614 40.2912 87.1453 40.6944 87.113L41.2704 87.0753C41.4663 87.0753 41.6679 87.0753 41.8464 87.0753L43.033 87.1076C43.4247 87.1076 43.8048 87.1937 44.185 87.2367C44.9378 87.3238 45.6829 87.4623 46.4141 87.651L46.6906 87.7102C46.777 87.7102 46.8634 87.764 46.9498 87.7909L47.4739 87.9576C47.8195 88.076 48.1709 88.1675 48.4992 88.2966L49.536 88.77L50.0141 88.9745L50.4691 89.2166L51.3562 89.7008C51.5028 89.7792 51.6434 89.8673 51.7767 89.9644L52.1856 90.2388C52.4506 90.4217 52.7271 90.5938 52.9805 90.7768L53.7063 91.3686C55.4115 92.7933 56.806 94.5123 57.8131 96.4311C58.587 97.8709 59.1193 99.4133 59.3914 101.004C59.4202 101.166 59.449 101.327 59.4778 101.478C59.5076 101.627 59.5269 101.778 59.5354 101.929C59.5354 102.22 59.5815 102.494 59.5987 102.747C59.616 103 59.6391 103.237 59.6448 103.452C59.6506 103.667 59.6448 103.861 59.6448 104.038C59.6448 104.383 59.6448 104.646 59.6448 104.829L59.5699 105.088Z" fill="#263238"/>
<path d="M253.688 239.41C253.661 239.334 253.628 239.261 253.59 239.189C253.509 239.033 253.405 238.829 253.273 238.56C252.887 237.745 252.577 236.901 252.346 236.037C251.602 232.825 251.627 229.5 252.42 226.299C252.916 224.08 253.562 221.893 254.356 219.751C255.174 217.433 256.13 214.969 256.902 212.306C257.782 209.524 258.207 206.635 258.163 203.735C258.042 200.706 257.086 197.683 256.026 194.67C254.966 191.657 253.884 188.709 253.555 185.745C253.187 182.896 253.792 180.011 255.283 177.502C256.683 175.097 258.44 173.037 259.759 170.906C260.987 168.93 261.893 166.794 262.449 164.569C263.239 161.341 263.296 157.994 262.616 154.745C262.373 153.558 262.007 152.395 261.521 151.275C261.535 151.354 261.556 151.431 261.585 151.506C261.642 151.673 261.711 151.894 261.809 152.173C262.084 153.026 262.31 153.892 262.489 154.766C263.117 157.999 263.025 161.317 262.218 164.515C261.657 166.716 260.746 168.827 259.517 170.777C258.204 172.881 256.441 174.931 255.012 177.362C253.473 179.918 252.842 182.864 253.21 185.777C253.538 188.79 254.632 191.759 255.686 194.767C256.74 197.774 257.691 200.771 257.812 203.746C257.859 206.614 257.446 209.472 256.585 212.225C255.819 214.877 254.857 217.341 254.068 219.671C253.28 221.824 252.645 224.024 252.167 226.256C251.28 230.355 251.533 233.82 252.196 236.069C252.444 236.935 252.776 237.777 253.187 238.587L253.538 239.206C253.58 239.279 253.63 239.347 253.688 239.41Z" fill="#263238"/>
<path d="M257.996 172.989C257.996 172.989 260.669 165.005 255.871 160.329C255.834 160.291 255.786 160.264 255.733 160.25C255.679 160.236 255.623 160.237 255.57 160.251C255.517 160.266 255.47 160.294 255.434 160.332C255.397 160.371 255.373 160.418 255.364 160.469C255.11 161.787 254.788 165.801 257.996 172.989Z" fill="#21295C"/>
<path d="M256.395 163.014C256.399 163.51 256.459 164.004 256.573 164.488C256.746 165.505 256.954 166.694 257.184 168.012C257.414 169.33 257.61 170.519 257.76 171.531C257.802 172.024 257.897 172.512 258.042 172.989C258.089 172.493 258.071 171.995 257.99 171.504C257.904 170.594 257.731 169.352 257.489 167.958C257.247 166.565 256.994 165.344 256.781 164.45C256.708 163.96 256.579 163.478 256.395 163.014Z" fill="#263238"/>
<path d="M254.857 191.813C254.857 191.813 253.221 183.592 246.643 181.553C246.591 181.538 246.536 181.536 246.483 181.547C246.43 181.558 246.381 181.583 246.342 181.619C246.303 181.654 246.275 181.699 246.261 181.748C246.247 181.797 246.248 181.849 246.263 181.898C246.695 183.173 248.423 186.864 254.857 191.813Z" fill="#21295C"/>
<path d="M248.435 183.679C248.688 184.113 248.987 184.522 249.327 184.9L251.631 187.746C252.49 188.822 253.261 189.78 253.935 190.597C254.226 191.012 254.553 191.402 254.915 191.765C254.707 191.308 254.445 190.874 254.131 190.474C253.596 189.704 252.812 188.671 251.908 187.558C251.004 186.444 250.18 185.465 249.529 184.765C249.208 184.367 248.841 184.002 248.435 183.679Z" fill="#263238"/>
<path d="M256.631 212.445C256.631 212.445 257.628 204.133 251.965 200.4C251.921 200.37 251.868 200.353 251.814 200.349C251.759 200.345 251.705 200.356 251.656 200.379C251.607 200.402 251.566 200.438 251.538 200.481C251.509 200.525 251.494 200.575 251.493 200.626C251.51 201.965 252.017 205.963 256.631 212.445Z" fill="#21295C"/>
<path d="M253.019 202.917C253.124 203.404 253.284 203.878 253.498 204.332C253.878 205.295 254.321 206.431 254.811 207.679C255.3 208.927 255.744 210.062 256.118 211.031C256.263 211.506 256.456 211.967 256.694 212.408C256.641 211.914 256.523 211.428 256.343 210.961C256.072 210.084 255.646 208.879 255.128 207.571C254.609 206.264 254.102 205.091 253.716 204.252C253.537 203.785 253.303 203.337 253.019 202.917Z" fill="#263238"/>
<path d="M251.677 233.201C251.677 233.201 252.351 224.857 246.551 221.317C246.506 221.288 246.452 221.271 246.397 221.268C246.342 221.266 246.287 221.278 246.239 221.303C246.191 221.329 246.152 221.366 246.125 221.411C246.099 221.456 246.087 221.508 246.09 221.559C246.159 222.893 246.816 226.875 251.677 233.201Z" fill="#21295C"/>
<path d="M247.68 223.808C247.811 224.289 247.99 224.757 248.216 225.207C248.63 226.159 249.12 227.273 249.661 228.505C250.203 229.737 250.681 230.861 251.096 231.808C251.254 232.281 251.464 232.737 251.724 233.169C251.647 232.677 251.51 232.195 251.315 231.733C251.009 230.867 250.537 229.678 249.967 228.386C249.396 227.095 248.849 225.944 248.429 225.115C248.235 224.654 247.984 224.215 247.68 223.808Z" fill="#263238"/>
<path d="M261.838 165.973C261.838 165.973 269.775 162.099 269.931 155.627C269.932 155.576 269.918 155.526 269.89 155.482C269.862 155.438 269.822 155.401 269.774 155.377C269.726 155.352 269.672 155.341 269.617 155.343C269.563 155.346 269.51 155.362 269.464 155.391C268.284 156.154 265.018 158.775 261.838 165.973Z" fill="#21295C"/>
<path d="M268.284 157.855C267.908 158.205 267.576 158.593 267.293 159.011L265.052 161.9C264.217 162.976 263.457 163.956 262.806 164.784C262.47 165.166 262.167 165.572 261.901 166C262.311 165.684 262.679 165.323 262.996 164.924C263.624 164.219 264.453 163.218 265.3 162.083C266.147 160.948 266.936 159.931 267.466 159.135C267.785 158.736 268.06 158.307 268.284 157.855Z" fill="#263238"/>
<path d="M253.313 183.119C253.313 183.119 261.504 179.692 262.08 173.236C262.086 173.184 262.077 173.132 262.053 173.086C262.029 173.039 261.992 172.999 261.945 172.972C261.897 172.944 261.843 172.929 261.788 172.93C261.732 172.93 261.678 172.945 261.631 172.972C260.387 173.683 256.954 176.114 253.313 183.119Z" fill="#21295C"/>
<path d="M260.271 175.388C259.88 175.712 259.525 176.073 259.212 176.464L256.787 179.219L254.362 181.973C253.996 182.332 253.667 182.721 253.377 183.135C253.802 182.84 254.189 182.498 254.529 182.118C255.203 181.451 256.095 180.504 257.04 179.428C257.985 178.352 258.814 177.346 259.39 176.609C259.735 176.236 260.03 175.826 260.271 175.388Z" fill="#263238"/>
<path d="M258.013 202.24C258.013 202.24 263.629 195.724 260.997 189.736C260.977 189.689 260.943 189.647 260.899 189.616C260.855 189.585 260.803 189.566 260.748 189.561C260.693 189.556 260.638 189.566 260.588 189.588C260.539 189.61 260.497 189.645 260.467 189.688C259.713 190.829 257.846 194.46 258.013 202.24Z" fill="#21295C"/>
<path d="M260.438 192.389C260.25 192.852 260.113 193.331 260.029 193.82C259.793 194.826 259.523 196.004 259.217 197.306L258.399 200.787C258.249 201.262 258.145 201.748 258.088 202.24C258.33 201.798 258.51 201.33 258.624 200.846C258.9 199.964 259.235 198.737 259.546 197.376C259.857 196.015 260.122 194.767 260.26 193.863C260.378 193.379 260.437 192.885 260.438 192.389Z" fill="#263238"/>
<path d="M252.455 224.744C252.455 224.744 260.565 221.204 261.026 214.743C261.03 214.692 261.019 214.641 260.994 214.596C260.969 214.551 260.931 214.513 260.885 214.487C260.838 214.461 260.785 214.447 260.73 214.448C260.676 214.448 260.623 214.463 260.577 214.49C259.361 215.2 255.974 217.686 252.455 224.744Z" fill="#21295C"/>
<path d="M259.275 216.9C258.889 217.238 258.54 217.611 258.232 218.014L255.865 220.811C254.972 221.855 254.172 222.797 253.48 223.598C253.124 223.963 252.804 224.357 252.524 224.776C252.952 224.477 253.338 224.13 253.676 223.743C254.339 223.066 255.214 222.103 256.136 221.005C257.057 219.908 257.864 218.896 258.44 218.148C258.766 217.762 259.046 217.343 259.275 216.9Z" fill="#263238"/>
<path d="M236.298 191.862C236.298 191.862 236.298 191.926 236.298 192.044C236.298 192.163 236.298 192.367 236.298 192.582C236.327 193.088 236.356 193.766 236.396 194.611C236.5 196.397 236.65 198.882 236.822 201.858C237.398 204.881 239.052 208.238 241.269 211.493C242.893 213.893 244.598 216.077 246.073 218.105C247.408 219.877 248.61 221.734 249.667 223.663C250.365 224.97 250.93 226.335 251.355 227.741C251.499 228.241 251.603 228.628 251.666 228.897C251.69 229.036 251.73 229.171 251.787 229.301C251.777 229.16 251.758 229.02 251.729 228.881C251.689 228.612 251.603 228.214 251.482 227.709C251.1 226.281 250.563 224.892 249.88 223.566C248.848 221.611 247.66 219.732 246.326 217.944C244.869 215.899 243.17 213.715 241.551 211.326C239.351 208.098 237.709 204.784 237.105 201.804C236.88 198.829 236.69 196.348 236.557 194.568C236.483 193.723 236.425 193.045 236.385 192.539C236.385 192.33 236.339 192.152 236.327 192.001C236.322 191.954 236.312 191.907 236.298 191.862Z" fill="#263238"/>
<path d="M241.125 210.896C241.125 210.896 237.669 203.17 242.012 198.108C242.045 198.067 242.09 198.035 242.142 198.017C242.194 197.999 242.25 197.994 242.304 198.004C242.358 198.015 242.408 198.039 242.448 198.074C242.488 198.109 242.517 198.155 242.531 198.205C242.916 199.485 243.648 203.455 241.125 210.896Z" fill="#21295C"/>
<path d="M241.753 200.792C241.605 201.269 241.514 201.76 241.482 202.256C241.361 203.16 241.223 204.408 241.114 205.812C241.004 207.216 240.958 208.464 240.958 209.384C240.923 209.879 240.956 210.376 241.056 210.864C241.148 210.377 241.195 209.884 241.194 209.39C241.269 208.362 241.356 207.162 241.448 205.833C241.54 204.505 241.638 203.299 241.718 202.272C241.782 201.781 241.794 201.285 241.753 200.792Z" fill="#263238"/>
<g opacity="0.3">
<path d="M241.125 210.896C241.125 210.896 237.669 203.17 242.012 198.108C242.045 198.067 242.09 198.035 242.142 198.017C242.194 197.999 242.25 197.994 242.304 198.004C242.358 198.015 242.408 198.039 242.448 198.074C242.488 198.109 242.517 198.155 242.531 198.205C242.916 199.485 243.648 203.455 241.125 210.896Z" fill="black"/>
</g>
<path d="M251.77 229.5C251.77 229.5 249.016 221.538 253.763 216.819C253.8 216.783 253.848 216.757 253.9 216.744C253.952 216.731 254.007 216.732 254.059 216.746C254.111 216.759 254.158 216.786 254.195 216.823C254.232 216.859 254.258 216.905 254.269 216.954C254.54 218.272 254.903 222.285 251.77 229.5Z" fill="#21295C"/>
<path d="M253.267 219.504C253.078 219.967 252.945 220.449 252.87 220.94C252.668 221.834 252.426 223.092 252.196 224.454C251.965 225.815 251.81 227.09 251.729 228.004C251.664 228.497 251.664 228.996 251.729 229.489C251.862 229.011 251.95 228.523 251.994 228.031C252.155 227.014 252.346 225.82 252.57 224.502C252.795 223.184 252.979 221.995 253.146 220.978C253.24 220.492 253.281 219.998 253.267 219.504Z" fill="#263238"/>
<g opacity="0.3">
<path d="M251.77 229.5C251.77 229.5 249.016 221.538 253.763 216.819C253.8 216.783 253.848 216.757 253.9 216.744C253.952 216.731 254.007 216.732 254.059 216.746C254.111 216.759 254.158 216.786 254.195 216.823C254.232 216.859 254.258 216.905 254.269 216.954C254.54 218.272 254.903 222.285 251.77 229.5Z" fill="black"/>
</g>
<path d="M236.736 201.443C236.736 201.443 229.398 196.644 230.141 190.21C230.145 190.159 230.164 190.11 230.197 190.068C230.229 190.027 230.274 189.995 230.325 189.976C230.376 189.957 230.431 189.952 230.485 189.961C230.539 189.97 230.59 189.993 230.63 190.027C231.713 190.925 234.593 193.922 236.736 201.443Z" fill="#21295C"/>
<g opacity="0.3">
<path d="M236.736 201.443C236.736 201.443 229.398 196.644 230.141 190.21C230.145 190.159 230.164 190.11 230.197 190.068C230.229 190.027 230.274 189.995 230.325 189.976C230.376 189.957 230.431 189.952 230.485 189.961C230.539 189.97 230.59 189.993 230.63 190.027C231.713 190.925 234.593 193.922 236.736 201.443Z" fill="black"/>
</g>
<path d="M231.483 192.604C231.632 193.079 231.836 193.538 232.093 193.971C232.508 194.799 233.119 195.929 233.821 197.155C234.524 198.382 235.215 199.48 235.739 200.249C235.999 200.683 236.312 201.088 236.673 201.454C236.476 200.994 236.233 200.553 235.947 200.136C235.417 199.238 234.795 198.178 234.115 197.01L232.295 193.874C232.071 193.426 231.799 193.001 231.483 192.604Z" fill="#263238"/>
<path d="M248.832 221.608C248.832 221.608 239.985 220.316 237.617 214.237C237.597 214.19 237.591 214.138 237.601 214.087C237.611 214.037 237.635 213.99 237.672 213.952C237.708 213.914 237.755 213.887 237.808 213.872C237.86 213.858 237.916 213.858 237.969 213.871C239.328 214.237 243.325 215.738 248.832 221.608Z" fill="#21295C"/>
<g opacity="0.3">
<path d="M248.832 221.608C248.832 221.608 239.985 220.316 237.617 214.237C237.597 214.19 237.591 214.138 237.601 214.087C237.611 214.037 237.635 213.99 237.672 213.952C237.708 213.914 237.755 213.887 237.808 213.872C237.86 213.858 237.916 213.858 237.969 213.871C239.328 214.237 243.325 215.738 248.832 221.608Z" fill="black"/>
</g>
<path d="M239.916 215.846C240.271 216.214 240.671 216.542 241.108 216.825C241.874 217.395 242.951 218.159 244.166 218.977C245.382 219.795 246.516 220.489 247.352 220.962C247.788 221.247 248.26 221.482 248.757 221.661C248.362 221.33 247.934 221.034 247.478 220.779L244.362 218.724L241.252 216.653C240.836 216.343 240.388 216.073 239.916 215.846Z" fill="#263238"/>
<path d="M259.281 236.817L256.74 252.365L246.609 252.349L243.193 236.817H259.281Z" fill="#455A64"/>
<path d="M250.03 241.809C250.306 241.421 250.467 240.972 250.497 240.508C250.527 240.248 250.478 239.985 250.357 239.749C250.236 239.513 250.047 239.314 249.811 239.173C249.543 239.047 249.242 238.992 248.942 239.015C248.642 239.038 248.355 239.137 248.112 239.302C247.609 239.647 247.263 240.156 247.144 240.728C247.01 241.306 246.967 241.898 247.018 242.487C247.049 243.101 247.187 243.706 247.427 244.279C247.669 244.88 248.064 245.418 248.579 245.844C249.121 246.294 249.808 246.563 250.531 246.608C251.249 246.623 251.956 246.435 252.559 246.07C253.136 245.725 253.648 245.292 254.074 244.79C254.508 244.307 254.775 243.712 254.84 243.085C254.865 242.776 254.813 242.466 254.688 242.179C254.563 241.893 254.369 241.637 254.12 241.433C253.862 241.256 253.556 241.152 253.237 241.134C252.918 241.116 252.601 241.184 252.323 241.331C252.058 241.455 251.827 241.633 251.647 241.854C251.467 242.074 251.344 242.329 251.286 242.6C251.21 243.083 251.292 243.576 251.522 244.015C251.751 244.454 252.116 244.817 252.57 245.059C253.317 245.44 254.186 245.558 255.018 245.393C255.629 245.272 256.213 245.055 256.746 244.752C257.086 244.567 257.413 244.362 257.725 244.139C257.84 244.067 257.945 243.982 258.036 243.886C257.917 243.95 257.802 244.02 257.691 244.096C257.466 244.23 257.115 244.44 256.694 244.666C256.156 244.947 255.572 245.143 254.966 245.247C254.179 245.385 253.364 245.264 252.662 244.903C252.252 244.675 251.924 244.339 251.719 243.937C251.514 243.534 251.441 243.084 251.51 242.643C251.565 242.406 251.676 242.183 251.835 241.991C251.995 241.799 252.199 241.643 252.432 241.535C252.668 241.411 252.938 241.353 253.209 241.368C253.479 241.384 253.74 241.471 253.958 241.621C254.174 241.802 254.341 242.026 254.448 242.277C254.555 242.528 254.598 242.799 254.575 243.068C254.51 243.646 254.259 244.192 253.855 244.634C253.449 245.11 252.962 245.52 252.415 245.85C251.859 246.191 251.207 246.369 250.543 246.361C249.882 246.315 249.255 246.069 248.757 245.662C248.27 245.263 247.893 244.761 247.657 244.198C247.427 243.65 247.292 243.07 247.259 242.482C247.208 241.919 247.245 241.351 247.369 240.798C247.469 240.28 247.776 239.817 248.227 239.501C248.432 239.359 248.675 239.271 248.93 239.247C249.185 239.223 249.442 239.265 249.673 239.367C249.872 239.49 250.032 239.662 250.133 239.864C250.235 240.067 250.275 240.291 250.249 240.513C250.226 240.942 250.08 241.358 249.828 241.718C249.368 242.338 248.706 242.803 247.939 243.041C247.363 243.231 246.749 243.299 246.142 243.241C245.621 243.182 245.115 243.042 244.644 242.826C244.644 242.826 244.644 242.826 244.725 242.885C244.813 242.936 244.903 242.983 244.996 243.025C245.358 243.191 245.747 243.299 246.148 243.343C246.775 243.422 247.414 243.365 248.014 243.176C248.822 242.939 249.526 242.463 250.019 241.82" fill="#263238"/>
</svg>
