<svg width="355" height="147" viewBox="0 0 355 147" fill="none" xmlns="http://www.w3.org/2000/svg">
<path d="M0 0H355V147H0V0Z" fill="#EDF3F8"/>
<path d="M185.115 62H165.885C164.291 62 163 63.2915 163 64.8846V80.2692C163 81.8624 164.291 83.1538 165.885 83.1538H185.115C186.709 83.1538 188 81.8624 188 80.2692V64.8846C188 63.2915 186.709 62 185.115 62Z" stroke="#21295C" stroke-opacity="0.8" stroke-width="2" stroke-linejoin="round"/>
<path d="M180.308 69.6923C181.37 69.6923 182.231 68.8313 182.231 67.7692C182.231 66.7072 181.37 65.8462 180.308 65.8462C179.246 65.8462 178.385 66.7072 178.385 67.7692C178.385 68.8313 179.246 69.6923 180.308 69.6923Z" stroke="#21295C" stroke-opacity="0.8" stroke-width="2" stroke-miterlimit="10"/>
<path d="M178.385 77.372L172.936 71.9339C172.59 71.5873 172.124 71.3862 171.634 71.3716C171.144 71.3571 170.666 71.5303 170.3 71.8558L163 78.3462M173.577 83.1538L180.989 75.7416C181.328 75.4019 181.782 75.2013 182.261 75.179C182.741 75.1568 183.211 75.3146 183.58 75.6214L188 79.3077" stroke="#21295C" stroke-opacity="0.8" stroke-width="2" stroke-linecap="round" stroke-linejoin="round"/>
</svg>
