<svg width="288" height="192" viewBox="0 0 288 192" fill="none" xmlns="http://www.w3.org/2000/svg">
<path d="M166.591 85.1942C166.591 85.1942 166.591 85.1597 166.591 85.1021V84.8486C166.591 84.6182 166.591 84.2918 166.591 83.8771C166.591 83.0246 166.591 81.7958 166.56 80.2522L166.618 80.3098L147.936 80.3443C147.978 80.3021 147.84 80.4403 148.032 80.2522V82.7558C148.032 83.5776 148.032 84.3917 148.032 85.1866L147.94 85.0906L161.253 85.1328L165.181 85.1597H166.245H166.522C166.555 85.1564 166.588 85.1564 166.621 85.1597H166.537H166.268H165.228L161.28 85.248L147.901 85.2902H147.809V85.1981C147.809 84.4032 147.809 83.5891 147.809 82.7674V80.256L147.905 80.16L166.587 80.1946H166.656V80.256C166.656 81.815 166.633 83.0554 166.625 83.9155C166.625 84.3264 166.625 84.6451 166.625 84.8755C166.625 84.9754 166.625 85.056 166.625 85.1174C166.617 85.1444 166.606 85.1702 166.591 85.1942Z" fill="#E0E0E0"/>
<path d="M202.525 33.5002C202.522 33.4708 202.522 33.4412 202.525 33.4119C202.525 33.3466 202.525 33.2621 202.525 33.1584C202.525 32.9242 202.525 32.6016 202.525 32.1831C202.525 31.3306 202.506 30.1056 202.495 28.5581L202.552 28.6157L183.871 28.6541C183.913 28.6119 183.775 28.7501 183.963 28.5581V33.5002L183.867 33.408L197.18 33.4503L201.112 33.4771H202.176H202.453H202.552C202.523 33.4808 202.493 33.4808 202.464 33.4771H202.199H201.155L197.245 33.504L183.867 33.5463H183.775V28.5658C183.963 28.3776 183.825 28.512 183.871 28.4698L202.552 28.5082H202.61V28.5658C202.61 30.1287 202.583 31.3651 202.575 32.2253C202.575 32.6362 202.575 32.9587 202.575 33.1853C202.575 33.2851 202.575 33.3658 202.575 33.4311C202.561 33.4556 202.544 33.4787 202.525 33.5002Z" fill="#E0E0E0"/>
<path d="M271.807 107.52C271.803 107.491 271.803 107.461 271.807 107.432V107.178C271.807 106.948 271.807 106.621 271.807 106.207C271.807 105.354 271.807 104.125 271.776 102.578L271.834 102.636L253.152 102.674L253.248 102.578V107.52L253.156 107.428L266.469 107.47L270.397 107.497H271.461H271.738H271.837C271.837 107.497 271.811 107.497 271.749 107.497H271.484H270.444L266.534 107.524L253.156 107.566H253.06V102.597L253.156 102.505L271.837 102.54H271.872V102.597C271.872 104.16 271.849 105.396 271.841 106.26C271.841 106.671 271.841 106.99 271.841 107.22V107.462C271.831 107.482 271.82 107.502 271.807 107.52Z" fill="#E0E0E0"/>
<path d="M274.341 102.593C274.336 102.563 274.336 102.532 274.341 102.501C274.341 102.428 274.341 102.344 274.341 102.24C274.341 101.994 274.341 101.664 274.341 101.249C274.341 100.381 274.322 99.1565 274.307 97.6512L274.376 97.7203L263.151 97.7472C263.063 97.8317 263.267 97.632 263.244 97.6512V100.193C263.244 101.023 263.244 101.821 263.244 102.589L263.151 102.501L271.185 102.543L273.523 102.57H274.153H274.38C274.312 102.575 274.244 102.575 274.176 102.57H273.562L271.258 102.597L263.167 102.639H263.04V102.547C263.04 101.779 263.04 100.98 263.04 100.151V97.609C263.017 97.632 263.221 97.4285 263.136 97.5168L274.36 97.5398H274.429V97.6051C274.429 99.1411 274.403 100.366 274.395 101.242C274.395 101.652 274.395 101.979 274.395 102.221C274.384 102.346 274.366 102.47 274.341 102.593Z" fill="#E0E0E0"/>
<path d="M97.7472 163.054L93.5232 164.87L93.8073 139.814C93.9379 136.815 92.5593 135.537 91.8105 134.684C85.0099 126.95 74.8685 132.561 74.7801 140.398L74.5267 162.789L70.4141 162.743L70.8211 139.319C70.8518 136.681 72.9024 132.104 74.9721 130.464C86.4153 121.398 98.1235 130.764 98.0121 140.671L97.7472 163.054Z" fill="#F5F5F5"/>
<path d="M97.7473 163.054V162.605C97.7473 162.309 97.7473 161.875 97.7473 161.307C97.7473 160.155 97.7703 158.485 97.7857 156.315C97.801 154.145 97.8279 151.515 97.8548 148.447C97.8702 146.911 97.8855 145.276 97.9009 143.543C97.9009 141.807 98.0583 139.96 97.7012 138.063C97.3436 136.077 96.5387 134.198 95.3473 132.568C95.1898 132.357 95.0401 132.142 94.875 131.935C94.7098 131.727 94.5217 131.551 94.345 131.34C93.9841 130.939 93.5994 130.561 93.193 130.207C92.9972 130.019 92.7668 129.869 92.5518 129.696C92.3367 129.523 92.1255 129.347 91.8836 129.208C91.4184 128.898 90.9335 128.619 90.4321 128.371C89.406 127.855 88.32 127.468 87.1988 127.219L86.331 127.077L85.897 127.004L85.4554 126.977L84.5646 126.92C84.265 126.92 83.9655 126.939 83.666 126.95C81.1835 127.063 78.7806 127.861 76.7233 129.254C74.5583 130.72 72.8612 132.779 71.835 135.183C71.3195 136.424 70.9808 137.731 70.8289 139.066C70.7137 140.41 70.7444 141.796 70.7175 143.182C70.6561 148.739 70.5908 154.491 70.5255 160.385C70.5255 161.171 70.5166 161.955 70.4986 162.735L70.4026 162.636L74.5153 162.682L74.4193 162.778C74.4679 158.323 74.5178 153.971 74.569 149.722C74.5921 147.607 74.6164 145.522 74.642 143.466C74.642 142.442 74.6535 141.425 74.6766 140.413C74.6986 139.404 74.8667 138.403 75.1758 137.441C75.8061 135.571 76.9932 133.937 78.578 132.76C78.7657 132.612 78.9619 132.475 79.1655 132.349L79.7799 131.965C80.1968 131.745 80.6293 131.555 81.074 131.397C81.5135 131.237 81.9639 131.109 82.4218 131.013C82.6484 130.963 82.8788 130.944 83.1054 130.906L83.4471 130.86H83.7927C84.6949 130.81 85.5996 130.886 86.4807 131.086C87.3396 131.292 88.1682 131.609 88.946 132.027C91.1594 133.256 92.8109 135.294 93.554 137.714C93.771 138.464 93.8999 139.238 93.938 140.018C93.938 140.21 93.938 140.402 93.9572 140.59C93.9764 140.778 93.9572 140.974 93.9572 141.155C93.9572 141.539 93.9572 141.9 93.9572 142.268C93.9572 143.002 93.9572 143.724 93.9303 144.43C93.8919 147.256 93.8612 149.852 93.8305 152.195C93.7652 156.876 93.7153 160.539 93.6807 162.973L93.6538 162.947L96.7566 162.996H97.5246H97.7742H96.7681L93.65 162.977H93.6231V162.95C93.6231 160.516 93.6769 156.852 93.7191 152.172C93.7422 149.829 93.769 147.229 93.7959 144.403C93.7959 143.697 93.7959 142.975 93.819 142.241C93.819 141.857 93.819 141.504 93.819 141.128C93.819 140.943 93.819 140.744 93.819 140.567L93.7959 140.003C93.7388 138.429 93.2715 136.897 92.4404 135.56C91.5738 134.127 90.3464 132.947 88.8807 132.138C88.1159 131.729 87.3015 131.419 86.4577 131.217C85.5876 131.022 84.6944 130.949 83.8042 131.002H83.4663L83.1322 131.052C82.9057 131.086 82.6791 131.105 82.4564 131.155C81.5542 131.348 80.6823 131.662 79.8644 132.088L79.2615 132.449C79.0622 132.566 78.8699 132.694 78.6855 132.833C77.1279 133.992 75.9631 135.6 75.3486 137.441C75.0461 138.385 74.8832 139.369 74.8647 140.36C74.8647 141.368 74.8532 142.386 74.8302 143.412C74.8071 145.46 74.7841 147.546 74.761 149.668C74.715 153.892 74.665 158.258 74.6151 162.724V162.82H74.5191L70.4026 162.774H70.3066V162.678C70.3066 161.91 70.3156 161.126 70.3335 160.328C70.4026 154.437 70.4679 148.685 70.5332 143.124C70.5601 141.734 70.5332 140.364 70.6446 138.989C70.8012 137.637 71.1464 136.313 71.6698 135.057C72.2052 133.856 72.8973 132.731 73.7281 131.712C74.5697 130.719 75.5395 129.842 76.6119 129.105C78.6961 127.691 81.1311 126.883 83.6468 126.77C83.9502 126.77 84.2535 126.735 84.5569 126.743L85.5898 126.804L86.1582 126.87L87.0183 127.012L87.4023 127.096C88.4686 127.346 89.5002 127.725 90.4743 128.225C90.9831 128.475 91.4744 128.758 91.945 129.074C92.187 129.216 92.3943 129.408 92.617 129.569C92.8398 129.731 93.0663 129.896 93.2698 130.084C93.6764 130.445 94.061 130.829 94.4218 131.236L94.9594 131.839C95.1246 132.05 95.2743 132.269 95.4318 132.484C96.6341 134.132 97.4444 136.032 97.801 138.04C98.1582 139.96 97.9777 141.819 97.9892 143.555C98.0007 145.29 97.9431 146.941 97.9239 148.477C97.8817 151.549 97.8433 154.191 97.8126 156.353C97.7818 158.515 97.7588 160.193 97.7396 161.322C97.7396 161.883 97.7396 162.317 97.7166 162.609C97.6935 162.9 97.7473 163.054 97.7473 163.054Z" fill="#E0E0E0"/>
<path d="M65.7166 148.117L102.962 148.54C103.343 148.544 103.707 148.699 103.973 148.972C104.239 149.244 104.386 149.611 104.382 149.992L104.055 178.779C104.051 179.125 103.91 179.455 103.662 179.697C103.415 179.939 103.081 180.073 102.735 180.069L65.3742 179.645L65.7319 148.117L65.7166 148.117Z" fill="#E0E0E0"/>
<path d="M65.717 148.036L98.4722 148.364C98.8857 148.368 99.2806 148.536 99.57 148.832C99.8595 149.127 100.02 149.525 100.016 149.939L99.7353 177.971C99.7302 178.48 99.5231 178.966 99.1594 179.323C98.7957 179.679 98.3053 179.876 97.7961 179.871L65.4556 179.548C65.0279 179.544 64.6194 179.37 64.3199 179.064C64.0205 178.759 63.8547 178.347 63.859 177.919L64.1424 149.58C64.1465 149.166 64.3147 148.771 64.61 148.482C64.9053 148.193 65.3035 148.032 65.717 148.036Z" fill="#EBEBEB"/>
<path d="M86.7264 161.338C86.7332 160.749 86.6216 160.164 86.3981 159.619C86.1746 159.074 85.8439 158.579 85.4255 158.164C85.0071 157.75 84.5097 157.423 83.9627 157.204C83.4157 156.986 82.8303 156.879 82.2413 156.891C81.1083 156.925 80.0309 157.39 79.2294 158.191C78.4279 158.993 77.9627 160.07 77.929 161.203C77.9113 162.164 78.2099 163.104 78.7789 163.878C79.3478 164.653 80.1556 165.218 81.0778 165.489L78.1402 171.525L85.7242 171.752L83.4816 165.504C84.4017 165.256 85.216 164.716 85.8015 163.964C86.3869 163.212 86.7116 162.29 86.7264 161.338Z" fill="#E0E0E0"/>
<path d="M99.5251 177.059C99.4713 177.059 99.5251 171.571 99.6211 164.805C99.7171 158.039 99.8553 152.548 99.9091 152.548C99.9629 152.548 99.9091 158.035 99.8131 164.805C99.7171 171.575 99.5789 177.062 99.5251 177.059Z" fill="#FAFAFA"/>
<path d="M91.5225 149.376C91.5225 149.43 86.6956 149.484 80.7398 149.495C74.784 149.507 69.9532 149.472 69.9532 149.418C69.9532 149.364 74.7801 149.315 80.7398 149.303C86.6995 149.292 91.5225 149.315 91.5225 149.376Z" fill="white"/>
<path d="M77.76 163.607C77.6848 163.526 77.6238 163.432 77.5795 163.331C77.4417 163.063 77.3311 162.783 77.2493 162.493C76.9745 161.529 77.0001 160.504 77.3225 159.555C77.6449 158.605 78.2489 157.776 79.0541 157.179C79.2934 156.998 79.5508 156.842 79.8221 156.714C79.9176 156.661 80.0215 156.625 80.1293 156.607C80.1293 156.637 79.7108 156.818 79.1348 157.286C78.3782 157.89 77.8107 158.699 77.4996 159.616C77.1886 160.532 77.147 161.519 77.3799 162.459C77.568 163.2 77.7908 163.584 77.76 163.607Z" fill="white"/>
<path d="M79.4881 165.711C79.4612 165.757 79.2039 165.646 78.9121 165.466C78.6202 165.285 78.409 165.101 78.4359 165.055C78.4628 165.009 78.7239 165.12 79.0157 165.3C79.3076 165.481 79.4881 165.665 79.4881 165.711Z" fill="white"/>
<path d="M83.1438 127.937C82.8989 127.984 82.6514 128.016 82.4026 128.033C81.732 128.123 81.0694 128.266 80.4212 128.46C78.2673 129.085 76.3359 130.31 74.8528 131.992C73.3697 133.675 72.3962 135.744 72.0462 137.96C71.9306 138.627 71.8728 139.303 71.8734 139.98C71.8734 140.456 71.8734 140.724 71.8734 140.724C71.8527 140.663 71.8424 140.598 71.8426 140.532C71.8426 140.406 71.8042 140.221 71.8004 139.98C71.7733 139.296 71.8119 138.612 71.9156 137.937C72.236 135.684 73.2089 133.575 74.7142 131.869C76.2196 130.163 78.1915 128.935 80.3866 128.337C81.0433 128.144 81.7172 128.015 82.3988 127.953C82.6369 127.926 82.825 127.93 82.9518 127.926C83.016 127.923 83.0803 127.927 83.1438 127.937Z" fill="white"/>
<path d="M71.6698 144.123C71.5823 143.745 71.5589 143.356 71.6006 142.971C71.5744 142.583 71.6147 142.193 71.7197 141.819C71.8354 142.584 71.8186 143.363 71.6698 144.123Z" fill="white"/>
<path d="M95.3357 37.1597H76.6541V42.1018H95.3357V37.1597Z" fill="#F5F5F5"/>
<path d="M87.4368 47.3088C87.4368 47.3088 87.4368 47.2781 87.4368 47.2205V46.967C87.4368 46.7328 87.4368 46.4064 87.4368 45.9917C87.4368 45.1392 87.4368 43.9142 87.406 42.3667L87.4636 42.4243L68.782 42.4627C68.8243 42.4205 68.686 42.5549 68.878 42.3667V44.8704C68.878 45.6947 68.878 46.505 68.878 47.3011L68.7859 47.209L82.0992 47.2512L86.0275 47.2781H87.0912H87.3676C87.4008 47.2748 87.4343 47.2748 87.4675 47.2781H87.383H87.1142H86.0736L82.1644 47.305L68.7859 47.3472H68.6937V47.255C68.6937 46.4589 68.6937 45.6486 68.6937 44.8243V42.3206L68.7897 42.2246L87.4713 42.263H87.5289V42.3206C87.5289 43.8797 87.5059 45.12 87.4982 45.9802C87.4982 46.391 87.4982 46.7098 87.4982 46.9402C87.4982 47.04 87.4982 47.1206 87.4982 47.1821C87.4982 47.2435 87.4406 47.3088 87.4368 47.3088Z" fill="#E0E0E0"/>
<path d="M269.053 24.2573H250.372V29.1994H269.053V24.2573Z" fill="#F5F5F5"/>
<path d="M261.155 34.4064C261.152 34.377 261.152 34.3475 261.155 34.3181V34.0646C261.155 33.8304 261.155 33.5078 261.155 33.0893C261.155 32.2368 261.155 31.0118 261.124 29.4643L261.181 29.5219L242.5 29.5603C242.542 29.5181 242.404 29.6525 242.596 29.4643V30.0902C242.596 30.3014 242.596 30.5126 242.596 30.72V34.4064L242.504 34.3142L255.817 34.3565L259.745 34.3834H260.809H261.085H261.185H261.097H260.832H259.791L255.882 34.4102L242.504 34.4525H242.408V29.472L242.504 29.376L261.185 29.4144H261.243V29.472C261.243 31.031 261.22 32.2714 261.212 33.1315C261.212 33.5424 261.212 33.8611 261.212 34.0915C261.212 34.1914 261.212 34.272 261.212 34.3373C261.212 34.4026 261.158 34.4064 261.155 34.4064Z" fill="#E0E0E0"/>
<path d="M162.513 122.508H143.831V127.45H162.513V122.508Z" fill="#F5F5F5"/>
<path d="M154.614 132.657C154.611 132.626 154.611 132.595 154.614 132.564V132.311C154.614 132.081 154.614 131.754 154.614 131.34C154.614 130.487 154.595 129.262 154.583 127.715L154.641 127.772L135.959 127.811C136.001 127.768 135.863 127.903 136.051 127.715V132.649L135.959 132.557L149.272 132.599L153.201 132.626H154.264H154.541H154.641H154.552H154.287H153.247L149.338 132.653L135.936 132.749H135.84V127.722L135.936 127.626L154.618 127.665H154.675V127.722C154.675 129.281 154.652 130.522 154.645 131.382C154.645 131.793 154.645 132.111 154.645 132.342C154.645 132.442 154.645 132.522 154.645 132.584C154.636 132.609 154.626 132.633 154.614 132.657Z" fill="#E0E0E0"/>
<path d="M40.0359 29.4182C40.0325 29.3889 40.0325 29.3593 40.0359 29.3299C40.0359 29.2646 40.0359 29.1802 40.0359 29.0765C40.0359 28.8422 40.0359 28.5197 40.0359 28.1011C40.0359 27.2486 40.0359 26.0237 40.0052 24.4762L40.0628 24.5338L21.3543 24.576C21.3965 24.5338 21.2583 24.672 21.4465 24.48V29.4182L21.3543 29.3261L34.6676 29.3683L38.5959 29.3952H39.6596H39.9361H40.0359C40.0066 29.3988 39.9769 29.3988 39.9476 29.3952H39.6826H38.6381L34.7329 29.4221L21.3543 29.4643H21.2583V24.4838L21.3543 24.3878L40.0359 24.4262H40.0935V24.4838C40.0935 26.0467 40.0705 27.2832 40.0628 28.1434C40.0628 28.5542 40.0628 28.8768 40.0628 29.1034C40.0628 29.2032 40.0628 29.2838 40.0628 29.3491C40.0556 29.3728 40.0467 29.3959 40.0359 29.4182Z" fill="#E0E0E0"/>
<path d="M226.333 171.928C226.333 171.928 226.333 171.898 226.333 171.84V171.587C226.333 171.352 226.333 171.03 226.333 170.611C226.333 169.759 226.334 168.534 226.303 166.986L226.36 167.044L207.679 167.082L207.775 166.986V169.49C207.775 170.317 207.775 171.127 207.775 171.921L207.683 171.829L220.996 171.871L224.924 171.898H225.988H226.268H226.364C226.364 171.898 226.337 171.898 226.28 171.898H226.011H224.97L221.061 171.925L207.683 171.967H207.59V171.875C207.59 171.078 207.59 170.268 207.59 169.444V166.94L207.686 166.844L226.368 166.883H226.426V166.94C226.426 168.499 226.403 169.74 226.395 170.6C226.395 171.011 226.395 171.329 226.395 171.56C226.395 171.66 226.395 171.74 226.395 171.805C226.395 171.871 226.337 171.932 226.333 171.928Z" fill="#E0E0E0"/>
<path d="M151.434 22.3219C151.434 22.3219 151.434 22.2874 151.434 22.2298V21.9763C151.434 21.7459 151.434 21.4195 151.434 21.0048C151.434 20.1523 151.434 18.9235 151.403 17.3799L151.461 17.4375L132.779 17.472L132.875 17.3799V19.8912C132.875 20.7181 132.875 21.5283 132.875 22.3219L132.783 22.2298L146.097 22.272L150.025 22.2951H151.089H151.369C151.401 22.2919 151.433 22.2919 151.465 22.2951H151.38H151.112H150.071L146.162 22.3219L132.783 22.3642H132.691V22.272C132.691 21.4771 132.691 20.6669 132.691 19.8413V17.3875L132.787 17.2915L151.469 17.3299H151.526V17.3875C151.526 18.9466 151.503 20.1869 151.496 21.0471C151.496 21.4579 151.496 21.7767 151.496 22.0071V22.249C151.479 22.2762 151.458 22.3008 151.434 22.3219Z" fill="#E0E0E0"/>
<path d="M153.984 17.3798C153.981 17.3479 153.981 17.3158 153.984 17.2838C153.984 17.2147 153.984 17.1264 153.984 17.0227C153.984 16.7808 153.984 16.4506 153.984 16.032C153.984 15.1642 153.961 13.943 153.946 12.4378L154.015 12.503L142.79 12.5299L142.883 12.4378V14.976C142.883 15.8016 142.883 16.6042 142.883 17.3722L142.794 17.28L150.824 17.3222L153.162 17.3491H153.792H154.019C153.951 17.3546 153.883 17.3546 153.815 17.3491H153.201L150.897 17.3722L142.806 17.4144H142.714V17.3261C142.714 16.5581 142.714 15.7555 142.714 14.9299V12.4454C142.691 12.4454 142.894 12.265 142.81 12.3494L154.034 12.3763H154.103V12.4454C154.103 13.9814 154.072 15.2026 154.065 16.0819C154.065 16.4928 154.065 16.8154 154.065 17.0573C154.065 17.2992 153.984 17.3837 153.984 17.3798Z" fill="#E0E0E0"/>
<path d="M33.5463 140.16C33.5446 140.131 33.5446 140.101 33.5463 140.072C33.5463 140.006 33.5463 139.922 33.5463 139.818C33.5463 139.584 33.5463 139.261 33.5463 138.847C33.5463 137.994 33.5463 136.765 33.5155 135.218L33.5731 135.276L14.8915 135.314L14.9875 135.218V137.725C14.9875 138.55 14.9875 139.36 14.9875 140.156L14.8954 140.064L28.2087 140.106L32.137 140.133H33.2007H33.481H33.577C33.577 140.133 33.5501 140.133 33.4925 140.133H33.2237H32.1831L28.2739 140.16L14.8954 140.202H14.8032V140.16C14.8032 139.365 14.8032 138.555 14.8032 137.729V135.222C14.9952 135.034 14.857 135.172 14.8992 135.13L33.5808 135.164H33.6384V135.222C33.6384 136.785 33.6154 138.021 33.6077 138.885C33.6077 139.296 33.6077 139.615 33.6077 139.845V140.087C33.5501 140.16 33.5501 140.16 33.5463 140.16Z" fill="#E0E0E0"/>
<path d="M36.0961 135.226C36.0931 135.195 36.0931 135.164 36.0961 135.133C36.0961 135.06 36.0961 134.976 36.0961 134.872C36.0961 134.627 36.0961 134.296 36.0961 133.882C36.0961 133.014 36.073 131.789 36.0577 130.284L36.1268 130.353L24.9025 130.38C24.818 130.464 25.0177 130.264 24.9946 130.284V132.826C24.9946 133.655 24.9946 134.454 24.9946 135.222L24.9063 135.133L32.9358 135.176L35.2743 135.203H35.9041H36.1306C36.0629 135.208 35.9949 135.208 35.9271 135.203H35.3127L33.0087 135.229L24.9178 135.272H24.8257V135.18C24.8257 134.412 24.8257 133.613 24.8257 132.783V130.241L24.9217 130.145L36.0961 130.214H36.1652V130.284C36.1652 131.82 36.1345 133.044 36.1268 133.92C36.1268 134.331 36.1268 134.657 36.1268 134.899C36.1268 135.141 36.0961 135.233 36.0961 135.226Z" fill="#E0E0E0"/>
<path d="M92.3751 99.529C92.3717 99.4996 92.3717 99.47 92.3751 99.4407V99.1872C92.3751 98.953 92.3751 98.6304 92.3751 98.2157C92.3751 97.3594 92.3559 96.1344 92.3444 94.5869L92.402 94.6445L73.7204 94.6829C73.7626 94.6407 73.6244 94.7789 73.8126 94.5869V99.5213L73.7204 99.4291L87.0337 99.4714L90.962 99.4983H92.0257H92.3021H92.402H92.3137H92.0487H91.0042L87.099 99.5213L73.7204 99.5635H73.6244V94.5331L73.7204 94.4371L92.402 94.4755H92.4596V94.5331C92.4596 96.096 92.4366 97.3325 92.4289 98.1965C92.4289 98.6035 92.4289 98.9261 92.4289 99.1527V99.3984C92.4176 99.4444 92.3995 99.4884 92.3751 99.529Z" fill="#E0E0E0"/>
<path d="M94.9095 94.5869C94.904 94.5564 94.904 94.5252 94.9095 94.4947C94.9095 94.4218 94.9095 94.3373 94.9095 94.2298L94.8903 93.239C94.8903 92.375 94.8903 91.1501 94.8557 89.6448L94.9248 89.7139L83.6967 89.7408L83.7927 89.6448V92.1869C83.7927 93.0125 83.7927 93.815 83.7927 94.583L83.7005 94.4947L91.73 94.537L94.0724 94.56H94.7021H94.9287C94.8597 94.5651 94.7903 94.5651 94.7213 94.56H94.1108L91.8068 94.5869L83.7159 94.6291H83.6276V94.537C83.6276 93.769 83.6276 92.9664 83.6276 92.1408V89.5987C83.6276 89.6179 83.8119 89.4182 83.7236 89.5027L94.9517 89.5296H95.0208V89.5987C95.0208 91.1347 94.994 92.3597 94.9863 93.2352C94.9863 93.6461 94.9863 93.9725 94.9671 94.2106C94.9479 94.4486 94.9133 94.5907 94.9095 94.5869Z" fill="#E0E0E0"/>
<path d="M266.634 180.054C266.634 180.108 211.895 180.154 144.392 180.154C76.8884 180.154 22.1338 180.096 22.1338 180.054C22.1338 180.012 76.8615 179.954 144.392 179.954C211.922 179.954 266.634 180 266.634 180.054Z" fill="#263238"/>
<path d="M230.465 52.9267L227.432 52.297L231.272 33.8227C231.414 32.8541 231.202 31.8664 230.673 31.0426C225.838 24.3494 217.974 27.0682 216.768 32.8512L213.312 49.3632L210.278 48.7296L214.153 30.1363C214.353 29.1744 214.764 28.2691 215.357 27.486C215.95 26.7029 216.71 26.0617 217.582 25.609C227.351 20.5747 235.549 28.4006 233.879 36.4224L230.465 52.9267Z" fill="#E0E0E0"/>
<path d="M230.465 52.9267C230.465 52.9267 230.484 52.8115 230.531 52.5965C230.577 52.3814 230.638 52.055 230.723 51.6365L231.491 47.9616C231.821 46.368 232.22 44.4211 232.685 42.1594L233.453 38.5421C233.691 37.2595 234.086 35.9155 234.102 34.464C234.125 32.9445 233.802 31.4396 233.157 30.0634C233.073 29.8867 232.992 29.7024 232.904 29.5258L232.596 29.0074C232.387 28.66 232.158 28.3254 231.909 28.0051C231.786 27.8362 231.64 27.6902 231.506 27.5328C231.371 27.3754 231.241 27.2141 231.083 27.0758C230.785 26.7783 230.467 26.5012 230.131 26.2464C229.45 25.7133 228.704 25.2682 227.912 24.9216L227.293 24.6912L226.944 24.576L226.621 24.4915L225.972 24.3226C225.75 24.2726 225.527 24.2496 225.304 24.2112C223.452 23.9354 221.559 24.1773 219.836 24.9101C218.468 25.4914 217.243 26.3649 216.248 27.4694C215.253 28.5738 214.512 29.8825 214.076 31.3037C213.796 32.2829 213.615 33.3082 213.396 34.3296C212.544 38.4269 211.657 42.6701 210.755 47.0016C210.632 47.5814 210.513 48.1536 210.394 48.7334L210.336 48.6451L213.37 49.2787L213.285 49.3363C213.969 46.0531 214.641 42.839 215.29 39.7363C215.615 38.1773 215.936 36.6413 216.253 35.1283L216.722 32.8781C216.886 32.1348 217.155 31.4186 217.521 30.7507C218.261 29.4618 219.375 28.4281 220.715 27.7862C220.881 27.7133 221.038 27.625 221.211 27.5674L221.718 27.3907C222.057 27.2886 222.404 27.2103 222.755 27.1565C223.103 27.1036 223.454 27.0753 223.807 27.072C223.979 27.072 224.156 27.072 224.329 27.095H224.586L224.843 27.1373C225.519 27.2294 226.179 27.4169 226.802 27.6941C227.404 27.9714 227.968 28.325 228.48 28.7462C229.459 29.5727 230.204 30.6411 230.642 31.8451C231.065 32.972 231.188 34.1893 230.999 35.3779L230.93 35.8042C230.903 35.9424 230.872 36.0806 230.845 36.2189L230.673 37.0406C230.557 37.5821 230.446 38.112 230.339 38.6342C229.901 40.7155 229.498 42.6317 229.137 44.3558C228.407 47.8118 227.839 50.4998 227.462 52.3008L227.443 52.2739L229.747 52.7616L230.308 52.8845L230.492 52.9267L230.312 52.8922L229.755 52.7846L227.451 52.3162V52.2931L229.087 44.3443C229.444 42.6163 229.855 40.7002 230.273 38.615C230.381 38.0966 230.492 37.5629 230.603 37.0214C230.657 36.7526 230.715 36.4762 230.772 36.2035C230.803 36.0653 230.83 35.927 230.861 35.785C230.891 35.6429 230.903 35.5046 230.926 35.3664C231.11 34.1954 230.987 32.9966 230.569 31.8874C230.136 30.7031 229.4 29.6532 228.434 28.8422C227.928 28.4282 227.37 28.081 226.775 27.8093C226.163 27.5397 225.517 27.3562 224.855 27.264L224.602 27.2256H224.344C224.175 27.2256 224.006 27.2026 223.834 27.2256C223.139 27.2334 222.448 27.3395 221.783 27.5405L221.284 27.7171C221.118 27.7793 220.957 27.8511 220.8 27.9322C219.483 28.5618 218.39 29.5787 217.667 30.8467C217.311 31.501 217.052 32.2034 216.899 32.9318C216.745 33.6768 216.589 34.4269 216.43 35.1821C216.115 36.695 215.795 38.231 215.47 39.7901L213.469 49.3901V49.463H213.396L210.363 48.8294H210.294V48.7565C210.413 48.1843 210.532 47.6045 210.655 47.0246C211.561 42.6816 212.444 38.4384 213.3 34.3526C213.519 33.3274 213.684 32.3098 213.984 31.3114C214.296 30.3355 214.742 29.4076 215.309 28.5542C216.432 26.9041 218.008 25.6133 219.848 24.8371C221.593 24.0971 223.51 23.8539 225.385 24.1344C225.611 24.1728 225.838 24.1997 226.061 24.2458L226.829 24.4454L227.24 24.576L227.854 24.8064L228.138 24.9254C228.889 25.2659 229.597 25.6952 230.246 26.2042C230.583 26.4649 230.904 26.7458 231.206 27.0451C231.327 27.177 231.443 27.314 231.552 27.456C231.686 27.6173 231.836 27.7632 231.955 27.9322C232.208 28.2572 232.441 28.597 232.654 28.9498L232.961 29.472C233.053 29.6525 233.13 29.856 233.219 30.0173C233.866 31.4101 234.188 32.9321 234.159 34.4678C234.159 35.9347 233.741 37.2826 233.499 38.569C233.257 39.8554 232.973 41.065 232.731 42.1978C232.255 44.4595 231.84 46.4218 231.506 48C231.172 49.5782 230.907 50.8224 230.738 51.6595L230.534 52.608C230.492 52.823 230.465 52.9267 230.465 52.9267Z" fill="#263238"/>
<path d="M208.969 37.2278L236.07 42.8746C236.443 42.9523 236.77 43.175 236.978 43.4936C237.187 43.8122 237.261 44.2007 237.183 44.5735L232.901 65.1217C232.831 65.4607 232.628 65.7577 232.339 65.9475C232.049 66.1372 231.696 66.2041 231.357 66.1335L204.129 60.4601L208.969 37.2278Z" fill="#455A64"/>
<g opacity="0.3">
<path d="M208.984 37.2497L235.941 42.8667C236.352 42.9523 236.712 43.1976 236.942 43.5485C237.172 43.8995 237.253 44.3275 237.167 44.7382L232.945 65.0007C232.867 65.3775 232.642 65.7078 232.32 65.9187C231.998 66.1297 231.605 66.2041 231.228 66.1256L204.143 60.4819L208.984 37.2497Z" fill="black"/>
</g>
<path d="M209.2 37.2768L232.575 42.1473C232.98 42.2317 233.335 42.4734 233.561 42.8192C233.788 43.1651 233.868 43.5868 233.784 43.9916L229.65 63.8292C229.546 64.3277 229.249 64.7646 228.823 65.0436C228.397 65.3227 227.877 65.4211 227.379 65.3172L204.425 60.5344C204.218 60.4912 204.021 60.4076 203.846 60.2883C203.671 60.1691 203.521 60.0165 203.405 59.8393C203.289 59.6622 203.209 59.4639 203.169 59.2558C203.13 59.0477 203.132 58.8339 203.175 58.6265L207.371 38.4882C207.455 38.086 207.694 37.7331 208.037 37.5063C208.379 37.2794 208.797 37.197 209.2 37.2768Z" fill="#455A64"/>
<g opacity="0.3">
<path d="M222.57 50.0582C222.661 49.624 222.663 49.176 222.578 48.7408C222.492 48.3056 222.32 47.892 222.071 47.5246C221.823 47.1572 221.503 46.8434 221.131 46.6019C220.759 46.3603 220.342 46.1959 219.905 46.1184C219.063 45.9795 218.199 46.1672 217.489 46.643C216.78 47.1189 216.279 47.8472 216.088 48.6797C215.937 49.3877 216.022 50.1257 216.331 50.7806C216.64 51.4354 217.155 51.9709 217.797 52.3046L214.744 56.3405L220.316 57.6077L219.548 52.6733C220.268 52.6275 220.954 52.3471 221.5 51.8748C222.045 51.4025 222.421 50.7645 222.57 50.0582Z" fill="black"/>
</g>
<path d="M229.743 63.5328C229.705 63.5328 230.534 59.4778 231.594 54.4934C232.654 49.5091 233.549 45.4694 233.587 45.4771C233.626 45.4848 232.796 49.536 231.736 54.528C230.676 59.52 229.782 63.5405 229.743 63.5328Z" fill="#263238"/>
<path d="M227.854 41.9098C227.854 41.9482 224.271 41.2838 219.871 40.4275C215.47 39.5712 211.903 38.8454 211.91 38.807C211.918 38.7686 215.493 39.4291 219.898 40.2854C224.302 41.1418 227.862 41.856 227.854 41.9098Z" fill="white"/>
<path d="M215.616 50.4307C215.616 50.4307 215.57 50.3539 215.524 50.2003C215.458 49.9842 215.417 49.7614 215.401 49.536C215.34 48.7835 215.508 48.0302 215.881 47.3741C216.261 46.7221 216.826 46.198 217.505 45.8688C217.71 45.771 217.923 45.6938 218.143 45.6384C218.222 45.6136 218.305 45.602 218.388 45.6038C218.388 45.6307 218.047 45.6998 217.551 45.961C216.907 46.3003 216.373 46.8159 216.01 47.4475C215.648 48.0792 215.472 48.8008 215.505 49.5283C215.524 50.089 215.643 50.423 215.616 50.4307Z" fill="white"/>
<path d="M216.576 52.224C216.549 52.2547 216.372 52.1357 216.192 51.959C216.011 51.7824 215.873 51.6173 215.9 51.575C215.927 51.5328 216.104 51.6672 216.284 51.84C216.465 52.0128 216.603 52.224 216.576 52.224Z" fill="white"/>
<path d="M224.774 24.8601C224.774 24.8601 224.575 24.8601 224.214 24.8217C223.702 24.7897 223.188 24.7987 222.678 24.8486C220.997 25.0005 219.395 25.6265 218.056 26.6537C216.718 27.6808 215.698 29.067 215.117 30.6509C214.939 31.128 214.799 31.6185 214.698 32.1177C214.629 32.471 214.598 32.6707 214.587 32.6707C214.581 32.6222 214.581 32.5733 214.587 32.5248C214.587 32.4288 214.587 32.2867 214.637 32.1062C214.719 31.5988 214.847 31.1001 215.021 30.6163C215.585 28.9976 216.611 27.5793 217.972 26.536C219.332 25.4928 220.968 24.8702 222.678 24.7449C223.189 24.7037 223.704 24.7114 224.214 24.768C224.394 24.768 224.532 24.8141 224.628 24.8256C224.678 24.8301 224.728 24.8417 224.774 24.8601Z" fill="white"/>
<path d="M213.946 35.1514C213.936 34.8602 213.975 34.5695 214.061 34.2912C214.099 34.0039 214.185 33.7249 214.314 33.4656C214.326 33.7553 214.289 34.0449 214.203 34.3219C214.165 34.611 214.078 34.8915 213.946 35.1514Z" fill="white"/>
<path d="M23.2013 158.822L16.3008 168.192L27.9206 176.84C28.6886 175.688 24.3225 168.975 24.3225 168.975L28.992 163.154L23.2013 158.822Z" fill="#455A64"/>
<path d="M21.12 165.803C20.9834 165.754 20.8331 165.756 20.6983 165.811C20.5636 165.866 20.4539 165.968 20.3904 166.099C20.3364 166.235 20.3362 166.385 20.3897 166.521C20.4432 166.657 20.5465 166.767 20.6784 166.829C20.8232 166.88 20.9817 166.875 21.1235 166.817C21.2652 166.758 21.3803 166.649 21.4464 166.51C21.4888 166.363 21.4725 166.205 21.4009 166.07C21.3293 165.934 21.2079 165.832 21.0624 165.784" fill="white"/>
<path d="M16.2854 168.215L17.0188 167.209L27.8745 175.949C27.8745 175.949 28.2201 176.563 27.8745 176.882L16.2854 168.215Z" fill="#263238"/>
<path d="M24.576 169.06C24.5338 169.117 24.2304 168.933 23.808 168.906C23.3856 168.879 23.0669 169.01 23.04 168.948C23.0131 168.887 23.3357 168.622 23.8349 168.66C24.3341 168.699 24.6067 169.018 24.576 169.06Z" fill="#263238"/>
<path d="M25.4016 170.473C25.3708 170.538 25.056 170.45 24.6835 170.546C24.311 170.642 24.0691 170.857 24.0115 170.811C23.9539 170.765 24.1612 170.427 24.6259 170.308C25.0905 170.189 25.44 170.419 25.4016 170.473Z" fill="#263238"/>
<path d="M25.006 172.447C24.9445 172.42 25.0789 172.063 25.4553 171.875C25.8316 171.686 26.1887 171.748 26.1772 171.813C26.1657 171.878 25.8777 171.921 25.5743 172.093C25.2709 172.266 25.0674 172.481 25.006 172.447Z" fill="#263238"/>
<path d="M25.4745 167.616C25.4092 167.651 25.2096 167.378 24.8716 167.163C24.5337 166.948 24.2112 166.86 24.215 166.779C24.2188 166.698 24.599 166.683 25.006 166.944C25.4131 167.205 25.536 167.593 25.4745 167.616Z" fill="#263238"/>
<path d="M51.2946 119.601C51.502 120.776 51.8322 130.771 52.0434 136.043C52.2546 141.316 51.7286 143.908 51.1257 145.091C50.5228 146.273 27.7862 163.027 26.0543 167.04L20.2943 162.397C20.2943 162.397 28.7423 147.233 32.3442 144.476C35.9462 141.719 42.8774 139.188 42.8774 139.188L40.9074 110.315L50.35 109.801L51.2946 119.601Z" fill="#263238"/>
<path d="M30.1632 168.088L30.0634 179.712L44.544 179.912C44.4787 178.529 37.0253 175.645 37.0253 175.645L37.4093 168.192L30.1632 168.088Z" fill="#455A64"/>
<path d="M32.5555 174.973C32.4158 175.014 32.2958 175.104 32.2186 175.228C32.1414 175.351 32.1123 175.498 32.1369 175.642C32.1726 175.783 32.2607 175.905 32.3835 175.984C32.5062 176.062 32.6543 176.091 32.7974 176.064C32.945 176.02 33.0712 175.923 33.152 175.792C33.2327 175.661 33.2623 175.505 33.2352 175.354C33.1837 175.21 33.0784 175.092 32.9415 175.025C32.8047 174.957 32.6469 174.946 32.5017 174.993" fill="white"/>
<path d="M30.0594 179.754V178.506L43.9794 179.228C43.9794 179.228 44.6169 179.524 44.5363 179.977L30.0594 179.754Z" fill="#263238"/>
<path d="M37.2479 175.592C37.2479 175.665 36.8908 175.691 36.5414 175.914C36.1919 176.137 35.9999 176.429 35.9346 176.402C35.8694 176.375 35.9807 175.964 36.4108 175.703C36.8409 175.442 37.2786 175.526 37.2479 175.592Z" fill="#263238"/>
<path d="M38.784 176.256C38.784 176.325 38.4883 176.44 38.2464 176.736C38.0045 177.032 37.9277 177.35 37.8624 177.343C37.7971 177.335 37.751 176.939 38.0621 176.575C38.3731 176.21 38.784 176.175 38.784 176.256Z" fill="#263238"/>
<path d="M39.6095 178.072C39.5442 178.072 39.4521 177.731 39.6364 177.347C39.8207 176.963 40.1586 176.813 40.1855 176.87C40.2124 176.928 40.0089 177.135 39.8591 177.454C39.7094 177.773 39.6786 178.065 39.6095 178.072Z" fill="#263238"/>
<path d="M37.1558 173.883C37.1251 173.948 36.8025 173.844 36.3878 173.883C35.9731 173.921 35.6736 174.025 35.6198 173.963C35.566 173.902 35.8848 173.656 36.3571 173.637C36.8294 173.618 37.1904 173.829 37.1558 173.883Z" fill="#263238"/>
<path d="M52.3391 108.607C52.3391 109.286 53.4412 126.493 47.8156 138.943C47.8156 138.943 45.8687 142.836 45.5116 144.538C45.1545 146.239 37.8777 174.455 37.8777 174.455L29.4681 174.148C29.4681 174.148 28.1241 160.013 29.4681 151.83C30.8121 143.647 33.3081 144.607 33.3081 139.323C33.3081 134.039 32.0524 123.084 32.0524 123.084C32.0524 123.084 30.2169 120.092 29.5909 114.29C29.0802 109.578 31.2997 104.529 31.2997 104.529L33.4924 100.646L52.0434 99.6749L52.3391 108.607Z" fill="#263238"/>
<path d="M52.3392 108.607C52.3392 108.607 52.3392 108.407 52.3392 108.019C52.3392 107.631 52.3161 107.055 52.3008 106.299C52.2662 104.782 52.2086 102.547 52.1395 99.6595V99.6172H52.0934L33.5424 100.562H33.504L33.4809 100.596C32.8012 101.802 32.0524 103.119 31.2844 104.479C30.7133 105.857 30.2673 107.283 29.952 108.741C29.6036 110.276 29.4475 111.848 29.4873 113.422C29.6042 115.065 29.8611 116.695 30.2553 118.295C30.6356 119.974 31.2333 121.597 32.0332 123.122V123.083C32.352 125.948 32.6476 128.916 32.8972 131.973C33.0201 133.509 33.1276 135.045 33.2044 136.623C33.2428 137.391 33.2736 138.198 33.2774 138.993C33.2774 139.377 33.2774 139.787 33.2544 140.183C33.227 140.58 33.1783 140.974 33.1084 141.366C32.9513 142.154 32.6727 142.913 32.2828 143.616C31.8988 144.334 31.5148 145.044 31.1308 145.793C30.4354 147.313 29.9286 148.912 29.6217 150.555C28.9536 153.857 28.8192 157.29 28.7808 160.75C28.7808 165.316 28.9958 169.801 29.3721 174.136V174.228H29.4604L37.87 174.536H37.9507L37.9699 174.455C40.4083 165.005 42.6816 156.173 44.686 148.232L45.4118 145.294C45.5385 144.806 45.6192 144.323 45.7689 143.862C45.9187 143.401 46.0876 142.944 46.2643 142.499C46.6252 141.608 47.0323 140.744 47.4163 139.903L47.7158 139.277C47.8222 139.072 47.917 138.862 48 138.647C48.1728 138.221 48.3456 137.802 48.5184 137.384C49.7126 134.287 50.6013 131.08 51.1718 127.811C51.9942 123.152 52.4181 118.433 52.439 113.702C52.462 110.392 52.3276 108.595 52.3276 108.595C52.3276 108.595 52.3276 108.707 52.3276 108.925C52.3276 109.144 52.3276 109.478 52.3507 109.908C52.3737 110.772 52.3891 112.047 52.3507 113.702C52.3152 118.429 51.8874 123.144 51.072 127.799C50.4882 131.058 49.588 134.253 48.384 137.338L47.8694 138.593C47.7849 138.808 47.6889 139.012 47.5852 139.219C47.4816 139.427 47.3817 139.638 47.2819 139.849C46.8979 140.69 46.4908 141.554 46.1299 142.449C45.9494 142.898 45.7766 143.355 45.6268 143.823C45.4771 144.292 45.3888 144.787 45.2659 145.263C45.024 146.231 44.782 147.206 44.5324 148.201C42.4934 156.134 40.224 164.966 37.7932 174.417L37.8931 174.344L29.4835 174.033L29.5833 174.125C29.1993 169.797 28.9766 165.316 28.992 160.758C29.0304 157.302 29.1648 153.884 29.8291 150.605C30.135 148.977 30.6366 147.393 31.3228 145.885C31.6684 145.144 32.0908 144.442 32.4748 143.712C32.8622 142.99 33.1367 142.213 33.2889 141.408C33.3617 141.008 33.4117 140.604 33.4387 140.198C33.4387 139.814 33.4771 139.392 33.4617 138.996C33.4617 138.198 33.4272 137.403 33.3888 136.616C33.312 135.041 33.2006 133.49 33.0739 131.962C32.8179 128.89 32.5273 125.924 32.2022 123.064V123.041C31.402 121.536 30.8017 119.933 30.4166 118.272C30.0246 116.684 29.7677 115.065 29.6486 113.434C29.6073 111.875 29.7595 110.316 30.1017 108.795C30.4111 107.351 30.8467 105.938 31.4035 104.571L33.5923 100.685L33.5308 100.723L52.0819 99.7209L52.032 99.6787C52.1241 102.563 52.1932 104.797 52.2393 106.314C52.2662 107.082 52.2854 107.643 52.3008 108.035C52.3161 108.426 52.3392 108.607 52.3392 108.607Z" fill="#455A64"/>
<path d="M46.3065 73.3708C46.3065 73.3708 41.3146 72.4876 41.7792 78.912C42.071 82.752 43.2 89.3414 43.8259 93.5462C44.0409 95.0016 44.5171 97.6051 46.441 99.1334L60.2265 108.672L64.5773 103.469L52.2662 91.7452L50.3462 80.1484L46.3065 73.3708Z" fill="#455A64"/>
<path d="M46.894 50.2157C47.6853 50.8528 48.3113 51.6713 48.7191 52.6018C49.1268 53.5323 49.3043 54.5473 49.2364 55.5609C49.1596 56.544 48.887 57.6614 49.5282 58.4102C50.1695 59.159 51.3983 59.1321 52.005 59.8925C52.7154 60.791 52.1202 62.1273 52.389 63.2448C52.5261 63.7667 52.8443 64.2229 53.2868 64.5318C53.7293 64.8406 54.2672 64.982 54.8044 64.9305C53.5442 65.9618 52.0243 66.6261 50.4114 66.8505L49.1519 65.28C49.6204 65.8329 49.4937 66.7123 49.0444 67.2768C48.5563 67.8022 47.927 68.1755 47.2319 68.352C45.5776 68.8609 43.8282 68.9812 42.1198 68.7035C40.4114 68.4257 38.7902 67.7575 37.3823 66.7507" fill="#263238"/>
<path d="M28.4506 58.8825C28.6963 58.1145 29.111 57.4349 29.2762 56.663C29.6294 55.0003 28.8192 53.1264 29.6256 51.6288C30.2016 50.5651 31.4227 50.0429 32.5824 49.6857C33.7421 49.3286 34.9786 49.0291 35.8426 48.1805C36.4723 47.5584 36.8333 46.6982 37.463 46.0761C38.3616 45.1853 39.6902 44.8819 40.9498 44.8051C42.2503 44.6794 43.5613 44.8924 44.7552 45.4233C45.3481 45.6938 45.869 46.0999 46.2759 46.6089C46.6828 47.1179 46.9643 47.7154 47.0976 48.3533C47.1974 48.9753 47.1206 49.632 47.3203 50.2349C47.5354 50.8953 48.0538 51.4099 48.3763 52.0281C48.6994 52.6921 48.7928 53.4445 48.642 54.1673C48.4912 54.8901 48.1047 55.5424 47.543 56.0217L38.6419 67.5187C36.7718 68.2253 32.2406 67.3728 30.7968 65.9827C29.353 64.5926 27.8323 60.7833 28.4506 58.8825Z" fill="#263238"/>
<path d="M47.3087 54.5625C46.9247 51.9513 44.9548 48.8678 42.3628 49.344L34.3602 52.032C33.5922 52.1779 34.1375 53.4643 34.2143 54.2592L35.9538 72.3072C35.9538 72.3072 34.8709 73.0752 34.4869 72.9293C34.4651 72.9216 34.4414 72.921 34.4191 72.9274C34.3969 72.9339 34.3772 72.9471 34.3628 72.9653C34.3485 72.9835 34.3401 73.0057 34.339 73.0288C34.3378 73.0519 34.3439 73.0749 34.3564 73.0944C35.3279 74.496 39.8553 80.5901 44.5439 78.72C45.5884 78.3014 44.4325 75.0105 44.5439 73.7933L44.4057 70.679C44.302 69.0893 44.2521 68.4365 44.2521 68.4518C44.2521 68.4672 47.5621 67.6377 47.9193 63.2102C48.0997 61.0176 47.7157 57.4617 47.3087 54.5625Z" fill="#FFBF9D"/>
<path d="M46.752 58.5792C46.7639 58.7253 46.7184 58.8704 46.6253 58.9836C46.5321 59.0969 46.3985 59.1694 46.2528 59.1859C46.1818 59.1973 46.1093 59.1943 46.0394 59.1772C45.9696 59.1601 45.9039 59.1291 45.8463 59.0861C45.7887 59.0432 45.7402 58.9891 45.7038 58.9271C45.6675 58.865 45.6439 58.7964 45.6346 58.7251C45.6227 58.5789 45.6681 58.4339 45.7613 58.3206C45.8544 58.2074 45.988 58.1348 46.1338 58.1184C46.2047 58.107 46.2773 58.1099 46.3471 58.1271C46.4169 58.1442 46.4826 58.1752 46.5402 58.2181C46.5979 58.2611 46.6463 58.3152 46.6827 58.3772C46.7191 58.4392 46.7426 58.5079 46.752 58.5792Z" fill="#263238"/>
<path d="M41.2992 58.9209C41.3121 59.0667 41.2676 59.2118 41.175 59.3251C41.0825 59.4385 40.9492 59.5112 40.8038 59.5277C40.7329 59.5385 40.6605 59.5352 40.5909 59.5178C40.5213 59.5005 40.4558 59.4694 40.3983 59.4266C40.3408 59.3837 40.2924 59.3298 40.2558 59.2681C40.2193 59.2063 40.1954 59.1379 40.1856 59.0669C40.1737 58.9207 40.2191 58.7756 40.3123 58.6624C40.4055 58.5492 40.5391 58.4766 40.6848 58.4601C40.7555 58.4488 40.8279 58.4517 40.8975 58.4689C40.967 58.4861 41.0325 58.5171 41.0898 58.5601C41.1471 58.6031 41.1952 58.6572 41.2312 58.7192C41.2672 58.7812 41.2903 58.8498 41.2992 58.9209Z" fill="#263238"/>
<path d="M46.9516 56.7283C46.8902 56.832 46.3679 56.5017 45.7151 56.5977C45.0623 56.6937 44.6438 57.1392 44.5631 57.0585C44.4825 56.9779 44.5631 56.8435 44.7513 56.64C44.9875 56.3747 45.3106 56.2024 45.6625 56.1538C46.0143 56.1053 46.372 56.1837 46.6713 56.375C46.8863 56.5248 46.9823 56.6822 46.9516 56.7283Z" fill="#263238"/>
<path d="M41.088 57.216C41.0112 57.312 40.5004 56.9395 39.7977 56.9702C39.095 57.0009 38.5958 57.3965 38.5152 57.3081C38.4345 57.2198 38.5497 57.1008 38.7686 56.9241C39.0559 56.687 39.4138 56.5519 39.7862 56.5401C40.1568 56.5256 40.5216 56.635 40.823 56.8512C41.0419 57.0086 41.1225 57.1699 41.088 57.216Z" fill="#263238"/>
<path d="M43.2883 61.3517C43.5983 61.2251 43.9237 61.1399 44.256 61.0982C44.4057 61.0713 44.5517 61.0291 44.567 60.9216C44.569 60.761 44.5207 60.6039 44.4288 60.4723C44.256 60.1113 44.0755 59.7312 43.8835 59.3203C43.1155 57.696 42.5587 56.3597 42.624 56.3289C42.6893 56.2982 43.3613 57.5885 44.1216 59.2089C44.3059 59.6121 44.4825 59.9769 44.6477 60.3609C44.76 60.5391 44.8049 60.7516 44.7744 60.96C44.7568 61.0162 44.7265 61.0675 44.6859 61.1102C44.6453 61.1528 44.5954 61.1855 44.5401 61.2057C44.4569 61.2342 44.3705 61.2523 44.2829 61.2595C43.9561 61.3294 43.6223 61.3604 43.2883 61.3517Z" fill="#263238"/>
<path d="M44.2521 68.4595C42.1958 68.6483 40.1274 68.2628 38.2771 67.3459C38.2771 67.3459 39.9859 70.3027 44.3289 69.5577L44.2521 68.4595Z" fill="#FF9A6C"/>
<path d="M41.4489 63.1104C41.5174 62.9586 41.623 62.8265 41.7561 62.7264C41.9189 62.6489 42.1038 62.6313 42.2783 62.6764C42.5377 62.7143 42.7776 62.8356 42.9618 63.022C43.0522 63.1161 43.1159 63.2326 43.1463 63.3595C43.1767 63.4864 43.1726 63.6191 43.1346 63.744C43.0655 63.9974 42.6892 64.128 42.4319 64.1817C42.1654 64.2206 41.8936 64.1649 41.6639 64.0243C41.564 63.9788 41.4767 63.9095 41.4098 63.8225C41.3429 63.7354 41.2983 63.6333 41.2799 63.5251C41.2969 63.3739 41.3554 63.2304 41.4489 63.1104Z" fill="#FF9A6C"/>
<path d="M41.5719 62.2617C41.6679 62.2617 41.7216 62.903 42.3168 63.3254C42.912 63.7478 43.6032 63.6211 43.6147 63.7094C43.6263 63.7978 43.4727 63.8477 43.177 63.8784C42.7933 63.9135 42.4096 63.8115 42.0941 63.5904C41.7897 63.3803 41.58 63.059 41.5104 62.6957C41.472 62.4307 41.5258 62.2617 41.5719 62.2617Z" fill="#263238"/>
<path d="M41.0342 54.8544C40.9843 55.0195 40.3775 54.9888 39.6748 55.1308C38.9721 55.2729 38.4153 55.5148 38.3116 55.3651C38.2655 55.2998 38.35 55.1385 38.5689 54.9619C38.8621 54.7434 39.2015 54.5952 39.561 54.5286C39.9205 54.4621 40.2905 54.4789 40.6425 54.5779C40.9113 54.6547 41.0534 54.7737 41.0342 54.8544Z" fill="#263238"/>
<path d="M46.5792 54.528C46.4679 54.6739 45.984 54.5702 45.4272 54.6086C44.8704 54.647 44.3789 54.7814 44.256 54.647C44.2023 54.5817 44.256 54.4358 44.4672 54.2899C44.7449 54.1069 45.0679 54.0045 45.4003 53.9942C45.7306 53.9704 46.0609 54.041 46.3527 54.1977C46.5523 54.3129 46.6291 54.4512 46.5792 54.528Z" fill="#263238"/>
<path d="M32.59 52.6617C32.974 52.0396 33.719 51.7209 34.4102 51.456C37.3953 50.3033 40.5072 49.5105 43.6799 49.0944C44.0639 49.7433 43.7106 50.6304 43.1154 51.1027C42.5202 51.575 41.7522 51.7632 41.0418 52.0281C40.3314 52.2931 39.598 52.7078 39.3023 53.4105C39.0066 54.1132 39.2562 55.0387 38.9798 55.799C38.5074 57.1123 36.6758 57.5347 36.2188 58.8441C35.8655 59.8387 36.4415 60.8947 36.6028 61.9392C36.6766 62.4693 36.6364 63.009 36.485 63.5223C36.3336 64.0357 36.0744 64.5108 35.7248 64.916C35.3752 65.3212 34.9431 65.6472 34.4575 65.8722C33.9719 66.0972 33.4439 66.216 32.9087 66.2208C32.6937 62.4601 32.4774 58.702 32.2598 54.9465C32.1945 54.1632 32.1638 53.3184 32.59 52.6617Z" fill="#263238"/>
<path d="M25.0175 62.1581C25.6127 61.6243 26.3577 61.1635 26.5919 60.4032C26.9375 59.2934 26.0467 57.9917 26.6227 56.9817C27.1449 56.0601 28.6847 56.1101 29.1724 55.1693C29.5564 54.432 29.1148 53.783 29.2569 53.1379C29.399 52.4928 30.3206 51.9283 30.9734 52.0051L36.0959 59.4432C36.5721 61.9392 37.0521 63.2832 36.5183 64.727C36.1653 65.5044 35.8988 66.3183 35.7235 67.1539C35.6083 67.9987 35.8271 68.9549 36.5145 69.4579C33.4425 69.6998 30.5702 68.0947 27.9129 66.5395L25.1135 64.896C24.8071 64.7494 24.5429 64.5274 24.3455 64.2509C23.927 63.5673 24.4262 62.688 25.0175 62.1581Z" fill="#263238"/>
<path d="M27.8477 65.783C27.9548 65.8175 28.0657 65.8394 28.1779 65.8483C28.4982 65.8789 28.8214 65.8556 29.1341 65.7792C29.6331 65.6597 30.0923 65.4122 30.4665 65.0611C30.9608 64.5854 31.271 63.9502 31.3421 63.2678C31.3882 62.8721 31.3543 62.4712 31.2422 62.0889C31.1045 61.6815 30.9134 61.2941 30.6739 60.9369C30.4199 60.5744 30.2219 60.1757 30.0864 59.7542C30.0144 59.5388 29.9919 59.3099 30.0205 59.0845C30.0491 58.8592 30.128 58.6431 30.2515 58.4525C30.528 58.0685 31.0464 57.9878 31.5302 57.7958C31.7915 57.7019 32.0188 57.5321 32.183 57.3081C32.3342 57.0687 32.4079 56.7884 32.3942 56.5056C32.3278 55.9634 32.2108 55.4286 32.0448 54.9081C31.9858 54.6555 31.9858 54.3928 32.0448 54.1401C32.1124 53.8854 32.2691 53.6634 32.4864 53.5142C32.9536 53.2448 33.483 53.1019 34.0224 53.0995C34.5806 53.0811 35.1249 52.9212 35.6045 52.6349C36.0711 52.3504 36.4498 51.9424 36.6989 51.456C36.9032 50.9889 37.0328 50.4926 37.0829 49.9853C37.1361 49.5156 37.2365 49.0525 37.3824 48.6029C37.5441 48.194 37.7901 47.8237 38.1043 47.5161C38.6839 46.9662 39.4321 46.6279 40.2278 46.5561C40.8913 46.4994 41.5572 46.6326 42.1478 46.9401C42.592 47.1675 42.9925 47.4717 43.3305 47.8387C43.6131 48.1591 43.8579 48.5108 44.0601 48.887C44.0601 48.887 44.0601 48.8601 44.0333 48.8064C44.0017 48.7301 43.9658 48.6558 43.9257 48.5837C43.7791 48.3049 43.5999 48.0445 43.392 47.808C43.0542 47.4262 42.6511 47.1076 42.2016 46.8672C41.6048 46.5391 40.9266 46.3886 40.247 46.4333C39.4131 46.4943 38.6255 46.84 38.016 47.4125C37.6802 47.7368 37.4182 48.1297 37.248 48.5645C37.0957 49.0224 36.9902 49.4946 36.9331 49.9737C36.8798 50.4644 36.7503 50.9438 36.5491 51.3945C36.3149 51.8478 35.9618 52.2288 35.5277 52.4966C35.0701 52.765 34.5526 52.9142 34.0224 52.9305C33.4446 52.9293 32.877 53.0831 32.3789 53.376C32.1297 53.5455 31.9497 53.799 31.872 54.0902C31.8047 54.3743 31.8047 54.6702 31.872 54.9542C32.0346 55.4649 32.1503 55.9893 32.2176 56.5209C32.2334 56.7679 32.1716 57.0136 32.0409 57.2237C31.8926 57.4185 31.6913 57.5665 31.4611 57.6499C31.2345 57.7459 30.9888 57.8112 30.7507 57.911C30.5028 58.0046 30.2842 58.1623 30.1171 58.368C29.9815 58.58 29.8946 58.8195 29.8627 59.0692C29.8308 59.3189 29.8548 59.5725 29.9328 59.8118C30.0766 60.2468 30.2836 60.6583 30.5472 61.0329C30.7811 61.3725 30.9683 61.7418 31.104 62.1312C31.2128 62.4943 31.2493 62.8753 31.2115 63.2525C31.1486 63.9092 30.8578 64.5232 30.3897 64.9881C30.0314 65.3351 29.5897 65.5838 29.1072 65.7101C28.6963 65.8174 28.2682 65.8422 27.8477 65.783Z" fill="#455A64"/>
<path d="M23.7542 60.4953C23.704 60.5707 23.67 60.6557 23.6544 60.7449C23.6033 61.0083 23.6497 61.2812 23.7849 61.5129C23.8786 61.6783 24.0102 61.8191 24.1689 61.9238C24.3668 62.0435 24.5944 62.1047 24.8256 62.1004C25.1065 62.0943 25.3803 62.0112 25.6173 61.8602C25.8543 61.7092 26.0453 61.4961 26.1696 61.2441C26.3156 60.9549 26.3907 60.635 26.3885 60.311C26.3792 59.9628 26.3063 59.6192 26.1734 59.2972C25.9315 58.6329 25.4861 57.984 25.4784 57.2083C25.4639 57.0173 25.488 56.8253 25.5494 56.6439C25.6107 56.4625 25.708 56.2953 25.8355 56.1523C26.1468 55.8952 26.5469 55.771 26.9491 55.8067C27.3967 55.8394 27.8465 55.7926 28.2777 55.6684C28.5037 55.5765 28.6946 55.4151 28.823 55.2076C28.9466 55.0014 29.0239 54.7708 29.0496 54.5318C29.0717 54.0732 29.0343 53.6137 28.9382 53.1648C28.8695 52.7434 28.8944 52.3121 29.0112 51.9014C29.2288 51.1175 29.7387 50.4469 30.4358 50.0275C31.0976 49.6904 31.8322 49.5216 32.5747 49.536C33.2346 49.5375 33.8905 49.4338 34.5177 49.2288C35.0277 49.0416 35.4951 48.7544 35.8925 48.384C36.1967 48.1029 36.4558 47.7765 36.6605 47.4163C36.8406 47.1175 36.9642 46.7882 37.0253 46.4448C36.9109 46.769 36.7683 47.0825 36.599 47.3817C36.1152 48.1891 35.3701 48.8069 34.487 49.1328C33.865 49.323 33.2174 49.4163 32.567 49.4092C31.8029 49.3877 31.0454 49.5566 30.3629 49.9008C29.6298 50.3306 29.0886 51.0243 28.8499 51.84C28.727 52.2731 28.6995 52.7277 28.7693 53.1724C28.8591 53.6067 28.8965 54.0502 28.8806 54.4934C28.8715 54.7041 28.8048 54.9083 28.6876 55.0836C28.5705 55.259 28.4075 55.3989 28.2163 55.488C27.806 55.6044 27.3782 55.6473 26.9529 55.6147C26.5076 55.5757 26.0648 55.7137 25.7203 55.9987C25.5796 56.1588 25.4731 56.346 25.407 56.5486C25.341 56.7513 25.317 56.9653 25.3363 57.1776C25.3533 57.5762 25.4485 57.9677 25.6166 58.3296C25.7664 58.6752 25.9315 58.9977 26.0582 59.3203C26.1871 59.6261 26.2599 59.9526 26.2733 60.2841C26.2785 60.587 26.2128 60.8868 26.0813 61.1596C25.9698 61.395 25.796 61.5954 25.5787 61.7389C25.3614 61.8825 25.1089 61.9637 24.8486 61.9737C24.6352 61.9814 24.4238 61.9295 24.2381 61.824C24.0791 61.7312 23.9468 61.5989 23.8541 61.44C23.7195 61.2263 23.6638 60.9723 23.6966 60.7219C23.7158 60.5836 23.7657 60.4992 23.7542 60.4953Z" fill="#263238"/>
<path d="M56.0985 62.327C56.1898 62.5867 56.1898 62.8699 56.0985 63.1296C56.0478 63.2787 55.9642 63.4145 55.8538 63.5268C55.7435 63.6392 55.6092 63.7252 55.4611 63.7785C55.2635 63.8368 55.0536 63.8389 54.8549 63.7847C54.6562 63.7304 54.4765 63.6219 54.3359 63.4713C54.1747 63.294 54.0809 63.0657 54.071 62.8262C54.0636 62.5651 54.1039 62.3048 54.19 62.0582C54.3513 61.5398 54.6854 60.9753 54.6355 60.2957C54.6112 59.9511 54.5154 59.6153 54.354 59.3098C54.1927 59.0044 53.9694 58.7359 53.6985 58.5216C53.4148 58.2945 53.0902 58.1237 52.7423 58.0185C52.387 57.9201 52.0205 57.8671 51.6518 57.8611C51.2945 57.8581 50.9383 57.8209 50.5881 57.7497C50.2612 57.6823 49.9688 57.5014 49.7625 57.239C49.5799 56.9697 49.4773 56.6542 49.4668 56.3289C49.4497 56.012 49.4756 55.6943 49.5436 55.3843C49.7122 54.7995 49.8051 54.1956 49.8201 53.5872C49.7892 53.047 49.598 52.5283 49.271 52.0973C48.9944 51.7552 48.6557 51.4686 48.2726 51.2525C47.9927 51.0868 47.7245 50.902 47.47 50.6995C47.2613 50.5208 47.0914 50.3012 46.9708 50.0544C46.9708 50.0544 46.9708 50.0544 46.9708 50.1081C46.986 50.1601 47.0066 50.2103 47.0323 50.2579C47.128 50.4445 47.2583 50.6113 47.4163 50.7494C47.6652 50.9661 47.931 51.1626 48.2111 51.3369C48.5775 51.5549 48.9004 51.8387 49.1635 52.1741C49.4678 52.5873 49.6417 53.0821 49.6627 53.5949C49.6399 54.1895 49.5431 54.779 49.3747 55.3497C49.3004 55.6744 49.2707 56.0077 49.2863 56.3405C49.3007 56.6988 49.4151 57.046 49.6166 57.3427C49.8455 57.6389 50.1721 57.8444 50.5382 57.9225C50.8984 57.9965 51.2649 58.0364 51.6326 58.0416C51.988 58.0462 52.3415 58.0953 52.6847 58.1875C53.0106 58.2888 53.3151 58.4489 53.5833 58.6598C53.8357 58.8588 54.0441 59.1079 54.1955 59.3914C54.3468 59.675 54.4378 59.9868 54.4627 60.3072C54.5164 60.9254 54.2092 61.4592 54.0403 62.016C53.9515 62.2831 53.9125 62.5642 53.9251 62.8454C53.9418 63.1137 54.0518 63.3678 54.2361 63.5635C54.3938 63.7287 54.5949 63.8462 54.8163 63.9026C55.0376 63.959 55.2704 63.9519 55.4879 63.8822C55.6469 63.8206 55.7896 63.7235 55.9054 63.5984C56.0212 63.4733 56.1069 63.3235 56.1561 63.1603C56.2257 62.9602 56.2364 62.7442 56.1868 62.5382C56.1701 62.4631 56.1402 62.3916 56.0985 62.327Z" fill="#263238"/>
<path d="M52.4275 92.4057V88.1587C52.9037 85.7741 52.6771 82.9478 51.5674 80.7705C50.7623 79.3672 49.8723 78.0143 48.9024 76.7193L44.6784 71.232C42.3514 72.9254 38.7072 71.7005 35.5814 70.5638C35.5814 70.5638 32.5094 72.2726 31.0579 73.8777C29.5488 75.5673 34.7098 96.7065 34.7098 96.7065C32.3712 101.384 29.353 105.539 28.896 109.801L53.3184 110.742L52.2816 99.5443L52.4275 92.4057Z" fill="#455A64"/>
<path d="M52.0896 99.6633C52.0653 99.5045 52.0588 99.3435 52.0704 99.1833C52.0704 98.8339 52.0704 98.4153 52.0704 97.8816C52.0896 96.7296 52.1126 95.2435 52.1395 93.5884C52.1664 91.9334 52.2163 90.3936 52.27 89.2953C52.2969 88.7462 52.3238 88.3008 52.3468 87.9936C52.3495 87.8343 52.3701 87.6759 52.4083 87.5212C52.4238 87.6796 52.4238 87.8391 52.4083 87.9974C52.4083 88.3468 52.4083 88.7654 52.4083 89.2992C52.3891 90.4512 52.3622 91.9372 52.3353 93.5923C52.3084 95.2473 52.2624 96.7872 52.2086 97.8854C52.1817 98.4345 52.1548 98.88 52.128 99.1872C52.134 99.3468 52.1211 99.5067 52.0896 99.6633Z" fill="#263238"/>
<path d="M63.2447 103.526C63.2447 103.526 65.6255 103.657 67.0847 104.579C68.5439 105.5 70.9247 106.936 71.9039 108.714C72.3532 109.532 71.0745 109.705 70.4409 109.233C69.8073 108.76 68.8435 107.862 68.3635 107.754L67.8835 107.643C68.3217 108.635 68.81 109.604 69.3465 110.546C69.8419 111.314 70.2719 112.589 68.782 112.646C68.782 112.646 67.7798 113.952 66.766 112.984C66.766 112.984 65.975 114.171 64.7001 112.527C64.7001 112.527 63.9551 113.468 63.6479 113.107C63.3407 112.746 62.3231 112.178 62.0275 111.003C61.5838 109.635 61.0711 108.291 60.4915 106.975L63.2447 103.526Z" fill="#FFBF9D"/>
<path d="M116.548 70.5254C116.813 70.5254 127.715 69.3734 127.715 69.3734C127.715 69.3734 128.64 64.942 128.59 63.79C128.54 62.638 127.764 55.0156 127.764 55.0156L131.846 53.0956C131.846 53.0956 137.303 71.4969 136.113 73.0252C134.922 74.5536 132.683 75.9244 132.491 75.9321C132.299 75.9398 121.928 80.5401 114.712 78.1478C107.497 75.7555 116.548 70.5254 116.548 70.5254Z" fill="#FFBF9D"/>
<path d="M106.994 80.4595C108.599 82.0531 111.364 83.3779 115.979 82.2259C125.103 79.945 131.942 78.0019 134.661 76.5427C137.38 75.0835 136.32 68.5632 136.55 68.2675C137.238 67.3766 136.481 65.4643 135.502 65.1648C132.71 64.32 127.853 64.6541 127.607 64.9075C126.175 66.4128 127.48 68.2406 127.48 68.2406L115.45 69.8189C113.97 69.7495 112.488 69.8435 111.03 70.0992" fill="#455A64"/>
<path d="M111.03 70.0992L111.318 70.0377C111.51 70.0032 111.794 69.9533 112.17 69.9072C113.259 69.7701 114.357 69.7239 115.453 69.7689L127.48 68.1561L127.423 68.2905C127.028 67.7093 126.833 67.0148 126.87 66.3129C126.902 65.9499 127.021 65.5998 127.215 65.2915C127.313 65.1366 127.423 64.9901 127.546 64.8537C127.594 64.8181 127.647 64.7897 127.703 64.7693L127.841 64.7347C127.933 64.7117 128.022 64.704 128.11 64.6848C129.6 64.513 131.103 64.4821 132.599 64.5926C133.384 64.6405 134.165 64.7483 134.934 64.9152C135.126 64.9574 135.318 65.015 135.517 65.0649C135.722 65.1302 135.91 65.2404 136.066 65.3875C136.372 65.6776 136.605 66.0354 136.746 66.432C136.898 66.8292 136.953 67.2574 136.904 67.68C136.868 67.8999 136.786 68.1095 136.662 68.2944C136.627 68.3328 136.631 68.4365 136.627 68.5363V68.8435C136.654 69.6691 136.692 70.5101 136.669 71.3549C136.675 72.5541 136.479 73.7458 136.09 74.88C135.889 75.4482 135.545 75.9548 135.091 76.3507C134.856 76.5345 134.598 76.6868 134.323 76.8038C134.07 76.9382 133.801 77.0419 133.555 77.1648C132.503 77.6141 131.447 77.9827 130.406 78.3168C129.366 78.6509 128.344 78.9734 127.334 79.2691C123.318 80.4211 119.654 81.3542 116.605 82.1184C115.877 82.3109 115.139 82.4635 114.394 82.5753C113.726 82.6684 113.051 82.7044 112.378 82.6829C111.295 82.6597 110.227 82.4276 109.233 81.9993C108.609 81.7241 108.027 81.3621 107.505 80.9241C107.32 80.7754 107.148 80.6123 106.99 80.4365C106.99 80.4365 107.167 80.6054 107.531 80.8934C108.061 81.3155 108.645 81.6643 109.267 81.9302C110.256 82.3382 111.312 82.5558 112.381 82.5715C113.048 82.5875 113.715 82.5464 114.374 82.4486C115.114 82.3319 115.848 82.1755 116.571 81.9801C119.643 81.2121 123.275 80.2675 127.281 79.0925C128.283 78.7968 129.304 78.4819 130.353 78.1363C131.401 77.7907 132.442 77.4259 133.482 76.9843C133.736 76.8653 134.001 76.7616 134.25 76.6272C134.506 76.5143 134.748 76.3698 134.968 76.1971C135.397 75.8246 135.721 75.3468 135.909 74.8109C136.287 73.6917 136.476 72.517 136.466 71.3357C136.489 70.4947 136.466 69.6614 136.424 68.832V68.5171C136.424 68.4633 136.424 68.4096 136.424 68.352C136.421 68.3213 136.421 68.2905 136.424 68.2598C136.432 68.2361 136.442 68.213 136.454 68.1907L136.474 68.16C136.581 68.0025 136.652 67.8227 136.681 67.6339C136.726 67.2434 136.674 66.8479 136.531 66.4819C136.402 66.1152 136.189 65.7838 135.909 65.5142C135.773 65.3867 135.61 65.2909 135.433 65.2339C135.241 65.184 135.049 65.1302 134.861 65.0841C134.102 64.9196 133.332 64.8131 132.557 64.7654C131.076 64.6523 129.589 64.6805 128.114 64.8499C128.026 64.8499 127.937 64.8729 127.853 64.896L127.73 64.9229C127.703 64.9333 127.677 64.9462 127.653 64.9613C127.537 65.0873 127.433 65.2236 127.342 65.3683C127.159 65.6508 127.048 65.9738 127.019 66.3091C126.986 66.9691 127.167 67.6222 127.534 68.1715L127.611 68.2905H127.476L115.442 69.8265C114.352 69.7712 113.259 69.802 112.174 69.9187C111.79 69.9571 111.51 69.9993 111.318 70.0262C111.126 70.0531 111.03 70.0992 111.03 70.0992Z" fill="#263238"/>
<path d="M78.4561 82.6053L73.5557 73.801L166.242 22.2124C167.31 21.618 168.57 21.4722 169.746 21.807C170.921 22.1418 171.915 22.9299 172.51 23.9977L172.93 24.7526C173.524 25.8205 173.67 27.0807 173.335 28.2561C173 29.4314 172.212 30.4257 171.144 31.02L78.458 82.6086L78.4561 82.6053Z" fill="#21295C"/>
<path d="M156.178 36.0431L144.829 15.653C144.774 15.5543 144.739 15.4458 144.726 15.3336C144.713 15.2213 144.722 15.1077 144.753 14.999C144.784 14.8904 144.836 14.7889 144.906 14.7004C144.977 14.6119 145.064 14.538 145.162 14.4831L150.37 11.5847C150.468 11.5298 150.577 11.4948 150.689 11.4818C150.801 11.4688 150.915 11.4781 151.024 11.509C151.132 11.54 151.234 11.592 151.322 11.6622C151.411 11.7324 151.485 11.8193 151.54 11.918L162.889 32.308L156.178 36.0431Z" fill="#21295C"/>
<path d="M133.852 26.5484L142.123 41.4089C142.457 42.0093 143.215 42.2252 143.815 41.891L148.352 39.3661C148.952 39.0319 149.168 38.2743 148.834 37.6739L140.562 22.8133C140.228 22.2129 139.471 21.9971 138.87 22.3313L134.334 24.8562C133.734 25.1904 133.518 25.948 133.852 26.5484Z" fill="#21295C"/>
<path d="M141.155 25.6805L146.276 34.8807L156.697 29.0802L151.576 19.88L141.155 25.6805Z" fill="#21295C"/>
<path d="M164.886 22.9862C164.913 23.0323 146.723 33.2083 124.266 45.7113C101.81 58.2144 83.5623 68.3136 83.5623 68.2636C83.5623 68.2137 101.722 58.0416 124.186 45.5347C146.65 33.0278 164.859 22.9363 164.886 22.9862Z" fill="#263238"/>
<path d="M40.9189 99.6134C47.7541 111.901 62.1657 116.893 73.1097 110.807C84.0537 104.721 87.3945 89.8214 80.5593 77.5488C73.7241 65.2761 59.3164 60.2688 48.3685 66.3552C37.4207 72.4416 34.0876 87.3408 40.9189 99.6134ZM74.6303 80.8512C79.4188 89.4528 77.0802 99.8861 69.4079 104.152C61.7356 108.419 51.6402 104.92 46.8517 96.311C42.0633 87.7017 44.4018 77.2761 52.0703 73.006C59.7388 68.736 69.8418 72.2496 74.6303 80.8512Z" fill="#21295C"/>
<path d="M89.1578 65.0108L94.2151 74.0969C94.8876 75.3051 96.4122 75.7394 97.6204 75.0669L98.0297 74.839C99.2379 74.1666 99.6722 72.642 98.9997 71.4338L93.9425 62.3477C93.27 61.1395 91.7454 60.7052 90.5372 61.3776L90.1279 61.6055C88.9197 62.278 88.4854 63.8026 89.1578 65.0108Z" fill="#21295C"/>
<path d="M98.8704 59.6045L103.928 68.6906C104.6 69.8988 106.125 70.3331 107.333 69.6606L107.742 69.4328C108.95 68.7603 109.385 67.2357 108.712 66.0275L103.655 56.9414C102.983 55.7332 101.458 55.2989 100.25 55.9714L99.8404 56.1992C98.6322 56.8717 98.1979 58.3963 98.8704 59.6045Z" fill="#21295C"/>
<path d="M93.8342 62.208C93.8841 62.1811 95.0553 64.2432 96.4569 66.816C97.8585 69.3888 98.9529 71.4854 98.903 71.5123C98.853 71.5392 97.6818 69.4809 96.2802 66.9043C94.8786 64.3276 93.7842 62.208 93.8342 62.208Z" fill="#263238"/>
<path d="M89.3759 65.376C89.4258 65.3491 90.5702 67.319 91.9372 69.7689C93.3042 72.2189 94.3679 74.2349 94.3218 74.2617C94.2758 74.2886 93.1276 72.3187 91.7759 69.888C90.4242 67.4573 89.3298 65.4029 89.3759 65.376Z" fill="#263238"/>
<path d="M103.607 56.8588C103.657 56.832 104.851 58.8825 106.276 61.44C107.7 63.9974 108.814 66.0979 108.764 66.1248C108.714 66.1516 107.524 64.0972 106.099 61.5398C104.674 58.9824 103.561 56.8857 103.607 56.8588Z" fill="#263238"/>
<path d="M98.9184 59.6889C98.9645 59.662 100.136 61.7011 101.526 64.2432C102.916 66.7852 104.01 68.8512 103.96 68.8934C103.91 68.9356 102.747 66.8812 101.353 64.3392C99.959 61.7971 98.8685 59.7158 98.9184 59.6889Z" fill="#263238"/>
<path d="M126.77 45.8381C127.217 45.8907 127.668 45.7751 128.034 45.5136C128.401 45.2522 128.657 44.8637 128.753 44.4238C128.849 43.9839 128.777 43.5241 128.553 43.1339C128.328 42.7437 127.966 42.4511 127.538 42.3129C127.815 42.0293 127.996 41.6658 128.055 41.2738C128.113 40.8818 128.048 40.4812 127.866 40.1287C127.685 39.7761 127.397 39.4896 127.044 39.3096C126.691 39.1296 126.29 39.0653 125.898 39.1257C125.882 38.7358 125.765 38.3568 125.559 38.0253C125.353 37.6939 125.065 37.4214 124.723 37.2343C124.38 37.0472 123.995 36.9519 123.605 36.9577C123.215 36.9635 122.833 37.0701 122.496 37.2672C122.057 36.9081 121.51 36.7063 120.943 36.6938C120.376 36.6812 119.821 36.8588 119.366 37.1981C118.984 37.1252 118.589 37.1773 118.239 37.3467C117.889 37.5161 117.603 37.7938 117.423 38.1386C117.244 38.4834 117.18 38.877 117.241 39.2609C117.303 39.6448 117.487 39.9987 117.765 40.2701" fill="#263238"/>
<path d="M118.978 38.9875H119.362C121.299 38.9891 123.163 39.7198 124.585 41.0341C126.007 42.3484 126.881 44.1499 127.035 46.08C127.323 49.8009 127.592 53.9136 127.561 55.9104C127.488 60.0576 123.364 60.672 123.364 60.672L123.698 65.6409L113.664 65.3145L112.831 47.3049C112.477 43.008 114.678 39.2256 118.978 38.9875Z" fill="#FFBF9D"/>
<path d="M123.398 60.672C121.479 60.6667 119.601 60.111 117.988 59.0707C117.988 59.0707 119.316 62.2003 123.441 61.8393L123.398 60.672Z" fill="#FF9A6C"/>
<path d="M124.765 49.9776C124.766 50.1314 124.707 50.2796 124.6 50.3901C124.493 50.5007 124.347 50.5649 124.193 50.5689C124.118 50.5741 124.043 50.5644 123.972 50.5404C123.901 50.5163 123.835 50.4783 123.779 50.4287C123.722 50.379 123.676 50.3187 123.643 50.2512C123.61 50.1836 123.591 50.1102 123.587 50.0352C123.586 49.8812 123.646 49.7332 123.753 49.6223C123.859 49.5113 124.005 49.4459 124.159 49.44C124.234 49.4348 124.31 49.4446 124.381 49.4689C124.452 49.4932 124.518 49.5315 124.575 49.5816C124.631 49.6316 124.677 49.6924 124.71 49.7604C124.743 49.8284 124.762 49.9022 124.765 49.9776Z" fill="#263238"/>
<path d="M126.14 48.1113C126.067 48.1881 125.618 47.8579 124.988 47.8579C124.358 47.8579 123.886 48.1728 123.817 48.096C123.748 48.0192 123.859 47.9232 124.063 47.7734C124.338 47.5841 124.665 47.4848 125 47.4892C125.33 47.4879 125.652 47.5929 125.917 47.7888C126.109 47.9385 126.175 48.0806 126.14 48.1113Z" fill="#263238"/>
<path d="M119.04 49.7011C119.043 49.8573 118.984 50.0084 118.876 50.1213C118.768 50.2343 118.62 50.3 118.464 50.304C118.389 50.3092 118.314 50.2995 118.242 50.2754C118.171 50.2513 118.106 50.2134 118.049 50.1637C117.993 50.1141 117.947 50.0538 117.914 49.9862C117.881 49.9187 117.862 49.8452 117.857 49.7702C117.856 49.616 117.915 49.4674 118.022 49.3563C118.129 49.2451 118.275 49.18 118.429 49.175C118.504 49.1693 118.579 49.1783 118.65 49.2017C118.721 49.225 118.787 49.2622 118.844 49.3111C118.901 49.36 118.947 49.4196 118.981 49.4866C119.014 49.5535 119.035 49.6264 119.04 49.7011Z" fill="#263238"/>
<path d="M119.896 48.2112C119.823 48.288 119.374 47.9577 118.744 47.9577C118.115 47.9577 117.642 48.2726 117.573 48.1958C117.504 48.119 117.615 48.023 117.819 47.8733C118.094 47.684 118.422 47.5847 118.756 47.5891C119.086 47.5877 119.408 47.6927 119.674 47.8886C119.866 48.0384 119.931 48.1766 119.896 48.2112Z" fill="#263238"/>
<path d="M122.185 52.9305C122.52 52.8252 122.867 52.7633 123.218 52.7462C123.379 52.7462 123.533 52.7001 123.563 52.5888C123.577 52.4216 123.54 52.2542 123.456 52.1088L122.98 50.8723C122.319 49.1097 121.828 47.6621 121.912 47.639C121.997 47.616 122.577 49.0176 123.237 50.7763C123.395 51.2102 123.548 51.6249 123.694 52.0205C123.794 52.2173 123.822 52.4425 123.775 52.6579C123.751 52.7148 123.714 52.7654 123.667 52.806C123.621 52.8466 123.566 52.876 123.506 52.8921C123.417 52.9184 123.326 52.9313 123.233 52.9305C122.885 52.9741 122.533 52.9741 122.185 52.9305Z" fill="#263238"/>
<path d="M120.453 45.769C120.369 45.9302 119.827 45.7689 119.155 45.7305C118.483 45.6921 117.922 45.8189 117.861 45.6499C117.834 45.5693 117.953 45.4272 118.195 45.2966C118.507 45.1425 118.854 45.0711 119.201 45.0893C119.546 45.1015 119.881 45.2048 120.173 45.3888C120.392 45.5386 120.491 45.696 120.453 45.769Z" fill="#263238"/>
<path d="M126.179 45.4963C126.044 45.6384 125.518 45.4963 124.888 45.4963C124.259 45.4963 123.736 45.5923 123.602 45.4387C123.548 45.3657 123.633 45.2198 123.867 45.0854C124.19 44.9163 124.551 44.8354 124.915 44.8512C125.277 44.856 125.631 44.9582 125.94 45.1468C126.163 45.2774 126.236 45.4233 126.179 45.4963Z" fill="#263238"/>
<path d="M126.643 44.1984C126.643 44.1984 125.56 41.6064 124.312 40.9997C122.803 40.2624 122.15 41.9174 120.71 41.5104C119.27 41.1033 117.83 40.4006 116.356 41.5104C114.743 42.7238 115.496 43.5801 115.388 45.4157C114.966 52.8499 113.599 54.9465 113.226 51.4445C113.184 51.0605 112.12 50.7533 111.967 49.1405C111.767 47.04 111.694 44.4864 112.17 42.9965C112.554 41.7408 113.288 40.8729 114.574 39.9245C116.609 38.4192 119.397 38.3885 121.29 38.592C123.183 38.7955 126.824 40.9574 126.643 44.1984Z" fill="#263238"/>
<path d="M113.487 51.3293C113.483 51.1776 113.448 51.0283 113.384 50.8905C113.321 50.7527 113.23 50.6293 113.117 50.5277C113.004 50.4261 112.872 50.3484 112.729 50.2994C112.585 50.2504 112.433 50.231 112.282 50.2425C111.514 50.3155 110.65 50.7494 110.696 52.343C110.776 55.1693 113.599 54.5049 113.602 54.4205C113.606 54.336 113.533 52.512 113.487 51.3293Z" fill="#FFBF9D"/>
<path d="M112.954 53.376C112.954 53.376 112.907 53.4144 112.823 53.4528C112.708 53.5054 112.578 53.5123 112.458 53.472C112.272 53.3616 112.118 53.2034 112.013 53.0136C111.909 52.8239 111.857 52.6096 111.863 52.3929C111.848 52.1518 111.888 51.9104 111.978 51.6864C112.003 51.5978 112.048 51.5166 112.111 51.4497C112.174 51.3827 112.252 51.3322 112.339 51.3024C112.395 51.2852 112.456 51.2886 112.51 51.3117C112.564 51.3349 112.608 51.3765 112.635 51.4291C112.673 51.5059 112.658 51.5635 112.673 51.5673C112.689 51.5712 112.731 51.5174 112.704 51.4022C112.689 51.3321 112.648 51.2704 112.589 51.2294C112.55 51.2009 112.506 51.1804 112.459 51.1692C112.412 51.158 112.364 51.1563 112.316 51.1641C112.2 51.1902 112.093 51.2455 112.005 51.3249C111.917 51.4042 111.851 51.5049 111.813 51.6173C111.699 51.8646 111.648 52.1363 111.663 52.4083C111.698 52.9766 112.005 53.5027 112.431 53.6102C112.507 53.6303 112.587 53.6327 112.664 53.6174C112.741 53.6021 112.814 53.5695 112.877 53.5219C112.954 53.4451 112.965 53.376 112.954 53.376Z" fill="#FF9A6C"/>
<path d="M113.56 45.8534C113.906 46.1352 114.316 46.3266 114.755 46.4102C114.975 46.4447 115.2 46.3984 115.388 46.2798C115.577 46.1612 115.716 45.9784 115.78 45.7651C115.814 45.5693 115.78 45.3389 115.895 45.1891C116.01 45.0393 116.337 45.0662 116.571 45.0931C117.393 45.1814 118.356 44.2752 118.568 43.4765C118.674 43.6296 118.835 43.7364 119.018 43.7749C119.201 43.8134 119.391 43.7808 119.551 43.6838C119.812 43.5242 120.043 43.3202 120.234 43.0809C120.346 42.9286 120.492 42.8054 120.661 42.7218C120.83 42.6383 121.017 42.5968 121.206 42.6009C121.405 42.6696 121.611 42.7147 121.82 42.7353C122.204 42.7046 122.373 42.2707 122.431 41.9021C122.488 41.5334 122.534 41.1072 122.849 40.9075C123.172 40.7809 123.53 40.7714 123.859 40.8806C124.201 40.9344 124.627 40.8537 124.731 40.5197C124.745 40.4304 124.741 40.3392 124.719 40.2515C124.698 40.1637 124.658 40.0813 124.604 40.0089C124.376 39.6664 124.038 39.4111 123.647 39.2842C123.255 39.1574 122.832 39.1665 122.446 39.3101C122.31 38.8375 122.037 38.416 121.66 38.0994C121.284 37.7828 120.822 37.5854 120.333 37.5322C119.844 37.4791 119.351 37.5727 118.915 37.8011C118.48 38.0295 118.122 38.3823 117.888 38.8147C117.589 38.5408 117.228 38.3433 116.836 38.239C116.444 38.1347 116.033 38.1267 115.637 38.2157C115.242 38.3047 114.873 38.4881 114.564 38.7502C114.254 39.0123 114.013 39.3453 113.86 39.7209C113.514 39.6287 113.149 39.6402 112.81 39.754C112.471 39.8677 112.172 40.0788 111.952 40.3607C111.732 40.6427 111.599 40.9833 111.571 41.3399C111.543 41.6966 111.621 42.0537 111.794 42.3667C111.531 42.4967 111.305 42.6913 111.138 42.9325C110.971 43.1736 110.867 43.4533 110.838 43.7453C110.838 44.3289 111.395 44.8973 111.959 44.759C111.842 44.989 111.817 45.2551 111.89 45.5027C111.963 45.7502 112.128 45.9604 112.351 46.0902C112.575 46.2199 112.839 46.2593 113.09 46.2003C113.341 46.1412 113.56 45.9883 113.702 45.7728" fill="#263238"/>
<path d="M122.653 40.1395C122.653 40.1395 122.653 40.1395 122.653 40.1933C122.653 40.247 122.653 40.2777 122.634 40.343C122.594 40.5346 122.525 40.7187 122.427 40.8883C122.271 41.154 122.057 41.3811 121.801 41.5526C121.462 41.7834 121.058 41.898 120.649 41.879L120.695 41.8176C120.778 42.0711 120.757 42.3472 120.637 42.5856C120.51 42.8382 120.347 43.0711 120.154 43.2768C120.059 43.3967 119.952 43.5062 119.835 43.6032C119.626 43.7406 119.375 43.7994 119.127 43.7692C118.879 43.739 118.649 43.6216 118.479 43.4381L118.583 43.4073C118.543 43.7008 118.442 43.9826 118.287 44.2346C118.132 44.4866 117.925 44.7032 117.681 44.8704C117.412 45.07 117.086 45.1765 116.751 45.1737C116.438 45.1566 116.129 45.0879 115.837 44.9702L115.914 44.9357C115.766 45.2776 115.535 45.5772 115.242 45.8073C115.108 45.9219 114.951 46.0052 114.781 46.051C114.611 46.0968 114.432 46.1041 114.259 46.0723C113.962 46.0077 113.691 45.8577 113.478 45.6407C113.265 45.4238 113.12 45.1493 113.061 44.8512L113.126 44.8819C112.827 45.0367 112.485 45.0854 112.155 45.0201C111.909 44.9732 111.677 44.8693 111.479 44.7168C111.356 44.6199 111.249 44.5031 111.164 44.3712C111.133 44.3254 111.11 44.2748 111.095 44.2214C111.202 44.398 111.342 44.553 111.506 44.6784C111.702 44.8199 111.928 44.9133 112.166 44.951C112.48 45.0104 112.804 44.9588 113.084 44.8051L113.138 44.7744V44.8358C113.196 45.1133 113.334 45.3679 113.534 45.5684C113.735 45.7689 113.989 45.9066 114.267 45.9648C114.425 45.9924 114.588 45.9844 114.742 45.9412C114.897 45.898 115.04 45.8208 115.162 45.7152C115.437 45.4964 115.653 45.2127 115.791 44.8896L115.814 44.8397H115.868C116.146 44.9514 116.441 45.0163 116.74 45.0317C117.049 45.0342 117.351 44.9358 117.6 44.7513C117.83 44.5934 118.025 44.3892 118.171 44.1519C118.318 43.9145 118.414 43.6492 118.452 43.3728V43.2384L118.541 43.3421C118.641 43.4524 118.766 43.5366 118.906 43.5875C119.046 43.6383 119.196 43.6543 119.343 43.6339C119.481 43.6156 119.612 43.5656 119.727 43.488C119.838 43.3986 119.939 43.2968 120.027 43.1846C120.217 42.9887 120.377 42.7662 120.503 42.5241C120.56 42.4163 120.594 42.2983 120.605 42.177C120.615 42.0557 120.602 41.9335 120.564 41.8176L120.541 41.7485H120.614C121.007 41.7728 121.396 41.669 121.724 41.4528C121.976 41.2905 122.189 41.0741 122.346 40.8192C122.488 40.6126 122.592 40.3824 122.653 40.1395Z" fill="#455A64"/>
<path d="M122.177 55.0387C122.154 54.935 121.467 55.104 120.829 54.6355C120.192 54.167 120.088 53.4144 119.992 53.4336C119.896 53.4528 119.896 53.6333 119.965 53.9443C120.06 54.3501 120.295 54.7093 120.63 54.9581C120.949 55.196 121.348 55.3007 121.743 55.2499C122.039 55.2038 122.193 55.0848 122.177 55.0387Z" fill="#263238"/>
<path d="M143.474 162.478L146.2 171.767C146.2 171.767 156.568 172.113 157.233 173.783L139.392 179.712L134.546 165.408L143.474 162.478Z" fill="#455A64"/>
<path d="M140.433 172.831C140.279 172.94 140.17 173.102 140.129 173.287C140.087 173.471 140.114 173.664 140.206 173.829C140.309 173.987 140.469 174.099 140.653 174.143C140.836 174.186 141.03 174.158 141.193 174.063C141.356 173.947 141.47 173.774 141.514 173.578C141.557 173.383 141.526 173.178 141.427 173.003C141.302 172.85 141.122 172.75 140.925 172.726C140.729 172.701 140.53 172.754 140.371 172.873" fill="#E0E0E0"/>
<path d="M156.227 173.111C156.227 173.111 157.137 173.192 157.233 173.783L139.392 179.712L138.962 178.249L156.211 173.103" fill="#263238"/>
<path d="M146.458 171.579C146.484 171.667 146.074 171.851 145.728 172.274C145.382 172.696 145.286 173.138 145.194 173.13C145.102 173.123 145.068 172.577 145.482 172.074C145.897 171.571 146.45 171.494 146.458 171.579Z" fill="white"/>
<path d="M148.585 171.729C148.635 171.809 148.308 172.082 148.132 172.547C147.955 173.011 148.005 173.434 147.917 173.457C147.828 173.48 147.61 173.007 147.836 172.431C148.063 171.855 148.558 171.648 148.585 171.729Z" fill="white"/>
<path d="M150.394 173.614C150.321 173.66 150.056 173.265 150.121 172.715C150.186 172.166 150.528 171.836 150.589 171.898C150.651 171.959 150.482 172.282 150.436 172.75C150.39 173.219 150.478 173.568 150.394 173.614Z" fill="white"/>
<path d="M145.601 169.532C145.601 169.624 145.152 169.636 144.672 169.832C144.192 170.027 143.858 170.312 143.789 170.254C143.72 170.196 143.985 169.763 144.557 169.536C145.129 169.309 145.624 169.448 145.601 169.532Z" fill="white"/>
<path d="M101.871 162.559L97.989 171.429C97.989 171.429 105.704 178.341 105.147 180.061L87.6748 173.149L93.1545 159.08L101.871 162.559Z" fill="#455A64"/>
<path d="M92.8857 168.538C92.6978 168.523 92.5109 168.578 92.3608 168.692C92.2107 168.806 92.1078 168.971 92.0716 169.156C92.0501 169.343 92.1009 169.532 92.2137 169.683C92.3264 169.834 92.4926 169.937 92.6783 169.97C92.8778 169.985 93.0757 169.926 93.2344 169.804C93.393 169.682 93.5013 169.506 93.5385 169.309C93.5385 168.925 93.189 168.488 92.8127 168.541" fill="#E0E0E0"/>
<path d="M104.805 178.902C104.805 178.902 105.45 179.551 105.147 180.054L87.6748 173.142L88.2854 171.748L104.797 178.89" fill="#263238"/>
<path d="M98.304 171.452C98.2694 171.537 97.8278 171.406 97.2979 171.514C96.768 171.621 96.4032 171.898 96.3379 171.828C96.2726 171.759 96.5952 171.322 97.2364 171.203C97.8777 171.083 98.3577 171.379 98.304 171.452Z" fill="white"/>
<path d="M99.8399 172.934C99.8399 173.023 99.4022 173.023 98.9683 173.268C98.5343 173.514 98.3039 173.864 98.2003 173.829C98.0966 173.795 98.254 173.288 98.7955 172.992C99.3369 172.696 99.8707 172.854 99.8399 172.934Z" fill="white"/>
<path d="M100.017 175.538C99.9321 175.538 99.982 175.054 100.401 174.674C100.819 174.294 101.276 174.263 101.284 174.348C101.291 174.432 100.946 174.586 100.619 174.904C100.293 175.223 100.105 175.565 100.017 175.538Z" fill="white"/>
<path d="M98.9683 169.344C98.903 169.405 98.5574 169.137 98.0621 168.96C97.5667 168.783 97.1328 168.806 97.1174 168.718C97.1021 168.63 97.5821 168.465 98.1619 168.657C98.7417 168.849 99.0374 169.283 98.9683 169.344Z" fill="white"/>
<path d="M108.411 113.829L102.29 138.659C102.29 138.659 91.2498 157.244 89.3798 166.545L99.479 170.515C99.479 170.515 106.825 152.602 108.979 149.315C109.948 147.841 111.062 146.469 112.305 145.217C113.112 144.416 113.692 143.414 113.983 142.314L118.618 124.6L108.411 113.829Z" fill="#263238"/>
<path d="M105.803 109.859C105.803 109.859 106.656 116.509 113.057 119.459L126.543 141.423C126.543 141.423 127.599 148.566 129.615 154.583C131.631 160.6 135.706 172.197 135.706 172.197L146.799 168.05L139.73 143.881L138.578 135.498L127.572 107.466L118.118 101.798L105.803 109.859Z" fill="#263238"/>
<path d="M105.803 109.859L106.007 109.72L106.618 109.313L109.014 107.731L118.099 101.76L118.13 101.741L118.161 101.76L127.622 107.416V107.439L138.651 135.444V135.464C139.016 138.113 139.419 140.951 139.803 143.846C141.723 150.374 143.758 157.359 145.862 164.556C146.203 165.715 146.541 166.867 146.876 168.011L146.903 168.1L146.815 168.131L135.721 172.278L135.625 172.312L135.594 172.216C133.674 166.644 131.816 161.28 130.061 156.192C129.619 154.921 129.185 153.661 128.824 152.402C128.463 151.142 128.137 149.891 127.841 148.654C127.258 146.181 126.789 143.766 126.42 141.423V141.454L113.011 119.482L113.034 119.501C111.412 118.742 109.972 117.645 108.81 116.283C107.959 115.283 107.26 114.162 106.737 112.957C106.413 112.214 106.156 111.443 105.969 110.653C105.903 110.392 105.865 110.189 105.842 110.051C105.819 109.912 105.815 109.843 105.815 109.843C105.815 109.843 105.815 109.912 105.857 110.047C105.899 110.181 105.923 110.385 105.995 110.65C106.194 111.429 106.458 112.189 106.787 112.923C107.316 114.115 108.017 115.224 108.868 116.214C110.034 117.562 111.474 118.646 113.092 119.393L126.605 141.343V141.362C126.989 143.697 127.45 146.108 128.033 148.577C128.329 149.81 128.651 151.058 129.016 152.314C129.381 153.569 129.811 154.821 130.253 156.092C132.015 161.18 133.87 166.545 135.798 172.113L135.671 172.055L146.765 167.908L146.703 168.027C146.371 166.883 146.033 165.731 145.69 164.571L139.638 143.858C139.254 140.963 138.847 138.125 138.486 135.475V135.498L127.499 107.466L127.53 107.501L118.084 101.821H118.141L109.056 107.766L106.637 109.325L106.015 109.728L105.803 109.859Z" fill="#455A64"/>
<path d="M111.744 62.4077C111.744 62.4077 108.511 64.896 106.94 67.6761C105.059 71.0054 104.855 75.9398 104.797 83.6045C104.74 90.6931 105.8 92.663 105.393 95.3357C104.59 100.554 103.995 118.068 103.995 118.068C103.995 118.068 114.363 114.086 116.375 112.308L118.399 110.55L131.374 114.839L128.755 98.8953L126.958 79.0233L124.654 68.4825L124.27 64.3469L113.126 59.8694L111.744 62.4077Z" fill="#455A64"/>
<path d="M123.851 64.128C123.986 64.1549 123.533 65.0649 122.734 66.4013L122.699 66.455L122.638 66.432C121.513 65.9942 120.023 65.4451 118.395 64.8499C116.559 64.1817 114.9 63.5597 113.714 63.0758C113.119 62.8339 112.642 62.6304 112.316 62.4806C112.143 62.4136 111.976 62.3313 111.817 62.2349C111.999 62.2755 112.177 62.3347 112.347 62.4115L113.764 62.9453L118.464 64.6617C120.092 65.2569 121.578 65.8137 122.688 66.2899L122.596 66.3206C123.433 65.0112 123.928 64.1472 123.851 64.128Z" fill="#263238"/>
<path d="M137.261 55.8489C137.261 55.8489 136.439 54.5702 135.663 53.3913C134.888 52.2125 133.713 51.6326 133.524 51.0182C133.336 50.4038 132.303 47.6659 132.138 46.9862C131.995 46.328 131.928 45.6554 131.939 44.9817C131.939 44.9817 132.787 44.6208 133.194 45.8342C133.44 46.5638 134.223 49.0406 134.392 49.1635C134.561 49.2864 134.776 49.1059 134.776 49.1059C134.427 48.1785 134.126 47.2339 133.874 46.2758C133.835 45.8265 133.993 42.8467 133.993 42.8467C134.203 42.8043 134.422 42.8386 134.61 42.9436C134.797 43.0486 134.941 43.2172 135.014 43.4189C135.418 44.1869 135.433 46.1069 135.433 46.1069L136.043 48.2496L135.828 46.1299L136.136 42.2323C136.434 42.2748 136.712 42.4082 136.932 42.6144C137.152 42.8205 137.303 43.0893 137.364 43.3843C137.622 44.4365 137.28 45.9033 137.453 46.2144C137.626 46.5254 137.814 48.407 137.814 48.407C137.814 48.407 138.025 43.8374 138.513 43.7069C139 43.5763 139.4 44.0601 139.331 44.9817C139.261 45.9033 139.242 47.8541 139.496 48.7142C139.749 49.5744 142.349 52.9382 142.138 54.4128C142.008 55.3037 141.927 56.201 141.896 57.1008H137.441L137.261 55.8489Z" fill="#FFBF9D"/>
<path d="M121.636 67.3574C121.885 67.4534 132.526 70.0876 132.526 70.0876C132.526 70.0876 134.903 66.2476 135.252 65.134C135.602 64.0204 137.472 56.6016 137.472 56.6016L141.969 56.1792C141.969 56.1792 140.817 75.3369 139.188 76.3699C137.56 77.4028 134.964 77.9251 134.796 77.8675C134.627 77.8099 123.295 78.5971 117.324 73.8931C111.352 69.1891 121.636 67.3574 121.636 67.3574Z" fill="#FFBF9D"/>
<g opacity="0.3">
<path d="M114.01 77.4989C115.152 78.7915 116.675 79.6872 118.36 80.0563C121.183 80.6784 127.192 81.7805 127.192 81.7805L126.9 78.8314L113.844 77.4336" fill="black"/>
</g>
<path d="M109.271 73.4438C110.239 75.4867 112.389 77.6678 117.116 78.1632C126.474 79.1309 133.559 79.6454 136.619 79.1846C139.68 78.7238 140.897 72.2457 141.227 72.0461C142.18 71.447 142.118 69.3888 141.297 68.7744C138.962 67.0272 134.281 65.7024 133.966 65.8445C132.104 66.7699 132.71 68.9357 132.71 68.9357L120.845 66.3168C119.478 65.7483 118.052 65.3336 116.594 65.0803" fill="#455A64"/>
<path d="M116.594 65.0803C116.594 65.0803 116.694 65.0803 116.886 65.1187C117.078 65.1571 117.366 65.2032 117.734 65.2838C118.804 65.5266 119.853 65.858 120.868 66.2745L132.726 68.855L132.626 68.9625C132.45 68.282 132.504 67.5625 132.779 66.9158C132.931 66.5847 133.16 66.2949 133.448 66.071C133.593 65.9575 133.749 65.8573 133.912 65.7715C133.968 65.7548 134.026 65.7458 134.085 65.7446H134.227C134.323 65.7446 134.408 65.7753 134.5 65.7907C135.959 66.1358 137.382 66.6179 138.751 67.2307C139.472 67.5449 140.169 67.9119 140.836 68.3289C141.001 68.4365 141.166 68.5555 141.331 68.6707C141.502 68.8005 141.641 68.9672 141.738 69.1584C141.925 69.5355 142.023 69.9508 142.022 70.3718C142.032 70.7979 141.937 71.2198 141.746 71.6006C141.64 71.7971 141.49 71.9665 141.308 72.096C141.262 72.119 141.231 72.2189 141.193 72.311L141.093 72.599C140.84 73.367 140.586 74.1888 140.279 74.9798C139.877 76.1142 139.287 77.1733 138.536 78.1133C138.263 78.4705 137.916 78.7636 137.517 78.972C137.119 79.1803 136.68 79.2988 136.232 79.319C135.944 79.3613 135.656 79.3689 135.371 79.392C134.219 79.4611 133.114 79.4457 132.019 79.415C130.925 79.3843 129.853 79.3267 128.813 79.2614C124.639 78.9926 120.895 78.6125 117.754 78.2861C117.003 78.2204 116.257 78.1127 115.519 77.9635C114.863 77.8233 114.221 77.6281 113.599 77.3798C112.59 76.9881 111.666 76.4067 110.876 75.6672C110.383 75.1953 109.959 74.6562 109.617 74.0659C109.494 73.8634 109.387 73.6515 109.298 73.4323C109.298 73.4323 109.405 73.6512 109.651 74.0467C110.006 74.6222 110.436 75.1478 110.93 75.6096C111.719 76.333 112.639 76.8987 113.641 77.2762C114.264 77.5167 114.906 77.7055 115.561 77.8406C116.297 77.9818 117.041 78.0831 117.788 78.144C120.929 78.455 124.673 78.8198 128.84 79.0809C129.884 79.1424 130.952 79.1961 132.042 79.223C133.133 79.2499 134.25 79.2653 135.379 79.2C135.659 79.1731 135.947 79.1654 136.228 79.1232C136.508 79.1084 136.784 79.0555 137.05 78.9657C137.58 78.7612 138.048 78.4224 138.409 77.9827C139.144 77.0609 139.721 76.0226 140.114 74.9107C140.421 74.1427 140.671 73.3325 140.924 72.5414L141.032 72.2419C141.032 72.1958 141.07 72.1459 141.093 72.0922C141.107 72.0625 141.124 72.0342 141.143 72.0077C141.158 71.9892 141.174 71.9724 141.193 71.9577L141.22 71.9347C141.379 71.8244 141.511 71.6784 141.604 71.5085C141.783 71.1517 141.87 70.7556 141.857 70.3565C141.858 69.968 141.77 69.5844 141.6 69.2352C141.516 69.0703 141.397 68.926 141.25 68.8128C141.085 68.7014 140.928 68.5824 140.763 68.4787C140.105 68.0647 139.417 67.7014 138.705 67.392C137.351 66.7819 135.943 66.3011 134.5 65.9558C134.411 65.9558 134.323 65.9174 134.239 65.9097H134.112H134.027C133.876 65.9905 133.732 66.0843 133.597 66.1901C133.33 66.3918 133.115 66.6553 132.971 66.9581C132.717 67.5655 132.665 68.2386 132.822 68.8781L132.856 69.0125L132.722 68.9817L120.883 66.3322C119.877 65.909 118.84 65.5649 117.78 65.303C117.396 65.2147 117.131 65.1533 116.939 65.1149C116.747 65.0765 116.594 65.0803 116.594 65.0803Z" fill="#263238"/>
<path d="M136.619 72.6413C136.347 72.5736 136.087 72.4607 135.851 72.3072C135.263 71.9787 134.72 71.5732 134.239 71.1014C133.755 70.6314 133.331 70.1025 132.979 69.527C132.819 69.2913 132.696 69.0322 132.614 68.759C133.141 69.5347 133.73 70.2655 134.377 70.944C135.072 71.5756 135.823 72.1436 136.619 72.6413Z" fill="#263238"/>
<path d="M53.0764 104.267C53.0764 104.267 55.4572 104.394 56.9164 105.32C58.3756 106.245 60.7564 107.674 61.7356 109.455C62.1849 110.273 60.9062 110.446 60.2764 109.97C59.6466 109.494 58.6751 108.603 58.1951 108.491L57.7151 108.384C58.1528 109.375 58.6411 110.342 59.1782 111.283C59.6735 112.051 60.1036 113.326 58.6175 113.387C58.6175 113.387 57.6114 114.693 56.5977 113.725C56.5977 113.725 55.8066 114.908 54.5318 113.268C54.5318 113.268 53.7906 114.205 53.4796 113.848C53.1686 113.491 52.1548 112.919 51.8591 111.744C51.4179 110.375 50.9052 109.031 50.3231 107.716L53.0764 104.267Z" fill="#FFBF9D"/>
<path d="M32.8166 72.96C31.5962 73.353 30.5429 74.144 29.8253 75.2064C28.9113 76.6118 28.631 79.0464 28.8921 80.8588C29.4451 84.6796 31.1961 91.127 32.183 95.2665C32.5209 96.695 33.216 99.2524 35.255 100.608L49.8048 109.332L53.6947 103.572L40.4313 92.7628L37.8086 77.9481L32.8166 72.96Z" fill="#455A64"/>
<path d="M30.3014 87.5212C30.3213 87.5696 30.3368 87.6198 30.3475 87.671L30.4703 88.1203C30.574 88.5273 30.72 89.111 30.912 89.8598C31.296 91.3958 31.8412 93.5769 32.5209 96.2918C32.9155 97.7706 33.7514 99.094 34.9171 100.086C35.583 100.619 36.2949 101.092 37.0444 101.499L39.383 102.912L49.8624 109.24L49.728 109.271L51.1295 107.194L53.6179 103.496L53.6371 103.63L40.4927 92.8051H40.4697V92.7782C39.6019 89.1264 38.9721 86.135 38.5727 84.0537C38.3769 83.0131 38.2387 82.2028 38.1503 81.6499C38.1119 81.3811 38.0812 81.1699 38.0582 81.0201C38.0352 80.8704 38.0313 80.8051 38.0313 80.8051C38.0522 80.8744 38.0688 80.9449 38.0812 81.0163C38.1081 81.166 38.1465 81.3734 38.1926 81.6422C38.2963 82.1913 38.446 83.0016 38.6611 84.0384C39.0796 86.112 39.7324 89.0956 40.6195 92.7436L40.5926 92.7014L53.76 103.476L53.8291 103.534L53.7792 103.607L51.2908 107.305L49.8892 109.382L49.8393 109.459L49.7548 109.413L39.2908 103.066L36.9561 101.649C36.2016 101.237 35.4846 100.761 34.8134 100.224C33.6275 99.2083 32.7818 97.8532 32.3903 96.3417C31.7337 93.6192 31.2076 91.4188 30.8543 89.8944C30.6815 89.1264 30.5433 88.5542 30.4473 88.1472L30.336 87.6748C30.3208 87.6245 30.3093 87.5732 30.3014 87.5212Z" fill="#263238"/>
<path d="M30.5394 75.0067C30.6298 74.9474 30.7299 74.9045 30.8351 74.88C31.1138 74.7939 31.3989 74.7297 31.6876 74.688C32.6507 74.5395 33.6363 74.6728 34.5254 75.072C35.3846 75.52 36.1145 76.1811 36.645 76.992C36.8059 77.237 36.9349 77.5016 37.029 77.7792C37.0703 77.878 37.0937 77.9833 37.0981 78.0902C36.9322 77.7377 36.741 77.3976 36.526 77.0726C35.9794 76.3159 35.2642 75.6967 34.437 75.264C33.5791 74.8838 32.6356 74.738 31.7029 74.8416C30.9849 74.8992 30.5509 75.0413 30.5394 75.0067Z" fill="#263238"/>
</svg>
