<svg width="388" height="200" viewBox="0 0 388 200" fill="none" xmlns="http://www.w3.org/2000/svg">
<g clip-path="url(#clip0_497_389)">
<path d="M193.538 178.764C300.427 178.764 387.077 176.34 387.077 173.351C387.077 170.361 300.427 167.937 193.538 167.937C86.6501 167.937 0 170.361 0 173.351C0 176.34 86.6501 178.764 193.538 178.764Z" fill="#E6E6E6" fill-opacity="0.1"/>
<path d="M296.681 114.69C296.436 114.693 296.192 114.697 295.944 114.697C295.696 114.697 295.452 114.693 295.208 114.69C282.252 114.395 272.862 106.301 275.252 97.8078L281.08 77.089L282.553 71.8466L308.665 72.2918L310.252 77.4205L316.499 97.6069C319.143 106.147 309.753 114.395 296.681 114.69Z" fill="#3F3D56"/>
<path opacity="0.2" d="M310.252 77.4205C305.8 79.9655 300.749 81.2765 295.621 81.2182C290.493 81.16 285.474 79.7345 281.081 77.089L282.554 71.8466L308.665 72.2918L310.252 77.4205Z" fill="black"/>
<path d="M309.15 98.4953C310.278 94.2913 313.985 88.2269 324.382 80.9151C342.514 68.1612 331.698 58.5983 331.229 58.1976C330.246 57.3572 330.391 56.4135 331.567 56.0911C332.25 55.9545 332.954 55.9656 333.632 56.1235C334.311 56.2814 334.947 56.5825 335.5 57.0066C336.087 57.4922 349.632 69.0589 329.171 83.4484C310.757 96.4004 314.672 104.855 314.717 104.936C315.21 105.841 314.419 106.564 312.948 106.554C311.477 106.545 309.883 105.804 309.388 104.901C309.284 104.71 308.099 102.409 309.15 98.4953Z" fill="#3F3D56"/>
<path d="M283.893 117.71C283.497 117.71 283.105 117.632 282.74 117.48C282.374 117.329 282.042 117.107 281.762 116.827C281.482 116.547 281.26 116.215 281.109 115.85C280.958 115.484 280.88 115.092 280.88 114.697V101.641C280.88 100.842 281.197 100.075 281.762 99.5104C282.327 98.9454 283.093 98.6279 283.893 98.6279C284.692 98.6279 285.458 98.9454 286.023 99.5104C286.588 100.075 286.905 100.842 286.905 101.641V114.697C286.905 115.092 286.828 115.484 286.676 115.85C286.525 116.215 286.303 116.547 286.023 116.827C285.743 117.107 285.411 117.329 285.046 117.48C284.68 117.632 284.288 117.71 283.893 117.71V117.71Z" fill="#3F3D56"/>
<path d="M286.534 86.7143C286.369 87.0738 286.134 87.3971 285.844 87.6659C285.554 87.9347 285.213 88.1437 284.842 88.2809C284.471 88.4181 284.077 88.4809 283.681 88.4657C283.286 88.4505 282.897 88.3575 282.538 88.1921L270.677 82.7351C269.952 82.4006 269.389 81.7919 269.113 81.0428C268.836 80.2937 268.868 79.4655 269.202 78.74C269.536 78.0146 270.144 77.4514 270.893 77.174C271.642 76.8967 272.47 76.9279 273.196 77.2609L285.056 82.7179C285.416 82.8833 285.739 83.1178 286.008 83.4082C286.277 83.6985 286.486 84.0389 286.623 84.41C286.76 84.7811 286.823 85.1756 286.808 85.571C286.793 85.9664 286.7 86.3549 286.534 86.7143V86.7143Z" fill="#3F3D56"/>
<path d="M305.354 86.7143C305.519 87.0738 305.754 87.3971 306.044 87.6659C306.335 87.9347 306.675 88.1437 307.046 88.2809C307.417 88.4181 307.812 88.4809 308.207 88.4657C308.603 88.4504 308.991 88.3575 309.35 88.1921L321.211 82.7351C321.937 82.4011 322.501 81.7924 322.778 81.043C323.055 80.2935 323.023 79.4646 322.689 78.7387C322.355 78.0128 321.746 77.4493 320.997 77.1721C320.247 76.895 319.419 76.9269 318.693 77.2609L306.832 82.7179C306.472 82.8833 306.149 83.1178 305.88 83.4082C305.611 83.6985 305.402 84.0389 305.265 84.41C305.128 84.7811 305.065 85.1756 305.08 85.571C305.096 85.9664 305.189 86.3549 305.354 86.7143V86.7143Z" fill="#3F3D56"/>
<path d="M307.996 117.71C308.391 117.71 308.783 117.632 309.149 117.48C309.514 117.329 309.846 117.107 310.126 116.827C310.406 116.547 310.628 116.215 310.779 115.85C310.931 115.484 311.009 115.092 311.009 114.697V101.641C311.009 100.842 310.691 100.075 310.126 99.5104C309.561 98.9454 308.795 98.6279 307.996 98.6279C307.197 98.6279 306.43 98.9454 305.865 99.5104C305.3 100.075 304.983 100.842 304.983 101.641V114.697C304.983 115.092 305.061 115.484 305.212 115.85C305.364 116.215 305.585 116.547 305.865 116.827C306.145 117.107 306.477 117.329 306.843 117.48C307.208 117.632 307.6 117.71 307.996 117.71V117.71Z" fill="#3F3D56"/>
<path d="M320.587 33.1859C320.847 32.858 321.035 32.4786 321.138 32.0727C321.241 31.6668 321.257 31.2437 321.185 30.8313L319.545 21.1848L317.905 11.5383C317.817 11.0174 317.593 10.5291 317.256 10.1223C316.919 9.71549 316.48 9.4046 315.985 9.22086C315.49 9.03711 314.955 8.98699 314.434 9.07552C313.913 9.16406 313.425 9.38814 313.018 9.72524L305.484 15.9686L300.945 19.7299C297.917 19.1917 294.823 19.145 291.781 19.5918L287.409 15.9686L279.875 9.72524C279.468 9.38814 278.98 9.16407 278.459 9.07553C277.938 8.98699 277.403 9.03712 276.908 9.22086C276.412 9.40461 275.974 9.7155 275.637 10.1223C275.3 10.5291 275.076 11.0175 274.987 11.5383L273.347 21.1848L271.708 30.8313C271.62 31.3383 271.665 31.8593 271.839 32.3436C269.029 36.6517 267.424 41.634 267.192 46.7723C266.96 51.9106 268.109 57.0172 270.52 61.561C272.93 66.1047 276.514 69.9196 280.899 72.6087C285.283 75.2979 290.308 76.7631 295.451 76.852C300.594 76.9408 305.667 75.6501 310.141 73.114C314.616 70.5779 318.33 66.8891 320.896 62.4314C323.462 57.9736 324.787 52.9098 324.732 47.7665C324.678 42.6232 323.247 37.5885 320.587 33.1859V33.1859Z" fill="#3F3D56"/>
<path d="M279.12 13.6783C278.941 13.6785 278.764 13.7107 278.596 13.7733C278.35 13.8628 278.133 14.0163 277.965 14.218C277.798 14.4196 277.688 14.6621 277.645 14.9206L275.657 26.6188C275.613 26.8767 275.638 27.1415 275.729 27.3868C275.82 27.632 275.974 27.849 276.175 28.0158C276.377 28.1827 276.618 28.2937 276.876 28.3375C277.134 28.3813 277.399 28.3565 277.644 28.2655L288.769 24.1384C289.015 24.0475 289.232 23.8936 289.398 23.6922C289.565 23.4908 289.676 23.2491 289.72 22.9912C289.764 22.7334 289.739 22.4686 289.648 22.2234C289.557 21.9782 289.403 21.7612 289.202 21.5943L289.202 21.594L280.065 14.023C279.8 13.8009 279.466 13.6789 279.12 13.6783V13.6783Z" fill="#E6E6E6"/>
<path d="M313.773 13.6783C313.427 13.6789 313.092 13.8009 312.827 14.023L303.691 21.5943C303.489 21.7612 303.335 21.9782 303.244 22.2234C303.154 22.4686 303.129 22.7334 303.173 22.9912C303.216 23.2491 303.327 23.4908 303.494 23.6922C303.661 23.8936 303.878 24.0475 304.123 24.1384L315.248 28.2655C315.494 28.3565 315.758 28.3813 316.016 28.3375C316.274 28.2937 316.516 28.1827 316.717 28.0158C316.919 27.849 317.073 27.632 317.164 27.3868C317.255 27.1415 317.279 26.8767 317.236 26.6188L315.247 14.9206C315.205 14.6621 315.094 14.4196 314.927 14.218C314.76 14.0163 314.542 13.8628 314.296 13.7733C314.129 13.7107 313.952 13.6785 313.773 13.6783Z" fill="#E6E6E6"/>
<path d="M295.944 56.1126C298.163 56.1126 299.961 54.314 299.961 52.0954C299.961 49.8767 298.163 48.0782 295.944 48.0782C293.726 48.0782 291.927 49.8767 291.927 52.0954C291.927 54.314 293.726 56.1126 295.944 56.1126Z" fill="#E6E6E6"/>
<path d="M295.944 51.0911C297.423 51.0911 298.622 50.6414 298.622 50.0868C298.622 49.5321 297.423 49.0825 295.944 49.0825C294.465 49.0825 293.266 49.5321 293.266 50.0868C293.266 50.6414 294.465 51.0911 295.944 51.0911Z" fill="#3F3D56"/>
<path d="M293.936 54.4387H297.618V58.9581C297.618 59.1999 297.57 59.4393 297.478 59.6627C297.385 59.8861 297.25 60.089 297.079 60.26C296.908 60.431 296.705 60.5666 296.481 60.6591C296.258 60.7517 296.019 60.7993 295.777 60.7993V60.7993C295.288 60.7993 294.82 60.6053 294.475 60.26C294.13 59.9147 293.936 59.4464 293.936 58.9581V54.4387H293.936Z" fill="#FF6584"/>
<path d="M296.168 8.87262C295.975 9.27306 295.787 9.67783 295.611 10.0909C293.533 14.9362 292.832 20.2607 293.586 25.4785C293.963 24.9317 294.359 24.3619 294.762 23.7859C293.899 18.7781 294.384 13.6309 296.168 8.87262V8.87262Z" fill="#3F3D56"/>
<path d="M299.181 12.5551C298.987 12.9555 298.8 13.3603 298.624 13.7733C296.546 18.6186 295.845 23.9431 296.599 29.161C296.976 28.6141 297.372 28.0444 297.775 27.4684C296.912 22.4606 297.397 17.3134 299.181 12.5551V12.5551Z" fill="#3F3D56"/>
<path d="M308.47 84.8487L308.045 79.451L307.621 74.0532C307.598 73.7618 307.499 73.4815 307.333 73.2405C307.167 72.9996 306.941 72.8065 306.678 72.6806C306.414 72.5547 306.121 72.5005 305.83 72.5235C305.538 72.5464 305.258 72.6456 305.017 72.8112L300.555 75.8776L297.296 78.1168C297.088 77.873 296.829 77.6772 296.538 77.543C296.247 77.4087 295.93 77.3392 295.609 77.3392C295.289 77.3392 294.972 77.4087 294.681 77.543C294.389 77.6772 294.131 77.873 293.923 78.1168L290.664 75.8776L286.202 72.8112C285.961 72.6456 285.68 72.5464 285.389 72.5234C285.098 72.5005 284.805 72.5547 284.541 72.6806C284.278 72.8065 284.051 72.9996 283.886 73.2405C283.72 73.4815 283.621 73.7617 283.598 74.0532L283.174 79.4509L282.749 84.8487C282.726 85.1401 282.781 85.4325 282.906 85.6963C283.032 85.9602 283.225 86.1862 283.466 86.3518C283.707 86.5174 283.988 86.6166 284.279 86.6395C284.57 86.6624 284.863 86.6082 285.127 86.4824L290.013 84.1511L294.029 82.2355C294.235 82.4449 294.481 82.6111 294.753 82.7245C295.024 82.838 295.315 82.8964 295.609 82.8964C295.904 82.8964 296.195 82.838 296.466 82.7245C296.737 82.6111 296.984 82.4449 297.19 82.2355L301.205 84.1511L306.092 86.4824C306.356 86.6082 306.648 86.6624 306.94 86.6395C307.231 86.6166 307.512 86.5174 307.753 86.3518C307.993 86.1863 308.187 85.9602 308.312 85.6963C308.438 85.4325 308.493 85.1401 308.47 84.8487V84.8487Z" fill="#21295C"/>
<path d="M290.588 48.7477C291.143 48.7477 291.592 48.298 291.592 47.7434C291.592 47.1887 291.143 46.7391 290.588 46.7391C290.033 46.7391 289.584 47.1887 289.584 47.7434C289.584 48.298 290.033 48.7477 290.588 48.7477Z" fill="#E6E6E6"/>
<path d="M301.3 48.7477C301.855 48.7477 302.305 48.298 302.305 47.7434C302.305 47.1887 301.855 46.7391 301.3 46.7391C300.746 46.7391 300.296 47.1887 300.296 47.7434C300.296 48.298 300.746 48.7477 301.3 48.7477Z" fill="#E6E6E6"/>
<path d="M101.626 105.817C101.871 105.821 102.115 105.824 102.363 105.824C102.611 105.824 102.855 105.821 103.099 105.817C116.055 105.523 125.445 97.4281 123.055 88.9351L117.227 68.2164L115.754 62.9739L89.6418 63.4192L88.055 68.5478L81.8082 88.7342C79.1636 97.2741 88.5538 105.523 101.626 105.817Z" fill="#3F3D56"/>
<path opacity="0.2" d="M88.0549 68.5478C92.5072 71.0928 97.5578 72.4038 102.686 72.3456C107.814 72.2873 112.833 70.8619 117.227 68.2164L115.754 62.9739L89.6417 63.4192L88.0549 68.5478Z" fill="black"/>
<path d="M85.9855 87.1669C83.1671 83.85 77.2214 79.9551 64.6957 77.7953C42.85 74.0268 48.5344 60.7552 48.7866 60.1924C49.3157 59.0121 48.7806 58.2213 47.58 58.433C46.9043 58.6018 46.2725 58.9131 45.7269 59.3461C45.1814 59.7791 44.7347 60.3237 44.4168 60.9434C44.094 61.6335 36.8013 77.8836 61.4516 82.1341C83.6368 85.9611 83.7159 95.278 83.7101 95.3706C83.651 96.399 84.6757 96.7143 86.0012 96.0761C87.3267 95.4378 88.4502 94.0868 88.5111 93.0586C88.5234 92.8413 88.6097 90.2545 85.9855 87.1669Z" fill="#3F3D56"/>
<path d="M114.415 108.837C114.81 108.837 115.202 108.759 115.568 108.608C115.933 108.456 116.265 108.234 116.545 107.955C116.825 107.675 117.047 107.343 117.198 106.977C117.349 106.612 117.427 106.22 117.427 105.824V92.7682C117.426 91.9698 117.109 91.2043 116.544 90.6401C115.979 90.0758 115.213 89.7589 114.415 89.7589C113.616 89.7589 112.85 90.0758 112.285 90.6401C111.72 91.2043 111.403 91.9698 111.402 92.7682V105.824C111.402 106.22 111.48 106.612 111.631 106.977C111.782 107.343 112.004 107.675 112.284 107.955C112.564 108.234 112.896 108.456 113.262 108.608C113.627 108.759 114.019 108.837 114.415 108.837V108.837Z" fill="#3F3D56"/>
<path d="M111.773 77.8417C111.938 78.2011 112.173 78.5245 112.463 78.7933C112.753 79.0621 113.094 79.2711 113.465 79.4083C113.836 79.5455 114.231 79.6083 114.626 79.5931C115.021 79.5778 115.41 79.4849 115.769 79.3195L127.63 73.8625C127.99 73.6974 128.314 73.463 128.583 73.1726C128.852 72.8823 129.061 72.5418 129.199 72.1705C129.336 71.7992 129.399 71.4045 129.384 71.0088C129.369 70.6132 129.276 70.2244 129.111 69.8647C128.945 69.5051 128.71 69.1815 128.42 68.9126C128.129 68.6437 127.788 68.4347 127.417 68.2976C127.046 68.1605 126.651 68.0979 126.255 68.1135C125.86 68.129 125.471 68.2224 125.111 68.3883L113.251 73.8453C112.891 74.0106 112.568 74.2452 112.299 74.5355C112.03 74.8259 111.821 75.1663 111.684 75.5374C111.547 75.9085 111.484 76.303 111.499 76.6984C111.514 77.0938 111.607 77.4823 111.773 77.8417V77.8417Z" fill="#3F3D56"/>
<path d="M92.9529 77.8417C92.7875 78.2011 92.553 78.5245 92.2627 78.7933C91.9723 79.0621 91.6319 79.2711 91.2608 79.4083C90.8897 79.5455 90.4952 79.6083 90.0998 79.5931C89.7044 79.5778 89.316 79.4849 88.9565 79.3195L77.0957 73.8625C76.7359 73.6974 76.4121 73.463 76.1429 73.1726C75.8737 72.8823 75.6643 72.5418 75.5268 72.1705C75.3893 71.7992 75.3263 71.4045 75.3414 71.0088C75.3566 70.6132 75.4495 70.2244 75.615 69.8647C75.7805 69.5051 76.0153 69.1815 76.3059 68.9126C76.5965 68.6437 76.9372 68.4347 77.3087 68.2976C77.6801 68.1605 78.0749 68.0979 78.4705 68.1135C78.8661 68.129 79.2548 68.2224 79.6143 68.3883L91.4751 73.8453C91.8346 74.0106 92.1579 74.2452 92.4267 74.5355C92.6955 74.8259 92.9045 75.1663 93.0417 75.5374C93.179 75.9085 93.2417 76.303 93.2265 76.6984C93.2113 77.0938 93.1183 77.4823 92.9529 77.8417Z" fill="#3F3D56"/>
<path d="M90.3112 108.837C89.9156 108.837 89.5238 108.759 89.1582 108.608C88.7927 108.456 88.4605 108.234 88.1808 107.955C87.901 107.675 87.6791 107.343 87.5277 106.977C87.3763 106.612 87.2983 106.22 87.2983 105.824V92.7682C87.2993 91.9698 87.6171 91.2043 88.1821 90.6401C88.747 90.0758 89.5128 89.7589 90.3112 89.7589C91.1097 89.7589 91.8755 90.0758 92.4404 90.6401C93.0053 91.2043 93.3232 91.9698 93.3241 92.7682V105.824C93.3241 106.22 93.2462 106.612 93.0948 106.977C92.9434 107.343 92.7215 107.675 92.4417 107.955C92.1619 108.234 91.8298 108.456 91.4642 108.608C91.0987 108.759 90.7069 108.837 90.3112 108.837V108.837Z" fill="#3F3D56"/>
<path d="M126.468 23.471C126.642 22.9867 126.687 22.4657 126.599 21.9587L124.96 12.3122L123.32 2.66569C123.231 2.14485 123.007 1.65648 122.67 1.24969C122.333 0.842894 121.895 0.532004 121.399 0.348257C120.904 0.16451 120.369 0.114381 119.848 0.202917C119.327 0.291453 118.839 0.515534 118.432 0.85263L110.898 7.09596L106.526 10.7192C103.484 10.2724 100.39 10.319 97.3624 10.8573L92.8233 7.09595L85.2891 0.852617C84.8823 0.51552 84.394 0.291441 83.8731 0.202904C83.3523 0.114367 82.8173 0.16449 82.322 0.348237C81.8266 0.531984 81.3884 0.84288 81.0513 1.24968C80.7142 1.65647 80.4901 2.14483 80.4016 2.66568L78.7618 12.3122L77.122 21.9587C77.0496 22.3711 77.0655 22.7942 77.1686 23.2001C77.2717 23.606 77.4596 23.9854 77.72 24.3133C75.0569 28.7169 73.6227 33.7537 73.5665 38.8995C73.5104 44.0454 74.8344 49.1123 77.4007 53.5729C79.967 58.0335 83.6819 61.7249 88.1588 64.2628C92.6356 66.8006 97.7108 68.0924 102.856 68.0034C108.002 67.9145 113.029 66.4483 117.416 63.7572C121.802 61.0662 125.387 57.2487 127.798 52.7021C130.209 48.1555 131.357 43.0459 131.123 37.9051C130.889 32.7642 129.282 27.78 126.468 23.471H126.468Z" fill="#3F3D56"/>
<path d="M118.242 5.15034L109.105 12.7213L109.105 12.7217C108.904 12.8885 108.75 13.1055 108.659 13.3507C108.568 13.5959 108.543 13.8607 108.587 14.1186C108.631 14.3764 108.742 14.6181 108.909 14.8195C109.075 15.0209 109.292 15.1748 109.538 15.2658L120.663 19.3928C120.908 19.4838 121.173 19.5086 121.431 19.4648C121.689 19.421 121.93 19.31 122.132 19.1431C122.333 18.9763 122.487 18.7593 122.578 18.5141C122.669 18.2688 122.694 18.004 122.65 17.7461L120.662 6.0479C120.619 5.78945 120.509 5.54694 120.342 5.3453C120.174 5.14366 119.957 4.99016 119.711 4.90057C119.543 4.83802 119.366 4.80586 119.187 4.8056C118.842 4.80625 118.507 4.92825 118.242 5.15034V5.15034Z" fill="#E6E6E6"/>
<path d="M84.0109 4.90057C83.7648 4.99016 83.5469 5.14366 83.3798 5.3453C83.2127 5.54694 83.1022 5.78945 83.0598 6.0479L81.0714 17.7461C81.0275 18.004 81.0524 18.2688 81.1433 18.5141C81.2343 18.7593 81.3882 18.9763 81.5897 19.1431C81.7911 19.31 82.0329 19.421 82.2907 19.4648C82.5486 19.5086 82.8135 19.4838 83.0587 19.3928L94.1838 15.2658C94.429 15.1748 94.6459 15.0209 94.8128 14.8195C94.9797 14.6181 95.0906 14.3764 95.1344 14.1186C95.1783 13.8607 95.1535 13.5959 95.0625 13.3507C94.9716 13.1055 94.8177 12.8885 94.6163 12.7217L85.4797 5.15034C85.2146 4.92825 84.8799 4.80625 84.5341 4.8056C84.3554 4.80586 84.1782 4.83802 84.0109 4.90057Z" fill="#E6E6E6"/>
<path d="M102.363 47.2399C104.582 47.2399 106.38 45.4413 106.38 43.2227C106.38 41.0041 104.582 39.2055 102.363 39.2055C100.144 39.2055 98.3457 41.0041 98.3457 43.2227C98.3457 45.4413 100.144 47.2399 102.363 47.2399Z" fill="#E6E6E6"/>
<path d="M102.363 42.2184C103.842 42.2184 105.041 41.7688 105.041 41.2141C105.041 40.6595 103.842 40.2098 102.363 40.2098C100.884 40.2098 99.6847 40.6595 99.6847 41.2141C99.6847 41.7688 100.884 42.2184 102.363 42.2184Z" fill="#3F3D56"/>
<path d="M102.53 51.9267C102.288 51.9267 102.049 51.8791 101.826 51.7865C101.602 51.694 101.399 51.5584 101.228 51.3874C101.057 51.2164 100.922 51.0135 100.829 50.7901C100.737 50.5667 100.689 50.3273 100.689 50.0855V45.5661H104.371V50.0855C104.371 50.3273 104.324 50.5667 104.231 50.7901C104.139 51.0135 104.003 51.2164 103.832 51.3874C103.661 51.5584 103.458 51.694 103.235 51.7865C103.011 51.8791 102.772 51.9267 102.53 51.9267V51.9267Z" fill="#FF6584"/>
<path d="M102.139 0C102.332 0.400436 102.52 0.805202 102.696 1.21825C104.774 6.06354 105.475 11.3881 104.721 16.6059C104.344 16.059 103.948 15.4893 103.545 14.9133C104.408 9.90551 103.923 4.75831 102.139 0V0Z" fill="#3F3D56"/>
<path d="M99.1265 3.68243C99.3196 4.08287 99.507 4.48764 99.6834 4.90068C101.761 9.74598 102.462 15.0705 101.708 20.2883C101.331 19.7415 100.935 19.1717 100.532 18.5957C101.395 13.5879 100.91 8.44075 99.1265 3.68243V3.68243Z" fill="#3F3D56"/>
<path d="M89.8374 17.3918L90.2618 11.9941L90.6863 6.59634C90.7092 6.3049 90.8084 6.02462 90.974 5.78368C91.1396 5.54274 91.3656 5.34962 91.6295 5.22375C91.8933 5.09787 92.1857 5.04367 92.4771 5.06659C92.7686 5.08951 93.0489 5.18874 93.2898 5.35431L97.7522 8.42076L101.011 10.66C101.219 10.4161 101.478 10.2203 101.769 10.0861C102.06 9.95184 102.377 9.88232 102.698 9.88232C103.018 9.88232 103.335 9.95184 103.626 10.0861C103.918 10.2203 104.176 10.4161 104.384 10.66L107.643 8.42076L112.105 5.35431C112.346 5.18874 112.627 5.08951 112.918 5.06659C113.21 5.04367 113.502 5.09787 113.766 5.22375C114.03 5.34962 114.256 5.54274 114.421 5.78368C114.587 6.02462 114.686 6.3049 114.709 6.59634L115.133 11.9941L115.558 17.3918C115.581 17.6833 115.527 17.9756 115.401 18.2395C115.275 18.5033 115.082 18.7294 114.841 18.895C114.6 19.0605 114.319 19.1598 114.028 19.1827C113.737 19.2056 113.444 19.1514 113.18 19.0255L108.294 16.6942L104.278 14.7787C104.072 14.988 103.826 15.1542 103.554 15.2677C103.283 15.3812 102.992 15.4396 102.698 15.4396C102.403 15.4396 102.112 15.3812 101.841 15.2677C101.57 15.1542 101.323 14.988 101.117 14.7787L97.1016 16.6942L92.2148 19.0255C91.9509 19.1514 91.6586 19.2056 91.3671 19.1827C91.0757 19.1598 90.7954 19.0606 90.5545 18.895C90.3135 18.7294 90.1204 18.5033 89.9946 18.2395C89.8687 17.9756 89.8145 17.6833 89.8374 17.3918V17.3918Z" fill="#21295C"/>
<path d="M106.715 38.8707C106.715 39.4254 107.164 38.8707 107.719 38.8707C108.274 38.8707 108.723 39.4254 108.723 38.8707C108.723 38.6047 108.617 38.3498 108.429 38.1619C108.24 37.974 107.985 37.8685 107.719 37.8685C107.453 37.8685 107.198 37.974 107.01 38.1619C106.821 38.3498 106.715 38.6047 106.715 38.8707V38.8707Z" fill="#E6E6E6"/>
<path d="M98.0109 38.8707C98.0109 39.4254 97.5613 38.8707 97.0066 38.8707C96.452 38.8707 96.0023 39.4254 96.0023 38.8707C96.0029 38.6047 96.1089 38.3498 96.2972 38.1619C96.4855 37.974 96.7406 37.8685 97.0066 37.8685C97.2726 37.8685 97.5277 37.974 97.716 38.1619C97.9043 38.3498 98.0104 38.6047 98.0109 38.8707V38.8707Z" fill="#E6E6E6"/>
<path d="M224.995 108.315V172.551H256.914V108.315H224.995ZM250.53 166.168H231.379V114.699H250.53V166.168Z" fill="#04DE00"/>
<path d="M136.421 166.168V108.714H130.037V166.168V172.551H136.421H161.955V166.168H136.421Z" fill="#04DE00"/>
<path d="M209.435 114.699V108.315H177.516V108.714V114.699V166.168V172.551H183.9H209.435V166.168H183.9V114.699H209.435Z" fill="white"/>
<path d="M115.673 114.699V108.315H83.7548V108.714V114.699V137.042V143.426V166.168V172.551H90.1386H115.673V166.168H90.1386V143.426H115.673V137.042H90.1386V114.699H115.673Z" fill="white"/>
<path d="M365.437 114.699V108.315H333.519V108.714V114.699V137.042V143.426V166.168V172.551H339.902H365.437V166.168H339.902V143.426H365.437V137.042H339.902V114.699H365.437Z" fill="white"/>
<path d="M62.2096 108.714V161.474L45.3777 144.643L45.3394 144.682L45.3037 144.646L28.0966 161.853V108.515H21.7128V172.352H28.0966V170.881L45.3425 153.635L62.2096 170.503V172.551H68.5934V108.714H62.2096Z" fill="white"/>
<path d="M312.373 108.714V110.185L295.127 127.431L278.259 110.564V108.515H271.875V172.352H278.259V119.591L295.091 136.423L295.13 136.384L295.165 136.42L312.373 119.213V172.551H318.756V108.714H312.373Z" fill="white"/>
<path d="M145.882 69.389C148.046 69.389 149.8 67.6347 149.8 65.4707C149.8 63.3067 148.046 61.5524 145.882 61.5524C143.718 61.5524 141.964 63.3067 141.964 65.4707C141.964 67.6347 143.718 69.389 145.882 69.389Z" fill="#04DE00"/>
<path d="M49.2297 112.926C51.3938 112.926 53.1481 111.172 53.1481 109.008C53.1481 106.844 51.3938 105.089 49.2297 105.089C47.0657 105.089 45.3114 106.844 45.3114 109.008C45.3114 111.172 47.0657 112.926 49.2297 112.926Z" fill="#04DE00"/>
<path d="M126.726 200C128.89 200 130.644 198.246 130.644 196.082C130.644 193.918 128.89 192.163 126.726 192.163C124.562 192.163 122.807 193.918 122.807 196.082C122.807 198.246 124.562 200 126.726 200Z" fill="#04DE00"/>
<path d="M225.119 81.144C227.283 81.144 229.037 79.3897 229.037 77.2257C229.037 75.0617 227.283 73.3074 225.119 73.3074C222.955 73.3074 221.201 75.0617 221.201 77.2257C221.201 79.3897 222.955 81.144 225.119 81.144Z" fill="#04DE00"/>
<path d="M340.492 196.517C342.656 196.517 344.411 194.763 344.411 192.599C344.411 190.435 342.656 188.68 340.492 188.68C338.328 188.68 336.574 190.435 336.574 192.599C336.574 194.763 338.328 196.517 340.492 196.517Z" fill="#04DE00"/>
<path d="M344.411 93.7698C346.575 93.7698 348.329 92.0155 348.329 89.8514C348.329 87.6874 346.575 85.9331 344.411 85.9331C342.246 85.9331 340.492 87.6874 340.492 89.8514C340.492 92.0155 342.246 93.7698 344.411 93.7698Z" fill="#04DE00"/>
<path d="M294.778 164.3C296.942 164.3 298.697 162.545 298.697 160.381C298.697 158.217 296.942 156.463 294.778 156.463C292.614 156.463 290.86 158.217 290.86 160.381C290.86 162.545 292.614 164.3 294.778 164.3Z" fill="#04DE00"/>
</g>
<defs>
<clipPath id="clip0_497_389">
<rect width="387.077" height="200" fill="white"/>
</clipPath>
</defs>
</svg>
