<svg width="50" height="50" viewBox="0 0 50 50" fill="none" xmlns="http://www.w3.org/2000/svg">
<path fill-rule="evenodd" clip-rule="evenodd" d="M50 25C50 11.1942 38.8058 0 25 0C11.1942 0 0 11.1942 0 25C0 37.4777 9.14063 47.8203 21.0937 49.6975V32.2288H14.7444V25H21.0937V19.4922C21.0937 13.2277 24.827 9.76451 30.5368 9.76451C33.2723 9.76451 36.1339 10.2533 36.1339 10.2533V16.4062H32.9799C29.8761 16.4062 28.9051 18.3326 28.9051 20.3125V25H35.8382L34.731 32.2288H28.9062V49.6998C40.8594 47.8237 50 37.481 50 25V25Z" fill="#21295C"/>
</svg>
