<svg width="50" height="50" viewBox="0 0 50 50" fill="none" xmlns="http://www.w3.org/2000/svg">
<path d="M25 0C11.1938 0 0 11.1938 0 25C0 38.8062 11.1938 50 25 50C38.8062 50 50 38.8062 50 25C50 11.1938 38.8062 0 25 0ZM15.6169 11.2549C17.3706 11.2549 18.5384 12.4268 18.5384 13.9852C18.5384 15.5436 17.3706 16.7114 15.4215 16.7114C13.6678 16.7114 12.5 15.5436 12.5 13.9852C12.5 12.4268 13.6678 11.2549 15.6169 11.2549ZM18.75 35.4167H12.5V18.75H18.75V35.4167ZM39.5833 35.4167H33.6995V26.3102C33.6995 23.7915 32.133 23.2096 31.543 23.2096C30.957 23.2096 28.9958 23.5962 28.9958 26.3102C28.9958 26.6968 28.9958 35.4167 28.9958 35.4167H22.9167V18.75H28.9958V21.0734C29.7811 19.7184 31.3477 18.75 34.2895 18.75C37.2314 18.75 39.5833 21.0734 39.5833 26.3102V35.4167Z" fill="#21295C"/>
</svg>
