<svg width="35" height="27" viewBox="0 0 35 27" fill="none" xmlns="http://www.w3.org/2000/svg">
<path d="M9.1 25C8.23333 26.0667 7.3 26.6667 6.3 26.8C5.36667 26.9333 4.53333 26.7667 3.8 26.3C3.06667 25.7667 2.66667 25.0333 2.6 24.1C2.53333 23.1 2.96667 22.0333 3.9 20.9C5.23333 19.2333 6.13333 17.5667 6.6 15.9C7.06667 14.2333 7.3 12.7667 7.3 11.5L7.8 14.8C5.46667 14.8 3.56667 14.1333 2.1 12.8C0.7 11.4667 7.45058e-08 9.66666 7.45058e-08 7.4C7.45058e-08 5.2 0.666667 3.43333 2 2.1C3.33333 0.699997 5.13333 -3.8147e-06 7.4 -3.8147e-06C9.73333 -3.8147e-06 11.5667 0.799996 12.9 2.4C14.2333 3.93333 14.9 6.16666 14.9 9.1C14.9 10.7 14.7333 12.3667 14.4 14.1C14.1333 15.7667 13.5667 17.5333 12.7 19.4C11.9 21.2 10.7 23.0667 9.1 25ZM28.6 25C27.7333 26.0667 26.8 26.6667 25.8 26.8C24.8667 26.9333 24.0333 26.7667 23.3 26.3C22.5667 25.7667 22.1667 25.0333 22.1 24.1C22.0333 23.1 22.4667 22.0333 23.4 20.9C24.7333 19.2333 25.6333 17.5667 26.1 15.9C26.5667 14.2333 26.8 12.7667 26.8 11.5L27.3 14.8C24.9667 14.8 23.0667 14.1333 21.6 12.8C20.2 11.4667 19.5 9.66666 19.5 7.4C19.5 5.2 20.1667 3.43333 21.5 2.1C22.8333 0.699997 24.6333 -3.8147e-06 26.9 -3.8147e-06C29.2333 -3.8147e-06 31.0667 0.799996 32.4 2.4C33.7333 3.93333 34.4 6.16666 34.4 9.1C34.4 10.7 34.2333 12.3667 33.9 14.1C33.6333 15.7667 33.0667 17.5333 32.2 19.4C31.4 21.2 30.2 23.0667 28.6 25Z" fill="#21295C" fill-opacity="0.2"/>
</svg>
