<svg width="25" height="25" viewBox="0 0 25 25" fill="none" xmlns="http://www.w3.org/2000/svg">
<circle cx="12" cy="12" r="10" fill="#D9D9D9"/>
<path fill-rule="evenodd" clip-rule="evenodd" d="M0 12.5C0 5.60742 5.60742 0 12.5 0C19.3926 0 25 5.60742 25 12.5C25 19.3926 19.3926 25 12.5 25C5.60742 25 0 19.3926 0 12.5ZM17.7083 18.7495C17.9845 18.7495 18.2493 18.6399 18.4447 18.4447C18.6399 18.2493 18.7495 17.9845 18.7495 17.7083C18.7495 17.4322 18.6399 17.1673 18.4447 16.972L15.6562 14.1829C16.4671 13.0047 16.8083 11.5659 16.6129 10.149C16.4175 8.73212 15.6997 7.43938 14.6003 6.52448C13.5009 5.60957 12.0993 5.13856 10.6704 5.20386C9.24164 5.26916 7.88882 5.86607 6.87744 6.87744C5.86607 7.88882 5.26916 9.24164 5.20386 10.6704C5.13856 12.0993 5.60957 13.5009 6.52448 14.6003C7.43938 15.6997 8.73212 16.4175 10.149 16.6129C11.5659 16.8083 13.0047 16.4671 14.1829 15.6562L16.972 18.4447C17.1673 18.6399 17.4322 18.7495 17.7083 18.7495ZM14.5833 10.9375C14.5833 12.951 12.951 14.5833 10.9375 14.5833C8.92396 14.5833 7.29167 12.951 7.29167 10.9375C7.29167 8.92396 8.92396 7.29167 10.9375 7.29167C12.951 7.29167 14.5833 8.92396 14.5833 10.9375Z" fill="#21295C"/>
</svg>
