<svg width="25" height="25" viewBox="0 0 25 25" fill="none" xmlns="http://www.w3.org/2000/svg">
<rect width="25" height="25" rx="12.5" fill="#21295C"/>
<path d="M16.7123 15.2156C16.4013 15.2155 16.0936 15.2784 15.8076 15.4006C15.5216 15.5227 15.2634 15.7016 15.0485 15.9263L9.70928 12.9223C9.8127 12.5339 9.8127 12.1252 9.70928 11.7368L15.0485 8.73281C15.4373 9.13589 15.9597 9.3834 16.5179 9.42895C17.0761 9.4745 17.6317 9.31498 18.0807 8.98026C18.5297 8.64554 18.8413 8.1586 18.957 7.61066C19.0728 7.06271 18.9848 6.49136 18.7095 6.00364C18.4342 5.51593 17.9906 5.14531 17.4617 4.96121C16.9328 4.77712 16.3549 4.79219 15.8363 5.0036C15.3177 5.21501 14.8939 5.60824 14.6445 6.10965C14.395 6.61105 14.3369 7.18621 14.481 7.72737L9.14181 10.7314C8.82288 10.3989 8.41175 10.1694 7.96132 10.0724C7.51088 9.97545 7.04173 10.0155 6.61424 10.1874C6.18674 10.3592 5.82044 10.6551 5.56246 11.0368C5.30448 11.4186 5.16663 11.8688 5.16663 12.3296C5.16663 12.7903 5.30448 13.2405 5.56246 13.6223C5.82044 14.0041 6.18674 14.2999 6.61424 14.4718C7.04173 14.6436 7.51088 14.6837 7.96132 14.5867C8.41175 14.4898 8.82288 14.2602 9.14181 13.9277L14.481 16.9317C14.3572 17.3978 14.3825 17.8909 14.5532 18.3419C14.7239 18.7929 15.0315 19.1791 15.4329 19.4463C15.8343 19.7136 16.3093 19.8484 16.7912 19.832C17.2732 19.8155 17.7379 19.6486 18.1201 19.3546C18.5023 19.0606 18.7829 18.6543 18.9225 18.1928C19.0621 17.7312 19.0536 17.2375 18.8984 16.781C18.7431 16.3245 18.4488 15.928 18.0567 15.6473C17.6646 15.3665 17.1945 15.2156 16.7123 15.2156Z" fill="white"/>
</svg>
