<svg width="50" height="50" viewBox="0 0 50 50" fill="none" xmlns="http://www.w3.org/2000/svg">
<path fill-rule="evenodd" clip-rule="evenodd" d="M25 50C38.8071 50 50 38.8071 50 25C50 11.1929 38.8071 0 25 0C11.1929 0 0 11.1929 0 25C0 38.8071 11.1929 50 25 50ZM36.8802 18.1439C38.034 18.0065 39.1615 17.7014 40.2272 17.2384C39.4423 18.3937 38.4576 19.3998 37.3194 20.2095C37.3312 20.4521 37.3377 20.7007 37.3377 20.9493C37.3377 28.5309 31.4737 37.2726 20.7398 37.2726C17.579 37.2812 14.4822 36.3814 11.8182 34.6803C12.2798 34.7348 12.7442 34.7625 13.209 34.7632C15.8278 34.7695 18.3744 33.9055 20.4486 32.307C17.8959 32.2596 15.741 30.6024 15.0006 28.3238C15.3614 28.3953 15.7283 28.431 16.0961 28.4303C16.6144 28.4302 17.1305 28.3626 17.6314 28.2291C14.968 27.7023 12.9557 25.3882 12.9557 22.6065V22.5355C13.7687 22.9839 14.6779 23.2296 15.606 23.2516C14.0394 22.2218 13.0019 20.464 13.0019 18.4753C13.0032 17.4609 13.2769 16.4655 13.7944 15.593C15.2696 17.3734 17.1001 18.8263 19.169 19.8586C21.2379 20.891 23.4994 21.4802 25.809 21.5885C25.7069 21.16 25.6564 20.7209 25.6587 20.2805C25.6587 17.1141 28.2652 14.5454 31.4861 14.5454C32.2816 14.544 33.0691 14.7043 33.8008 15.0166C34.5324 15.329 35.1929 15.7869 35.7421 16.3624C37.0463 16.1122 38.2984 15.6419 39.4448 14.9716C39.0046 16.3059 38.0928 17.4339 36.8802 18.1439Z" fill="#21295C"/>
</svg>
