<svg width="50" height="50" viewBox="0 0 50 50" fill="none" xmlns="http://www.w3.org/2000/svg">
<path fill-rule="evenodd" clip-rule="evenodd" d="M25 50C38.8071 50 50 38.8071 50 25C50 11.1929 38.8071 0 25 0C11.1929 0 0 11.1929 0 25C0 38.8071 11.1929 50 25 50ZM35.7241 13.8488C38.1447 13.8488 40.1037 15.9913 40.1037 18.6546C40.2458 20.7655 40.3101 22.8744 40.2966 24.9813C40.3026 27.0942 40.2375 29.2012 40.0954 31.314C40.0954 33.9773 38.1364 36.1375 35.7158 36.1375C32.2674 36.2993 28.7439 36.3743 25.1455 36.3624C21.5531 36.3683 18.0198 36.2973 14.5753 36.1375C12.1606 36.1375 10.2016 33.9773 10.2016 31.314C10.0615 29.2031 9.99444 27.0942 10.0004 24.9873C9.99681 22.8803 10.0595 20.7733 10.2075 18.667C10.2075 16.0037 12.1665 13.8494 14.5812 13.8494C17.86 13.6955 21.2098 13.6364 24.6188 13.6364H25.6841C29.1014 13.6364 32.4453 13.6955 35.7241 13.8488ZM22.2514 19.1635V30.7932L30.8331 24.9754L22.2514 19.1635Z" fill="#21295C"/>
</svg>
