<svg width="33" height="32" viewBox="0 0 33 32" fill="none" xmlns="http://www.w3.org/2000/svg">
<path d="M29.2878 6.3125H23.9441V5.125C23.9402 4.0239 23.501 2.96901 22.7224 2.19041C21.9438 1.41181 20.8889 0.972662 19.7878 0.96875H12.6628C11.5617 0.972662 10.5069 1.41181 9.72825 2.19041C8.94965 2.96901 8.5105 4.0239 8.50659 5.125V6.3125H3.16284C2.37668 6.3164 1.62383 6.63043 1.06793 7.18634C0.512024 7.74224 0.197993 8.49509 0.194092 9.28125V28.2812C0.197993 29.0674 0.512024 29.8203 1.06793 30.3762C1.62383 30.9321 2.37668 31.2461 3.16284 31.25H29.2878C30.074 31.2461 30.8268 30.9321 31.3828 30.3762C31.9387 29.8203 32.2527 29.0674 32.2566 28.2812V9.28125C32.2527 8.49509 31.9387 7.74224 31.3828 7.18634C30.8268 6.63043 30.074 6.3164 29.2878 6.3125ZM12.0691 5.125C12.0691 4.96753 12.1316 4.81651 12.243 4.70516C12.3543 4.59381 12.5054 4.53125 12.6628 4.53125H19.7878C19.9453 4.53125 20.0963 4.59381 20.2077 4.70516C20.319 4.81651 20.3816 4.96753 20.3816 5.125V6.3125H12.0691V5.125ZM28.6941 9.875V15.1C24.8505 17.1272 20.5708 18.187 16.2253 18.1875C11.8802 18.1852 7.60079 17.1256 3.75659 15.1V9.875H28.6941ZM3.75659 27.6875V19.0633C7.67452 20.8353 11.9253 21.7512 16.2253 21.75C20.5254 21.7512 24.7762 20.8353 28.6941 19.0633V27.6875H3.75659ZM12.6628 14.625C12.6628 14.1526 12.8505 13.6995 13.1846 13.3655C13.5186 13.0314 13.9717 12.8438 14.4441 12.8438H18.0066C18.479 12.8438 18.9321 13.0314 19.2661 13.3655C19.6002 13.6995 19.7878 14.1526 19.7878 14.625C19.7878 15.0974 19.6002 15.5505 19.2661 15.8845C18.9321 16.2186 18.479 16.4062 18.0066 16.4062H14.4441C13.9717 16.4062 13.5186 16.2186 13.1846 15.8845C12.8505 15.5505 12.6628 15.0974 12.6628 14.625Z" fill="#21295C"/>
</svg>
