<svg width="26" height="33" viewBox="0 0 26 33" fill="none" xmlns="http://www.w3.org/2000/svg">
<path d="M9.59533 10.4775C10.5193 10.4775 11.2618 9.73503 11.2618 8.81103C11.2618 7.88703 10.5193 7.14453 9.59533 7.14453C8.67133 7.14453 7.92883 7.88703 7.92883 8.81103C7.92883 9.73503 8.67133 10.4775 9.59533 10.4775Z" fill="#21295C"/>
<path fill-rule="evenodd" clip-rule="evenodd" d="M12.9449 14.1075C12.9449 12.3255 11.4434 11.0385 9.59539 11.0385C7.74739 11.0385 6.24589 12.3255 6.24589 14.1075V14.949C6.24589 15.0975 6.31189 15.246 6.41089 15.345C6.50989 15.444 6.65839 15.51 6.80689 15.51H12.3839C12.5324 15.51 12.6809 15.444 12.7799 15.345C12.8789 15.246 12.9449 15.0975 12.9449 14.949V14.1075ZM6.21289 18.975C6.21289 18.6468 6.34327 18.332 6.57535 18.1C6.80742 17.8679 7.12219 17.7375 7.45039 17.7375H19.0004C19.3286 17.7375 19.6434 17.8679 19.8754 18.1C20.1075 18.332 20.2379 18.6468 20.2379 18.975C20.2379 19.3032 20.1075 19.618 19.8754 19.8501C19.6434 20.0821 19.3286 20.2125 19.0004 20.2125H7.45039C7.12219 20.2125 6.80742 20.0821 6.57535 19.8501C6.34327 19.618 6.21289 19.3032 6.21289 18.975ZM6.21289 23.925C6.21289 23.5968 6.34327 23.282 6.57535 23.05C6.80742 22.8179 7.12219 22.6875 7.45039 22.6875H19.0004C19.3286 22.6875 19.6434 22.8179 19.8754 23.05C20.1075 23.282 20.2379 23.5968 20.2379 23.925C20.2379 24.2532 20.1075 24.568 19.8754 24.8001C19.6434 25.0321 19.3286 25.1625 19.0004 25.1625H7.45039C7.12219 25.1625 6.80742 25.0321 6.57535 24.8001C6.34327 24.568 6.21289 24.2532 6.21289 23.925Z" fill="#21295C"/>
<path fill-rule="evenodd" clip-rule="evenodd" d="M0.850342 4.12501C0.850342 2.30671 2.33204 0.825012 4.15034 0.825012H15.1888C16.1161 0.825012 16.9906 1.21771 17.6061 1.86616L17.616 1.87771L24.7308 9.63601C25.3231 10.268 25.6003 11.0946 25.6003 11.88V28.875C25.6003 30.6933 24.1186 32.175 22.3003 32.175H4.15034C2.33204 32.175 0.850342 30.6933 0.850342 28.875V4.12501ZM15.1872 4.12501H4.15034V28.875H22.3003V11.8668L15.2119 4.13656L15.207 4.13491C15.201 4.13055 15.1943 4.1272 15.1872 4.12501Z" fill="#21295C"/>
<path fill-rule="evenodd" clip-rule="evenodd" d="M15.1888 0.825012C15.6264 0.825012 16.0461 0.998851 16.3555 1.30829C16.665 1.61772 16.8388 2.03741 16.8388 2.47501V10.23H23.9503C24.167 10.23 24.3816 10.2727 24.5817 10.3556C24.7819 10.4385 24.9638 10.5601 25.1171 10.7133C25.2703 10.8665 25.3918 11.0484 25.4747 11.2486C25.5576 11.4488 25.6003 11.6633 25.6003 11.88C25.6003 12.0967 25.5576 12.3113 25.4747 12.5114C25.3918 12.7116 25.2703 12.8935 25.1171 13.0467C24.9638 13.2 24.7819 13.3215 24.5817 13.4044C24.3816 13.4873 24.167 13.53 23.9503 13.53H15.1888C14.7512 13.53 14.3315 13.3562 14.0221 13.0467C13.7127 12.7373 13.5388 12.3176 13.5388 11.88V2.47501C13.5388 2.03741 13.7127 1.61772 14.0221 1.30829C14.3315 0.998851 14.7512 0.825012 15.1888 0.825012Z" fill="#21295C"/>
</svg>
