<svg width="30" height="30" viewBox="0 0 30 30" fill="none" xmlns="http://www.w3.org/2000/svg">
<path d="M22.9753 18.625H6.47534L0.975342 24.125V2.125C0.975342 1.76033 1.12021 1.41059 1.37807 1.15273C1.63593 0.894866 1.98567 0.75 2.35034 0.75H22.9753C23.34 0.75 23.6898 0.894866 23.9476 1.15273C24.2055 1.41059 24.3503 1.76033 24.3503 2.125V17.25C24.3503 17.6147 24.2055 17.9644 23.9476 18.2223C23.6898 18.4801 23.34 18.625 22.9753 18.625ZM29.8503 10.375V29.625L24.3503 24.125H9.22534C8.86067 24.125 8.51093 23.9801 8.25307 23.7223C7.99521 23.4644 7.85034 23.1147 7.85034 22.75V21.375H27.1003V9H28.4753C28.84 9 29.1898 9.14487 29.4476 9.40273C29.7055 9.66059 29.8503 10.0103 29.8503 10.375ZM9.48659 3.5C8.29034 3.5 7.32784 3.775 6.58534 4.31125C5.87034 4.875 5.51284 5.65875 5.52659 6.745L5.54034 6.78625H8.19409C8.20784 6.37375 8.33159 6.0575 8.57909 5.8375C8.83371 5.62636 9.1559 5.51408 9.48659 5.52125C9.91284 5.52125 10.2703 5.65875 10.5178 5.90625C10.7653 6.1675 10.8753 6.525 10.8753 6.9375C10.8753 7.3775 10.7791 7.74875 10.5591 8.065C10.3666 8.38125 10.0778 8.65625 9.72034 8.87625C9.01909 9.34375 8.53784 9.75625 8.27659 10.1275C8.00159 10.485 7.85034 11.0625 7.85034 11.75H10.6003C10.6003 11.3237 10.6553 10.98 10.7791 10.7325C10.9028 10.485 11.1366 10.2375 11.4803 10.0175C12.0991 9.6875 12.6078 9.28875 13.0066 8.73875C13.4053 8.18875 13.6116 7.625 13.6116 6.9375C13.6116 5.8925 13.2403 5.05375 12.4978 4.435C11.7691 3.81625 10.7653 3.5 9.48659 3.5ZM7.85034 13.125V15.875H10.6003V13.125H7.85034ZM16.1003 15.875H18.8503V13.125H16.1003V15.875ZM16.1003 3.5V11.75H18.8503V3.5H16.1003Z" fill="#21295C"/>
</svg>
