<svg width="29" height="33" viewBox="0 0 29 33" fill="none" xmlns="http://www.w3.org/2000/svg">
<path d="M20.9753 10.3125H12.7253V8.25H20.9753V10.3125ZM12.7253 16.5H20.9753V18.5625H12.7253V16.5ZM14.8362 30.9375L16.8987 33H0.350342V0H25.1003V20.6733L23.0378 22.7358V2.0625H2.41284V30.9375H14.8362ZM11.3879 6.9126L7.56909 10.7314L4.78149 7.94385L6.23169 6.49365L7.56909 7.83105L9.93774 5.4624L11.3879 6.9126ZM11.3879 15.1626L7.56909 18.9814L4.78149 16.1938L6.23169 14.7437L7.56909 16.0811L9.93774 13.7124L11.3879 15.1626ZM7.56909 24.3311L9.93774 21.9624L11.3879 23.4126L7.56909 27.2314L4.78149 24.4438L6.23169 22.9937L7.56909 24.3311ZM28.9192 23.4126L19.9441 32.4038L15.6096 28.0532L17.0598 26.603L19.9441 29.4712L27.469 21.9624L28.9192 23.4126Z" fill="#21295C"/>
</svg>
