<svg width="31" height="25" viewBox="0 0 31 25" fill="none" xmlns="http://www.w3.org/2000/svg">
<path d="M28.1003 0.125H3.35034C2.621 0.125 1.92152 0.414731 1.4058 0.930456C0.890073 1.44618 0.600342 2.14565 0.600342 2.875V7H3.35034V2.875H28.1003V22.125H18.4753V24.875H28.1003C28.8297 24.875 29.5292 24.5853 30.0449 24.0695C30.5606 23.5538 30.8503 22.8543 30.8503 22.125V2.875C30.8503 2.14565 30.5606 1.44618 30.0449 0.930456C29.5292 0.414731 28.8297 0.125 28.1003 0.125ZM0.600342 20.75V24.875H4.72534C4.72534 23.781 4.29074 22.7318 3.51716 21.9582C2.74357 21.1846 1.69436 20.75 0.600342 20.75ZM0.600342 15.25V18C1.50318 18 2.39718 18.1778 3.23129 18.5233C4.0654 18.8688 4.8233 19.3752 5.4617 20.0136C6.1001 20.652 6.60651 21.4099 6.95201 22.2441C7.29751 23.0782 7.47534 23.9722 7.47534 24.875H10.2253C10.2253 22.3223 9.21128 19.8741 7.40624 18.0691C5.60121 16.2641 3.15305 15.25 0.600342 15.25ZM0.600342 9.75V12.5C2.22545 12.5 3.83465 12.8201 5.33605 13.442C6.83745 14.0639 8.20166 14.9754 9.35079 16.1246C10.4999 17.2737 11.4114 18.6379 12.0334 20.1393C12.6553 21.6407 12.9753 23.2499 12.9753 24.875H15.7253C15.7253 16.515 8.94659 9.75 0.600342 9.75ZM14.3503 11.2488V13.9988L19.1628 16.625L23.9753 13.9988V11.2488L19.1628 13.875L14.3503 11.2488ZM19.1628 4.25L11.6003 8.375L19.1628 12.5L26.7253 8.375L19.1628 4.25Z" fill="#21295C"/>
</svg>
