<svg width="32" height="31" viewBox="0 0 32 31" fill="none" xmlns="http://www.w3.org/2000/svg">
<path d="M26.4128 0C25.5012 0 24.6268 0.362164 23.9822 1.00682C23.3375 1.65148 22.9753 2.52582 22.9753 3.4375V4.125C22.6107 4.125 22.2609 4.26987 22.0031 4.52773C21.7452 4.78559 21.6003 5.13533 21.6003 5.5V11C21.6003 11.3647 21.7452 11.7144 22.0031 11.9723C22.2609 12.2301 22.6107 12.375 22.9753 12.375H29.8503C30.215 12.375 30.5648 12.2301 30.8226 11.9723C31.0805 11.7144 31.2253 11.3647 31.2253 11V5.5C31.2253 5.13533 31.0805 4.78559 30.8226 4.52773C30.5648 4.26987 30.215 4.125 29.8503 4.125V3.4375C29.8503 2.52582 29.4882 1.65148 28.8435 1.00682C28.1989 0.362164 27.3245 0 26.4128 0M26.4128 1.375C26.9599 1.375 27.4845 1.5923 27.8712 1.97909C28.258 2.36589 28.4753 2.89049 28.4753 3.4375V4.125H24.3503V3.4375C24.3503 2.89049 24.5676 2.36589 24.9544 1.97909C25.3412 1.5923 25.8658 1.375 26.4128 1.375ZM3.72534 2.75C2.996 2.75 2.29652 3.03973 1.7808 3.55546C1.26507 4.07118 0.975342 4.77065 0.975342 5.5V30.25L6.47534 24.75H25.7253C26.4547 24.75 27.1542 24.4603 27.6699 23.9445C28.1856 23.4288 28.4753 22.7293 28.4753 22V15.125H21.6003C20.0741 15.125 18.8503 13.9012 18.8503 12.375V2.75H3.72534ZM6.47534 8.25H16.1003V11H6.47534V8.25ZM6.47534 12.375H16.1003V15.125H6.47534V12.375ZM6.47534 16.5H17.4753V19.25H6.47534V16.5Z" fill="#21295C"/>
</svg>
